<svg xmlns="http://www.w3.org/2000/svg" width="117" height="20" viewBox="0 0 117 20">
  <g fill="#C6074C" transform="translate(.778 .18)">
    <path d="M7.1914836 0L7.24276364 0C8.70316133 1.92697381 10.2162836 3.81494591 11.7084604 5.71736308 14.0774537 5.1511159 16.4103343 4.43897341 18.7721051 3.84094705 17.4279903 5.86614741 16.0585966 7.87545819 14.7144818 9.90138081 16.0195949 11.9569158 17.3694877 13.9850052 18.6941016 16.0297064 16.3511095 15.3897893 14.0225624 14.6964255 11.6839038 14.041341 10.1296131 15.90909 8.62732466 17.822341 7.10625762 19.7175356L7.0672559 19.7175356C7.0123646 17.3557649 6.89608169 14.9961609 6.82168953 12.6358346 6.84696842 12.4552711 6.7010731 12.3613781 6.55228876 12.3108203 4.35808095 11.5134519 2.1927633 10.6366354 0 9.83421118L0 9.78220889C2.28376731 8.98845168 4.54803377 8.13113612 6.81663375 7.29332142 7.00153078 4.86727006 7.08025648 2.43110714 7.1914836 0L7.1914836 0zM8.99784099 5.63358161C8.93717165 6.68157224 8.87939132 7.72956287 8.83966735 8.77899801 7.86173536 9.12279094 6.88452563 9.47669542 5.92103872 9.85732331 6.88597014 10.2393957 7.86245761 10.5904112 8.82811128 10.9717613 8.85339017 12.0110849 8.91911529 13.048964 8.93283812 14.0882875 9.64064709 13.3205315 10.2408402 12.4581602 10.9204813 11.6644029 11.9294702 11.9525823 12.9391813 12.2422062 13.9467258 12.5361636 13.3739783 11.6535691 12.7824522 10.783253 12.2299279 9.88765798 12.8041198 9.02889791 13.3725338 8.16580432 13.9395032 7.30271072 12.9261808 7.51722018 11.9439153 7.88918101 10.9262593 8.07480031 10.2682859 7.27526507 9.65364767 6.43600586 8.99784099 5.63358161zM60.2663226 1.52612281C60.6303387 2.00642176 61.0001328 2.48238718 61.3822052 2.94824104 61.9672309 2.81317953 62.5378116 2.62467123 63.1199484 2.48166492 62.7949341 2.985076 62.4533079 3.47837552 62.1210711 3.97745307 62.4121394 4.49314246 62.7920451 4.95538505 63.0607236 5.48335277 62.4944764 5.347569 61.941952 5.1590607 61.3793161 5.01027636 60.9690758 5.46168514 60.6238384 5.96798524 60.2150426 6.42083853 60.2107091 5.82136766 60.2027643 5.22045229 60.1587068 4.62170368 59.6227943 4.35880321 59.0226012 4.23963129 58.5025782 3.94784065 59.0493246 3.72033062 59.6386839 3.58093559 60.1630403 3.31153483 60.233099 2.71928651 60.1940972 2.11909339 60.2663226 1.52612281zM100.557265 1.57306933C100.980506 1.9869209 101.262185 2.52933369 101.689037 2.93668498 102.272618 2.8247356 102.833087 2.61455967 103.412335 2.48022042 103.101044 2.99085403 102.72186 3.45743015 102.428625 3.97745307 102.688637 4.50686529 103.094543 4.95394055 103.361777 5.48190826 102.792641 5.36129183 102.243006 5.16628324 101.683259 5.01027636 101.262185 5.45374035 100.914781 5.95931819 100.514652 6.42011627 100.490095 5.81125611 100.509596 5.19878467 100.437371 4.59281352 99.9094031 4.38263759 99.320766 4.22085268 98.8368558 3.96734151 99.3070432 3.70371878 99.9440713 3.57949108 100.459761 3.32164639 100.518985 2.74023188 100.487929 2.15376158 100.557265 1.57306933zM26.1239291 3.67555087C26.6360072 3.58165785 27.1336402 3.4220397 27.6464406 3.3324802 28.6272616 6.34283509 29.6001378 9.356079 30.5809588 12.3671561 30.8424148 13.1695804 31.0692026 13.995839 31.493888 14.7310937 31.81818 15.2973408 32.565713 15.6512453 33.1846847 15.3529544 33.5328111 15.2056146 33.5335334 14.7693731 33.5559233 14.4479701 33.5710906 13.0496862 33.5595345 11.6514024 33.5617013 10.2531185 33.5479785 9.90499208 33.5602568 9.53664251 33.4071389 9.21523946 33.2265754 8.90683697 32.8271689 8.9205598 32.5158774 8.91333726 32.5151552 8.7696087 32.5165997 8.62588015 32.520211 8.48287385 33.3529699 8.1723046 34.169117 7.81695561 35.0047649 7.51577567 35.0119874 8.0466324 34.9888753 8.57821138 35.0170432 9.10834586 35.7248522 8.22647366 36.8096778 7.49194129 37.9891187 7.64794816 38.7937097 7.75556402 39.3758464 8.43231606 39.6401914 9.1610704 40.4252816 8.32108894 41.4581049 7.49338579 42.6844922 7.63711435 43.6068107 7.66961578 44.3500101 8.466262 44.4301803 9.3654683 44.6374672 11.2548849 44.3536214 13.1789697 44.5948542 15.058997 44.7458053 15.4612925 45.2391048 15.4779043 45.6009541 15.5089613 45.6009541 15.6765242 45.6031209 15.8448094 45.6067321 16.0130946 44.3897341 16.0304287 43.172736 16.0174281 41.9564602 16.0203171 41.9514044 15.8484207 41.9571824 15.6765242 41.9745165 15.5060723 42.4172582 15.5060723 43.03623 15.3630659 43.0225071 14.8033191 43.1164002 13.3147535 43.0441748 11.8196876 43.0643979 10.328233 43.0528418 9.68903811 42.9726716 8.82450001 42.2648626 8.57893364 41.2804304 8.3405898 40.3624455 9.04262074 39.7673081 9.75476323 39.7304732 11.2194945 39.7629746 12.6885592 39.7521408 14.1554572 39.7694749 14.5173065 39.7333622 14.9217687 39.9485939 15.235227 40.1883822 15.4620148 40.5415645 15.4714041 40.8514115 15.508239 40.8543005 15.6779687 40.8564672 15.8476984 40.8579117 16.0174281 39.6459694 16.0224839 38.4340271 16.0246507 37.2213626 16.0167059 37.2235294 15.8476984 37.2264184 15.678691 37.2293074 15.5096835 37.5232648 15.4714041 37.8482791 15.4576812 38.0902342 15.2648394 38.2967989 15.0199953 38.2910208 14.6747578 38.3083549 14.3721334 38.3090772 13.0244073 38.3105217 11.6774035 38.3076327 10.3296775 38.2852428 9.68976037 38.1884608 8.82522227 37.4806518 8.58615618 36.5121091 8.33842304 35.5630673 9.00723029 35.01921 9.75692999 34.9838195 11.1971046 35.0177655 12.6416127 35.0033204 14.083954 35.0148765 14.4328027 34.9924866 14.8025968 35.1354929 15.1290556 35.3211122 15.4692373 35.7515756 15.4735708 36.0895905 15.50535 36.093924 15.6765242 36.096813 15.8476984 36.099702 16.0188726 33.3811378 16.0232062 30.6625735 16.0203171 27.9440093 16.0203171 27.9367867 15.8346978 27.9367867 15.6490786 27.9447315 15.4634593 28.4091409 15.4013454 28.9659988 15.5320734 29.3437376 15.1846692 29.6275835 14.8878228 29.4852994 14.4443588 29.3935732 14.0969546 29.1126163 13.2598621 28.8439378 12.4191584 28.5795929 11.5770102 27.2000876 11.5654541 25.8198601 11.5647319 24.4410771 11.5777325 24.1658983 12.4646604 23.8026046 13.3263095 23.6112072 14.2377941 23.528148 14.5707533 23.6119295 14.9643817 23.8979421 15.1767244 24.2381237 15.4526255 24.6967551 15.420124 25.1062731 15.4735708 25.1069954 15.6541343 25.1077176 15.8354201 25.1084399 16.0167059 23.7209898 16.0253729 22.3328176 16.0210394 20.9446453 16.0188726 20.9367005 15.8383091 20.9388672 15.6570233 20.9504233 15.4771821 21.4567234 15.4526255 21.9478561 15.2251154 22.2634812 14.8235422 22.8340619 14.1085107 23.0312372 13.1934148 23.3201388 12.3454885 24.2641249 9.45936132 25.1575532 6.55517778 26.1239291 3.67555087L26.1239291 3.67555087zM26.2380452 6.11532506C26.2286559 6.12832564 26.2105996 6.15432678 26.2012103 6.16732735 25.7346341 7.71728455 25.1821098 9.24051835 24.7242007 10.7933646 25.9238647 10.8034761 27.1242509 10.8085319 28.3239149 10.7904755 28.1014607 9.93388224 27.764168 9.11267938 27.539547 8.25753058 27.527991 8.24597452 27.5063233 8.22358464 27.4947673 8.21275083 27.2130882 7.19870614 26.8375161 6.21210711 26.5406697 5.20167369 26.4084972 5.49490883 26.3174932 5.80475582 26.2380452 6.11532506zM108.681901 4.10456978C109.61722 3.8416693 110.559039 3.60260321 111.494358 3.34042499 111.50447 7.04197701 111.491469 10.743529 111.500858 14.4443588 111.52686 14.7274824 111.490747 15.0568302 111.679255 15.2922851 111.947211 15.4952384 112.308338 15.468515 112.627575 15.5075168 112.626852 15.675802 112.627575 15.8440871 112.631908 16.0130946 111.407688 16.0260952 110.182022 16.0268174 108.957802 16.0116501 108.960691 15.8448094 108.962135 15.6779687 108.962858 15.511128 109.269816 15.4728486 109.618664 15.462737 109.859897 15.2424495 110.058517 14.9752155 110.04335 14.621311 110.054906 14.3042415 110.053461 11.4614496 110.057073 8.61937986 110.052739 5.77731017 110.031071 5.45157359 110.049128 5.05722288 109.786949 4.82032355 109.459768 4.59570254 109.03725 4.66142765 108.665289 4.58848 108.671789 4.42741734 108.676845 4.26635469 108.681901 4.10456978zM95.9853968 3.85250312C96.4534174 3.89222709 96.8874921 3.68421792 97.2912321 3.47404199 97.6711378 4.52058811 98.0409318 5.57291227 98.3775022 6.63390347 98.2229399 6.71190691 98.0662107 6.78341006 97.9051481 6.8440794 97.3006214 5.85964713 96.5299764 4.9106053 95.4668184 4.40358296 94.4368841 3.89944963 93.1050476 4.07351286 92.2824003 4.88965994 91.386083 5.79103299 90.9556196 7.04703279 90.7288318 8.27197566 90.356871 10.1361134 90.4847099 12.1743143 91.4611974 13.8419989 91.9559415 14.7079815 92.7807556 15.4316801 93.7832442 15.6115213 94.5661676 15.7220262 95.4790967 15.6216329 96.0345101 14.9976054 96.6108688 14.3367429 96.6787607 13.4057575 96.6715382 12.5679428 96.6585376 12.1273678 96.6202581 11.5972333 96.2331299 11.3141097 95.8265009 11.0577095 95.3216453 11.090211 94.8608472 11.090211 94.8594027 10.9074807 94.8565137 10.7247504 94.854347 10.5420201 96.4035819 10.5037407 97.9585949 10.5109632 99.5085521 10.5376866 99.5056631 10.7182501 99.5042186 10.8988137 99.502774 11.0793772 99.1243129 11.1075451 98.6996275 11.1747147 98.4417828 11.4831172 98.1557702 11.8175208 98.1304913 12.2790411 98.1167685 12.6979485 98.0994344 13.6997149 98.1218243 14.7014812 98.1059347 15.7025254 97.2406744 15.4331246 96.3551909 15.7314155 95.522432 15.9726484 93.8728037 16.4486138 91.9458299 16.1907691 90.6277162 15.0394961 89.3919396 13.9821162 88.7773014 12.3527111 88.6776303 10.7594186 88.5353463 8.68077146 89.1665963 6.48800815 90.6190492 4.95971858 91.4619197 4.07856863 92.6637504 3.52098851 93.8937491 3.55999022 94.6037248 3.54337838 95.2833659 3.78822251 95.9853968 3.85250312zM113.522447 3.60621448C114.311871 3.13819386 115.464589 3.64016042 115.560648 4.5805352L115.560648 4.95394055C115.484089 5.91309393 114.301037 6.43022783 113.504391 5.95065114 112.637686 5.48335277 112.64202 4.05617876 113.522447 3.60621448L113.522447 3.60621448zM113.786792 3.79905632C113.190211 4.03162212 112.972812 4.82826834 113.310105 5.35695831 113.627174 5.92898352 114.520603 6.00770921 114.957566 5.53535506 115.361306 5.13667082 115.355528 4.4028607 114.946732 4.0099545 114.647719 3.71671935 114.168865 3.63727141 113.786792 3.79905632z"/>
    <path d="M113.697233 3.96228573C114.030192 3.95361868 114.466434 3.87128172 114.690332 4.18835125 114.842728 4.42886185 114.714889 4.71054093 114.55816 4.91132756 114.685999 5.08755755 114.808782 5.26956557 114.911342 5.46312965 114.453433 5.85892487 114.457766 4.94455124 114.03597 4.94888477 114.024414 5.17061676 114.021525 5.39234876 114.02008 5.61408075 113.912465 5.61408075 113.806293 5.614803 113.702289 5.614803 113.694344 5.06444542 113.701566 4.51336557 113.697233 3.96228573L113.697233 3.96228573zM114.024414 4.23385326C114.025136 4.38697111 114.030192 4.54081123 114.040304 4.69392909 114.194144 4.6700947 114.407209 4.67731724 114.440432 4.47869738 114.459211 4.24829834 114.186199 4.23529776 114.024414 4.23385326zM53.4251323 8.43448282C54.2058889 8.13402514 54.9772562 7.80828856 55.7601796 7.51288665 55.7919588 8.16147079 55.7630686 8.81149944 55.7760692 9.46080583 56.2744245 8.84255636 56.673831 8.09357891 57.393196 7.6992282 57.8626612 7.42910518 58.5596363 7.43632772 58.9092073 7.89857032 59.3591716 8.42364901 59.030546 9.44491624 58.285902 9.44419399 57.7781574 9.54675407 57.5549809 8.867113 57.0522921 8.96750632 56.6651639 9.02817566 56.4022635 9.36474604 56.1624751 9.64570287 55.9876896 9.89343601 55.7363452 10.1404469 55.7710134 10.4697947 55.7775137 11.7958532 55.7702912 13.1226339 55.7753469 14.4486923 55.7854585 14.7325382 55.7854585 15.064775 56.005746 15.2763955 56.2477011 15.465626 56.5727154 15.4728486 56.8652283 15.5104058 56.8637838 15.6772465 56.8645061 15.8440871 56.8681173 16.0116501 55.6626753 16.0318732 54.456511 16.0195949 53.2503468 16.0167059 53.2532358 15.8484207 53.2590138 15.6808577 53.2705699 15.5132948 53.6880327 15.4923494 54.2615025 15.377511 54.2824478 14.8545991 54.3878969 13.5184291 54.3033932 12.1735921 54.3308388 10.8338108 54.3214495 10.3231772 54.3691183 9.79376495 54.2095002 9.30118769 54.0636048 8.92200431 53.6013622 8.9111705 53.2590138 8.91044825 53.2799592 8.74216305 53.1947332 8.47637356 53.4251323 8.43448282zM59.6877971 8.49154089C60.4699983 8.17591587 61.2384766 7.82923393 62.0221222 7.51649792 62.0279003 9.39291395 62.0221222 11.26933 62.024289 13.1450238 62.0336783 13.7762738 61.9888986 14.4176354 62.1131263 15.0402184 62.2604661 15.4468474 62.7501543 15.4771821 63.1170594 15.5039055 63.1430605 15.6743574 63.1459496 15.8476984 63.1351157 16.0203171 61.9231734 16.0239284 60.7112311 16.0181504 59.5000111 16.0232062 59.5036224 15.8137525 59.3909507 15.4352914 59.7275211 15.4670705 60.144984 15.4605702 60.5906147 15.2020033 60.5660581 14.7332604 60.6238384 12.9536264 60.6303387 11.1689367 60.5566688 9.38930268 60.5472795 8.94872771 60.0207563 8.89528091 59.6841859 8.91333726 59.6841859 8.77249772 59.6856304 8.63238043 59.6877971 8.49154089zM78.6108533 8.48937413C79.4385565 8.17158235 80.2583148 7.83212294 81.0867402 7.51577567 81.094685 7.97440699 81.0759064 8.43376057 81.097574 8.89239189 81.720157 8.30375484 82.4583007 7.77217586 83.3257278 7.64433689 84.1425971 7.52516497 85.06636 7.90073708 85.4484324 8.65838158 85.7019436 9.12351319 85.7236112 9.66592598 85.7452789 10.1837821 85.7496124 11.5806215 85.7423898 12.9774608 85.7481679 14.3743002 85.7597239 14.6827026 85.7416676 15.0445519 85.9807337 15.2792845 86.2046324 15.4771821 86.5253132 15.4692373 86.8055478 15.50535 86.8308267 15.675802 86.834438 15.8476984 86.8236042 16.0195949 85.6123841 16.0232062 84.4004418 16.0181504 83.1892218 16.0224839 83.1747767 15.8491429 83.1776657 15.6743574 83.2101671 15.5031832 83.5785167 15.4786266 84.0696495 15.4439584 84.2184338 15.0358849 84.3462728 14.4638597 84.2870479 13.8708891 84.301493 13.2894746 84.2884924 12.2299279 84.3289387 11.1682144 84.2783809 10.10939 84.2509352 9.53230898 84.0631492 8.83894509 83.4694563 8.60710154 82.783315 8.36081291 82.066839 8.72844022 81.5641501 9.18634929 81.3611968 9.38352465 81.0369047 9.56336591 81.0852957 9.89271376 81.0939628 11.266441 81.0802399 12.6394459 81.091796 14.0131731 81.1336867 14.3822449 81.0787954 14.7744289 81.2203572 15.1254444 81.4059765 15.468515 81.8465515 15.4649038 82.1816774 15.5299066 82.1809551 15.6931361 82.1809551 15.8563655 82.1809551 16.0203171 80.9682906 16.0167059 79.755626 16.0311509 78.5436837 16.0130946 78.5487395 15.8476984 78.5537953 15.6823022 78.5602955 15.5169061 78.8477527 15.4677928 79.1799895 15.4800711 79.4125553 15.2763955 79.6415099 15.0662195 79.6378986 14.7318159 79.6443989 14.4458033 79.6610107 13.0251296 79.6537882 11.6044559 79.6516214 10.1837821 79.6321206 9.83998921 79.6696778 9.45791682 79.4645576 9.15962589 79.2572707 8.90972599 78.9004772 8.92344882 78.6065198 8.9111705 78.6065198 8.77105321 78.6079643 8.63021367 78.6108533 8.48937413zM99.980184 8.48070708C100.766719 8.1802494 101.527974 7.81840012 102.315231 7.51866469 102.310176 9.85010077 102.304398 12.1808146 102.319565 14.5122507 102.325343 14.8307647 102.387457 15.2215042 102.70886 15.3731775 103.159546 15.5443517 103.68318 15.550852 104.129534 15.3623437 104.457437 15.1911695 104.476938 14.7737066 104.482716 14.4486923 104.49355 13.006351 104.489216 11.5640096 104.485605 10.1216683 104.465382 9.80026524 104.492827 9.44058272 104.300708 9.16468167 104.100643 8.9017812 103.740961 8.91550402 103.444114 8.91261501 103.44267 8.76744194 103.44267 8.62154662 103.445559 8.47637356 104.282651 8.18313841 105.085798 7.80178827 105.926502 7.51649792 105.933724 8.14991473 105.907001 8.78477604 105.939502 9.41747059 106.462414 8.84255636 106.828597 8.09357891 107.534239 7.70717299 108.00226 7.43921674 108.692012 7.42043813 109.056751 7.86968016 109.529105 8.4034259 109.198312 9.48319571 108.411056 9.43913821 107.932923 9.52003067 107.729248 8.88661386 107.256894 8.96245054 106.856765 8.99928549 106.568585 9.33007785 106.335297 9.62547976 106.141011 9.8999363 105.87161 10.1794486 105.921446 10.5441869 105.959725 11.9879728 105.855721 13.4382589 105.981393 14.876989 106.008839 15.3999009 106.601087 15.4872936 107.012772 15.5039055 107.015661 15.6729129 107.017827 15.8419204 107.019272 16.0116501 104.601888 16.0123723 102.183781 16.0102056 99.7663968 16.0130946 99.7692858 15.8433649 99.7736193 15.6743574 99.7801196 15.5060723 100.133302 15.4454029 100.618657 15.4432361 100.778997 15.0524967 100.932115 14.5526969 100.856278 14.0203957 100.877224 13.5061508 100.856278 12.1345903 100.922003 10.7594186 100.8375 9.39002494 100.812221 8.95450574 100.316032 8.8938364 99.9744059 8.91333726 99.9744059 8.76888645 99.9758504 8.62443564 99.980184 8.48070708zM47.4354794 8.35431262C48.4957484 7.46521789 50.1460989 7.36193556 51.2937606 8.1455812 52.358363 8.84544538 52.9665009 10.1325021 52.9498891 11.3935577 51.1168083 11.4007802 49.2830053 11.3812794 47.4506467 11.402947 47.4470355 12.3360992 47.5654851 13.2880301 47.9728364 14.1374008 48.3108513 14.888545 49.0583843 15.4894604 49.9070328 15.4779043 51.0026922 15.4880159 51.9835132 14.8083748 52.6053739 13.9452812 52.7057672 14.0492858 52.9404998 14.1597907 52.8206056 14.3316872 52.1756327 15.3825668 51.0294156 16.2030474 49.7633042 16.1987139 48.5571399 16.2391601 47.363254 15.6353557 46.6576118 14.6624795 45.2333268 12.7911193 45.6125102 9.8291554 47.4354794 8.35431262L47.4354794 8.35431262zM48.9305453 8.27414242C47.9540578 8.64754777 47.5604294 9.78365339 47.533706 10.7500293 48.7860945 10.7875865 50.041372 10.7781972 51.2937606 10.7558073 51.3493741 10.0436649 51.2157571 9.26651949 50.7304024 8.7161619 50.2956055 8.21491759 49.546628 8.05457719 48.9305453 8.27414242zM64.9407509 8.45831721C66.1888059 7.46160662 68.079667 7.32365609 69.4151147 8.22864042 69.8267995 8.49587442 70.1727592 8.95017222 70.1128121 9.46586161 70.0940335 10.1057787 69.2164949 10.4697947 68.7354737 10.063888 68.2732311 9.65581443 68.2363961 8.96967308 67.818211 8.52909811 67.3841363 8.08346736 66.6279363 8.08635637 66.1259698 8.41209295 65.4651073 8.8577237 65.2115961 9.67459303 65.0714789 10.419237 64.8129119 11.8485777 64.9501402 13.506873 65.9988531 14.6054214 66.6250473 15.3002298 67.7048171 15.4937939 68.5469654 15.1023322 69.1558255 14.8358205 69.6115678 14.3374652 70.0564763 13.862222 70.1828708 13.7206602 70.3005982 13.9286694 70.3757126 14.0153399 69.7090721 15.1160551 68.6090792 16.0528186 67.2924101 16.1907691 66.1288588 16.3258306 64.9443621 15.7689727 64.2423312 14.8452098 62.7450986 12.9882946 63.0758909 9.94688281 64.9407509 8.45831721zM72.3915237 8.11091301C73.4734602 7.55044386 74.817575 7.43921674 75.9522362 7.90651511 76.588542 8.15569276 77.0016713 8.80644366 77.0088938 9.48319571 77.0442843 11.0880442 77.0110606 12.6943372 77.0269502 14.2991857 77.0493401 14.5649752 77.080397 14.9232132 77.3541313 15.0517745 77.6870904 15.1695019 77.9456573 14.8784335 78.1673893 14.6790914 78.2360035 14.7997078 78.3927326 14.9239355 78.3407303 15.0770533 77.9637137 15.7335823 77.2494044 16.3706104 76.4339796 16.1654902 75.9356243 16.0499296 75.6864467 15.5443517 75.5976094 15.0828314 74.9418027 15.5378514 74.2701065 16.0434293 73.4582929 16.1640457 72.8227093 16.2788841 72.1105669 16.1488784 71.6454352 15.6750797 70.9051248 14.9102127 70.9152364 13.5928213 71.5775434 12.78173 72.5670314 11.6254012 74.1726022 11.3848906 75.5607745 11.0360419 75.5809976 10.2690081 75.6655013 9.45069428 75.3534875 8.72699572 75.0436406 8.0466324 74.010095 8.00474166 73.5507414 8.5464322 73.1722803 8.92417107 73.1874476 9.50197431 72.9173246 9.93821576 72.5879768 10.4755728 71.5941552 10.419237 71.4208142 9.77787536 71.2713076 9.07078864 71.7877193 8.41425971 72.3915237 8.11091301L72.3915237 8.11091301zM72.9498261 13.0699093C72.4630268 13.7047706 72.5251407 14.7989855 73.2986748 15.1796134 74.049819 15.5190728 74.8637993 15.0315513 75.4069343 14.5223622 75.6438337 14.3519103 75.5744973 14.0449523 75.5817198 13.7950524 75.5658302 13.0727983 75.6041097 12.3490998 75.562219 11.627568 74.5792312 11.8196876 73.5644643 12.2458175 72.9498261 13.0699093z"/>
  </g>
</svg>
