<svg xmlns="http://www.w3.org/2000/svg" width="92" height="24" viewBox="0 0 92 24">
  <path d="M15.6822115,4.926924 L15.6822115,4.98223174 L15.7096944,5.01006636 L17.8913382,5.01006636 L17.9188212,4.98223174 L17.9188212,4.926924 L16.759111,1.98476906 L15.6822115,4.926924 Z M18.3885635,8.67411383 L18.3885635,8.64664071 L18.637357,8.61880609 L18.8579442,8.53566374 L19.0510484,8.42468677 L19.1617037,8.28551369 L19.1891867,8.11922898 L19.1342207,7.86944042 L18.1126487,5.45469722 L18.1126487,5.3986665 L18.0573211,5.34335876 L15.5169518,5.34335876 L15.5169518,5.37119337 L15.4891072,5.42650111 L14.5225013,7.95222129 L14.4675353,8.17417523 L14.5225013,8.34082143 L14.6606395,8.47963302 L14.9094329,8.59060999 L15.26852,8.64627922 L15.26852,8.67375235 L13.1418422,8.67375235 L13.1418422,8.64627922 L13.4456017,8.59060999 L13.6665505,8.50746763 L13.8321717,8.36865605 L13.97031,8.14670211 L17.0082661,0.153106813 L17.0632321,0.153106813 L20.3771031,8.06355975 L20.5427243,8.31334831 L20.7361902,8.47999451 L20.9849836,8.59097148 L21.2887431,8.64664071 L21.2887431,8.67411383 L18.3885635,8.67411383 Z M56.278939,8.67411383 L56.278939,8.64664071 L56.4170773,8.61880609 L56.6105431,8.59097148 L56.8036473,8.53566374 L56.9692686,8.42468677 L57.0799238,8.25804057 L57.1352514,8.00825201 L57.1627344,7.23141321 L57.1627344,6.34323596 L57.1902174,5.42722409 L57.1902174,3.37324641 L57.1627344,2.2352806 L57.1352514,1.23612637 L57.0799238,0.986337815 L56.9692686,0.819691615 L56.8036473,0.708714644 L56.6105431,0.653406903 L56.4170773,0.625572288 L56.278939,0.597737673 L56.278939,0.56954157 L61.857626,0.56954157 L61.9129537,1.04128407 L61.9404367,1.59653041 L61.9679196,2.12394214 L61.9129537,2.12394214 L61.830143,1.84631897 L61.7194878,1.56833431 L61.5813496,1.31890724 L61.4157284,1.12442642 L61.1669349,1.04128407 L60.559416,0.985976327 L59.1505507,0.985976327 L58.4048936,1.04128407 L58.3499276,1.04128407 L58.267117,1.06911868 L58.1843064,1.15226104 L58.1843064,4.14972372 L58.2117894,4.23286607 L58.239634,4.28817381 L58.2946,4.31600843 L60.641865,4.31600843 L60.8906584,4.28817381 L61.0841243,4.14936223 L61.2222625,3.98307751 L61.2772285,3.73328896 L61.3321945,3.45566579 L61.3600391,3.45566579 L61.3600391,5.78690515 L61.3321945,5.78690515 L61.2772285,5.53747808 L61.1665733,5.09320871 L61.0284351,4.8987279 L60.8628138,4.78775093 L60.641865,4.7320817 L58.2946,4.7320817 L58.239634,4.75991631 L58.1843064,4.87125477 L58.1843064,8.118506 L58.267117,8.20164836 L58.3499276,8.22912149 L58.4048936,8.22912149 L58.9296019,8.2569561 L59.4817932,8.28442923 L60.7521586,8.28442923 L61.1387287,8.2569561 L61.4699711,8.22912149 L61.69092,8.14597913 L61.8565412,8.00716754 L61.9671964,7.81304822 L62.0778516,7.59109428 L62.1606623,7.34130572 L62.2156282,7.11935178 L62.2705942,7.11935178 L62.2705942,7.50795192 L62.2156282,8.34082143 L62.1881453,8.67375235 L56.278939,8.67375235 L56.278939,8.67411383 Z M71.4683581,8.67411383 L71.4683581,8.64664071 L71.6064964,8.61880609 L71.7996006,8.59097148 L71.9930664,8.53566374 L72.1586877,8.42468677 L72.2693429,8.25804057 L72.3243089,8.00825201 L72.3517919,7.03657091 L72.3517919,4.84414313 L71.8549282,3.90065814 L71.5511688,3.29010405 L71.2195647,2.67954997 L70.9158052,2.0968305 L70.5845628,1.59725339 L70.2529587,1.15298402 L69.8663887,0.819691615 L69.451974,0.625572288 L69.0100763,0.542429932 L69.0100763,0.486037725 L69.2310251,0.430729984 L69.479457,0.402895369 L69.6729228,0.402895369 L70.2251141,0.45820311 L70.6944948,0.56954157 L71.0535818,0.791495511 L71.3848243,1.0969533 L71.6611007,1.45771882 L71.9373772,1.87379209 L72.2140153,2.37336921 L73.2081042,4.26106217 L73.4843807,3.84498891 L73.7881402,3.3450503 L74.1197442,2.79016545 L74.4509867,2.26275372 L74.7272631,1.735342 L74.9760566,1.29107262 L75.0588672,1.0969533 L75.0313842,0.930307097 L74.920729,0.818968638 L74.7551077,0.707991667 L74.2578825,0.596653207 L74.2578825,0.56954157 L76.4120432,0.56954157 L76.4120432,0.597014696 L76.0808008,0.652683926 L75.8045243,0.818968638 L75.5835755,1.0969533 L73.5675529,4.34420453 L73.4572593,4.56615847 L73.4019317,4.7602778 L73.3744487,4.98223174 L73.3744487,6.06452832 L73.4019317,7.09187865 L73.4572593,8.00752903 L73.5122253,8.25731759 L73.6228805,8.42396379 L73.7885018,8.53494076 L73.981606,8.5902485 L74.3132101,8.64591773 L74.3132101,8.67339086 L71.4683581,8.67339086 L71.4683581,8.67411383 Z M2.4260043,0.846803252 L2.26038307,0.929945608 L2.20541707,1.04092258 L2.17757246,1.20756878 L2.17757246,3.95560439 L2.23290007,4.09441597 L2.3985213,4.17755833 L2.70228075,4.20539294 L3.14454005,4.20539294 L3.55895473,4.17755833 L3.91768018,4.06658136 L4.22143963,3.87210054 L4.49771609,3.62267348 L4.71866493,3.28938108 L4.82932015,2.87330781 L4.88428615,2.40120382 L4.82932015,1.92909983 L4.69118193,1.51302657 L4.44238847,1.20756878 L4.11114602,0.985614838 L3.6685251,0.874637867 L3.14417843,0.818968638 L2.70191913,0.818968638 L2.4260043,0.846803252 Z M2.48133191,4.56615847 L2.28786607,4.62146621 L2.20505546,4.73244318 L2.17721084,4.87161626 L2.17721084,7.78593658 L2.20505546,8.03572514 L2.34319368,8.22984446 L2.5637809,8.34118292 L2.92286797,8.39649066 L3.39224865,8.42432528 L3.86199095,8.39649066 L4.30388863,8.25767908 L4.71830331,8.06319826 L5.04990738,7.78557509 L5.29833921,7.42480956 L5.46432206,6.95270558 L5.51928805,6.42565534 L5.46432206,5.92571674 L5.32618383,5.50964347 L5.10523499,5.17635107 L4.80147554,4.926924 L4.44238847,4.73244318 L4.02797379,4.62146621 L3.61355911,4.56615847 L3.14417843,4.53832386 L2.75760836,4.53832386 L2.48133191,4.56615847 Z M2.3985213,8.72942157 L1.84633001,8.70194845 L1.3212601,8.70194845 L0.824034802,8.67411383 L0.216515897,8.67411383 L0.216515897,8.64664071 L0.492792352,8.56349835 L0.713741191,8.480356 L0.906845415,8.36901754 L1.01750064,8.17489821 L1.07246664,7.92510965 L1.10031126,6.84281307 L1.12779425,5.70484726 L1.12779425,3.3736079 L1.10067288,2.23455762 L1.07282826,1.23540339 L1.01750064,0.985614838 L0.879724035,0.818968638 L0.71410281,0.707991667 L0.548119966,0.652683926 L0.354654124,0.624849311 L0.189032899,0.597014696 L0.189032899,0.56954157 L0.824034802,0.541706955 L1.48688132,0.541706955 L2.12224484,0.514233829 L2.70228075,0.486399214 L3.17202305,0.486399214 L3.58643773,0.514233829 L4.02833541,0.56954157 L4.44275009,0.652683926 L4.82932015,0.791495511 L5.16056261,0.985614838 L5.46468368,1.23540339 L5.6852709,1.54086118 L5.82340913,1.92909983 L5.87873674,2.37336921 L5.82340913,2.81763858 L5.6852709,3.20623872 L5.46468368,3.53953112 L5.21589022,3.81715429 L4.88428615,4.06694285 L4.5530437,4.26106217 L4.91176915,4.34420453 L5.29833921,4.51048924 L5.68490928,4.73244318 L6.01651335,5.03790097 L6.2927898,5.3986665 L6.48589403,5.84293587 L6.54086002,6.34287447 L6.48589403,6.81461697 L6.3477558,7.28672095 L6.12680696,7.6753211 L5.79556451,8.03608662 L5.35366683,8.3137098 L4.80147554,8.53566374 L4.13862902,8.67447532 L3.36512727,8.72978306 L2.3985213,8.72978306 L2.3985213,8.72942157 Z M85.6911713,8.72942157 L84.9729971,8.6184446 L84.3101506,8.42432528 L84.2826676,8.39649066 L84.2277016,8.36865605 L84.2002186,8.31334831 L84.2002186,6.75894774 L84.2277016,6.75894774 L84.4208058,7.34166721 L84.6695993,7.81377119 L84.9733588,8.14670211 L85.3599288,8.36865605 L85.8296711,8.50746763 L86.409707,8.53530225 L86.8241217,8.47999451 L87.2106918,8.34118292 L87.4869682,8.09139437 L87.7075554,7.78593658 L87.8456937,7.34166721 L87.9010213,6.84209009 L87.8456937,6.42601683 L87.7075554,6.09272443 L87.4591236,5.78726664 L87.1550025,5.53783957 L86.8237601,5.34335876 L86.43719,5.12140481 L86.05062,4.92728549 L85.6362053,4.70533155 L85.2496352,4.4833776 L84.9183928,4.23358905 L84.6146333,3.92813126 L84.3658399,3.53989261 L84.2277016,3.12345785 L84.172374,2.59604612 L84.2277016,2.04116127 L84.4208058,1.56905728 L84.7245653,1.15298402 L85.1111354,0.819691615 L85.6083607,0.570264547 L86.160552,0.431452961 L86.7680709,0.375783731 L87.5690556,0.458926087 L88.2872297,0.625572288 L88.3975233,0.653406903 L88.5081786,0.708714644 L88.5360232,0.736549259 L88.5360232,0.791857 L88.4532126,2.26275372 L88.397885,2.26275372 L88.2601084,1.76317661 L88.0941255,1.34674185 L87.8453321,1.04128407 L87.5140896,0.847164741 L87.0996749,0.708353155 L86.5749666,0.68051854 L86.2712072,0.708353155 L85.9674477,0.791495511 L85.6911713,0.930307097 L85.4423778,1.12442642 L85.248912,1.40241108 L85.1382567,1.735342 L85.0832907,2.15141526 L85.1382567,2.59568464 L85.2767566,2.95681165 L85.4698608,3.28974256 L85.7461373,3.53953112 L86.0773797,3.76148506 L86.4364668,3.95560439 L86.7955539,4.12225059 L87.1821239,4.2885353 L87.5408494,4.48301612 L87.8999364,4.70497006 L88.2311789,4.95439713 L88.5074553,5.25985491 L88.7009212,5.62062044 L88.8390594,6.0370552 L88.8940254,6.56446692 L88.8112148,7.11935178 L88.617749,7.59145576 L88.3139895,8.00752903 L87.9274194,8.34082143 L87.4580388,8.5902485 L86.9333305,8.72906009 L86.3811392,8.78472932 L85.6911713,8.72942157 Z M48.4911253,8.92390239 L42.6914894,1.42952272 L42.6914894,5.31552414 L42.7193341,6.23117452 L42.7193341,7.09187865 L42.7468171,7.89691355 L42.8296277,8.14634062 L42.9956105,8.34082143 L43.2440423,8.47963302 L43.5481634,8.56277537 L43.9347335,8.64591773 L43.9347335,8.67339086 L41.2558644,8.67339086 L41.2558644,8.64591773 L41.5596239,8.56277537 L41.8084173,8.47963302 L42.0293662,8.34082143 L42.1396598,8.14634062 L42.1949874,7.89691355 L42.2224704,6.86992471 L42.2499534,5.7319589 L42.2499534,3.45602728 L42.2224704,2.84547319 L42.2224704,2.20708449 L42.1949874,1.65183815 L42.1949874,1.20756878 L42.1396598,0.902110994 L42.0015215,0.680157052 L41.8084173,0.541345466 L41.6149515,0.430368496 L41.3943643,0.374699266 L41.2008984,0.374699266 L41.2008984,0.319391525 L41.9469172,0.236249169 L42.3888148,0.264083784 L42.7753849,0.402895369 L43.134472,0.597014696 L43.4657144,0.874999356 L43.7969569,1.26323801 L44.1835269,1.70750738 L47.9671402,6.50915918 L47.9671402,2.56785002 L47.9121742,1.34638037 L47.8568466,1.04092258 L47.6912254,0.818968638 L47.3874659,0.680157052 L46.9730512,0.597014696 L46.9730512,0.56954157 L49.3477993,0.56954157 L49.3477993,0.597014696 L49.0440398,0.680157052 L48.823091,0.763299408 L48.6299867,0.902110994 L48.5193315,1.09659181 L48.4643655,1.34601888 L48.4368825,2.15105378 L48.4090379,3.06706565 L48.4090379,5.01006636 L48.4368825,6.00922058 L48.4643655,7.03620942 L48.5193315,8.03572514 L48.5468145,8.92390239 L48.4911253,8.92390239 Z M30.0706458,0.874637867 L29.904663,0.929945608 L29.8218523,1.04092258 L29.7943694,1.23540339 L29.7943694,4.45482001 L29.8218523,4.5936316 L29.9325076,4.67677395 L30.1256118,4.7320817 L30.4293713,4.7320817 L30.8159413,4.70460857 L31.2025114,4.62146621 L31.5615985,4.48265463 L31.8928409,4.26070069 L32.1691174,3.98307751 L32.3900662,3.64978511 L32.5282044,3.26118497 L32.5831704,2.78944247 L32.5282044,2.26203075 L32.4175492,1.78992676 L32.196962,1.42952272 L31.9206855,1.18009565 L31.5619601,0.985614838 L31.147907,0.846803252 L30.7056477,0.818968638 L30.3190776,0.818968638 L30.0706458,0.874637867 Z M33.9920357,8.89606778 L33.577621,8.7850908 L33.1910509,8.56313686 L32.8323255,8.2851522 L32.4732384,7.95222129 L32.141996,7.56362115 L30.236267,5.25985491 L30.1534564,5.14923943 L30.0706458,5.09393169 L30.0153182,5.03826246 L29.9603522,5.01078933 L29.8775416,5.01078933 L29.8225756,5.1217663 L29.8225756,7.89763653 L29.8775416,8.14706359 L29.9881968,8.34154441 L30.181301,8.480356 L30.4300945,8.56349835 L30.7063709,8.64664071 L30.7063709,8.67411383 L27.8897253,8.67411383 L27.8897253,8.64664071 L28.1381571,8.56349835 L28.3316229,8.480356 L28.5247272,8.36901754 L28.6353824,8.17489821 L28.6903484,7.92510965 L28.718193,6.84281307 L28.745676,5.70484726 L28.745676,2.79052694 L28.718193,1.98549204 L28.6903484,1.23612637 L28.6353824,0.986337815 L28.5247272,0.819691615 L28.3591059,0.708714644 L28.1660017,0.653406903 L27.8343976,0.597737673 L27.8343976,0.56954157 L28.3591059,0.541706955 L28.9666248,0.541706955 L29.6294714,0.514233829 L30.2095073,0.486399214 L30.6788879,0.486399214 L31.2035962,0.514233829 L31.7008215,0.56954157 L32.1427192,0.68051854 L32.5571339,0.847164741 L32.9158593,1.06911868 L33.1910509,1.34638037 L33.4119998,1.70714589 L33.550138,2.17924988 L33.6054656,2.70666161 L33.550138,3.20623872 L33.3845168,3.65050809 L33.1357233,4.01127362 L32.8319639,4.3167314 L32.4175492,4.59435458 L31.9478069,4.78883539 L31.4509432,4.92764698 L31.4234602,4.9551201 L31.3956156,4.9551201 L31.3956156,4.98295472 L31.4234602,5.01078933 L31.4509432,5.06609707 L32.9144129,6.92595543 L33.2460169,7.3702248 L33.632587,7.78629807 L34.0191571,8.17489821 L34.4053655,8.50782912 L34.7919356,8.70230994 L35.1510226,8.78545229 L35.1510226,8.84076003 L34.9575568,8.89606778 L34.709125,8.92390239 L34.4881761,8.95137552 L33.9920357,8.89606778 Z M14.080242,23.0515961 L14.080242,22.9962884 L14.4114844,22.9406191 L14.6049503,22.8853114 L14.7705715,22.7743344 L14.8812267,22.6076882 L14.9361927,22.3578997 L14.9636757,21.608534 L14.9915203,20.7203567 L15.0190033,19.7768718 L15.0190033,18.0005172 L14.9915203,17.1401746 L14.9636757,16.3351397 L14.9361927,15.6136086 L14.8812267,15.3638201 L14.7705715,15.1971739 L14.6049503,15.0861969 L14.4114844,15.0305277 L14.080242,14.97522 L14.080242,14.9199122 L19.6864119,14.9199122 L19.7138949,15.3920162 L19.7417396,15.9747357 L19.7692226,16.5021474 L19.7138949,16.5021474 L19.658929,16.2801935 L19.5761183,16.0304049 L19.4658247,15.808451 L19.3551695,15.6143316 L19.1891867,15.4751586 L18.9685994,15.3912932 L18.3607189,15.3634586 L16.9800599,15.3634586 L16.2344027,15.3912932 L16.0687815,15.446601 L16.0409369,15.5019087 L16.0134539,15.5850511 L16.0134539,18.527206 L16.0687815,18.6385445 L16.1237475,18.6660176 L18.4710125,18.6660176 L18.719806,18.6385445 L18.9129102,18.4997329 L19.0235654,18.3330867 L19.106376,18.0832981 L19.133859,17.8056749 L19.188825,17.8056749 L19.188825,20.1369143 L19.133859,20.1369143 L19.106376,19.8874872 L19.0510484,19.6655333 L18.9685994,19.4435794 L18.8579442,19.2769332 L18.692323,19.1659562 L18.4713741,19.110287 L16.1241091,19.110287 L16.0691431,19.1381216 L16.0412985,19.1659562 L16.0138155,19.2212639 L16.0138155,22.4685152 L16.0966261,22.5516575 L16.1794367,22.5791306 L16.2347644,22.5791306 L16.7594727,22.6069653 L17.3116639,22.6347999 L18.3057529,22.6347999 L18.8304612,22.6069653 L19.2998419,22.5791306 L19.4933077,22.5238229 L19.658929,22.3850113 L19.7970672,22.190892 L19.9626884,21.6909534 L20.045499,21.4689994 L20.072982,21.4689994 L20.072982,21.9964112 L20.045499,22.5516575 L19.9901714,23.0512346 L14.080242,23.0512346 L14.080242,23.0515961 Z M44.0725101,23.0515961 L44.0725101,22.9962884 L44.4037525,22.9406191 L44.5968568,22.8853114 L44.7628396,22.7743344 L44.8731332,22.6076882 L44.9284608,22.3578997 L44.9559438,21.3862186 L44.9834268,20.3317566 L44.9834268,19.2216254 L44.4865632,18.2499443 L44.1824421,17.6393902 L43.8511996,17.0288361 L43.5474402,16.4739513 L43.2158361,15.9465396 L42.8571107,15.5304663 L42.4980236,15.1971739 L42.0836089,14.97522 L41.6138666,14.8920776 L41.6138666,14.8367699 L41.9729537,14.7814621 L42.3045578,14.7536275 L42.856749,14.8089352 L43.2986467,14.9202737 L43.6852168,15.1422276 L44.0164592,15.4476854 L44.2927357,15.808451 L44.5415292,16.2527203 L44.8178056,16.7522974 L45.8118946,18.6121558 L46.088171,18.1960825 L46.3922921,17.6961439 L46.7235346,17.1690937 L47.054777,16.6138473 L47.3588981,16.0864356 L47.6076915,15.6421662 L47.6905021,15.4480469 L47.6355361,15.2814007 L47.5527255,15.1704237 L47.3596213,15.0872814 L47.1386725,15.0316122 L46.889879,14.9763044 L46.889879,14.9209967 L49.0165568,14.9209967 L49.0165568,14.9763044 L48.7127973,15.0316122 L48.4365209,15.1707852 L48.2155721,15.4484084 L46.1995495,18.7238557 L46.0888943,18.9458097 L46.0060837,19.139929 L46.0060837,20.4167064 L46.0335667,21.4436952 L46.0610497,22.3593456 L46.1163773,22.6091342 L46.2266709,22.7757804 L46.3926537,22.8867574 L46.5857579,22.9420651 L46.9170004,22.9977343 L46.9170004,23.0530421 L44.0725101,23.0530421 L44.0725101,23.0515961 Z M58.5712381,15.1133086 L58.0190468,15.3077894 L57.5496661,15.6407203 L57.1352514,16.057155 L56.8036473,16.5842053 L56.5548539,17.1947594 L56.4167157,17.9162904 L56.3617497,18.6934907 L56.3892327,19.3040448 L56.4720433,19.9142374 L56.6376645,20.4969569 L56.8586133,21.0522032 L57.1348898,21.5517803 L57.4936152,21.9960497 L57.8801853,22.3568152 L58.3774106,22.6347999 L58.9021189,22.8010846 L59.5096378,22.8567538 L60.1175183,22.8010846 L60.6697096,22.6347999 L61.1390903,22.3850113 L61.553505,22.0517189 L61.885109,21.6356456 L62.1335409,21.1635417 L62.3270067,20.5808222 L62.4376619,19.9706296 L62.4651449,19.3044063 L62.4376619,18.6656561 L62.3270067,18.0272674 L62.1613855,17.4167133 L61.9404367,16.8618285 L61.6366772,16.3618899 L61.2775901,15.9176205 L60.8356925,15.556855 L60.3384672,15.2792318 L59.7862759,15.1125856 L59.178757,15.0572778 L58.5712381,15.1133086 Z M58.6265657,23.1347385 L57.9083915,22.9402577 L57.2733896,22.6351614 L56.6933537,22.2187266 L56.1964901,21.7191495 L55.80992,21.13643 L55.5061605,20.4976798 L55.3126947,19.7761488 L55.2577287,18.99931 L55.3126947,18.2221097 L55.5061605,17.5005786 L55.782437,16.8343553 L56.1690071,16.2238012 L56.6658707,15.7242241 L57.2459066,15.3081509 L57.9087532,15.0026931 L58.6547719,14.7807391 L59.4557567,14.7254314 L60.2014138,14.7807391 L60.8917433,14.9748585 L61.5271068,15.3081509 L62.1071427,15.6963895 L62.604368,16.2238012 L63.0187827,16.8065207 L63.3225422,17.472744 L63.516008,18.1946366 L63.570974,18.9714754 L63.516008,19.720841 L63.3500252,20.414899 L63.0462657,21.0532877 L62.6871786,21.6638417 L62.190315,22.1634189 L61.6102791,22.6076882 L60.9474325,22.913146 L60.2014138,23.1072653 L59.372946,23.1904077 L58.6265657,23.1347385 Z M32.8872915,23.2457154 L32.4179108,21.6638417 L31.9206855,19.9984642 L31.4238218,18.3887559 L30.9265965,16.8343553 L30.4018883,18.4165905 L29.904663,20.0537719 L29.4352823,21.6913149 L28.96554,23.2457154 L28.938057,23.2457154 L28.6617805,22.4132074 L28.3855041,21.5525033 L28.0817446,20.664326 L27.7779852,19.7486756 L27.1701047,18.0276289 L26.8663452,17.2504286 L26.6175517,16.5567322 L26.3687583,15.9461781 L26.1756541,15.446601 L26.0649988,15.224647 L25.8993776,15.0858354 L25.7337564,15.0301662 L25.4021523,14.9748585 L25.4021523,14.9195507 L27.9982108,14.9195507 L27.9982108,14.9748585 L27.8325896,15.0026931 L27.6394853,15.0301662 L27.4735025,15.1133086 L27.3632089,15.224647 L27.3078813,15.4187663 L27.3632089,15.6685549 L27.6944513,16.6955437 L28.0810214,17.7778403 L28.8545231,19.9984642 L29.2132486,21.0532877 L30.1798546,17.9166519 L31.1743051,14.7803776 L31.2017881,14.7803776 L32.1409111,17.9444865 L32.6656194,19.5267217 L33.2178107,21.0532877 L33.6871914,19.6930064 L34.1844167,18.3052521 L34.6537974,16.9453323 L35.068212,15.6128857 L35.095695,15.3909317 L35.068212,15.2517587 L34.9575568,15.1407817 L34.8194186,15.0576393 L34.6263144,15.0298047 L34.2950719,14.974497 L34.2950719,14.9191892 L36.4488711,14.9191892 L36.4488711,14.974497 L36.2004392,15.0023316 L36.0069734,15.0854739 L35.8413522,15.1964509 L35.6757309,15.4184049 L35.5375927,15.7516973 L35.3716099,16.1959666 L35.1510226,16.7786861 L34.9022292,17.4449094 L34.6259527,18.2217482 L34.3496763,19.0267831 L33.7421574,20.7478299 L33.1896045,22.4688766 L32.9411726,23.2457154 L32.8872915,23.2457154 Z M7.42465538,23.2735501 L1.62501955,15.7795319 L1.62501955,19.6930064 L1.65286417,20.6090183 L1.65286417,21.4693609 L1.68034716,22.2465612 L1.73531316,22.5241844 L1.90093439,22.7183037 L2.14972784,22.8574768 L2.48133191,22.9402577 L2.86790198,22.9959269 L2.86790198,23.0512346 L0.189032899,23.0512346 L0.189032899,22.9959269 L0.465309353,22.9127845 L0.71410281,22.8296422 L0.934690031,22.7183037 L1.07282826,22.5241844 L1.12815587,22.2465612 L1.15563887,21.2195724 L1.18312187,20.1094412 L1.18312187,17.8335096 L1.15563887,17.1947594 L1.15563887,16.5842053 L1.12815587,16.0293204 L1.10067288,15.5854125 L1.04534526,15.2799548 L0.907207033,15.0580008 L0.741585808,14.9191892 L0.520636968,14.8078508 L0.327171126,14.752543 L0.133705284,14.752543 L0.133705284,14.6694007 L0.907207033,14.6140929 L1.34910471,14.6419275 L1.70819178,14.7807391 L2.03943423,14.9748585 L2.3710383,15.2524816 L2.70228075,15.6136086 L3.08885082,16.0853511 L6.87246409,20.8591683 L6.87246409,16.9174977 L6.84498109,16.3347782 L6.84498109,15.7242241 L6.78965348,15.4187663 L6.59654926,15.1968124 L6.3202728,15.0580008 L5.87837512,14.9748585 L5.87837512,14.9195507 L8.25312313,14.9195507 L8.25312313,14.9748585 L7.94936367,15.0580008 L7.72841483,15.1411432 L7.53531061,15.2799548 L7.42465538,15.4740741 L7.36968939,15.7238626 L7.36968939,16.5010629 L7.34184477,17.4445479 L7.34184477,19.3875486 L7.36968939,20.3588682 L7.39717238,21.3858571 L7.42465538,22.3853728 L7.47962138,23.2735501 L7.42465538,23.2735501 L7.42465538,23.2735501 Z M71.9655834,15.224647 L71.7996006,15.3077894 L71.7446346,15.4187663 L71.7171516,15.6132472 L71.7171516,18.8048292 L71.7446346,18.9714754 L71.8552898,19.0546177 L72.0483941,19.1099255 L72.3521535,19.1099255 L72.7387236,19.0824523 L73.0978106,18.99931 L73.4843807,18.8326638 L73.8156232,18.6385445 L74.0918996,18.3605598 L74.3128484,18.0276289 L74.4509867,17.6115556 L74.5059527,17.1394516 L74.4509867,16.6120399 L74.3128484,16.1399359 L74.1197442,15.7791704 L73.8156232,15.5297433 L73.4843807,15.3352625 L73.069966,15.1964509 L72.6002237,15.1689778 L72.2140153,15.1689778 L71.9655834,15.224647 Z M75.9148179,23.2735501 L75.5004033,23.1347385 L75.1138332,22.9127845 L74.7547461,22.6351614 L74.4235037,22.301869 L74.0644166,21.9132688 L72.1586877,19.6098641 L72.0480324,19.5267217 L71.9930664,19.4435794 L71.9377388,19.3882716 L71.8827728,19.360437 L71.7999622,19.360437 L71.7724792,19.4157447 L71.7449962,19.4435794 L71.7175132,19.5267217 L71.7175132,22.2465612 L71.7724792,22.5241844 L71.8831344,22.7183037 L72.1040833,22.8574768 L72.3525151,22.9402577 L72.6287916,22.9959269 L72.6287916,23.0512346 L69.8121459,23.0512346 L69.8121459,22.9959269 L70.0609393,22.9402577 L70.2540436,22.8574768 L70.4471478,22.7461383 L70.557803,22.552019 L70.6131306,22.3022304 L70.6406136,21.2199339 L70.6680966,20.0537719 L70.6680966,17.9997943 L70.6406136,17.1394516 L70.6406136,16.3344167 L70.6131306,15.6128857 L70.557803,15.3630971 L70.4471478,15.1964509 L70.2815266,15.0854739 L70.0884223,15.0298047 L69.8949565,15.0023316 L69.7568183,14.974497 L69.7568183,14.9191892 L70.2540436,14.8913546 L70.8340795,14.8913546 L71.469443,14.8638815 L72.4913766,14.8638815 L73.0435679,14.8913546 L73.5679146,14.9470238 L74.0651398,15.0580008 L74.4795545,15.224647 L74.8386416,15.446601 L75.114918,15.7520587 L75.3355053,16.1128243 L75.4736435,16.5570936 L75.5289711,17.1119785 L75.4736435,17.5840825 L75.3355053,18.0001558 L75.0870734,18.3609213 L74.7829524,18.6663791 L74.3685377,18.9161676 L73.92664,19.110287 L73.4019317,19.2769332 L73.3469657,19.3047678 L73.3194827,19.3047678 L73.3194827,19.3879101 L73.3469657,19.4432179 L74.810797,21.3030762 L75.1145564,21.6638417 L75.7774029,22.3853728 L76.1086454,22.6908306 L76.4402495,22.9402577 L76.7714919,23.1069039 L77.0477684,23.1622116 L77.0477684,23.1900462 L76.8546642,23.2731886 L76.4124049,23.3284963 L75.9148179,23.2735501 Z M90.5238395,23.4676694 L89.9163206,23.4123616 L89.3641293,23.2735501 L88.894387,23.0515961 L88.4524893,22.7461383 L88.0380747,22.3853728 L87.6515046,21.9692995 L85.2485504,19.3047678 L85.1935844,19.2490985 L85.1382567,19.2490985 L85.1107737,19.3047678 L85.1107737,20.5537105 L85.1382567,21.2199339 L85.1661014,21.8301265 L85.1935844,22.3575382 L85.2485504,22.6073267 L85.3592056,22.7739729 L85.5248268,22.8849499 L85.7182927,22.9402577 L86.0495351,22.9959269 L86.0495351,23.0512346 L83.2050448,23.0512346 L83.2050448,22.9959269 L83.343183,22.9680923 L83.5366489,22.9402577 L83.7297531,22.8849499 L83.8953743,22.7739729 L84.0060295,22.6073267 L84.0609955,22.3575382 L84.0888402,21.6081725 L84.0888402,20.7199953 L84.1163232,19.7765103 L84.1163232,18.0001558 L84.0888402,17.1398131 L84.0888402,16.3347782 L84.0609955,15.6132472 L84.0060295,15.3634586 L83.8953743,15.1968124 L83.7297531,15.0858354 L83.5366489,15.0301662 L83.343183,15.0026931 L83.2050448,14.9748585 L83.2050448,14.9195507 L86.0495351,14.9195507 L86.0495351,14.9748585 L85.7182927,15.0301662 L85.5248268,15.0858354 L85.3592056,15.1968124 L85.2485504,15.3634586 L85.1935844,15.6132472 L85.1661014,16.3347782 L85.1382567,17.1676477 L85.1107737,18.055825 L85.1107737,18.888333 L86.1327073,17.9166519 L87.1267963,16.8621899 L88.0384363,15.8352011 L88.2040575,15.6407203 L88.3147127,15.446601 L88.3421957,15.3077894 L88.2872297,15.1411432 L88.1490915,15.0580008 L87.9281427,15.0026931 L87.6518662,14.9748585 L87.6518662,14.9195507 L89.778544,14.9195507 L89.778544,14.9748585 L89.4744229,15.0580008 L89.1981465,15.2521201 L88.92187,15.4740741 L88.6455936,15.7520587 L85.9945691,18.6663791 L87.1821239,20.0541334 L87.4305558,20.3321181 L87.7346768,20.665049 L88.1208853,21.0814838 L88.5353,21.5257531 L88.9771976,21.9700225 L89.4465783,22.3860958 L89.9163206,22.7468613 L90.3857013,23.0523191 L90.827599,23.2464384 L91.214169,23.3295808 L91.214169,23.3848885 L90.9935818,23.4405577 L90.7447884,23.4680309 L90.5238395,23.4680309 L90.5238395,23.4676694 Z" transform="translate(-.118 .208)"/>
</svg>
