<svg xmlns="http://www.w3.org/2000/svg" xmlns:xlink="http://www.w3.org/1999/xlink" width="110" height="20" viewBox="0 0 110 20">
  <defs>
    <polygon id="bebe-logo-a" points="0 19.699 0 .072 109.304 .072 109.304 19.699"/>
  </defs>
  <g fill="none" fill-rule="evenodd" transform="translate(.708 .18)">
    <mask id="bebe-logo-b" fill="#fff">
      <use xlink:href="#bebe-logo-a"/>
    </mask>
    <path fill="#1B1A18" d="M109.303535,10.8655861 C109.303535,10.5073333 109.233826,10.1979193 109.093495,9.93886099 C108.373574,8.32657171 106.943168,7.06798502 104.803494,6.16188754 C102.662604,5.25700345 99.9722594,4.80349969 96.7318525,4.80349969 C92.1505352,4.80349969 88.6900424,5.56065379 86.3497655,7.07405196 C84.2490565,8.40877874 83.1991585,10.2409946 83.1991585,12.5703962 C83.1991585,14.6622771 84.2694517,16.3355391 86.4097336,17.5898789 C88.6705604,18.9246057 91.7907267,19.5913624 95.7711457,19.5913624 C99.3120018,19.5913624 102.092146,19.2637477 104.112187,18.6070014 C105.752938,18.0694705 107.083499,17.3532683 108.103565,16.4577879 L108.073429,16.4577879 C108.153488,16.377401 108.193669,16.2681961 108.193669,16.1286565 C108.193669,15.8689914 108.063688,15.6997238 107.80342,15.6196402 L105.88292,15.052078 L105.733152,15.052078 C105.532852,15.052078 105.38278,15.1415653 105.283239,15.3211468 C104.722827,15.7998283 104.212642,16.1480707 103.752379,16.3676939 C102.192905,17.1448689 99.7217329,17.5337597 96.341299,17.5337597 C90.2805662,17.5337597 87.249591,16.008531 87.249591,12.9589837 L107.203739,12.9589837 C107.783329,12.9589837 108.278903,12.7548312 108.688634,12.3459194 C109.098365,11.9376144 109.303535,11.4443721 109.303535,10.8655861 M105.343207,11.0751988 L87.249591,11.0751988 C87.249591,9.9789028 88.134805,9.00667567 89.9055375,8.15942751 C91.6753567,7.31217935 93.7906772,6.88870694 96.2511947,6.88870694 C101.972514,6.88870694 105.002881,8.28470982 105.343207,11.0751988 M80.3544801,11.9133466 C80.3544801,9.87970833 79.3045822,8.21463667 77.2041775,6.91904164 C75.0036232,5.58370817 72.0329204,4.91573808 68.2923737,4.91573808 C64.7518221,4.91573808 61.9610236,5.6458943 59.920587,7.10681343 L59.8006509,7.10681343 L59.8006509,0.611244198 C59.8006509,0.291213117 59.6304877,0.112238389 59.2910745,0.0724999322 L56.6205165,0.0724999322 C56.2600992,0.112238389 56.080195,0.291213117 56.080195,0.610637504 L56.080195,18.8196477 C56.080195,19.1985281 56.2600992,19.3775028 56.6205165,19.3574819 L57.01107,19.3280572 L58.5705443,19.3280572 L59.0207615,19.3574819 C59.3604791,19.3775028 59.5306423,19.1985281 59.5306423,18.8196477 L59.5306423,17.5634878 L59.6508829,17.5634878 C61.4709292,18.9995324 64.1311373,19.7175548 67.6318117,19.7175548 C72.0931929,19.7175548 75.4437949,18.8302648 77.6839221,17.0562916 C79.4640912,15.6608954 80.3544801,13.9466815 80.3544801,11.9133466 M76.3941519,12.3013274 C76.3941519,13.8960226 75.7138035,15.1715967 74.353411,16.1286565 C72.8736911,17.1648898 70.7729821,17.6836132 68.052197,17.6836132 C65.932006,17.6836132 64.1019143,17.3641888 62.5613132,16.7268567 C60.5808447,15.889619 59.5909148,14.6331558 59.5909148,12.9589837 C59.5909148,9.01183257 62.3710591,7.03825701 67.9325653,7.03825701 C73.5732172,7.03825701 76.3941519,8.79251269 76.3941519,12.3013274 M52.6081348,12.3459194 C53.0181703,11.9376144 53.2239491,11.4443721 53.2239491,10.8655861 C53.2239491,10.5073333 53.1539356,10.1979193 53.0136042,9.93886099 C52.2933785,8.32657171 50.8635814,7.06798502 48.7229951,6.16188754 C46.5827132,5.25700345 43.8923688,4.80349969 40.6513531,4.80349969 C36.0706446,4.80349969 32.6101518,5.56065379 30.2695705,7.07405196 C28.1688614,8.40877874 27.1189635,10.2409946 27.1189635,12.5703962 C27.1189635,14.6622771 28.1892567,16.3355391 30.329843,17.5898789 C32.5897566,18.9246057 35.7105317,19.5913624 39.6909507,19.5913624 C43.2321112,19.5913624 46.0122555,19.2637477 48.0322968,18.6070014 C49.6727432,18.0694705 51.0036083,17.3532683 52.02337,16.4577879 L51.9932338,16.4577879 C52.0732927,16.377401 52.1134743,16.2681961 52.1134743,16.1286565 C52.1134743,15.8689914 51.9831883,15.6997238 51.7232252,15.6196402 L49.8027248,15.052078 L49.6526524,15.052078 C49.4532662,15.052078 49.3028894,15.1415653 49.2033485,15.3211468 C48.6426318,15.7998283 48.1324465,16.1480707 47.6724883,16.3676939 C46.1121008,17.1448689 43.6415379,17.5337597 40.2614084,17.5337597 C34.1997624,17.5337597 31.1697004,16.008531 31.1697004,12.9589837 L51.1235445,12.9589837 C51.7034388,12.9589837 52.1980993,12.7548312 52.6081348,12.3459194 M49.2627077,11.0751988 L31.1697004,11.0751988 C31.1697004,9.9789028 32.0549144,9.00667567 33.825038,8.15942751 C35.5954661,7.31217935 37.7104822,6.88870694 40.1709997,6.88870694 C45.8926237,6.88870694 48.9226857,8.28470982 49.2627077,11.0751988 M24.2745895,11.9133466 C24.2745895,9.87970833 23.2243872,8.21463667 21.1242869,6.91904164 C18.9237326,5.58370817 15.9527254,4.91573808 12.2121787,4.91573808 C8.67162709,4.91573808 5.88082858,5.6458943 3.84039202,7.10681343 L3.72076027,7.10681343 L3.72076027,0.611244198 C3.72076027,0.291213117 3.55059706,0.112238389 3.21087944,0.0724999322 L0.540321483,0.0724999322 C0.179599817,0.112238389 0,0.291213117 0,0.610637504 L0,18.8196477 C0,19.1985281 0.179599817,19.3775028 0.540321483,19.3574819 L0.930570576,19.3280572 L2.49034932,19.3280572 L2.9408709,19.3574819 C3.28058852,19.3775028 3.45075174,19.1985281 3.45075174,18.8196477 L3.45075174,17.5634878 L3.57038348,17.5634878 C5.39103857,18.9995324 8.05155111,19.7175548 11.5525299,19.7175548 C16.0129979,19.7175548 19.3635999,18.8302648 21.6043359,17.0562916 C23.3842006,15.6608954 24.2745895,13.9466815 24.2745895,11.9133466 M20.3139569,12.3013274 C20.3139569,13.8960226 19.6339129,15.1715967 18.2732159,16.1286565 C16.7931917,17.1648898 14.6924826,17.6836132 11.9723064,17.6836132 C9.85181097,17.6836132 8.02141487,17.3641888 6.48111814,16.7268567 C4.50095405,15.889619 3.51071981,14.6331558 3.51071981,12.9589837 C3.51071981,9.01183257 6.2911685,7.03825701 11.8523703,7.03825701 C17.4933266,7.03825701 20.3139569,8.79251269 20.3139569,12.3013274" mask="url(#bebe-logo-b)"/>
  </g>
</svg>
