<svg xmlns="http://www.w3.org/2000/svg" width="95" height="20" viewBox="0 0 95 20">
  <path fill="#231F20" d="M35.5561036,19.266891 L38.2434092,19.266891 L38.2434092,4.705216 L35.5561036,4.705216 L35.5561036,19.266891 Z M30.849342,5.43270154 C29.5597535,3.85528762 27.9942783,4.08903605 27.9942783,4.08903605 C27.9942783,4.08903605 23.1205567,4.03497179 22.1140105,4.08903605 C21.1050769,4.14469044 20.7139067,4.42694087 20.3187615,4.92942368 C20.2464111,5.02721639 20.1446431,5.16635554 20.0404902,5.32218783 L20.0404902,0 L17.3523892,0 L17.3523892,19.266891 L20.0404902,19.266891 L20.0404902,7.09678048 C20.5668204,6.56090504 21.2887357,6.55374948 21.9454572,6.55374948 C22.7858353,6.55374948 27.2652089,6.60940387 28.0499326,6.60940387 C28.8338645,6.60940387 29.0024177,7.22558063 29.0024177,7.56110027 L29.0024177,19.266891 L31.6897233,19.266891 L31.6897233,9.79524234 L31.663518,8.28858899 C31.5943476,7.30826715 31.3916066,6.09579019 30.8493738,5.43270154 L30.849342,5.43270154 Z M4.5074168,6.55056923 C6.5117654,6.55056923 10.829741,6.6022801 10.829741,6.6022801 C10.829741,6.6022801 11.6502441,6.54980597 11.6502441,8.04214818 L14.4774807,8.04214818 C14.4774807,8.04214818 14.4774807,7.16757286 14.2723548,6.6022801 C14.0664342,6.03619229 13.7070665,4.18686056 10.930714,4.03500359 C8.15515617,3.87758118 4.35078977,4.03500359 3.53028666,4.03500359 C2.70739868,4.03500359 0.137761785,4.80463064 0.0351990155,6.80820134 C-0.0673640718,8.81257029 0.08684597,16.0095287 0.08684597,16.4714633 C0.08684597,16.9341929 0.601250578,19.3511994 3.37521795,19.3511994 C6.15077577,19.3511994 10.3661889,19.3321179 11.2908446,19.2995522 C12.6782258,19.247078 13.4494351,18.5808123 13.9129557,17.6537628 C14.3756812,16.7283035 14.4257698,16.267164 14.3216169,15.4951517 L11.7026861,15.4951517 C11.7026861,15.4951517 11.7535702,16.7283035 11.1882819,16.7283035 L4.04545453,16.7283035 C4.04545453,16.7283035 2.70736688,17.0367878 2.70736688,14.8789718 L2.70736688,7.4752971 C2.70736688,7.4752971 2.50144628,6.55063283 4.507385,6.55063283 L4.5074168,6.55056923 Z M46.3450821,6.55063283 C48.3510189,6.55063283 52.6666097,6.60234371 52.6666097,6.60234371 C52.6666097,6.60234371 53.4894996,6.54986957 53.4894996,8.04221179 L56.3191213,8.04221179 C56.3191213,8.04221179 56.3191213,7.16763646 56.1116099,6.60234371 C55.9080739,6.03625589 55.5463204,4.18692417 52.7715579,4.03506719 C49.9960004,3.87764478 46.1900449,4.03506719 45.3687451,4.03506719 C44.5474485,4.03506719 41.9762221,4.80469424 41.8752492,6.80826495 C41.7703009,8.8126339 41.9261332,16.0095923 41.9261332,16.4715269 C41.9261332,16.9342565 42.4389454,19.351263 45.2129128,19.351263 C47.9916506,19.351263 52.2062715,19.3321815 53.1301312,19.2996158 C54.5183075,19.2471416 55.2887201,18.5808759 55.7530367,17.6538264 C56.2149681,16.7283671 56.2666472,16.2672276 56.163289,15.4952153 L53.5419737,15.4952153 C53.5419737,15.4952153 53.5936846,16.7283671 53.0275681,16.7283671 L45.8831507,16.7283671 C45.8831507,16.7283671 44.5474485,17.0368514 44.5474485,14.8790354 L44.5474485,7.47536071 C44.5474485,7.47536071 44.3407322,6.55069644 46.3450821,6.55069644 L46.3450821,6.55063283 Z M70.5713833,4.035099 L62.8473652,4.035099 C62.0236834,4.035099 59.4556341,4.80472604 59.3498939,6.80829675 C59.2481259,8.8126657 59.4016048,16.0096241 59.4016048,16.4715587 C59.4016048,16.9342883 59.9160072,19.3512948 62.6923598,19.3512948 L70.7240672,19.3512948 C73.5004197,19.3512948 74.0148221,16.9342883 74.0148221,16.4715587 C74.0148221,16.0096241 74.1682692,8.8126657 74.0657061,6.80829675 C73.9639381,4.80472604 71.3935068,4.035099 70.5714151,4.035099 L70.5713833,4.035099 Z M71.3935068,7.47536071 L71.3935068,14.8790354 C71.3935068,17.0368514 70.0578046,16.7283671 70.0578046,16.7283671 L63.3602124,16.7283671 C63.3602124,16.7283671 62.0237152,17.0368514 62.0237152,14.8790354 L62.0237152,7.47536071 C62.0237152,7.47536071 61.8193841,6.55069644 63.8237308,6.55069644 L69.5942831,6.55069644 C71.599428,6.55069644 71.3935068,7.47536071 71.3935068,7.47536071 L71.3935068,7.47536071 Z M75.7719075,6.73992136 L77.4653878,6.73992136 C77.6220152,6.73992136 78.0076206,5.75244713 78.0624767,5.60695066 C78.1896868,5.26586559 78.2882746,4.91682988 78.3646006,4.56620406 C78.4695488,4.09870401 78.5331539,3.62086815 78.5800626,3.14144217 C78.5911934,3.01661733 78.5975539,1.70395928 78.6055046,1.70395928 L75.7719075,1.70395928 L75.7719075,6.73992136 L75.7719075,6.73992136 Z M90.7087185,10.4179068 L89.3761966,10.4338081 L84.1510541,10.4250942 C83.3345279,10.4250942 82.6269221,10.5038086 82.3613712,10.0911679 C82.1912309,9.82561373 82.1848704,9.41615327 82.1602235,9.10925589 C82.1291843,8.73001098 82.1236506,8.34996783 82.1244139,7.9675395 C82.1244139,7.6121433 82.0687595,7.13828275 82.2897869,6.82900018 C82.5895224,6.4092039 83.3647085,6.4155644 83.8218664,6.4155644 C85.8278064,6.4155644 89.647278,6.46804172 90.1449872,6.46804172 C90.6411064,6.46804172 91.1022395,6.54993318 91.1022395,8.04227539 L93.8547402,8.04227539 C93.8022693,7.17724082 93.7593359,7.19155195 93.7132222,6.60956288 C93.6512074,5.8470914 93.3538539,4.09317038 90.6689336,4.0351308 C87.8909909,3.9691406 83.8027849,4.0351308 82.9806932,4.0351308 C81.3873908,4.0351308 79.549209,5.23329982 79.549209,7.05480117 C79.549209,7.84112453 79.1954093,11.0221926 80.3689186,12.0335187 C81.0280224,12.6035819 81.8405765,12.9557978 83.8242516,12.9557978 L89.8229868,12.9096842 C90.7929633,12.9096842 91.1745902,13.0734671 91.1745902,13.9726894 L91.1745902,16.1090387 C91.1745902,16.7920039 90.9098375,16.8619694 89.4206883,16.8619694 C87.4163384,16.8619694 83.6517261,16.8054882 82.9329895,16.8110854 C82.214256,16.8174459 82.0091298,16.7228335 82.0091298,15.1581374 L79.4506244,15.1581374 C79.4506244,15.1581374 79.4744763,16.1146042 79.4744763,16.7228335 C79.4744763,17.587073 80.221037,19.2280919 82.9957994,19.3831323 C85.7737421,19.5373745 89.5765174,19.3831323 90.3978172,19.3831323 C91.2214989,19.3831323 93.6289456,18.60953 93.7315087,16.6067511 C93.7649013,15.9492311 93.7270563,13.752457 93.7270563,13.752457 C93.7906613,11.569994 92.2442676,10.4179386 90.7090047,10.4179386 L90.7087185,10.4179068 Z" transform="translate(.647 .18)"/>
</svg>
