<svg xmlns="http://www.w3.org/2000/svg" width="116" height="15" viewBox="0 0 116 15">
  <g fill-rule="evenodd" transform="translate(.023 .94)">
    <path d="M13.8041963.269385915L14.1735244 4.70266991 13.8041963 4.70266991C13.3117589 3.37540551 12.6092004 2.42016306 11.6959821 1.83694255 10.7827639 1.25345266 9.68717137.961707715 8.40866582.961707715 7.33677926.961707715 6.36806751 1.18152662 5.50279996 1.62062566 4.63699363 2.0597247 3.95625542 2.76012808 3.46004657 3.72156641 2.96356832 4.68327413 2.7154639 5.8790782 2.7154639 7.30843987 2.7154639 8.48835017 2.95009903 9.51066972 3.41856113 10.3762067 3.88675385 11.2414742 4.59146741 11.9049717 5.53243241 12.3666992 6.47339741 12.8281573 7.54716966 13.059021 8.75401856 13.059021 9.80246854 13.059021 10.7272704 12.8779937 11.5295016 12.5156696 12.3311941 12.1536149 13.2126248 11.4338158 14.1735244 10.3568109L14.5428525 10.5491524C13.732809 11.7096669 12.7878032 12.5590407 11.7081045 13.0975432 10.627867 13.6360456 9.34559003 13.9051621 7.86100425 13.9051621 5.18492458 13.9051621 3.11280812 13.1040084 1.64357734 11.5011622.547984828 10.3088602.0000538772911 8.9048208.0000538772911 7.28958285.0000538772911 5.98791011.361569775 4.79237542 1.08379341 3.70244001 1.80628644 2.61277399 2.80085923 1.76797976 4.0675118 1.1685961 5.33389499.569212438 6.71746105.269385915 8.21820998.269385915 9.38545914.269385915 10.5368145.500249644 11.6720068.961707715 12.0057759 1.10286593 12.2439131 1.17317566 12.386957 1.17317566 12.6011188 1.17317566 12.7878032 1.11256383 12.9464716.990532008 13.1530905.817586251 13.2999059.577294015 13.3874563.269385915L13.8041963.269385915zM20.1556696 6.58718602L27.5664762 6.58718602 27.5664762 2.8561911C27.5664762 2.18946096 27.5152928 1.75009253 27.4131956 1.53862459 27.3350737 1.37860936 27.1704789 1.24068377 26.9191418 1.12511721 26.58214.971297854 26.2252037.894522868 25.8488716.894522868L25.2842387.894522868 25.2842387.538664075 32.106437.538664075 32.106437.894522868 31.5420735.894522868C31.1657414.894522868 30.808805.968334609 30.4712645 1.11541932 30.2207356 1.21805535 30.0499449 1.37376041 29.95997 1.58199572 29.8697257 1.79023103 29.8244689 2.21505262 29.8244689 2.8561911L29.8244689 11.2701908C29.8244689 11.9304556 29.8753828 12.3665914 29.9777495 12.5780594 30.0558714 12.738344 30.2166948 12.8762696 30.4596809 12.9915668 30.8047642 13.1453861 31.1657414 13.2224305 31.5420735 13.2224305L32.106437 13.2224305 32.106437 13.5782893 25.2842387 13.5782893 25.2842387 13.2224305 25.8488716 13.2224305C26.4997079 13.2224305 26.9740965 13.0653785 27.2720374 12.7510051 27.4681503 12.5462718 27.5664762 12.0527568 27.5664762 11.2701908L27.5664762 7.2989036 20.1556696 7.2989036 20.1556696 11.2701908C20.1556696 11.9304556 20.2065836 12.3665914 20.3086808 12.5780594 20.3870721 12.738344 20.5513976 12.8762696 20.8027346 12.9915668 21.1397364 13.1453861 21.4966727 13.2224305 21.8730049 13.2224305L22.4492213 13.2224305 22.4492213 13.5782893 15.6154394 13.5782893 15.6154394 13.2224305 16.1803417 13.2224305C16.8387209 13.2224305 17.3168809 13.0653785 17.6150911 12.7510051 17.8033918 12.5462718 17.8974075 12.0527568 17.8974075 11.2701908L17.8974075 2.8561911C17.8974075 2.18946096 17.8462242 1.75009253 17.7443963 1.53862459 17.6657356 1.37860936 17.5051816 1.24068377 17.2621955 1.12511721 16.9171122.971297854 16.5561351.894522868 16.1803417.894522868L15.6154394.894522868 15.6154394.538664075 22.4492213.538664075 22.4492213.894522868 21.8730049.894522868C21.4966727.894522868 21.1397364.968334609 20.8027346 1.11541932 20.5597485 1.21805535 20.3911129 1.37376041 20.2968279 1.58199572 20.2028122 1.79023103 20.1556696 2.21505262 20.1556696 2.8561911L20.1556696 6.58718602zM37.3803128 6.87564445C37.514467 6.87564445 37.6308417 6.87726077 37.7294369 6.8804934 37.8283016 6.88372603 37.9096561 6.88534235 37.9732312 6.88534235 39.3422504 6.88534235 40.3745372 6.61595643 41.0695529 6.07745399 41.7648379 5.53895155 42.1123458 4.85309501 42.1123458 4.01961499 42.1123458 3.20553075 41.831915 2.54364956 41.2707842 2.03397141 40.7099227 1.52429326 39.9669563 1.26945418 39.0424239 1.26945418 38.6329573 1.26945418 38.0790998 1.33060479 37.3803128 1.45209783L37.3803128 6.87564445zM47.5752227 13.5782354L43.7426693 13.5782354 38.8837556 7.48149338C38.5235866 7.4944239 38.2307641 7.50061978 38.0047493 7.50061978 37.9131581 7.50061978 37.8142935 7.49927285 37.7084248 7.49604022 37.6025562 7.49280759 37.4931855 7.48768925 37.3803128 7.48149338L37.3803128 11.2701369C37.3803128 12.0909558 37.4791774 12.6006339 37.6766373 12.7991713 37.9449457 13.0814878 38.3471388 13.222646 38.8837556 13.222646L39.4448864 13.222646 39.4448864 13.5782354 33.2937285 13.5782354 33.2937285 13.222646 33.8335778 13.222646C34.4407737 13.222646 34.8747544 13.043235 35.1357893 12.6841435 35.2839516 12.4850674 35.3583021 12.0139114 35.3583021 11.2701369L35.3583021 2.84643933C35.3583021 2.02588983 35.2591681 1.51621168 35.0619776 1.31740488 34.7866652 1.03535782 34.3771986.894468991 33.8335778.894468991L33.2937285.894468991 33.2937285.538610198 38.5235866.538610198C40.0480415.538610198 41.1719195.639629916 41.8954901.841669352 42.6187913 1.0434394 43.2327218 1.41519196 43.737551 1.95692704 44.2421108 2.49866211 44.4945254 3.14464954 44.4945254 3.89461992 44.4945254 4.69604302 44.2068212 5.39159745 43.6316823 5.98128322 43.0565434 6.57123837 42.1654148 6.98797838 40.9585659 7.23150325L43.9228885 10.9721961C44.6003941 11.8312677 45.182537 12.4018271 45.6695868 12.6841435 46.1566365 12.9659212 46.7918485 13.1453322 47.5752227 13.222646L47.5752227 13.5782354zM54.1019855 13.2225113L54.1019855 13.5781007 47.9510969 13.5781007 47.9510969 13.2225113 48.4594281 13.2225113C49.0520771 13.2225113 49.4825558 13.0654593 49.7508642 12.7510859 49.9203079 12.5460833 50.0048951 12.0525683 50.0048951 11.2702716L50.0048951 2.84630464C50.0048951 2.18630915 49.9590995 1.75017335 49.8672389 1.53870541 49.7966598 1.37842079 49.6517302 1.2404952 49.4332582 1.12519803 49.1226562.97137867 48.7983156.894334298 48.4594281.894334298L47.9510969.894334298 47.9510969.538744891 54.1019855.538744891 54.1019855.894334298 53.5831482.894334298C52.9972338.894334298 52.5702572 1.05165567 52.3022182 1.36549026 52.1257704 1.57076233 52.0376812 2.06454671 52.0376812 2.84630464L52.0376812 11.2702716C52.0376812 11.9305365 52.0834768 12.3664029 52.175068 12.5778708 52.2456471 12.7384248 52.3938094 12.8763504 52.6198242 12.9916476 52.9234221 13.1454669 53.2445301 13.2225113 53.5831482 13.2225113L54.1019855 13.2225113zM64.0107268.375119886L64.0107268 4.88517887 63.619309 4.88517887C63.4921589 4.01964193 63.2645278 3.33055276 62.9366851 2.81764197 62.6083037 2.30500058 62.1403804 1.89768908 61.5339927 1.59651562 60.9265274 1.29534217 60.2985889 1.14448606 59.6493688 1.14448606 58.9150228 1.14448606 58.3080963 1.34814181 57.82832 1.75518393 57.3482743 2.16222604 57.1082515 2.62530043 57.1082515 3.14467648 57.1082515 3.54229009 57.2601851 3.90434475 57.5635137 4.23110987 58.0009964 4.71223311 59.0424423 5.3531022 60.686774 6.1545253 62.0275077 6.80832491 62.9431504 7.30992149 63.4334328 7.65931502 63.9242539 8.00897794 64.3019329 8.420869 64.5664699 8.8952576 64.8315456 9.36964619 64.9635447 9.86639382 64.9635447 10.3855005 64.9635447 11.3727999 64.5419558 12.22379 63.6985085 12.9387402 62.8550612 13.6536904 61.7699747 14.0108961 60.4429797 14.0108961 60.0267785 14.0108961 59.6353607 13.9823412 59.2681877 13.9244232 59.049177 13.8923663 58.5955311 13.7754528 57.9077889 13.5734134 57.2195079 13.371374 56.7836414 13.2706236 56.6001896 13.2706236 56.4237419 13.2706236 56.2842 13.3185743 56.1821027 13.4147451 56.0797361 13.5109159 56.0037692 13.7097227 55.9544716 14.0108961L55.5627845 14.0108961 55.5627845 9.5396287 55.9544716 9.5396287C56.1379234 10.4754754 56.3846809 11.1758787 56.6955523 11.6405695 57.0061542 12.1055295 57.4808122 12.4918289 58.1195262 12.7991983 58.7582402 13.1071064 59.458913 13.2609257 60.2210057 13.2609257 61.1029752 13.2609257 61.800146 13.0494578 62.3117098 12.6262525 62.8232737 12.2030472 63.0791903 11.703067 63.0791903 11.1260424 63.0791903 10.8057425 62.9824807 10.4819406 62.7879841 10.1549061 62.5937569 9.82787163 62.2920446 9.52346555 61.8831168 9.2414185 61.6078044 9.04907695 60.8562177 8.64041852 59.6278179 8.01517381 58.3999569 7.39019849 57.5266078 6.89183455 57.0077705 6.52008199 56.4892026 6.14832942 56.0956298 5.73778529 55.8275908 5.28898836 55.5590131 4.84046081 55.4251283 4.34667643 55.4251283 3.80817398 55.4251283 2.87232732 55.8203174 2.06605527 56.6109651 1.38962724 57.4013434.713468595 58.4066916.375119886 59.6278179.375119886 60.3901801.375119886 61.1983378.545102398 62.0520218.884798037 62.4474803 1.04508266 62.725756 1.12535966 62.8887344 1.12535966 63.0724556 1.12535966 63.2222342 1.07579265 63.3386089.976119862 63.4549836.876985845 63.5481912.676562725 63.619309.375119886L64.0107268.375119886zM79.0160879.538637136L79.1911888 3.59670604 78.7472408 3.59670604C78.6613067 3.0582036 78.5441238 2.67325112 78.3965003 2.44265678 78.1545918 2.07090422 77.8332144 1.79666936 77.4318294 1.62049097 77.0304443 1.4440432 76.502448 1.355954 75.8475708 1.355954L73.614631 1.355954 73.614631 11.3183839C73.614631 12.119807 73.7202302 12.6197873 73.9303512 12.8183247 74.2266757 13.0877106 74.6827461 13.2224035 75.2982929 13.2224035L75.8475708 13.2224035 75.8475708 13.5782623 69.1255841 13.5782623 69.1255841 13.2224035 69.6864455 13.2224035C70.3564083 13.2224035 70.8321438 13.0556537 71.1125746 12.7224233 71.2841734 12.5171512 71.3701075 12.0492279 71.3701075 11.3183839L71.3701075 1.355954 69.4639328 1.355954C68.7236603 1.355954 68.1975496 1.40094145 67.8858701 1.49064696 67.4807137 1.61240939 67.1337446 1.84623637 66.8452323 2.19266665 66.5569894 2.53882755 66.3853905 3.00675089 66.3307052 3.59670604L65.8867572 3.59670604 66.073711.538637136 79.0160879.538637136zM87.0505767 13.3572043L87.0505767 13.7127937 80.8996881 13.7127937 80.8996881 13.3572043 81.4080193 13.3572043C82.0009377 13.3572043 82.4314164 13.2001523 82.6997248 12.8857789 82.8691685 12.6807762 82.9537557 12.1872612 82.9537557 11.4049645L82.9537557 2.98099759C82.9537557 2.3210021 82.9076907 1.88486631 82.8160995 1.67339836 82.745251 1.51311374 82.6005908 1.37518816 82.3821188 1.25989098 82.0715168 1.10607163 81.7466374 1.02902726 81.4080193 1.02902726L80.8996881 1.02902726 80.8996881.673437848 87.0505767.673437848 87.0505767 1.02902726 86.5317394 1.02902726C85.9458251 1.02902726 85.5188484 1.18634863 85.2508094 1.50018322 85.074631 1.70545529 84.9865418 2.19923967 84.9865418 2.98099759L84.9865418 11.4049645C84.9865418 12.0652294 85.032068 12.5010958 85.124198 12.7125638 85.1942384 12.8731178 85.3424006 13.0110434 85.5684154 13.1263405 85.8720133 13.2801599 86.192852 13.3572043 86.5317394 13.3572043L87.0505767 13.3572043zM91.985565 1.38493993L91.985565 6.53910063 95.2324735 6.53910063C96.0748432 6.53910063 96.6381292 6.42703609 96.9212538 6.20263762 97.2992022 5.90792943 97.509862 5.38855339 97.5535025 4.64477888L97.9565038 4.64477888 97.9565038 9.18366216 97.5535025 9.18366216C97.4516746 8.54898894 97.3498468 8.14194682 97.2480189 7.9625358 97.1176361 7.73786795 96.9029355 7.56195895 96.6049947 7.43373125 96.3075926 7.30523417 95.8496366 7.24112033 95.2324735 7.24112033L91.985565 7.24112033 91.985565 11.5397114C91.985565 12.1164666 92.0146587 12.4674765 92.0728461 12.5927409 92.130764 12.717736 92.2325919 12.8171394 92.3777909 12.8906817 92.5232593 12.9644935 92.7991105 13.0013993 93.2056138 13.0013993L95.7119804 13.0013993C96.5470767 13.0013993 97.1540032 12.9499466 97.5316822 12.8473106 97.9090919 12.7449439 98.2727629 12.5429045 98.6208095 12.2414617 99.0714921 11.8443868 99.5326808 11.2447338 100.005184 10.4433107L100.440781 10.4433107 99.1657772 13.7128475 87.7801815 13.7128475 87.7801815 13.3572581 88.3027902 13.3572581C88.651645 13.3572581 88.9821815 13.2834464 89.2943997 13.1360923 89.5266104 13.0334563 89.6847399 12.8793675 89.7682496 12.6743648 89.8514898 12.4693622 89.893514 12.0491201 89.893514 11.4147163L89.893514 2.94279867C89.893514 2.11578391 89.7989596 1.60610576 89.6103894 1.41376422 89.3488157 1.15730883 88.9129493 1.02908113 88.3027902 1.02908113L87.7801815 1.02908113 87.7801815.673222339 99.1657772.673222339 99.3292945 3.52925181 98.9047423 3.52925181C98.7517311 2.84339527 98.5828261 2.3722393 98.397758 2.11578391 98.2124205 1.85932852 97.9381856 1.66375435 97.5753228 1.52906139 97.2846554 1.43289062 96.7722834 1.38493993 96.0387455 1.38493993L91.985565 1.38493993zM101.455881 4.98126883L101.455881 4.52923926C102.182684 4.1383603 102.676738 3.773073 102.938042 3.43310797 103.121494 3.18958311 103.213354 2.89783816 103.213354 2.55787314 103.213354 2.35933572 103.174563 2.21171224 103.09698 2.11554147 103.012123 2.01937069 102.920532 1.97142 102.821398 1.97142 102.743815 1.97142 102.641448 1.99404842 102.514837 2.03876648 102.331116 2.09641507 102.179451 2.12523936 102.059305 2.12523936 101.776719 2.12523936 101.52646 2.02906859 101.307718 1.83672704 101.088977 1.6443855 100.979337 1.40409326 100.979337 1.11558095 100.979337.795011712 101.088977.545021583 101.307718.365341178 101.604312.121816311 101.956669.0000538772911 102.366405.0000538772911 102.839177.0000538772911 103.264268.181350598 103.641947.543405267 104.019896.905729322 104.208735 1.35587319 104.208735 1.89437563 104.208735 2.65108066 103.894362 3.34016983 103.266154 3.96191252 102.849953 4.37218727 102.246528 4.71188291 101.455881 4.98126883M114.48271.269385915L114.48271 4.7794449 114.090754 4.7794449C113.963873 3.91390795 113.736242 3.22481878 113.40786 2.711908 113.079748 2.19926661 112.612364 1.7919551 112.005707 1.49078165 111.398511 1.1896082 110.770303 1.03875209 110.121083 1.03875209 109.386737 1.03875209 108.78008 1.24240784 108.300303 1.64944996 107.820258 2.05649207 107.579965 2.51956646 107.579965 3.0389425 107.579965 3.43655611 107.73163 3.79861078 108.035228 4.1253759 108.47298 4.60649914 109.513887 5.24736823 111.158219 6.04879133 112.499491 6.70259094 113.415134 7.20418752 113.905416 7.55358105 114.396237 7.90324397 114.773916 8.31513503 115.038453 8.78952362 115.30299 9.26391222 115.435528 9.76065985 115.435528 10.2797665 115.435528 11.2670659 115.01367 12.118056 114.170222 12.8330062 113.326775 13.5479564 112.241689 13.9051621 110.914963 13.9051621 110.498492 13.9051621 110.106805 13.8766072 109.739902 13.8186893 109.520891 13.7866323 109.067245 13.6697189 108.379503 13.4676794 107.691222 13.26564 107.255355 13.1648897 107.071904 13.1648897 106.895456 13.1648897 106.756183 13.2128403 106.653817 13.3090111 106.551719 13.4051819 106.475483 13.6039887 106.426186 13.9051621L106.034768 13.9051621 106.034768 9.43389473 106.426186 9.43389473C106.609637 10.3697414 106.856395 11.0701448 107.167536 11.5348355 107.477868 11.9997956 107.952257 12.386095 108.590971 12.6934643 109.229685 13.0013724 109.930358 13.1551918 110.69272 13.1551918 111.574689 13.1551918 112.27186 12.9437238 112.783693 12.5205185 113.295257 12.0973133 113.550904 11.597333 113.550904 11.0203084 113.550904 10.7000085 113.454195 10.3762067 113.259698 10.0491722 113.06574 9.72213766 112.764028 9.41773158 112.354831 9.13568452 112.079249 8.94334298 111.327932 8.53468455 110.099532 7.90943984 108.87194 7.28446452 107.998591 6.78610058 107.479754 6.41434801 106.960917 6.04259545 106.567344 5.63205132 106.299305 5.18325438 106.030996 4.73472684 105.896842 4.24094245 105.896842 3.70244001 105.896842 2.76659334 106.292301 1.9603213 107.082679 1.28389327 107.873057.607734624 108.878406.269385915 110.099532.269385915 110.862163.269385915 111.670321.439368427 112.524005.779064065 112.919464.939348685 113.197739 1.01962569 113.360448 1.01962569 113.5439 1.01962569 113.693679.970058679 113.810592.87038589 113.926698.771251874 114.020174.570828753 114.090754.269385915L114.48271.269385915z"/>
  </g>
</svg>
