<svg xmlns="http://www.w3.org/2000/svg" xmlns:xlink="http://www.w3.org/1999/xlink" width="202" height="13" viewBox="0 0 202 13">
  <defs>
    <polygon id="club-monaco-logo-a" points=".025 12.144 55.66 12.144 55.66 .179 .025 .179 .025 12.144"/>
  </defs>
  <g fill="none" fill-rule="evenodd" transform="translate(.665 .587)">
    <path fill="#191916" d="M6.41294993.451314145C9.77698877-.0390609868 13.3638249.0312797084 16.5271455 1.39789893 16.0534502 2.24600674 15.5837694 3.09411455 15.108067 3.94021263 12.3943555 3.11421189 9.39562398 2.561535 6.63976162 3.49405165 5.48964571 3.87188167 4.25522812 4.75616469 4.26124967 6.0926379 4.1869839 7.44317925 5.42541586 8.38172509 6.57954612 8.77563299 9.35949469 9.77246112 12.3662549 9.14944354 15.1181029 8.36966669 15.5917981 9.16954088 16.0574646 9.97745401 16.5311598 10.7853671 13.8616063 12.0374315 10.8287527 12.2806093 7.9223516 12.0454704 5.65222754 11.8043023 3.24360785 11.2516255 1.5294735 9.6418284.200718308 8.33751094-.451616192 6.21121221.351257038 4.45872404 1.26452534 1.97067316 4.00433024.891445924 6.41294993.451314145M20.8064598.272447806C22.2054664.27445754 23.604473.27445754 25.0054868.268428338 24.9994652 3.27901009 25.0054868 6.28356264 25.0014724 9.29213466 28.1186277 9.29213466 31.2377902 9.29615413 34.3569527 9.29213466 34.3529384 10.196515 34.3529384 11.1029051 34.3529384 12.0092952 29.8387836 11.9992466 25.3226217 12.003266 20.808467 12.0052758 20.808467 8.09433311 20.808467 4.18138072 20.8064598.272447806M37.1489444.268428338C38.5078073.27445754 39.8626559.268428338 41.2215188.27445754 41.2275404 2.50928191 41.1733464 4.74410629 41.2395835 6.97692092 41.2215188 7.85718448 41.7674726 8.68921442 42.604468 8.9705772 43.8730077 9.3946311 45.2820502 9.40066031 46.5766833 9.07508337 47.4377648 8.87009049 48.1784154 8.12648886 48.19648 7.20603062 48.2566955 4.89684608 48.2004944 2.58163234 48.218559.268428338 49.5834435.27445754 50.948328.272447806 52.3172269.27445754 52.2971551 2.59570048 52.3453275 4.91694342 52.2971551 7.23818636 52.2650401 8.69524362 51.5284039 10.1161257 50.2879648 10.8898733 48.5296724 11.9871882 46.3779722 12.1379182 44.358746 12.1258598 42.4760083 12.0615483 40.4688252 11.8264094 38.8972008 10.6929194 37.71497 9.85486022 37.1328869 8.37569589 37.1529587 6.95481385 37.1409156 4.72802841 37.1589803 2.49722351 37.1489444.268428338M67.9009963 8.33952068C67.9150466 9.19767716 66.9556131 9.54335143 66.253099 9.63177973 64.7276398 9.78652926 63.1901376 9.67398415 61.6646785 9.7061399 61.6666857 8.76156485 61.6666857 7.81498006 61.6666857 6.87241475 63.2423244 6.90658023 64.8239846 6.79604485 66.3976162 6.93672624 67.1442883 6.96888199 67.9772693 7.50146154 67.9009963 8.33952068zM61.6606641 2.57962261C63.3286332 2.62785623 65.0126598 2.46305803 66.6705931 2.68010932 67.3670856 2.76049868 67.8588454 3.4679251 67.65612 4.15324445 67.3550425 4.85464166 66.5240687 5.03953721 65.8396193 5.07772215 64.4486414 5.12595577 63.0556563 5.08174162 61.6606641 5.09580976 61.6666857 4.25775062 61.6666857 3.41768175 61.6606641 2.57962261zM71.7547878 7.27838105C71.2168627 6.45639978 70.2032353 6.21121221 69.3361322 5.90573262 70.1008689 5.62236011 70.9479002 5.30884158 71.3794446 4.56122048 71.9314199 3.62468436 71.6524215 2.34448371 70.8013758 1.68127144 69.4926925.606063675 67.7203498.382983184 66.0865028.290535413 63.1058359.248330996 60.1231619.286515945 57.1445022.272447806 57.1545381 4.18339046 57.1465094 8.09634284 57.1485166 12.0092952 60.1372122 11.9992466 63.1239006 12.003266 66.1125962 12.0052758 67.700278 12.0253731 69.4023692 11.912828 70.7612322 11.0004087 71.9514917 10.2447486 72.5114958 8.52441622 71.7547878 7.27838105L71.7547878 7.27838105z"/>
    <g fill="#191916" transform="translate(83.557)">
      <path d="M.0240790539.272447806C1.78237143.272447806 3.5406638.27445754 5.30096336.268428338 6.3286411 2.00282891 7.39646249 3.71110293 8.31575234 5.50579553 9.37353782 3.75330735 10.4554095 2.01488731 11.5292524.272447806 13.3959327.272447806 15.2646202.27445754 17.1313004.272447806 17.127286 4.18138072 17.1313004 8.09433311 17.1313004 12.0052758 15.8045524 12.003266 14.4798116 12.003266 13.1530636 12.0052758 13.1530636 9.06905417 13.1550707 6.13484232 13.1550707 3.19862073 11.5051663 5.99617066 9.84723303 8.78769139 8.21338601 11.59529 6.54943124 8.74347724 4.90956266 5.87960608 3.27772282 3.00970572 3.24761507 6.00822906 3.26969409 9.00474268 3.26367254 12.0052758 2.18380804 12.003266 1.10394355 12.003266.0240790539 12.003266.0240790539 8.09433311.026086237 4.18339046.0240790539.272447806M34.4131467 6.4162051C34.2887014 7.51151021 33.4095552 8.35961802 32.4400857 8.77563299 30.9668134 9.40668951 29.2627149 9.4589426 27.7432773 8.96655773 26.785851 8.64701 25.8585324 8.01394374 25.4731533 7.04324215 25.1620399 6.1810662 25.2583847 5.14806285 25.8264175 4.40848068 26.4626945 3.57042154 27.4783292 3.11622163 28.4839279 2.91122874 30.0936887 2.63388543 31.8780745 2.8027031 33.242959 3.76536576 34.0779471 4.34617892 34.5676998 5.39927962 34.4131467 6.4162051zM38.5017786 5.78916804C38.4877283 3.90001794 37.1971096 2.25203594 35.5853416 1.38383079 33.3272607.149854023 30.6456641-.107391948 28.1246421.149854023 25.7340871.431216804 23.1147132 1.34363611 21.8461735 3.544295 20.7964167 5.38119201 21.0493218 7.87728182 22.4944936 9.43482579 23.9838234 11.0566812 26.2138038 11.7420006 28.3494466 11.9469935 31.0491079 12.1600253 33.9494874 11.8605749 36.2356689 10.2889628 37.6888695 9.29816386 38.648303 7.5697925 38.5017786 5.78916804L38.5017786 5.78916804z"/>
    </g>
    <path fill="#191916" d="M126.155471,0.268428338 C127.520355,0.27445754 128.887247,0.272447806 130.256146,0.272447806 C132.831362,2.4791359 135.432671,4.66170719 137.991829,6.89050236 C137.989822,4.685824 137.995844,2.4791359 137.987815,0.272447806 C139.206175,0.272447806 140.430557,0.272447806 141.650924,0.27445754 C141.650924,4.18339046 141.64691,8.09031364 141.650924,11.9992466 C140.59916,12.0052758 139.549403,12.003266 138.497639,12.0052758 C135.581202,9.48908861 132.69688,6.93270677 129.824601,4.3622568 C129.808544,6.9105997 129.822594,9.4589426 129.81858,12.0052758 C128.596205,12.003266 127.379852,12.003266 126.159485,12.0092952 C126.155471,8.09634284 126.163499,4.18339046 126.155471,0.268428338"/>
    <g transform="translate(145.058)">
      <mask id="club-monaco-logo-b" fill="#fff">
        <use xlink:href="#club-monaco-logo-a"/>
      </mask>
      <path fill="#191916" d="M5.831724 7.47533499C6.59244638 5.84946007 7.33108976 4.20750727 8.08779778 2.57359341 8.89669255 4.21755594 9.7216448 5.8514698 10.546597 7.4873934 8.97497269 7.48538366 7.40334835 7.4934226 5.831724 7.47533499zM10.9881773.272447806C9.19375565.27445754 7.3973268.268428338 5.60290513.278477009 3.75228233 4.18941966 1.88560207 8.10036231.024943357 12.0092952 1.27943278 12.003266 2.53793657 12.0052758 3.79644036 12.003266 4.19787697 11.2074113 4.53307655 10.3794008 4.94856344 9.59158505 7.13840018 9.42678685 9.35031593 9.57148771 11.544167 9.52928329 11.927539 10.3492548 12.310911 11.1712361 12.6882614 11.9972368 14.1274117 12.0092952 15.5645547 12.0052758 17.0077194 11.9992466 14.986486 8.10036231 12.9893388 4.18339046 10.9881773.272447806L10.9881773.272447806zM20.3155571 2.73437214C21.8791527 1.20697418 24.0850469.587976067 26.1986107.312642489 29.2796367.00917263278 32.4871153.169951365 35.3834804 1.34966531 34.9519361 2.23394833 34.4762337 3.09411455 33.9784523 3.93820289 31.2807982 3.11421189 28.2981242 2.56555447 25.5603265 3.49405165 24.4102106 3.88193034 23.1236062 4.75013549 23.1456852 6.10670604 23.0734266 7.39695536 24.2396 8.29932599 25.3315076 8.70931176 28.1275136 9.7945682 31.2025181 9.17155061 33.9844738 8.36363749 34.480248 9.16954088 34.9579576 9.98348321 35.3834804 10.831591 32.1298367 12.2323757 28.4426414 12.4212907 24.9922936 11.7821953 23.1577283 11.3963263 21.2629475 10.6949291 20.0245155 9.22179397 18.4669415 7.40298456 18.6054371 4.41049042 20.3155571 2.73437214M50.9411565 7.93556411C49.9636583 9.11929753 48.3338256 9.50315675 46.8605533 9.4770302 45.4495036 9.50114701 43.9220372 9.08714178 42.9846827 7.97173933 42.3303411 7.21808902 42.2279747 6.0926379 42.5792318 5.18423806 43.0609557 4.09898162 44.1769495 3.45385696 45.2909361 3.18455259 47.0492285 2.82882964 49.0744762 2.95946236 50.519648 4.1271179 51.6456777 5.01943986 51.8544248 6.82016166 50.9411565 7.93556411zM55.6359577 5.74897336C55.4151675 4.08893295 54.3654108 2.57560314 52.9182318 1.7435732 50.3731236.24029206 47.2559683.0352991767 44.3917181.479450423 42.5109875.813066292 40.5881061 1.57676527 39.3657317 3.10818269 37.8864377 4.91493369 37.9326029 7.77679511 39.4781339 9.52928329 40.6904725 10.9441361 42.504966 11.6736696 44.3013948 11.9992466 46.9970417 12.5519235 49.8853782 12.2404147 52.372278 11.058691 54.3654108 10.1342133 55.8728053 7.99987561 55.6359577 5.74897336L55.6359577 5.74897336z" mask="url(#club-monaco-logo-b)"/>
    </g>
  </g>
</svg>
