<svg xmlns="http://www.w3.org/2000/svg" width="106" height="13" viewBox="0 0 106 13">
  <path fill="#28170B" d="M7.20842607,11.9296812 C3.34433314,11.2239338 0.609266031,9.36442832 0.194846267,7.1613184 C-0.564335977,3.12542715 3.46849872,0.240591477 9.86962395,0.240591477 C11.475408,0.240591477 13.4848403,0.490808464 14.3643509,0.800286511 C15.4777649,1.19206488 16.1638191,1.24851905 16.6510624,0.988451879 C17.9419907,0.29942824 18.1514567,0.562788604 18.1514567,2.87490663 C18.1514567,5.53717307 17.5281731,5.8668378 16.3285392,3.83908279 C14.4475351,0.659599836 8.9878346,0.163653605 6.63011751,2.95810123 C5.72570634,4.03004198 5.63644529,4.39149952 5.78167781,6.39390776 C5.92089185,8.31334987 6.10900271,8.7787925 7.10378822,9.66524095 C8.43827566,10.854395 10.6432019,11.3393226 12.9629523,10.9538336 C14.1334299,10.7593267 14.9448514,10.2929082 15.9666,9.22726657 C17.2285132,7.91115668 18.1514567,7.38908036 18.1514567,7.99138774 C18.1514567,8.7282752 16.697262,10.4434907 15.506773,11.1107871 C13.9042697,12.0090212 9.83918758,12.41017 7.20842607,11.9296812 L7.20842607,11.9296812 Z M26.9115902,11.7341886 C22.2134353,10.6682108 19.6932932,8.40152179 20.2016423,5.6990778 C20.8314453,2.35096993 24.20975,0.550803882 30.3060997,0.314800801 C35.0129918,0.132585365 38.6059836,0.979150011 40.7068774,2.76537958 C43.9763828,5.54519553 42.2678287,9.86462078 37.3190065,11.3303112 C34.4205933,12.18873 29.7190506,12.3711805 26.9115902,11.7341886 Z M34.1968067,10.5606029 C36.3732186,9.53060538 37.233612,6.52226048 36.1152436,3.8528267 C35.3094374,1.9294517 34.2194184,1.36958368 31.2805536,1.36958368 C29.0082182,1.36958368 28.597291,1.48699284 27.5248542,2.44263413 C26.4722809,3.38057902 26.2995566,3.80667965 26.1530342,5.82692789 C25.9573164,8.52533128 26.5645946,9.78168728 28.462613,10.6050625 C30.0763109,11.3050983 32.6660946,11.2850193 34.1968067,10.5606029 L34.1968067,10.5606029 Z M69.0931466,11.7008911 C64.0170944,10.2952287 62.2106194,6.02092243 65.3846061,2.92610933 C67.5428125,0.821736292 73.1358364,-0.319015434 76.6400623,0.630447455 C78.6513546,1.17540637 80.3500193,1.25110726 81.2625522,0.836459354 C81.8522188,0.568516597 81.9229032,0.782417133 81.9229032,2.83464096 C81.9229032,4.77808515 81.820958,5.13065206 81.2625522,5.11839318 C80.899355,5.11042948 80.2617005,4.56003305 79.8455382,3.89531829 C77.9013597,0.789959805 72.0803029,0.455373243 70.0594182,3.3328229 C69.3049224,4.40712339 69.2958556,7.4677709 70.0429033,8.90851276 C70.8256049,10.4180167 72.4303827,11.1541795 74.9383067,11.1541795 C77.3518706,11.1541795 79.8442229,10.0922195 80.2228449,8.90250735 C80.3602808,8.47065262 80.7936695,8.14353366 81.2283801,8.14353366 C81.9839594,8.14353366 81.9845697,8.15685002 81.2839399,9.35329546 C80.1052725,11.3660108 78.4726869,12.0523745 74.5809649,12.1713209 C72.3740363,12.2387676 70.4353866,12.0725872 69.0931499,11.7008911 L69.0931466,11.7008911 Z M41.4211172,11.6559484 C40.8981727,11.1344139 41.204511,10.7778488 42.1755248,10.7778488 C42.9524071,10.7778488 43.8332091,10.0714911 46.0433199,7.67607073 C47.6173233,5.9700918 49.8538938,3.57567673 51.0134712,2.35513782 L53.1218033,0.135979731 L57.617024,5.44655003 C61.3674883,9.87727784 62.2841727,10.7588338 63.1499481,10.7674829 C63.8247677,10.7742064 64.1876515,10.9789617 64.1876515,11.3529621 C64.1876515,11.8459546 63.4511524,11.9131271 59.0300724,11.8233755 C55.3165382,11.747988 53.8286212,11.5869645 53.7157847,11.248259 C53.6171163,10.9520646 53.9242803,10.7778488 54.5451784,10.7778488 L55.5312874,10.7778488 L54.6943379,9.6488566 C53.8657863,8.53119309 53.8211373,8.5198644 50.2456624,8.5198644 C47.0186028,8.5198644 46.5827173,8.60165556 46.153033,9.28783315 C45.5469429,10.2557366 45.857981,10.7778488 47.0406825,10.7778488 C47.6078713,10.7778488 47.9617764,10.9947423 47.9617764,11.3423416 C47.9617764,11.7989589 47.3608202,11.9068378 44.8172293,11.9068378 C43.087728,11.9068378 41.5594768,11.7939392 41.4211172,11.6559484 L41.4211172,11.6559484 Z M51.7352374,5.88554925 C51.077739,5.05762098 50.49757,4.38022957 50.4459757,4.38022957 C50.394378,4.38022957 49.8063237,5.05762098 49.1391872,5.88554925 L47.9262171,7.39087219 L50.4284523,7.39087219 L52.9306907,7.39087219 L51.7352374,5.88554925 Z M84.1869812,11.3423416 C84.1869812,10.9910998 84.5433635,10.7778488 85.1303473,10.7778488 L86.0737101,10.7778488 L86.0737101,6.07371788 L86.0737101,1.36958368 L85.1303473,1.36958368 C84.5433635,1.36958368 84.1869812,1.15632938 84.1869812,0.805090844 C84.1869812,0.334674161 84.9416727,0.240591477 88.7151338,0.240591477 C92.4885916,0.240591477 93.2432799,0.334674161 93.2432799,0.805090844 C93.2432799,1.15632938 92.8869009,1.36958368 92.2999171,1.36958368 C91.4194447,1.36958368 91.356551,1.49502509 91.356551,3.25123736 L91.356551,5.13288778 L94.7526631,5.13288778 L98.1487783,5.13288778 L98.1487783,3.25123736 C98.1487783,1.49502509 98.0858879,1.36958368 97.2054123,1.36958368 C96.6184285,1.36958368 96.2620494,1.15632938 96.2620494,0.805090844 C96.2620494,0.334674161 97.0167377,0.240591477 100.790199,0.240591477 C104.563657,0.240591477 105.318348,0.334674161 105.318348,0.805090844 C105.318348,1.18142158 104.941002,1.36958368 104.186311,1.36958368 L103.054274,1.36958368 L103.054274,6.07371788 L103.054274,10.7778488 L104.186311,10.7778488 C104.941002,10.7778488 105.318348,10.9660109 105.318348,11.3423416 C105.318348,11.8127583 104.563657,11.9068378 100.790199,11.9068378 C97.0167377,11.9068378 96.2620494,11.8127583 96.2620494,11.3423416 C96.2620494,10.9910998 96.6184285,10.7778488 97.2054123,10.7778488 C98.0973211,10.7778488 98.1487783,10.664947 98.1487783,8.7080265 L98.1487783,6.63821072 L94.7526631,6.63821072 L91.356551,6.63821072 L91.356551,8.7080265 C91.356551,10.664947 91.4080083,10.7778488 92.2999171,10.7778488 C92.8869009,10.7778488 93.2432799,10.9910998 93.2432799,11.3423416 C93.2432799,11.8127583 92.4885916,11.9068378 88.7151338,11.9068378 C84.9416727,11.9068378 84.1869812,11.8127583 84.1869812,11.3423416 L84.1869812,11.3423416 Z" transform="translate(.572 .587)"/>
</svg>
