<svg xmlns="http://www.w3.org/2000/svg" width="122" height="79" viewBox="0 0 122 79">
  <defs>
    <linearGradient id="cv-logo-a" x1="66.181%" x2="-5.651%" y1="50%" y2="-19.509%">
      <stop offset="0%" stop-opacity="0"/>
      <stop offset="100%" stop-color="#592B47"/>
    </linearGradient>
    <linearGradient id="cv-logo-b" x1="73.017%" x2="272.163%" y1="40.211%" y2="104.133%">
      <stop offset="0%" stop-opacity="0"/>
      <stop offset="100%"/>
    </linearGradient>
  </defs>
  <g fill="none" fill-rule="evenodd">
    <path fill="#913743" d="M100.7373,18 L81.3093,58.446 L75.0683,47.103 C73.2853,54.41 69.3873,60.882 64.0663,65.854 L71.1753,78.915 L91.8213,78.915 L121.7623,18 L100.7373,18 Z"/>
    <polygon fill="url(#cv-logo-a)" points="54.047 47 75.025 47 81.308 58.469 71.26 78.854"/>
    <polygon fill="url(#cv-logo-b)" points="53.798 47 74.81 47 81.287 58.441 71.18 78.917"/>
    <path fill="#913743" d="M75.1016,46.9824 L53.8106,46.9824 C51.6476,50.7844 48.1496,53.7244 43.9546,55.1674 C43.3166,55.3874 42.6626,55.5684 41.9946,55.7164 C40.7346,55.9954 39.4266,56.1474 38.0826,56.1474 C28.0876,56.1474 19.9866,48.0504 19.9866,38.0614 C19.9866,28.0734 28.0876,19.9764 38.0826,19.9764 C44.1226,19.9764 49.4516,22.9484 52.7346,27.4964 C53.1296,28.0444 53.4976,28.6134 53.8306,29.2054 C53.9866,29.4824 54.1436,29.7604 54.2856,30.0474 L75.3106,30.0474 C74.4816,26.1854 73.0636,22.5434 71.1596,19.2124 C70.8156,18.6114 70.4556,18.0224 70.0796,17.4414 C63.3006,6.9504 51.5076,0.0004 38.0826,0.0004 C17.0506,0.0004 -0.0004,17.0414 -0.0004,38.0614 C-0.0004,59.0844 17.0506,76.1234 38.0826,76.1234 C41.6326,76.1234 45.0666,75.6294 48.3276,74.7214 C48.7386,74.6074 49.1416,74.4734 49.5466,74.3444 C49.7996,74.2644 50.0566,74.1944 50.3076,74.1094 C55.4876,72.3544 60.1576,69.5054 64.0666,65.8544 C69.3876,60.8814 73.2856,54.4104 75.0686,47.1024 C75.0786,47.0624 75.0916,47.0234 75.1016,46.9824"/>
  </g>
</svg>
