<svg xmlns="http://www.w3.org/2000/svg" xmlns:xlink="http://www.w3.org/1999/xlink" width="195" height="12" viewBox="0 0 195 12">
  <defs>
    <polygon id="david-yurman-logo-a" points=".567 .2 15.765 .2 15.765 10.633 .567 10.633"/>
    <polygon id="david-yurman-logo-c" points=".853 .2 15.854 .2 15.854 10.633 .853 10.633"/>
    <polygon id="david-yurman-logo-e" points="14.816 .344 14.816 11 7.513 11 .209 11 .209 .344 14.816 .344"/>
  </defs>
  <g fill="none" fill-rule="evenodd" transform="translate(-.018 -.149)">
    <g transform="translate(17 .8)">
      <mask id="david-yurman-logo-b" fill="#fff">
        <use xlink:href="#david-yurman-logo-a"/>
      </mask>
      <path fill="#221F20" d="M4.9092,6.7998 L10.2392,6.7998 C9.4852,5.2968 8.6312,3.8948 7.4752,2.7998 C6.5822,4.0948 5.6072,5.3078 4.9092,6.7998 M8.0672,0.1998 C11.0092,3.2198 12.5652,7.6428 15.7652,10.4008 C14.9722,10.8628 13.3332,10.4698 12.2122,10.5998 C13.1312,9.5788 11.2312,8.3738 10.8302,7.4008 L4.5142,7.4008 C3.8672,8.2148 2.5612,9.4168 2.7382,10.4008 C2.4002,10.8578 1.2312,10.4738 0.5672,10.5998 C3.4082,7.4788 5.6042,3.7038 8.0672,0.1998" mask="url(#david-yurman-logo-b)"/>
    </g>
    <g transform="translate(161 .8)">
      <mask id="david-yurman-logo-d" fill="#fff">
        <use xlink:href="#david-yurman-logo-c"/>
      </mask>
      <path fill="#221F20" d="M4.9976,6.7998 L10.3276,6.7998 C9.6276,5.2428 8.7546,3.8608 7.5636,2.7998 C6.7386,4.1648 5.7506,5.3618 4.9976,6.7998 M8.1556,0.1998 C11.1336,3.1828 12.6876,7.6088 15.8536,10.4008 C15.0606,10.8628 13.4226,10.4698 12.3016,10.5998 C13.3626,9.4888 11.2496,8.5878 11.1166,7.4008 L4.6026,7.4008 C4.0026,8.2608 2.6776,9.4448 2.8266,10.4008 C2.5536,10.8568 1.4526,10.4748 0.8526,10.5998 C3.4316,7.2788 5.8106,3.7578 8.1556,0.1998" mask="url(#david-yurman-logo-d)"/>
    </g>
    <path fill="#221F20" d="M13.6191 5.1997C12.8971 1.7747 7.8641 1.6647 3.1581 1.7997 2.6981 4.3337 3.0921 7.7327 2.9601 10.5997 8.2301 11.3687 14.7221 10.4337 13.6191 5.1997M.0001 1.3997C6.4501.7727 17.4021.4877 15.9881 7.1997 15.0101 11.8417 6.0071 11.4757.0001 11.3997 1.3091 9.2597.2501 4.7197.5921 1.5997.4331 1.4937.2711 1.3907.0001 1.3997M32.7651 1.3999C33.3621.9389 34.8011 1.3289 35.7261 1.1999 36.3161 3.2699 39.1011 6.2149 40.4631 8.7999 42.2171 6.4429 44.0111 4.1279 45.2001 1.1999L47.1741 1.1999C44.5981 4.3229 42.5031 7.9339 40.2651 11.3999 37.4671 8.3689 35.8041 4.1869 32.7651 1.3999M51.9111 1.3999C52.5081.9389 53.9471 1.3289 54.8721 1.1999 54.2371 3.6469 54.2041 8.7579 54.8721 11.1999 54.2751 11.6609 52.8361 11.2709 51.9111 11.3999 52.5461 8.9529 52.5781 3.8419 51.9111 1.3999M74.8076 5.5996C74.2686 1.7546 68.9476 1.6126 63.9516 1.7996L63.9516 10.5996C69.2356 11.3626 75.4876 10.4546 74.8076 5.5996M61.1876 1.3996C67.6926.8226 77.4266.5606 77.1766 6.3996 76.9616 11.4016 67.8976 11.7416 61.5826 11.3996 61.3236 11.1966 61.7106 10.3426 61.7806 9.5996 61.9876 7.4076 61.6236 4.0246 61.7806 1.7996 61.5206 1.7286 61.4696 1.4476 61.1876 1.3996M88.2295 1.3999C88.8925.9379 90.3975 1.3299 91.3875 1.1999 92.1395 2.4629 93.9705 4.1169 95.3355 5.3999 96.7085 4.4579 98.2485 2.6199 98.6905 1.3999 98.9645.9439 100.0645 1.3249 100.6645 1.1999 98.5605 3.6129 94.3355 5.9699 96.3225 11.1999 95.7905 11.6609 94.4185 11.2709 93.5585 11.3999 92.5725 11.3119 93.9945 10.9789 93.7565 10.3999 94.5625 4.7169 90.8575 3.6039 88.2295 1.3999M105.7964 1.3999C106.3944.9389 107.8324 1.3289 108.7574 1.1999 108.8234 4.0129 107.7574 7.9359 108.9544 9.5999 110.2214 11.3609 115.5944 11.7799 117.0474 9.5999 118.5724 7.3109 116.9024 3.6049 117.2444 1.1999L118.6264 1.1999C118.7394 1.8269 118.6344 3.1579 118.6264 4.5999 118.6184 6.0829 118.8754 7.9179 118.6264 8.7999 117.7524 11.8879 107.9524 13.0329 106.3884 9.1999 105.3544 6.6639 107.0794 4.3079 105.7964 1.3999M126.9165 6C129.4995 6.049 132.4175 5.572 132.4425 3.8 132.4695 1.949 129.5625 1.509 126.9165 1.6L126.9165 6zM124.3505 1.4C127.1775 1.226 133.7155.441 134.4165 3 134.8795 4.69 133.3175 5.849 131.2585 6 133.4445 7.651 134.8795 10.064 137.5745 11.2 131.9255 12.591 132.6575 5.783 126.9165 6.6 127.2155 8.03 126.2615 10.73 127.5085 11.2 126.8465 11.662 125.3405 11.27 124.3505 11.399 124.9845 8.953 125.0185 3.842 124.3505 1.4L124.3505 1.4zM141.9175 1.3999C142.4495.9389 143.8205 1.3289 144.6805 1.1999 146.3645 3.8939 148.2605 6.3719 149.8135 9.1999 152.0505 6.9349 153.3955 3.7639 155.3395 1.1999L158.1035 1.1999C157.4675 3.7119 157.4355 8.8929 158.1035 11.3999 157.5055 11.8609 156.0665 11.4709 155.1425 11.5999 155.9865 9.5229 155.3275 5.9219 155.5365 3.1999 153.1615 5.5929 151.5905 8.8009 149.6145 11.5999 147.2005 9.0469 145.5575 5.7119 143.2995 2.9999 143.5455 5.6839 142.7965 9.3759 143.6935 11.3999 143.4205 11.8559 142.3195 11.4749 141.7205 11.5999 142.4755 9.0309 142.1405 4.2929 141.9175 1.3999"/>
    <g transform="translate(180 .8)">
      <mask id="david-yurman-logo-f" fill="#fff">
        <use xlink:href="#david-yurman-logo-e"/>
      </mask>
      <path fill="#221F20" d="M14.4204,11 L14.2234,11 C10.2234,7.854 6.1544,4.776 1.7884,2 L1.7884,9.6 C1.6964,10.708 3.0364,10.601 1.5914,10.8 C0.1304,11.002 0.8424,10.38 0.8014,9.2 C0.7064,6.437 1.2444,1.106 0.2094,0.4 C3.5704,-0.048 5.3404,2.283 7.1174,3.6 C9.1264,5.089 10.9274,6.591 13.2364,7.8 C13.1064,5.532 13.4984,2.734 13.0394,0.8 C12.4224,0.075 14.2294,0.524 14.8164,0.4 C13.9954,2.437 14.6104,7.659 14.4204,11" mask="url(#david-yurman-logo-f)"/>
    </g>
  </g>
</svg>
