<svg xmlns="http://www.w3.org/2000/svg" width="66" height="13" viewBox="0 0 66 13">
  <g fill="#1A1918" fill-rule="evenodd" transform="translate(.303 .587)">
    <path d="M36.0173071,6.20324659 L36.0173071,12.1283425 L32.5192436,12.1283425 L32.5192436,0.0540302228 L35.3786489,0.0540302228 L43.3777447,6.75430241 C43.9015231,7.15821767 44.2516704,7.56790314 44.6989935,8.06427303 L44.7047637,6.16888757 L44.7047637,0.0540302228 L48.2206624,0.0540302228 L48.2206624,12.1283425 L45.3438153,12.1283425 L36.9511644,5.27266781 C36.6394415,5.01549968 36.4183373,4.74521743 36.0239953,4.31612304 L36.0173071,6.20324659"/>
    <polyline points="65.112 .047 60.879 .047 56.762 4.166 52.645 .047 48.413 .047 54.999 6.645 54.999 6.645 54.999 12.121 58.525 12.121 58.525 6.645 65.112 .047"/>
    <path d="M0.10150338,0.0457683198 L8.25849332,0.0457683198 C13.0006945,0.0457683198 15.7124347,2.26848251 15.7124347,6.01256712 C15.7124347,8.28249218 14.474854,10.1544033 12.7054954,11.1837315 C11.477357,11.9093365 9.75756972,12.1200806 7.49708683,12.1200806 L0.10150338,12.1200806 L0.10150338,0.0457683198 Z M7.09408956,9.31103353 C10.0477855,9.31103353 12.1059173,8.8357774 12.1059173,6.08954707 C12.1059173,3.89109403 10.8531243,2.71869065 8.36891431,2.71869065 L3.68703814,2.71869065 L3.68703814,9.31103353 L7.09408956,9.31103353 L7.09408956,9.31103353 Z"/>
    <polyline points="19.743 7.917 19.743 12.108 16.163 12.108 16.163 .033 19.743 .033 19.743 4.577 27.078 .033 31.953 .033 23.721 5.462 32.256 12.108 27.595 12.108 20.961 7.117 19.743 7.917"/>
  </g>
</svg>
