<?xml version="1.0" encoding="utf-8"?>
<!-- Generator: Adobe Illustrator 15.0.0, SVG Export Plug-In . SVG Version: 6.00 Build 0)  -->
<!DOCTYPE svg PUBLIC "-//W3C//DTD SVG 1.1//EN" "http://www.w3.org/Graphics/SVG/1.1/DTD/svg11.dtd">
<svg version="1.1" id="Layer_1" xmlns="http://www.w3.org/2000/svg" xmlns:xlink="http://www.w3.org/1999/xlink" x="0px" y="0px"
	 width="88px" height="15px" viewBox="0 0 88 15" enable-background="new 0 0 88 15" xml:space="preserve">
<g transform="translate(.665 .092)">
	<polygon points="0.028,0.553 9.754,0.553 9.754,3.038 3.306,3.018 3.314,5.472 9.318,5.477 9.322,8.077 3.323,8.077 3.307,11.117 
		10.299,11.125 10.299,13.633 0.028,13.628 	"/>
	<polygon points="11.963,0.553 15.932,0.553 18.347,4.486 20.702,0.553 24.633,0.559 20.277,6.617 25.324,13.628 21.278,13.628 
		18.347,8.826 15.213,13.628 11.263,13.628 16.308,6.617 	"/>
	<polygon points="51.62,0.553 61.276,0.553 61.276,3.038 54.923,3.038 54.923,5.472 60.841,5.472 60.841,8.072 54.923,8.072 
		54.923,11.116 61.858,11.116 61.858,13.628 51.62,13.628 	"/>
	<g>
		<path d="M47.323,8.41c0.528,0,2.252-0.899,2.252-3.791c0-4.177-3.397-4.066-4.674-4.066h-6.257v13.075h3.262V8.98l2.15-0.022
			l2.513,4.67h3.699L47.323,8.41z M44.348,6.616h-2.721V3.038h2.721c0.915,0.052,2.032,0,2.032,1.786
			C46.38,6.267,45.494,6.616,44.348,6.616z"/>
		<path d="M31.804,0.553l-5.441,0.001v13.073h3.317V9.415l2.084-0.001c2.677,0,5.597-0.886,5.597-4.682
			C37.361,0.96,34.442,0.553,31.804,0.553z M32.249,6.999H29.4V3.038h2.849c1.913,0,1.913,1.408,1.913,1.689
			C34.162,6.787,32.897,6.999,32.249,6.999z"/>
	</g>
	<path d="M74.249,2.814l-2.398,1.873c0,0-1.214-1.519-3.174-1.741c-0.896-0.102-2.389,0.446-2.348,1.347
		c0.057,1.195,2.186,1.38,3.267,1.49c3.044,0.312,4.757,1.707,4.618,4.122c-0.166,2.937-2.607,3.965-4.692,4.196
		c-2.622,0.292-5.089-0.38-7.263-2.568l2.558-1.639c0.541,0.58,1.815,1.506,2.923,1.621c1.109,0.116,2.756-0.039,3.198-0.982
		c0.796-1.695-1.547-1.711-3.871-2.066C64.017,8,63.146,6.483,63.115,4.904c-0.06-3.125,2.098-4.534,5.333-4.59
		C70.451,0.279,72.81,1.306,74.249,2.814L74.249,2.814z M86.951,2.816l-2.397,1.873c0,0-1.215-1.52-3.175-1.742
		c-0.896-0.102-2.389,0.446-2.347,1.348c0.056,1.195,2.185,1.379,3.266,1.49c3.045,0.312,4.757,1.707,4.619,4.123
		c-0.167,2.936-2.607,3.965-4.693,4.196c-2.621,0.291-5.089-0.38-7.262-2.569l2.557-1.639c0.541,0.58,1.816,1.506,2.924,1.621
		c1.109,0.116,2.755-0.038,3.197-0.982c0.796-1.695-1.547-1.711-3.871-2.066c-3.049-0.467-3.921-1.983-3.951-3.562
		c-0.059-3.125,2.098-4.595,5.333-4.591C83.317,0.319,85.513,1.308,86.951,2.816L86.951,2.816z"/>
</g>
</svg>
