<svg xmlns="http://www.w3.org/2000/svg" width="50" height="50" viewBox="0 0 50 50">
  <path fill="#FFF" fill-rule="evenodd" d="M44.5508621,36.2986552 L38.9653448,36.2986552 C39.9058621,33.3079655 40.4631034,30.0238276 40.5967241,26.6091724 L47.5282759,26.6091724 C47.2798276,30.1195172 46.2263793,33.4107241 44.5508621,36.2986552 L44.5508621,36.2986552 Z M33.6775862,45.8514138 C34.5925862,44.8771034 35.4493103,43.7412414 36.2322414,42.4498621 C36.9344828,41.2914138 37.5581034,40.0393448 38.1,38.7124483 L42.9339655,38.7124483 C40.5415517,41.8338276 37.3548276,44.3155517 33.6775862,45.8514138 L33.6775862,45.8514138 Z M26.2067241,47.4900345 L26.2067241,38.7124483 L35.4727586,38.7124483 C35.0772414,39.5841724 34.6425862,40.4157241 34.1681034,41.1984828 C31.967069,44.8291724 29.1760345,47.0208966 26.2067241,47.4900345 L26.2067241,47.4900345 Z M26.2067241,26.6091724 L38.1812069,26.6091724 C38.0382759,30.0596897 37.437069,33.3534828 36.4260345,36.2986552 L26.2067241,36.2986552 L26.2067241,26.6091724 Z M26.2067241,14.5057241 L36.69,14.5057241 C37.6148276,17.4743448 38.1358621,20.7658966 38.2065517,24.1953793 L26.2067241,24.1953793 L26.2067241,14.5057241 Z M26.2067241,2.50986207 C29.1760345,2.97882759 31.967069,5.17072414 34.1681034,8.80141379 C34.7863793,9.82124138 35.3365517,10.9243448 35.8196552,12.091931 L26.2067241,12.091931 L26.2067241,2.50986207 Z M43.5231034,12.091931 L38.4117241,12.091931 C37.8015517,10.4650345 37.0746552,8.93934483 36.2322414,7.55003448 C35.4493103,6.25865517 34.5927586,5.1227931 33.6775862,4.14831034 C37.6653448,5.81417241 41.0767241,8.59175862 43.5231034,12.091931 L43.5231034,12.091931 Z M47.5703448,24.1953793 L40.6201724,24.1953793 C40.5539655,20.7984828 40.072931,17.5146897 39.2103448,14.5057241 L44.9948276,14.5057241 C46.5305172,17.4198621 47.4475862,20.7081379 47.5703448,24.1953793 L47.5703448,24.1953793 Z M23.792931,12.091931 L14.1801724,12.091931 C14.6634483,10.9243448 15.2134483,9.82124138 15.8317241,8.80141379 C18.032931,5.17072414 20.8237931,2.97882759 23.792931,2.50986207 L23.792931,12.091931 Z M23.792931,24.1953793 L11.7932759,24.1953793 C11.8639655,20.7658966 12.385,17.4743448 13.31,14.5057241 L23.792931,14.5057241 L23.792931,24.1953793 Z M23.792931,36.2986552 L13.5739655,36.2986552 C12.562931,33.3534828 11.9617241,30.0596897 11.8187931,26.6091724 L23.792931,26.6091724 L23.792931,36.2986552 Z M23.792931,47.4900345 C20.8237931,47.0208966 18.032931,44.8291724 15.8317241,41.1984828 C15.3572414,40.4157241 14.9225862,39.5841724 14.5272414,38.7124483 L23.792931,38.7124483 L23.792931,47.4900345 Z M7.06586207,38.7124483 L11.9,38.7124483 C12.4417241,40.0393448 13.0653448,41.2914138 13.7677586,42.4498621 C14.5506897,43.7412414 15.4072414,44.8772759 16.3225862,45.8515862 C12.6451724,44.3155517 9.45827586,41.834 7.06586207,38.7124483 L7.06586207,38.7124483 Z M2.47172414,26.6091724 L9.40310345,26.6091724 C9.53672414,30.0238276 10.0941379,33.3079655 11.0346552,36.2986552 L5.44896552,36.2986552 C3.77362069,33.4107241 2.72,30.1195172 2.47172414,26.6091724 L2.47172414,26.6091724 Z M5.005,14.5057241 L10.7896552,14.5057241 C9.92706897,17.5146897 9.44603448,20.7984828 9.37965517,24.1953793 L2.42965517,24.1953793 C2.55241379,20.7081379 3.46931034,17.4198621 5.005,14.5057241 L5.005,14.5057241 Z M16.3225862,4.14813793 C15.4072414,5.12262069 14.5506897,6.25848276 13.7677586,7.55003448 C12.9253448,8.93934483 12.1982759,10.4650345 11.5882759,12.091931 L6.47672414,12.091931 C8.92310345,8.59175862 12.3346552,5.814 16.3225862,4.14813793 L16.3225862,4.14813793 Z M25.0003448,3.44827586e-05 L25,3.44827586e-05 L24.9998276,3.44827586e-05 L24.9998276,3.44827586e-05 C11.2148276,3.44827586e-05 0,11.2150345 0,25.0000345 C0,38.7850345 11.2148276,49.9998621 24.9998276,49.9998621 L24.9998276,49.9998621 L25,49.9998621 L25.0003448,49.9998621 C38.7853448,49.9995172 49.9998276,38.7848621 49.9998276,25.0000345 C49.9998276,11.2152069 38.7853448,0.000206896552 25.0003448,3.44827586e-05 L25.0003448,3.44827586e-05 Z"/>
</svg>
