<svg xmlns="http://www.w3.org/2000/svg" width="61" height="50" viewBox="0 0 61 50">
  <g fill="none" fill-rule="evenodd">
    <path fill="#FFF" d="M20.9764352,15.4702315 C21.4602315,13.4542593 22.5410185,11.6683796 24.0241204,10.3135185 C24.1150926,9.81143519 24.1650926,9.29523148 24.1650926,8.7674537 C24.1650926,3.99708333 20.2840741,0.115833333 15.5134722,0.115833333 C10.7431019,0.115833333 6.86185185,3.99708333 6.86185185,8.7674537 C6.86185185,13.5378241 10.7431019,17.4190741 15.5134722,17.4190741 C17.5836111,17.4190741 19.4856944,16.6873611 20.9764352,15.4702315"/>
    <path d="M20.9764352,15.4702315 C21.4602315,13.4542593 22.5410185,11.6683796 24.0241204,10.3135185 C24.1150926,9.81143519 24.1650926,9.29523148 24.1650926,8.7674537 C24.1650926,3.99708333 20.2840741,0.115833333 15.5134722,0.115833333 C10.7431019,0.115833333 6.86185185,3.99708333 6.86185185,8.7674537 C6.86185185,13.5378241 10.7431019,17.4190741 15.5134722,17.4190741 C17.5836111,17.4190741 19.4856944,16.6873611 20.9764352,15.4702315 Z"/>
    <path fill="#FFF" d="M17.8027083,30.0424769 C19.5742361,28.1204861 21.9413657,26.7991898 24.8709954,26.0862269 C22.4297917,24.2915509 20.8161343,21.4394676 20.7036343,18.2114583 C19.1494676,17.9137731 17.4286343,17.771412 15.5360417,17.7927083 L15.5133565,17.7934028 L15.4909028,17.7927083 C9.80826389,17.7353009 5.63280093,19.1082176 3.06034722,21.8989583 C-0.132013889,25.3626157 0.0742361111,30.0457176 0.147847222,30.9489583 C0.33650463,33.2596065 0.274236111,36.2938657 0.212430556,38.0508102 C6.65710648,40.1866898 12.2828009,40.6114583 14.4767824,40.6947917 C14.4682176,40.5584491 14.4589583,40.4239583 14.4483102,40.2938657 C14.331875,38.8690972 14.2300231,33.9186343 17.8027083,30.0424769"/>
    <path d="M17.8027083,30.0424769 C19.5742361,28.1204861 21.9413657,26.7991898 24.8709954,26.0862269 C22.4297917,24.2915509 20.8161343,21.4394676 20.7036343,18.2114583 C19.1494676,17.9137731 17.4286343,17.771412 15.5360417,17.7927083 L15.5133565,17.7934028 L15.4909028,17.7927083 C9.80826389,17.7353009 5.63280093,19.1082176 3.06034722,21.8989583 C-0.132013889,25.3626157 0.0742361111,30.0457176 0.147847222,30.9489583 C0.33650463,33.2596065 0.274236111,36.2938657 0.212430556,38.0508102 C6.65710648,40.1866898 12.2828009,40.6114583 14.4767824,40.6947917 C14.4682176,40.5584491 14.4589583,40.4239583 14.4483102,40.2938657 C14.331875,38.8690972 14.2300231,33.9186343 17.8027083,30.0424769 Z"/>
    <path fill="#FFF" d="M41.0024074,16.295 C42.2602778,17.0091204 43.7121296,17.4190741 45.2588889,17.4190741 C50.0294907,17.4190741 53.9105093,13.5378241 53.9105093,8.7674537 C53.9105093,3.99708333 50.0294907,0.115833333 45.2588889,0.115833333 C40.488287,0.115833333 36.6072685,3.99708333 36.6072685,8.7674537 C36.6072685,8.98018519 36.6176852,9.19037037 36.6327315,9.39916667 C38.9313426,10.9609722 40.5625926,13.4341204 41.0024074,16.295"/>
    <path d="M41.0024074,16.295 C42.2602778,17.0091204 43.7121296,17.4190741 45.2588889,17.4190741 C50.0294907,17.4190741 53.9105093,13.5378241 53.9105093,8.7674537 C53.9105093,3.99708333 50.0294907,0.115833333 45.2588889,0.115833333 C40.488287,0.115833333 36.6072685,3.99708333 36.6072685,8.7674537 C36.6072685,8.98018519 36.6176852,9.19037037 36.6327315,9.39916667 C38.9313426,10.9609722 40.5625926,13.4341204 41.0024074,16.295 Z"/>
    <path fill="#FFF" d="M45.2588194,17.7934028 L45.2361343,17.7927083 C43.7592824,17.7778935 42.3870602,17.8616898 41.1155324,18.0396991 C41.0555787,21.3385417 39.4271065,24.2603009 36.9426157,26.0864583 C39.8720139,26.7996528 42.238912,28.1207176 44.0102083,30.0427083 C47.5838194,33.9197917 47.4819676,38.8693287 47.3657639,40.2938657 C47.3565046,40.4065972 47.3481713,40.5230324 47.3405324,40.640625 C49.9940046,40.4690972 54.9694676,39.9038194 60.5597454,38.0508102 C60.4977083,36.2938657 60.4354398,33.2596065 60.6243287,30.9489583 C60.6981713,30.0457176 60.9041898,25.3640046 57.7109028,21.8991898 C55.1377546,19.1077546 50.9650694,17.7288194 45.2815046,17.7927083 L45.2588194,17.7934028 Z"/>
    <path d="M45.2588194,17.7934028 L45.2361343,17.7927083 C43.7592824,17.7778935 42.3870602,17.8616898 41.1155324,18.0396991 C41.0555787,21.3385417 39.4271065,24.2603009 36.9426157,26.0864583 C39.8720139,26.7996528 42.238912,28.1207176 44.0102083,30.0427083 C47.5838194,33.9197917 47.4819676,38.8693287 47.3657639,40.2938657 C47.3565046,40.4065972 47.3481713,40.5230324 47.3405324,40.640625 C49.9940046,40.4690972 54.9694676,39.9038194 60.5597454,38.0508102 C60.4977083,36.2938657 60.4354398,33.2596065 60.6243287,30.9489583 C60.6981713,30.0457176 60.9041898,25.3640046 57.7109028,21.8991898 C55.1377546,19.1077546 50.9650694,17.7288194 45.2815046,17.7927083 L45.2588194,17.7934028 Z"/>
    <path fill="#FFF" d="M22.2553472,17.8530787 C22.2553472,22.6234491 26.1365972,26.5046991 30.9069676,26.5046991 C35.6775694,26.5046991 39.558588,22.6234491 39.558588,17.8530787 C39.558588,13.0827083 35.6775694,9.20145833 30.9069676,9.20145833 C26.1365972,9.20145833 22.2553472,13.0827083 22.2553472,17.8530787"/>
    <path d="M22.2553472,17.8530787 C22.2553472,22.6234491 26.1365972,26.5046991 30.9069676,26.5046991 C35.6775694,26.5046991 39.558588,22.6234491 39.558588,17.8530787 C39.558588,13.0827083 35.6775694,9.20145833 30.9069676,9.20145833 C26.1365972,9.20145833 22.2553472,13.0827083 22.2553472,17.8530787 Z"/>
    <path fill="#FFF" d="M46.2724537,40.0346065 C46.3462963,39.1313657 46.5523148,34.4496528 43.3590278,30.984838 C40.7858796,28.1934028 36.6131944,26.8144676 30.9296296,26.8783565 L30.9069444,26.8790509 L30.8842593,26.8783565 C25.2018519,26.8209491 21.0263889,28.1938657 18.4539352,30.9846065 C15.2615741,34.4482639 15.4678241,39.1313657 15.5414352,40.0346065 C15.7300926,42.3452546 15.6678241,45.3795139 15.6060185,47.1364583 C23.4076389,49.722338 30.0145833,49.8005787 30.7784722,49.8005787 L30.9069444,49.7996528 L31.0354167,49.8005787 C31.799537,49.8005787 38.40625,49.7225694 46.2078704,47.1364583 C46.1458333,45.3795139 46.0837963,42.3452546 46.2724537,40.0346065"/>
    <path d="M46.2724537,40.0346065 C46.3462963,39.1313657 46.5523148,34.4496528 43.3590278,30.984838 C40.7858796,28.1934028 36.6131944,26.8144676 30.9296296,26.8783565 L30.9069444,26.8790509 L30.8842593,26.8783565 C25.2018519,26.8209491 21.0263889,28.1938657 18.4539352,30.9846065 C15.2615741,34.4482639 15.4678241,39.1313657 15.5414352,40.0346065 C15.7300926,42.3452546 15.6678241,45.3795139 15.6060185,47.1364583 C23.4076389,49.722338 30.0145833,49.8005787 30.7784722,49.8005787 L30.9069444,49.7996528 L31.0354167,49.8005787 C31.799537,49.8005787 38.40625,49.7225694 46.2078704,47.1364583 C46.1458333,45.3795139 46.0837963,42.3452546 46.2724537,40.0346065 Z"/>
  </g>
</svg>
