<svg xmlns="http://www.w3.org/2000/svg" width="167" height="15" viewBox="0 0 167 15">
  <path d="M145.947095,13.4053238 C143.360193,13.352368 141.3105,10.6606907 141.38158,7.39669553 C141.449824,4.13213432 143.6077,1.53107647 146.197428,1.58374898 C148.78886,1.6389701 150.835438,4.32894829 150.767193,7.59124398 C150.699228,10.8566552 148.542204,13.4594121 145.947095,13.4053238 L145.947095,13.4053238 Z M146.214139,0.803573161 C142.710001,0.729378592 139.805652,3.66544485 139.730323,7.36299683 C139.652447,11.0585662 142.429928,14.1155528 145.934067,14.1880482 C149.439052,14.2605435 152.339155,11.3250435 152.417878,7.62834164 C152.496889,3.93078957 149.718272,0.875785466 146.214139,0.803573161 Z M137.381585,0.76959094 L129.567082,0.76959094 C129.567082,0.76959094 129.181386,0.76959094 129.181386,1.09582051 L129.181386,2.94105661 C129.181386,2.94105661 129.205457,3.29673747 129.454942,3.29673747 C129.702728,3.29673747 129.758516,2.99542818 129.758516,2.99542818 C129.758516,2.99542818 129.919364,1.59337728 131.320568,1.59337728 L132.801342,1.59337728 L132.801342,13.3325449 L132.798228,13.3115893 C132.798228,13.5927922 132.571397,13.8165088 132.29416,13.8165088 L132.274619,13.8204734 C132.210619,13.8204734 132.160212,13.8694646 132.160212,13.9357299 L132.160212,14.0705261 C132.160212,14.1302784 132.210903,14.1829507 132.274619,14.1829507 L132.801342,14.1829507 L132.801342,14.1874817 L134.853022,14.1874817 C134.919572,14.1874817 134.969127,14.1333934 134.969127,14.0742076 L134.969127,13.9411105 C134.969127,13.8773937 134.919572,13.8267034 134.853022,13.8267034 L134.836599,13.8204734 C134.570403,13.8204734 134.356029,13.6126153 134.337056,13.352368 L134.337056,1.59366043 L135.624137,1.59366043 C137.026472,1.59366043 137.189866,2.99571138 137.189866,2.99571138 C137.189866,2.99571138 137.246506,3.29702067 137.493162,3.29702067 C137.738681,3.29702067 137.767564,2.94133981 137.767564,2.94133981 L137.767564,1.09610371 C137.767848,0.76959094 137.381585,0.76959094 137.381585,0.76959094 L137.381585,0.76959094 Z M123.022953,5.93857426 L122.420333,5.76922942 C121.28391,5.39769008 120.637116,4.71181471 120.561787,3.83110832 C120.503168,3.13475542 120.708195,2.49419004 121.134672,2.03061554 C121.595133,1.53249242 122.277043,1.26884677 123.107624,1.26884677 C124.831655,1.26884677 124.856577,2.78360553 124.856577,2.84618949 C124.856577,3.05149891 124.88971,3.1817642 124.965887,3.24349861 L125.070946,3.282295 L125.271444,3.2828614 C125.336011,3.2828614 125.389249,3.25567557 125.42861,3.20979954 C125.533958,3.08972895 125.501388,2.84477358 125.494876,2.81673819 L125.495444,1.12782047 L125.068116,1.12782047 C125.068116,1.12782047 125.068116,1.23826277 125.068116,1.26912997 C124.38224,0.638759244 123.517958,0.538794798 123.47888,0.535396581 C121.884547,0.371432265 120.890567,0.905519915 120.335524,1.38127138 C119.699204,1.9306511 119.31039,2.69043752 119.27188,3.47514426 C119.205046,4.878045 119.583382,6.44859082 122.912791,7.4762709 C124.44596,7.94834076 125.498558,8.93184364 125.726524,10.108479 C125.896719,11.0053274 125.561994,11.8950958 124.825143,12.4897853 C123.356826,13.6800137 121.134672,12.7517316 120.402638,12.2938208 C120.122566,12.1182459 119.792938,11.6914858 119.812479,10.6572927 L119.812479,10.6221775 C119.812479,10.4618947 119.684196,10.4046909 119.598105,10.4046909 L119.446604,10.4046909 L119.308407,10.4618947 C119.223172,10.5409031 119.223172,10.6884428 119.223172,10.7048674 L119.223172,12.6730062 L119.245259,12.6959443 C121.164691,14.2860302 123.072508,14.1894642 123.091197,14.1877652 C123.12575,14.1877652 126.930912,14.1959772 127.282059,10.5901774 C127.625847,7.13928023 124.632577,6.35882135 123.022953,5.93857426 L123.022953,5.93857426 Z M165.554569,0.763077659 L163.436622,0.763077659 C163.375458,0.763077659 163.322784,0.816316522 163.322784,0.879466838 L163.322784,1.01199764 C163.322784,1.0745816 163.375737,1.12640451 163.436622,1.12640451 L163.454748,1.13206824 C163.731702,1.13206824 163.961651,1.35550154 163.961651,1.63387278 L163.961651,1.62594359 L163.961651,10.2563022 L157.11196,1.01907728 C157.11196,1.01907728 157.010582,0.763077659 156.683501,0.763077659 C156.357839,0.763077659 155.58191,0.764493567 155.58191,0.764493567 L154.901983,0.764493567 C154.837416,0.764493567 154.785309,0.816316522 154.785309,0.879466838 L154.785309,1.01199764 C154.785309,1.0745816 154.8377,1.12640451 154.901983,1.12640451 L154.913592,1.12640451 C155.226798,1.12640451 155.6629,1.78056281 155.6629,1.78056281 L155.717557,1.8507928 L155.717557,13.3486865 L155.711608,13.3175364 C155.711608,13.5961907 155.486761,13.8204734 155.210087,13.8204734 L155.19055,13.8267034 C155.127966,13.8267034 155.074724,13.8776771 155.074724,13.9411105 L155.074724,14.0742076 C155.074724,14.1333934 155.127966,14.1874817 155.19055,14.1874817 L157.304242,14.1874817 C157.368246,14.1874817 157.422051,14.1333934 157.422051,14.0742076 L157.422051,13.9411105 C157.422051,13.8773937 157.368246,13.8267034 157.304242,13.8267034 L157.28782,13.8204734 C157.010582,13.8204734 156.783184,13.5961907 156.783184,13.3175364 L156.779218,13.3257484 L156.779218,3.29702067 L164.575596,13.8822077 C164.575596,13.8822077 164.756553,14.141889 164.809222,14.141889 C164.809222,14.141889 165.025011,14.2353399 165.025011,13.9714111 L165.025011,13.4936777 L165.025011,1.60300557 L165.03096,1.63415598 C165.03096,1.3557847 165.254392,1.13235144 165.535596,1.13235144 L165.554285,1.12668771 C165.617716,1.12668771 165.664726,1.0748648 165.664726,1.0122808 L165.664726,0.879466838 C165.665009,0.816316522 165.618,0.763077659 165.554569,0.763077659 L165.554569,0.763077659 Z M115.159741,0.763077659 L113.047464,0.763077659 C112.980346,0.763077659 112.930223,0.816316522 112.930223,0.879466838 L112.930223,1.01199764 C112.930223,1.0745816 112.980346,1.12640451 113.047464,1.12640451 L113.063887,1.13206824 C113.342544,1.13206824 113.565692,1.35550154 113.565692,1.63387278 L113.568522,1.62566039 L113.568522,10.2563022 L106.721103,1.01907728 C106.721103,1.01907728 106.618869,0.763077659 106.290377,0.763077659 C105.964147,0.763077659 105.189634,0.764493567 105.189634,0.764493567 L104.506308,0.764493567 C104.444292,0.764493567 104.393884,0.816316522 104.393884,0.879466838 L104.393884,1.01199764 C104.393884,1.0745816 104.444571,1.12640451 104.506308,1.12640451 L104.52273,1.12640451 C104.832822,1.12640451 105.271759,1.78056281 105.271759,1.78056281 L105.324712,1.8507928 L105.324712,13.3486865 L105.320183,13.3175364 C105.320183,13.5961907 105.094768,13.8204734 104.813281,13.8204734 L104.797706,13.8267034 C104.734274,13.8267034 104.682447,13.8776771 104.682447,13.9411105 L104.682447,14.0742076 C104.682447,14.1333934 104.734553,14.1874817 104.797706,14.1874817 L106.913948,14.1874817 C106.975969,14.1874817 107.028355,14.1333934 107.028355,14.0742076 L107.028355,13.9411105 C107.028355,13.8773937 106.975685,13.8267034 106.913948,13.8267034 L106.894975,13.8204734 C106.618869,13.8204734 106.391191,13.5961907 106.391191,13.3175364 L106.391191,13.3257484 L106.391191,3.29702067 L114.184734,13.8822077 C114.184734,13.8822077 114.363992,14.141889 114.417797,14.141889 C114.417797,14.141889 114.634149,14.2353399 114.634149,13.9714111 L114.634149,13.4936777 L114.634149,1.60300557 L114.637547,1.63415598 C114.637547,1.3557847 114.865513,1.13235144 115.142751,1.13235144 L115.160025,1.12668771 C115.224592,1.12668771 115.273868,1.0748648 115.273868,1.0122808 L115.273868,0.879466838 C115.273584,0.816316522 115.224024,0.763077659 115.159741,0.763077659 L115.159741,0.763077659 Z M100.472333,1.14056378 L100.489323,1.1346169 C100.551907,1.1346169 100.604014,1.08279399 100.604014,1.01879408 L100.604014,0.889378336 C100.604014,0.824245712 100.551624,0.773838711 100.489323,0.773838711 L99.9722266,0.773838711 L99.9722266,0.76959094 L98.4356602,0.76959094 L97.9103525,0.76959094 C97.846921,0.76959094 97.7982128,0.821413848 97.7982128,0.88399781 L97.7982128,1.01652861 C97.7982128,1.07911258 97.8472049,1.13206824 97.9103525,1.13206824 L97.9281944,1.13631601 C98.2062837,1.13631601 98.4322622,1.36144843 98.4322622,1.6389701 L98.4356602,1.6180144 L98.4356602,13.3325449 L98.4322622,13.3115893 C98.4322622,13.5927922 98.2062837,13.8165088 97.9281944,13.8165088 L97.9103525,13.8204734 C97.846921,13.8204734 97.7982128,13.8694646 97.7982128,13.9357299 L97.7982128,14.0705261 C97.7982128,14.1302784 97.8472049,14.1829507 97.9103525,14.1829507 L98.4356602,14.1829507 L98.4356602,14.1874817 L100.489323,14.1874817 C100.551907,14.1874817 100.604014,14.1333934 100.604014,14.0742076 L100.604014,13.9411105 C100.604014,13.8773937 100.551624,13.8267034 100.489323,13.8267034 L100.472333,13.8204734 C100.20529,13.8204734 99.9903479,13.6126153 99.9719427,13.352368 L99.9719427,1.61206752 C99.9900686,1.34757231 100.205006,1.14056378 100.472333,1.14056378 L100.472333,1.14056378 Z M95.0739692,0.816316522 L92.7096518,0.816316522 C92.6448052,0.816316522 92.592415,0.865307568 92.592415,0.929590684 L92.592415,1.0632542 C92.592415,1.12668771 92.6450891,1.17766107 92.7096518,1.17766107 L93.1279168,1.17766107 L93.1896539,1.18020978 C93.4125182,1.18020978 93.4337582,1.24590875 93.3068906,1.57525339 L89.6464383,10.5947084 L89.6450186,10.5947084 C89.6450186,10.5947084 89.566296,10.7810443 89.4128074,10.7810443 C89.2731995,10.7810443 89.1788971,10.6295405 89.1590768,10.5998059 L86.8972728,5.59195507 L88.5677822,1.42233328 C88.5677822,1.42233328 88.6773757,1.14197974 89.2797116,1.14197974 L89.4170572,1.14197974 C89.4790736,1.14197974 89.530896,1.08874087 89.530896,1.02672327 L89.530896,0.893342954 C89.530896,0.832174901 89.4787897,0.779502392 89.4170572,0.779502392 L87.0490623,0.779502392 C86.9861941,0.779502392 86.9343718,0.832458101 86.9343718,0.893342954 L86.9343718,1.02672327 C86.9343718,1.08902407 86.9864781,1.14197974 87.0490623,1.14197974 L87.4715727,1.14197974 L87.5341569,1.14197974 C87.7536232,1.14197974 87.775999,1.21277609 87.6488475,1.5381561 L86.5076117,4.35443492 C86.4900536,4.37765604 86.4654156,4.40399218 86.4269015,4.40399218 C86.3835743,4.40399218 86.3501572,4.36661198 86.33515,4.34537289 L85.0157876,1.42459874 C84.8580538,1.14169654 84.954339,1.14169654 85.1672932,1.14169654 L85.5028697,1.14169654 L85.7322462,1.14169654 C85.7973813,1.14169654 85.8475046,1.08845767 85.8475046,1.02644007 L85.8475046,0.893342954 C85.8475046,0.832174901 85.7973813,0.779502392 85.7322462,0.779502392 L82.4971389,0.779502392 C82.4325717,0.779502392 82.3818805,0.832458101 82.3818805,0.893342954 L82.3818805,1.02672327 C82.3818805,1.08902407 82.4328556,1.14197974 82.4971389,1.14197974 L82.6327855,1.14197974 C83.0788027,1.14197974 83.2005686,1.43564299 83.2005686,1.43564299 L85.5798933,6.64568826 L83.934022,10.6887259 C83.8980541,10.7433811 83.8244285,10.827487 83.729279,10.827487 C83.5879674,10.827487 83.520854,10.6422836 83.520854,10.6422836 C83.520854,10.6422836 83.5146212,10.6524782 83.5021648,10.6657882 L78.9615666,1.75026196 C78.857922,1.49482874 78.640434,1.14226289 78.8494269,1.14226289 L79.1855667,1.14226289 L79.4149477,1.14226289 C79.477532,1.14226289 79.5302061,1.08902407 79.5302061,1.02700647 L79.5302061,0.893342954 C79.5302061,0.832174901 79.477532,0.779502392 79.4149477,0.779502392 L76.1778575,0.779502392 C76.1172561,0.779502392 76.0625991,0.832458101 76.0625991,0.893342954 L76.0625991,1.02672327 C76.0625991,1.08902407 76.1172561,1.14197974 76.1778575,1.14197974 L76.3157664,1.14197974 C76.7606524,1.14197974 76.8812872,1.43564299 76.8812872,1.43564299 L83.2121824,14.0637296 L83.2322867,14.1172518 C83.2322867,14.1172518 83.2713686,14.1880482 83.337067,14.1880482 C83.4033333,14.1880482 83.4426946,14.1764376 83.4792258,14.1172518 L83.4792258,14.1305614 L86.0573446,7.69432349 L88.9413049,14.0164378 L88.9752853,14.1107383 C88.9752853,14.1107383 89.0137994,14.1832341 89.0806335,14.1832341 C89.1446329,14.1832341 89.190227,14.1699241 89.2233555,14.1107383 C89.2310034,14.1005438 89.2352532,14.0776057 89.2448795,14.0464555 L94.2261093,1.45773145 C94.2261093,1.45773145 94.3382536,1.17766107 94.9383226,1.17766107 L95.0742532,1.17766107 C95.1382525,1.17766107 95.1880919,1.12640451 95.1880919,1.0632542 L95.1880919,0.929590684 C95.187808,0.865307568 95.1379686,0.816316522 95.0739692,0.816316522 L95.0739692,0.816316522 Z M65.1508971,0.776953729 L62.7843173,0.776953729 C62.7197547,0.776953729 62.6684957,0.830758947 62.6684957,0.891360645 L62.6684957,1.02587371 C62.6684957,1.08845767 62.7197547,1.14028063 62.7843173,1.14028063 L63.2059804,1.14028063 L63.2691326,1.14169654 C63.4897346,1.14169654 63.4302644,1.24307694 63.2521424,1.50162517 L59.7961446,6.40186556 C59.7007111,6.50267956 59.6117943,6.38062647 59.6117943,6.38062647 L59.6117943,6.383175 L56.0951951,1.54750125 C55.8941341,1.26884677 55.7853924,1.13376735 55.9977787,1.13376735 L56.1892135,1.13376735 L56.6108766,1.13206824 C56.6751599,1.13206824 56.728118,1.07911258 56.728118,1.01652861 L56.728118,0.88428101 C56.728118,0.821697048 56.674876,0.769874094 56.6108766,0.769874094 L53.3754854,0.769874094 C53.3129011,0.769874094 53.2616421,0.821697048 53.2616421,0.88428101 L53.2616421,1.01681177 C53.2616421,1.07939578 53.3129011,1.13235144 53.3754854,1.13235144 L53.5136782,1.13405055 C53.8600121,1.13405055 54.0775001,1.42488194 54.0775001,1.42488194 L58.3742733,7.36582837 C58.4057074,7.4134036 58.486413,7.56547434 58.4949081,7.82968616 L58.4949081,13.3328284 L58.49151,13.3118724 C58.49151,13.5930757 58.2658109,13.8167919 57.9874423,13.8167919 L57.9690325,13.8207568 C57.9067321,13.8207568 57.8568928,13.8697476 57.8568928,13.936013 L57.8568928,14.0708096 C57.8568928,14.1305614 57.9064482,14.1832341 57.9690325,14.1832341 L58.4949081,14.1832341 L58.4949081,14.1877652 L60.5482871,14.1877652 C60.6125704,14.1877652 60.6638248,14.1336764 60.6638248,14.0744906 L60.6638248,13.9413935 C60.6638248,13.8776771 60.6125704,13.8269869 60.5482871,13.8269869 L60.5321441,13.8207568 C60.2651008,13.8207568 60.0487486,13.6128984 60.0309066,13.3526511 L60.0309066,7.82260662 C60.0391178,7.60427055 60.096605,7.46324434 60.1328522,7.39669553 L64.4794648,1.39769616 C64.4794648,1.39769616 64.7048845,1.14028063 65.0138355,1.14028063 L65.1503339,1.14028063 C65.2149011,1.14028063 65.2638886,1.08845767 65.2638886,1.02587371 L65.2638886,0.891643845 C65.2644565,0.830758947 65.2154644,0.776953729 65.1508971,0.776953729 L65.1508971,0.776953729 Z M44.1045601,5.94593682 L44.1045601,1.64973116 L45.8897623,1.64973116 C45.8897623,1.64973116 48.7343567,1.55118262 48.7343567,4.35868292 C48.7343567,6.06685693 47.8607321,7.03874925 46.4991736,7.03874925 C45.2879896,7.03874925 44.3565948,6.32030816 44.1045601,5.94593682 L44.1045601,5.94593682 Z M53.689254,12.7656076 C53.5108481,12.5450065 53.2534309,12.7656076 53.2534309,12.7656076 C52.9620335,12.9539261 52.8136419,13.2699611 52.2973972,13.3393415 C52.1079453,13.3653946 51.9306705,13.3738901 51.5990599,13.2198374 C50.0993132,12.5062099 47.2821824,7.97241185 47.2821824,7.97241185 C50.1729388,7.36611184 50.2241978,4.80441664 50.2241978,4.80441664 C50.2241978,0.409379103 45.770538,0.763077659 45.770538,0.763077659 L41.8707935,0.763077659 L41.8546519,0.763077659 L41.7190062,0.763077659 C41.6535904,0.763077659 41.6003516,0.816316522 41.6003516,0.879466838 L41.6003516,1.01199764 C41.6003516,1.0745816 41.6535904,1.12640451 41.7190062,1.12640451 C41.7190062,1.12640451 42.4705804,1.09497095 42.5682794,1.8796777 L42.5682794,13.3325449 L42.565164,13.3115893 C42.565164,13.5927922 42.3394653,13.8165088 42.0622269,13.8165088 L42.0424038,13.8204734 C41.9818021,13.8204734 41.9274308,13.8694646 41.9274308,13.9357299 L41.9274308,14.0705261 C41.9274308,14.1302784 41.9818021,14.1829507 42.0424038,14.1829507 L42.5682794,14.1829507 L42.5682794,14.1874817 L44.6233556,14.1874817 C44.6859395,14.1874817 44.7369132,14.1333934 44.7369132,14.0742076 L44.7369132,13.9411105 C44.7369132,13.8773937 44.6859395,13.8267034 44.6233556,13.8267034 L44.605515,13.8204734 C44.3401702,13.8204734 44.1224007,13.6126153 44.104277,13.352368 L44.104277,7.29248349 C44.2571968,7.38140391 44.4715684,7.50600553 44.7731609,7.67676591 C46.0423991,8.40795101 47.0646991,10.3936469 48.429651,12.0519806 C49.8928711,13.8272699 51.078286,14.1056413 51.078286,14.1056413 C52.4545631,14.4859592 53.4122959,13.4084388 53.4122959,13.4084388 C53.4122959,13.4084388 53.8469879,12.9561916 53.689254,12.7656076 Z M30.1522984,5.94395479 L30.1522984,1.64973116 L31.9338177,1.64973116 C31.9338177,1.64973116 34.7801143,1.55118262 34.7801143,4.35868292 C34.7801143,6.06685693 33.9064875,7.03874925 32.5469142,7.03874925 C31.3323317,7.03874925 30.4026341,6.32030816 30.1522984,5.94395479 L30.1522984,5.94395479 Z M39.7381244,12.7656076 C39.5568855,12.5450065 39.3000363,12.7656076 39.3000363,12.7656076 C39.0080723,12.9539261 38.8596831,13.2699611 38.3437195,13.3393415 C38.1542685,13.3653946 37.9778437,13.3738901 37.648216,13.2198374 C36.1433686,12.5062099 33.3268066,7.97241185 33.3268066,7.97241185 C36.2192625,7.36611184 36.2702357,4.80441664 36.2702357,4.80441664 C36.2702357,0.409379103 31.8188446,0.763077659 31.8188446,0.763077659 L27.9154168,0.763077659 L27.9023902,0.763077659 L27.7653285,0.763077659 C27.6996297,0.763077659 27.648373,0.816316522 27.648373,0.879466838 L27.648373,1.01199764 C27.648373,1.0745816 27.6996297,1.12640451 27.7653285,1.12640451 C27.7653285,1.12640451 28.5154868,1.09497095 28.6143183,1.8796777 L28.6143183,13.3325449 L28.6131857,13.3115893 C28.6131857,13.5927922 28.3874871,13.8165088 28.1068502,13.8165088 L28.0904256,13.8204734 C28.0261423,13.8204734 27.9734701,13.8694646 27.9734701,13.9357299 L27.9734701,14.0705261 C27.9734701,14.1302784 28.0261423,14.1829507 28.0904256,14.1829507 L28.6146017,14.1829507 L28.6146017,14.1874817 L30.6702444,14.1874817 C30.7328283,14.1874817 30.7849345,14.1333934 30.7849345,14.0742076 L30.7849345,13.9411105 C30.7849345,13.8773937 30.7328283,13.8267034 30.6702444,13.8267034 L30.6532534,13.8204734 C30.3862095,13.8204734 30.1690064,13.6126153 30.1522984,13.352368 L30.1522984,7.29248349 C30.3052186,7.38055441 30.5181737,7.50600553 30.8180672,7.67676591 C32.0924015,8.40795101 33.1138511,10.3936469 34.4768228,12.0519806 C35.9408911,13.8272699 37.124606,14.1056413 37.124606,14.1056413 C38.5003208,14.4859592 39.458337,13.4084388 39.458337,13.4084388 C39.458337,13.4084388 39.8933097,12.9561916 39.7381244,12.7656076 Z M20.394862,7.47655391 C20.394862,7.47655391 18.688953,7.47655391 18.3539449,7.47655391 C18.0195027,7.47655391 18.0673614,7.18713847 18.0673614,7.18713847 C18.0673614,7.18713847 19.1349702,3.85744456 19.1715009,3.74077218 C19.2108641,3.61079008 19.2723149,3.53348045 19.379076,3.53348045 C19.487819,3.53348045 19.5622969,3.74077218 19.5622969,3.74077218 C19.5622969,3.74077218 20.6494457,6.86345784 20.6494457,7.16901486 C20.6497288,7.47655391 20.394862,7.47655391 20.394862,7.47655391 L20.394862,7.47655391 Z M25.233651,13.8269869 L24.9572621,13.8269869 C24.3076349,13.8269869 24.1363075,13.0969348 24.1363075,13.0969348 L19.8902255,0.816316522 L19.8964555,0.81150235 C19.8355707,0.625732728 19.6478188,0.438263998 19.3694479,0.438263998 C19.0907935,0.438263998 18.8979441,0.66679463 18.8532008,0.81178555 L18.8532008,0.832458101 L14.7591895,12.9944218 C14.7591895,12.9944218 14.545101,13.8269869 13.8957572,13.8269869 L13.6199344,13.8269869 C13.5573506,13.8269869 13.5063773,13.8779601 13.5063773,13.9413935 L13.5063773,14.0744906 C13.5063773,14.1336764 13.5573506,14.1877652 13.6199344,14.1877652 L14.3041103,14.1877652 L16.6001777,14.1877652 L16.6330273,14.1877652 L16.7324253,14.1877652 C16.7950091,14.1877652 16.8442834,14.1336764 16.8442834,14.0744906 L16.8442834,13.9413935 C16.8442834,13.8776771 16.7950091,13.8269869 16.7324253,13.8269869 L16.5953636,13.8269869 L16.5324963,13.8238719 C16.3181248,13.8238719 16.0975237,13.6063853 16.2082492,13.2795892 L17.5822645,9.13120613 L17.6253088,9.0077375 C17.7014856,8.73559616 17.9288837,8.59740195 18.2061221,8.59740195 L18.6620504,8.59740195 L20.2195701,8.59740195 L20.6729503,8.59740195 C20.9518877,8.59740195 21.1790024,8.73531315 21.2546128,9.0077375 L21.297374,9.13120613 L22.6722393,13.2795892 C22.7826813,13.6063853 22.5615137,13.8238719 22.3525227,13.8238719 L22.2868239,13.8269869 L22.1480627,13.8269869 C22.0849124,13.8269869 22.0345056,13.8779601 22.0345056,13.9413935 L22.0345056,14.0744906 C22.0345056,14.1336764 22.0849124,14.1877652 22.1480627,14.1877652 L22.2519917,14.1877652 L24.5460771,14.1877652 L25.233368,14.1877652 C25.2965183,14.1877652 25.3457925,14.1336764 25.3457925,14.0744906 L25.3457925,13.9413935 C25.3460755,13.8779601 25.2965183,13.8269869 25.233651,13.8269869 Z M10.8532132,1.14056378 L10.8710538,1.1346169 C10.9356201,1.1346169 10.9846113,1.08279399 10.9846113,1.01879408 L10.9846113,0.889378336 C10.9846113,0.824245712 10.9356201,0.773838711 10.8710538,0.773838711 L10.3531077,0.773838711 L10.3531077,0.76959094 L8.81569406,0.76959094 L8.29151795,0.76959094 C8.22695164,0.76959094 8.1756949,0.821413848 8.1756949,0.88399781 L8.1756949,1.01652861 C8.1756949,1.07911258 8.22695164,1.13206824 8.29151795,1.13206824 L8.30935855,1.13631601 C8.58801294,1.13631601 8.81371157,1.36144843 8.81371157,1.6389701 L8.81569406,1.6180144 L8.81569406,6.33050272 L8.81371157,6.31804265 C8.81371157,6.62473219 8.60642003,6.87535142 8.34588925,6.89687353 L2.92147303,6.89687353 C2.67113714,6.87761693 2.47319056,6.64540479 2.45818173,6.35429033 L2.45818173,1.61206752 C2.47460647,1.34757231 2.68897783,1.14056378 2.95772076,1.14056378 L2.97272959,1.1346169 C3.03842861,1.1346169 3.08798606,1.08279399 3.08798606,1.01879408 L3.08798606,0.889378336 C3.08798606,0.824245712 3.03871181,0.773838711 2.97272959,0.773838711 L2.45818173,0.773838711 L2.45818173,0.76959094 L0.920768159,0.76959094 L0.396592007,0.76959094 C0.333724845,0.76959094 0.279353228,0.821697048 0.279353228,0.88428101 L0.279353228,1.01681177 C0.279353228,1.07939578 0.333724845,1.13235144 0.396592007,1.13235144 L0.41329994,1.13659921 C0.693370282,1.13659921 0.917369942,1.36173158 0.917369942,1.6392533 L0.921051359,1.6182976 L0.921051359,13.3328284 L0.917086742,13.3118724 C0.917086742,13.5930757 0.693087081,13.8167919 0.41301674,13.8167919 L0.396308807,13.8207568 C0.333724845,13.8207568 0.279353228,13.8697476 0.279353228,13.936013 L0.279353228,14.0708096 C0.279353228,14.1305614 0.333724845,14.1832341 0.396592007,14.1832341 L0.920768159,14.1832341 L0.920768159,14.1877652 L2.97272959,14.1877652 C3.03842861,14.1877652 3.08798606,14.1336764 3.08798606,14.0744906 L3.08798606,13.9413935 C3.08798606,13.8776771 3.03871181,13.8269869 2.97272959,13.8269869 L2.95772076,13.8207568 C2.68897783,13.8207568 2.47460647,13.6128984 2.45818173,13.3526511 L2.45818173,8.23350865 C2.47149145,7.96759735 2.63658852,7.74869525 2.85379174,7.698005 L8.41158855,7.698005 C8.64238469,7.75322627 8.81371157,7.98996897 8.81371157,8.27088932 L8.81569406,8.25559725 L8.81569406,13.3325449 L8.81371157,13.3115893 C8.81371157,13.5927922 8.58801294,13.8165088 8.30935855,13.8165088 L8.29151795,13.8204734 C8.22695164,13.8204734 8.1756949,13.8694646 8.1756949,13.9357299 L8.1756949,14.0705261 C8.1756949,14.1302784 8.22695164,14.1829507 8.29151795,14.1829507 L8.81569406,14.1829507 L8.81569406,14.1874817 L10.8707707,14.1874817 C10.9353366,14.1874817 10.9843278,14.1333934 10.9843278,14.0742076 L10.9843278,13.9411105 C10.9843278,13.8773937 10.9353366,13.8267034 10.8707707,13.8267034 L10.8529297,13.8204734 C10.5873019,13.8204734 10.3698158,13.6126153 10.3528242,13.352368 L10.3528242,1.61206752 C10.3700988,1.34757231 10.5875853,1.14056378 10.8532132,1.14056378 L10.8532132,1.14056378 Z" transform="translate(.444 .092)"/>
</svg>
