<svg xmlns="http://www.w3.org/2000/svg" xmlns:xlink="http://www.w3.org/1999/xlink" width="58" height="19" viewBox="0 0 58 19">
  <defs>
    <polygon id="henri-bendel-logo-a" points=".034 18.355 56.787 18.355 56.787 .02 .034 .02"/>
  </defs>
  <g fill="none" fill-rule="evenodd" transform="translate(.71 .12)">
    <mask id="henri-bendel-logo-b" fill="#fff">
      <use xlink:href="#henri-bendel-logo-a"/>
    </mask>
    <path fill="#35201F" d="M55.7666712,17.3852386 C37.5200144,17.3852386 19.2727898,17.3835308 1.02670096,17.3863771 C1.02556523,11.920949 1.02556523,6.45552091 1.02670096,0.988954329 C19.2727898,0.991231354 37.5200144,0.990092841 55.7666712,0.990092841 C55.7678069,6.45552091 55.7666712,11.9198105 55.7666712,17.3852386 Z M0,0.0200804012 C0.00113573116,6.13161418 0,12.2442865 0.00113573116,18.355251 C18.9292312,18.3546817 37.8573266,18.3546817 56.785422,18.355251 C56.7865578,12.2442865 56.785422,6.13161418 56.7865578,0.0200804012 C37.8578945,0.0200804012 18.9286633,0.0200804012 0,0.0200804012 L0,0.0200804012 Z" mask="url(#henri-bendel-logo-b)"/>
    <path fill="#FFF" d="M55.5684861,17.1871374 C37.4535742,17.1859989 19.3386622,17.1859989 1.22318245,17.1871374 C1.22318245,11.854346 1.22431819,6.52098537 1.22261459,1.18819397 C19.3386622,1.18933249 37.4535742,1.190471 55.5684861,1.18819397 C55.5684861,6.52098537 55.5684861,11.854346 55.5684861,17.1871374 Z M1.02670096,0.988954329 C1.02556523,6.45552091 1.02556523,11.920949 1.02670096,17.3863771 C19.2727898,17.3835308 37.5200144,17.3852386 55.7666712,17.3852386 C55.7666712,11.9198105 55.7678069,6.45552091 55.7666712,0.990092841 C37.5200144,0.990092841 19.2727898,0.991231354 1.02670096,0.988954329 L1.02670096,0.988954329 Z"/>
    <path fill="#35201F" d="M36.3933691 12.6131644C36.6068866 12.458896 36.6301691 12.0911566 36.4075658 11.9334726 36.1503227 11.7683883 35.8311822 11.8088055 35.5415708 11.7951434 35.5415708 12.1287275 35.5427065 12.4623116 35.5438422 12.7958957 35.8311822 12.7776795 36.1503227 12.7947571 36.3933691 12.6131644M43.533143 7.2900504C44.1572273 6.73673344 44.1424628 5.65173126 43.5030462 5.11606125 43.043075 4.67261073 42.3684507 4.68228808 41.7738955 4.69424246 41.7727597 5.71434944 41.7738955 6.73502567 41.7733276 7.75513265 42.3832152 7.76651778 43.0720362 7.75513265 43.533143 7.2900504M20.1473028 4.81037071C19.8179408 4.66976445 19.449396 4.7027813 19.1012944 4.67887254 19.0984551 5.1439548 19.1001587 5.61017557 19.1001587 6.07525782 19.4806286 6.06842675 19.8946026 6.09005848 20.2330505 5.88569553 20.623742 5.65571606 20.5743377 4.97203945 20.1473028 4.81037071M30.0991471 4.81492476C29.7447989 4.64756346 29.3376393 4.68228808 28.9566015 4.67659552 28.9548979 5.08133662 28.9554658 5.48550847 28.9548979 5.88854181 29.3552432 5.87715669 29.7964747 5.90505024 30.1462799 5.67677853 30.4421379 5.48266219 30.4182875 4.9726087 30.0991471 4.81492476M28.9554658 6.30239102C28.9554658 6.78625872 28.9566015 7.26898792 28.9554658 7.75228637 29.3484288 7.74260902 29.7731922 7.79839612 30.1343547 7.60712606 30.5466251 7.39820906 30.5517359 6.72705609 30.1576372 6.4959381 29.8010176 6.27108193 29.3597861 6.30409879 28.9554658 6.30239102"/>
    <path fill="#35201F" d="M28.5062841,4.27925474 C29.1076538,4.30088647 29.740256,4.20297442 30.3120967,4.43693869 C30.8612227,4.66236412 30.9895603,5.56577359 30.4631489,5.88398776 C30.3626367,5.94831371 30.259853,6.01036262 30.1565015,6.06956526 C30.910627,6.25514276 31.1746845,7.34925303 30.5699076,7.83938256 C29.9833025,8.29991077 29.1928336,8.11319476 28.5062841,8.15475045 C28.5062841,6.86253905 28.5062841,5.57032764 28.5062841,4.27925474 Z M31.7033673,11.5241775 C31.3615122,12.0137377 30.9935354,12.4873588 30.6675805,12.987735 C30.6249906,13.3531974 30.6653091,13.7243524 30.6522481,14.0920919 C30.5806971,14.0920919 30.4370271,14.0920919 30.365476,14.0920919 C30.365476,13.7243524 30.3643403,13.3583207 30.365476,12.9917198 C30.0417926,12.503298 29.7288987,12.0103222 29.4012403,11.5241775 C29.4875558,11.5241775 29.6590512,11.5241775 29.7447989,11.5241775 C30.0003385,11.9044406 30.2553101,12.2835651 30.5102817,12.6649667 C30.7908073,12.2818574 31.0787152,11.9027328 31.3654873,11.5241775 C31.4790604,11.5241775 31.5909299,11.5241775 31.7033673,11.5241775 Z M31.9515246,12.7070917 C31.987868,12.1754065 32.3581163,11.6744611 32.8771455,11.527593 C33.6324067,11.2862284 34.4455902,11.9363189 34.4620583,12.7093687 C34.5449667,13.4237852 33.9475721,14.1512945 33.2155934,14.1319398 C32.4762324,14.1581256 31.8771342,13.4237852 31.9515246,12.7070917 Z M32.7618688,4.27811623 C33.4665899,4.27925474 34.1707433,4.27925474 34.8748966,4.27811623 C34.8766002,4.41189142 34.8800074,4.54509735 34.8828467,4.67887254 C34.3172526,4.69310395 33.7510906,4.67659552 33.1849286,4.68228808 C33.1820893,5.06653597 33.1820893,5.44964534 33.1849286,5.83218546 C33.6608,5.82592364 34.1383749,5.83047769 34.6165177,5.82876992 C34.6142463,5.96766841 34.6131105,6.10827468 34.6142463,6.24831168 C34.1378071,6.24717317 33.6608,6.25115797 33.1849286,6.24489615 C33.1820893,6.74754931 33.1837929,7.25020247 33.1837929,7.75342488 C33.7482513,7.7505786 34.3127097,7.75228637 34.8766002,7.75228637 C34.8766002,7.88549231 34.8766002,8.02040601 34.8766002,8.15361194 C34.1724469,8.15304269 33.4677257,8.15190417 32.7618688,8.15588897 C32.760733,6.86253905 32.760733,5.57032764 32.7618688,4.27811623 Z M35.2207267,11.525316 C35.6659333,11.5344241 36.1452119,11.4740829 36.5552108,11.6858462 C36.9708884,11.8936247 36.968617,12.5647777 36.5960971,12.8129733 C36.4677595,12.8938077 36.3121644,12.9137317 36.1724694,12.9621184 C36.4882027,13.3349812 36.7925786,13.7152443 37.0929795,14.0994922 C37.0089354,14.0955074 36.8391436,14.0875378 36.7556674,14.0824145 C36.4047264,13.734599 36.0997826,13.341243 35.7778028,12.9683803 C35.7187448,12.9689495 35.6000609,12.9689495 35.540435,12.9689495 C35.5438422,13.3423815 35.5438422,13.7163828 35.5427065,14.0892456 C35.4620696,14.0903841 35.3013636,14.0915226 35.2207267,14.0920919 C35.2207267,13.2364999 35.2207267,12.3814772 35.2207267,11.525316 Z M36.5148924,4.14775658 C37.4115521,5.15761695 38.3218406,6.1572307 39.224179,7.16310628 C39.2219076,6.20220194 39.224179,5.24072834 39.2219076,4.27925474 C39.3667133,4.27925474 39.511519,4.27811623 39.6574605,4.27811623 C39.6534854,5.61586813 39.6631391,6.95475854 39.6517818,8.29307969 C38.7534185,7.29403519 37.8448335,6.30409879 36.9424951,5.30903908 C36.9424951,6.25798904 36.9447666,7.20750826 36.9413594,8.15645822 C36.7976894,8.15475045 36.6540194,8.15361194 36.5109173,8.15304269 C36.512053,6.81813707 36.5063744,5.48266219 36.5148924,4.14775658 Z M39.2752869,14.0932304 C38.9112851,13.6941818 38.5580727,13.2888715 38.1969102,12.8898229 C38.1208162,13.2854559 38.1747634,13.6907663 38.1588632,14.0903841 C38.0873121,14.0915226 37.9436422,14.0920919 37.8720911,14.0920919 C37.8720911,13.2364999 37.8720911,12.3803387 37.8720911,11.5241775 C37.9436422,11.5241775 38.0873121,11.5241775 38.1588632,11.5241775 C38.1599989,11.8873629 38.1577275,12.2494098 38.1577275,12.6125952 C38.5177543,12.2522561 38.873806,11.8873629 39.2338327,11.527593 C39.367849,11.525316 39.503001,11.5241775 39.638153,11.5236082 C39.232697,11.918672 38.8334875,12.3199975 38.4320066,12.7201846 C38.8499556,13.1738817 39.2571152,13.6383947 39.6784715,14.0903841 C39.5773914,14.0915226 39.3757991,14.0920919 39.2752869,14.0932304 Z M43.4144591,4.52403488 C44.0629616,4.82687914 44.5127112,5.51852533 44.4775035,6.24091136 C44.500786,7.0162382 43.9454134,7.7130077 43.2435316,7.98852766 C42.6234224,8.23387706 41.944823,8.12970318 41.2957527,8.15475045 C41.2940491,6.86253905 41.2957527,5.57032764 41.2946169,4.27811623 C42.0021774,4.29690168 42.7585744,4.19443558 43.4144591,4.52403488 Z M45.9147713,4.27811623 C46.6206282,4.27925474 47.3259172,4.28039325 48.0317741,4.27811623 C48.0289348,4.41872249 48.0272312,4.5587595 48.0277991,4.69879651 C47.4616371,4.69708874 46.8954751,4.65724081 46.329881,4.7027813 C46.3332882,5.07735183 46.3321525,5.45135311 46.3310167,5.82592364 C46.8125667,5.8316162 47.2935489,5.82763141 47.7750989,5.82990843 C47.7722596,5.96880693 47.7694202,6.10827468 47.7682845,6.24831168 C47.2895738,6.24831168 46.811431,6.24489615 46.3332882,6.25229648 C46.3389669,6.7515341 46.3270417,7.25020247 46.3321525,7.74830158 C46.8983144,7.75399414 47.4644764,7.75228637 48.0312063,7.7505786 C48.0289348,7.88549231 48.0277991,8.02154452 48.0277991,8.15759673 C47.3236458,8.14962715 46.6194925,8.15190417 45.915907,8.15588897 C45.9142034,6.86367756 45.9147713,5.57032764 45.9147713,4.27811623 Z M49.6626841,4.27811623 C49.8040826,4.27811623 49.9477526,4.27811623 50.0919905,4.27811623 C50.0919905,5.43484468 50.0936941,6.59157313 50.0908547,7.74830158 C50.7410608,7.75740968 51.3912669,7.74830158 52.0420409,7.75399414 C52.0409051,7.88549231 52.0420409,8.01755973 52.0426087,8.14962715 C51.2493005,8.15759673 50.4565602,8.14791938 49.6632519,8.15645822 C49.6592769,6.86367756 49.6615483,5.57146615 49.6626841,4.27811623 Z M26.3591844,14.2355444 C26.1019413,13.5518678 25.8992133,12.8465595 25.6192555,12.1714217 C25.4199347,12.8704682 25.1519022,13.547883 24.9230523,14.2383907 C24.6447982,13.3281501 24.3546189,12.4218944 24.0701182,11.5145001 C24.1376942,11.5196234 24.2734141,11.5304393 24.3409901,11.5361318 C24.5545076,12.1645906 24.7339531,12.8067115 24.9230523,13.4442784 C25.1814312,12.7816643 25.3444086,12.0746481 25.6578704,11.4376505 C25.8935346,12.1031109 26.1184094,12.7719869 26.3574808,13.4351703 C26.5488515,12.801019 26.7243219,12.1606058 26.9389751,11.5349933 C27.007119,11.5304393 27.1428389,11.5201927 27.2104149,11.5156386 C26.9247785,12.4218944 26.6323277,13.3253039 26.3591844,14.2355444 Z M23.0456887,8.15759673 C23.0417137,6.86424681 23.044553,5.57146615 23.0434173,4.27811623 C23.1921981,4.27811623 23.3415467,4.27925474 23.4903275,4.27925474 C23.4908953,5.57032764 23.4903275,6.86083128 23.4908953,8.15076566 C23.3415467,8.15304269 23.1927659,8.15475045 23.0456887,8.15759673 Z M23.1444973,12.5562388 C23.1444973,12.6484583 23.1456331,12.7412471 23.1467688,12.8351743 C22.8185425,12.8351743 22.4914519,12.8340358 22.1643614,12.8311895 C22.1643614,13.1636351 22.1626578,13.4966499 22.1626578,13.8290955 C22.5476706,13.8290955 22.9326835,13.830234 23.3176963,13.8273878 C23.3176963,13.896837 23.3176963,14.0351662 23.3176963,14.103477 C22.8378499,14.1017692 22.3574357,14.1029077 21.8770214,14.103477 C21.8781571,13.245608 21.8758856,12.3883083 21.8781571,11.5304393 C22.3574357,11.5315778 22.8378499,11.5304393 23.3176963,11.5304393 C23.3176963,11.5998885 23.3165606,11.7382178 23.3165606,11.807667 C22.9315478,11.8048207 22.5476706,11.8059593 22.1637935,11.8048207 C22.1637935,12.0558627 22.1637935,12.3074739 22.1637935,12.5590851 C22.4903162,12.5579466 22.8179746,12.5579466 23.1444973,12.5562388 Z M20.6930216,8.15304269 C20.2466793,7.62648077 19.7889796,7.10902695 19.3426373,6.58303429 C19.2864186,6.49764587 19.1955601,6.4583672 19.1024302,6.43331993 C19.0961836,7.00769936 19.1024302,7.58094028 19.0984551,8.15588897 C18.9190096,8.15475045 18.7395641,8.15361194 18.5612543,8.15361194 C18.5601185,6.86140053 18.5601185,5.57032764 18.5612543,4.27925474 C19.2478037,4.29462466 19.9973863,4.19785112 20.619767,4.55477471 C21.11381,4.83940277 21.1768431,5.58398978 20.8117056,5.99556196 C20.5686591,6.28132854 20.188757,6.3894872 19.829866,6.42933513 C20.3477594,6.99916052 20.8565669,7.578094 21.371621,8.15076566 C21.1444748,8.15361194 20.9190321,8.15361194 20.6930216,8.15304269 Z M20.6084097,14.1985428 C20.0110151,13.523405 19.3914737,12.8693297 18.7952149,12.1930534 C18.7895362,12.8272047 18.7952149,13.4613561 18.7935113,14.0960766 C18.7202566,14.0972152 18.5737473,14.0983537 18.5010605,14.0983537 C18.4993569,13.201206 18.4982212,12.3057661 18.5010605,11.4091877 C19.1012944,12.0843255 19.7055034,12.75434 20.311416,13.4226467 C20.3080088,12.783372 20.3102802,12.1446666 20.3091445,11.5048228 C20.3841028,11.5042535 20.5340193,11.503115 20.6084097,11.5019765 C20.6084097,12.4008319 20.6089775,13.2991181 20.6084097,14.1985428 Z M16.6787799,8.29080267 C15.7849595,7.29118891 14.8752388,6.30580655 13.9751719,5.31188536 C13.9751719,6.25969681 13.9780112,7.20864677 13.9740361,8.15759673 C13.8303661,8.15475045 13.6878319,8.15361194 13.5458655,8.15190417 C13.5487048,6.81870632 13.5413226,5.48550847 13.5487048,4.15174137 C14.4465003,5.15761695 15.3471351,6.15950773 16.2551522,7.15570595 C16.2483378,6.19650938 16.2540164,5.23788206 16.2523128,4.27811623 C16.3959828,4.27925474 16.5396528,4.27925474 16.6844585,4.27925474 C16.6804835,5.61586813 16.6924087,6.95362003 16.6787799,8.29080267 Z M10.1892121,5.8316162 C10.6718978,5.82763141 11.1551514,5.82876992 11.6372693,5.82990843 C11.6367014,5.96880693 11.6355657,6.10827468 11.6355657,6.24717317 C11.1540157,6.24660392 10.6724657,6.2494502 10.1914835,6.24489615 C10.1875085,6.74754931 10.1903478,7.25020247 10.1892121,7.75342488 C10.7536704,7.75228637 11.3192646,7.75228637 11.8837229,7.75228637 C11.8825872,7.88549231 11.8825872,8.02040601 11.8825872,8.15475045 C11.1755946,8.15076566 10.4680341,8.15588897 9.76160928,8.15076566 C9.76104141,6.86083128 9.76160928,5.57032764 9.76104141,4.28039325 C10.4691698,4.27811623 11.1761624,4.27925474 11.8837229,4.27925474 C11.8825872,4.4147377 11.8825872,4.55022066 11.8814515,4.68570362 C11.3192646,4.68171882 10.7565098,4.6845651 10.1943228,4.68228808 C10.1875085,5.06539745 10.1880763,5.44850683 10.1892121,5.8316162 Z M7.89617086,8.15588897 C7.73887209,8.15475045 7.58270906,8.15475045 7.42597816,8.15475045 C7.42427456,7.52344541 7.42597816,6.89270962 7.42427456,6.26083532 C6.68888864,6.26709714 5.95350271,6.26197383 5.21925252,6.2636816 C5.21754893,6.89441739 5.22038825,7.52629169 5.21754893,8.15645822 C5.0596823,8.15304269 4.90238353,8.15076566 4.74394903,8.14905789 C4.74508477,6.85969277 4.74508477,5.56975838 4.74508477,4.27925474 C4.9029514,4.28039325 5.06025016,4.27925474 5.21868466,4.27811623 C5.21584533,4.79784707 5.22549904,5.31700866 5.213006,5.83617025 C5.94725619,5.88455702 6.68491358,5.84413983 7.42143523,5.85950975 C7.42938535,5.33237858 7.42427456,4.8052474 7.42427456,4.27811623 C7.58157333,4.27811623 7.73887209,4.27811623 7.89617086,4.27811623 C7.89617086,5.57032764 7.89673872,6.86253905 7.89617086,8.15588897 Z M1.22261459,1.18819397 C1.22431819,6.52098537 1.22318245,11.854346 1.22318245,17.1871374 C19.3386622,17.1859989 37.4535742,17.1859989 55.5684861,17.1871374 C55.5684861,11.854346 55.5684861,6.52098537 55.5684861,1.18819397 C37.4535742,1.190471 19.3386622,1.18933249 1.22261459,1.18819397 L1.22261459,1.18819397 Z"/>
    <path fill="#35201F" d="M32.7050822,13.7112595 C33.2655655,14.1097388 34.0838598,13.6731193 34.1752862,13.0196133 C34.3638176,12.294381 33.5994705,11.5110846 32.8731704,11.8156366 C32.0997375,12.0991262 32.0032004,13.2917177 32.7050822,13.7112595"/>
    <path fill="#FFF" d="M16.6844585 4.27925474C16.5396528 4.27925474 16.3959828 4.27925474 16.2523128 4.27811623 16.2540164 5.23788206 16.2483378 6.19650938 16.2551522 7.15570595 15.3471351 6.15950773 14.4465003 5.15761695 13.5487048 4.15174137 13.5413226 5.48550847 13.5487048 6.81870632 13.5458655 8.15190417 13.6878319 8.15361194 13.8303661 8.15475045 13.9740361 8.15759673 13.9780112 7.20864677 13.9751719 6.25969681 13.9751719 5.31188536 14.8752388 6.30580655 15.7849595 7.29118891 16.6787799 8.29080267 16.6924087 6.95362003 16.6804835 5.61586813 16.6844585 4.27925474M36.9413594 8.15645822C36.9447666 7.20750826 36.9424951 6.25798904 36.9424951 5.30903908 37.8448335 6.30409879 38.7534185 7.29403519 39.6517818 8.29307969 39.6631391 6.95475854 39.6534854 5.61586813 39.6574605 4.27811623 39.511519 4.27811623 39.3667133 4.27925474 39.2219076 4.27925474 39.224179 5.24072834 39.2219076 6.20220194 39.224179 7.16310628 38.3218406 6.1572307 37.4115521 5.15761695 36.5148924 4.14775658 36.5063744 5.48266219 36.512053 6.81813707 36.5109173 8.15304269 36.6540194 8.15361194 36.7976894 8.15475045 36.9413594 8.15645822M7.42427456 4.27811623C7.42427456 4.8052474 7.42938535 5.33237858 7.42143523 5.85950975 6.68491358 5.84413983 5.94725619 5.88455702 5.213006 5.83617025 5.22549904 5.31700866 5.21584533 4.79784707 5.21868466 4.27811623 5.06025016 4.27925474 4.9029514 4.28039325 4.74508477 4.27925474 4.74508477 5.56975838 4.74508477 6.85969277 4.74394903 8.14905789 4.90238353 8.15076566 5.0596823 8.15304269 5.21754893 8.15645822 5.22038825 7.52629169 5.21754893 6.89441739 5.21925252 6.2636816 5.95350271 6.26197383 6.68888864 6.26709714 7.42427456 6.26083532 7.42597816 6.89270962 7.42427456 7.52344541 7.42597816 8.15475045 7.58270906 8.15475045 7.73887209 8.15475045 7.89617086 8.15588897 7.89673872 6.86253905 7.89617086 5.57032764 7.89617086 4.27811623 7.73887209 4.27811623 7.58157333 4.27811623 7.42427456 4.27811623M11.8814515 4.68570362C11.8825872 4.55022066 11.8825872 4.4147377 11.8837229 4.27925474 11.1761624 4.27925474 10.4691698 4.27811623 9.76104141 4.28039325 9.76160928 5.57032764 9.76104141 6.86083128 9.76160928 8.15076566 10.4680341 8.15588897 11.1755946 8.15076566 11.8825872 8.15475045 11.8825872 8.02040601 11.8825872 7.88549231 11.8837229 7.75228637 11.3192646 7.75228637 10.7536704 7.75228637 10.1892121 7.75342488 10.1903478 7.25020247 10.1875085 6.74754931 10.1914835 6.24489615 10.6724657 6.2494502 11.1540157 6.24660392 11.6355657 6.24717317 11.6355657 6.10827468 11.6367014 5.96880693 11.6372693 5.82990843 11.1551514 5.82876992 10.6718978 5.82763141 10.1892121 5.8316162 10.1880763 5.44850683 10.1875085 5.06539745 10.1943228 4.68228808 10.7565098 4.6845651 11.3192646 4.68171882 11.8814515 4.68570362M19.1001587 6.07525782C19.1001587 5.61017557 19.0984551 5.1439548 19.1012944 4.67887254 19.449396 4.7027813 19.8179408 4.66976445 20.1473028 4.81037071 20.5743377 4.97203945 20.623742 5.65571606 20.2330505 5.88569553 19.8946026 6.09005848 19.4806286 6.06842675 19.1001587 6.07525782zM20.8117056 5.99556196C21.1768431 5.58398978 21.11381 4.83940277 20.619767 4.55477471 19.9973863 4.19785112 19.2478037 4.29462466 18.5612543 4.27925474 18.5601185 5.57032764 18.5601185 6.86140053 18.5612543 8.15361194 18.7395641 8.15361194 18.9190096 8.15475045 19.0984551 8.15588897 19.1024302 7.58094028 19.0961836 7.00769936 19.1024302 6.43331993 19.1955601 6.4583672 19.2864186 6.49764587 19.3426373 6.58303429 19.7889796 7.10902695 20.2466793 7.62648077 20.6930216 8.15304269 20.9190321 8.15361194 21.1444748 8.15361194 21.371621 8.15076566 20.8565669 7.578094 20.3477594 6.99916052 19.829866 6.42933513 20.188757 6.3894872 20.5686591 6.28132854 20.8117056 5.99556196L20.8117056 5.99556196zM28.9566015 4.67659552C29.3376393 4.68228808 29.7447989 4.64756346 30.0991471 4.81492476 30.4182875 4.9726087 30.4421379 5.48266219 30.1462799 5.67677853 29.7964747 5.90505024 29.3552432 5.87715669 28.9548979 5.88854181 28.9554658 5.48550847 28.9548979 5.08133662 28.9566015 4.67659552zM30.1576372 6.4959381C30.5517359 6.72705609 30.5466251 7.39820906 30.1343547 7.60712606 29.7731922 7.79839612 29.3484288 7.74260902 28.9554658 7.75228637 28.9566015 7.26898792 28.9554658 6.78625872 28.9554658 6.30239102 29.3597861 6.30409879 29.8010176 6.27108193 30.1576372 6.4959381zM30.5699076 7.83938256C31.1746845 7.34925303 30.910627 6.25514276 30.1565015 6.06956526 30.259853 6.01036262 30.3626367 5.94831371 30.4631489 5.88398776 30.9895603 5.56577359 30.8612227 4.66236412 30.3120967 4.43693869 29.740256 4.20297442 29.1076538 4.30088647 28.5062841 4.27925474 28.5062841 5.57032764 28.5062841 6.86253905 28.5062841 8.15475045 29.1928336 8.11319476 29.9833025 8.29991077 30.5699076 7.83938256L30.5699076 7.83938256zM34.8766002 8.15361194C34.8766002 8.02040601 34.8766002 7.88549231 34.8766002 7.75228637 34.3127097 7.75228637 33.7482513 7.7505786 33.1837929 7.75342488 33.1837929 7.25020247 33.1820893 6.74754931 33.1849286 6.24489615 33.6608 6.25115797 34.1378071 6.24717317 34.6142463 6.24831168 34.6131105 6.10827468 34.6142463 5.96766841 34.6165177 5.82876992 34.1383749 5.83047769 33.6608 5.82592364 33.1849286 5.83218546 33.1820893 5.44964534 33.1820893 5.06653597 33.1849286 4.68228808 33.7510906 4.67659552 34.3172526 4.69310395 34.8828467 4.67887254 34.8800074 4.54509735 34.8766002 4.41189142 34.8748966 4.27811623 34.1707433 4.27925474 33.4665899 4.27925474 32.7618688 4.27811623 32.760733 5.57032764 32.760733 6.86253905 32.7618688 8.15588897 33.4677257 8.15190417 34.1724469 8.15304269 34.8766002 8.15361194M41.7738955 4.69424246C42.3684507 4.68228808 43.043075 4.67261073 43.5030462 5.11606125 44.1424628 5.65173126 44.1572273 6.73673344 43.533143 7.2900504 43.0720362 7.75513265 42.3832152 7.76651778 41.7733276 7.75513265 41.7738955 6.73502567 41.7727597 5.71434944 41.7738955 4.69424246zM43.2435316 7.98852766C43.9454134 7.7130077 44.500786 7.0162382 44.4775035 6.24091136 44.5127112 5.51852533 44.0629616 4.82687914 43.4144591 4.52403488 42.7585744 4.19443558 42.0021774 4.29690168 41.2946169 4.27811623 41.2957527 5.57032764 41.2940491 6.86253905 41.2957527 8.15475045 41.944823 8.12970318 42.6234224 8.23387706 43.2435316 7.98852766L43.2435316 7.98852766zM48.0277991 8.15759673C48.0277991 8.02154452 48.0289348 7.88549231 48.0312063 7.7505786 47.4644764 7.75228637 46.8983144 7.75399414 46.3321525 7.74830158 46.3270417 7.25020247 46.3389669 6.7515341 46.3332882 6.25229648 46.811431 6.24489615 47.2895738 6.24831168 47.7682845 6.24831168 47.7694202 6.10827468 47.7722596 5.96880693 47.7750989 5.82990843 47.2935489 5.82763141 46.8125667 5.8316162 46.3310167 5.82592364 46.3321525 5.45135311 46.3332882 5.07735183 46.329881 4.7027813 46.8954751 4.65724081 47.4616371 4.69708874 48.0277991 4.69879651 48.0272312 4.5587595 48.0289348 4.41872249 48.0317741 4.27811623 47.3259172 4.28039325 46.6206282 4.27925474 45.9147713 4.27811623 45.9147713 5.57032764 45.9142034 6.86367756 45.915907 8.15588897 46.6194925 8.15190417 47.3236458 8.14962715 48.0277991 8.15759673M52.0426087 8.14962715C52.0420409 8.01755973 52.0409051 7.88549231 52.0420409 7.75399414 51.3912669 7.74830158 50.7410608 7.75740968 50.0908547 7.74830158 50.0936941 6.59157313 50.0919905 5.43484468 50.0919905 4.27811623 49.9477526 4.27811623 49.8040826 4.27811623 49.6626841 4.27811623 49.6615483 5.57146615 49.6592769 6.86367756 49.6632519 8.15645822 50.4565602 8.14791938 51.2493005 8.15759673 52.0426087 8.14962715M20.3091445 11.5048228C20.3102802 12.1446666 20.3080088 12.783372 20.311416 13.4226467 19.7055034 12.75434 19.1012944 12.0843255 18.5010605 11.4091877 18.4982212 12.3057661 18.4993569 13.201206 18.5010605 14.0983537 18.5737473 14.0983537 18.7202566 14.0972152 18.7935113 14.0960766 18.7952149 13.4613561 18.7895362 12.8272047 18.7952149 12.1930534 19.3914737 12.8693297 20.0110151 13.523405 20.6084097 14.1985428 20.6089775 13.2991181 20.6084097 12.4008319 20.6084097 11.5019765 20.5340193 11.503115 20.3841028 11.5042535 20.3091445 11.5048228M26.3574808 13.4351703C26.1184094 12.7719869 25.8935346 12.1031109 25.6578704 11.4376505 25.3444086 12.0746481 25.1814312 12.7816643 24.9230523 13.4442784 24.7339531 12.8067115 24.5545076 12.1645906 24.3409901 11.5361318 24.2734141 11.5304393 24.1376942 11.5196234 24.0701182 11.5145001 24.3546189 12.4218944 24.6447982 13.3281501 24.9230523 14.2383907 25.1519022 13.547883 25.4199347 12.8704682 25.6192555 12.1714217 25.8992133 12.8465595 26.1019413 13.5518678 26.3591844 14.2355444 26.6323277 13.3253039 26.9247785 12.4218944 27.2104149 11.5156386 27.1428389 11.5201927 27.007119 11.5304393 26.9389751 11.5349933 26.7243219 12.1606058 26.5488515 12.801019 26.3574808 13.4351703M29.7447989 11.5241775C29.6590512 11.5241775 29.4875558 11.5241775 29.4012403 11.5241775 29.7288987 12.0103222 30.0417926 12.503298 30.365476 12.9917198 30.3643403 13.3583207 30.365476 13.7243524 30.365476 14.0920919 30.4370271 14.0920919 30.5806971 14.0920919 30.6522481 14.0920919 30.6653091 13.7243524 30.6249906 13.3531974 30.6675805 12.987735 30.9935354 12.4873588 31.3615122 12.0137377 31.7033673 11.5241775 31.5909299 11.5241775 31.4790604 11.5241775 31.3654873 11.5241775 31.0787152 11.9027328 30.7908073 12.2818574 30.5102817 12.6649667 30.2553101 12.2835651 30.0003385 11.9044406 29.7447989 11.5241775M32.8731704 11.8156366C33.5994705 11.5110846 34.3638176 12.294381 34.1752862 13.0196133 34.0838598 13.6731193 33.2655655 14.1097388 32.7050822 13.7112595 32.0032004 13.2917177 32.0997375 12.0991262 32.8731704 11.8156366zM33.2155934 14.1319398C33.9475721 14.1512945 34.5449667 13.4237852 34.4620583 12.7093687 34.4455902 11.9363189 33.6324067 11.2862284 32.8771455 11.527593 32.3581163 11.6744611 31.987868 12.1754065 31.9515246 12.7070917 31.8771342 13.4237852 32.4762324 14.1581256 33.2155934 14.1319398L33.2155934 14.1319398zM23.3165606 11.807667C23.3165606 11.7382178 23.3176963 11.5998885 23.3176963 11.5304393 22.8378499 11.5304393 22.3574357 11.5315778 21.8781571 11.5304393 21.8758856 12.3883083 21.8781571 13.245608 21.8770214 14.103477 22.3574357 14.1029077 22.8378499 14.1017692 23.3176963 14.103477 23.3176963 14.0351662 23.3176963 13.896837 23.3176963 13.8273878 22.9326835 13.830234 22.5476706 13.8290955 22.1626578 13.8290955 22.1626578 13.4966499 22.1643614 13.1636351 22.1643614 12.8311895 22.4914519 12.8340358 22.8185425 12.8351743 23.1467688 12.8351743 23.1456331 12.7412471 23.1444973 12.6484583 23.1444973 12.5562388 22.8179746 12.5579466 22.4903162 12.5579466 22.1637935 12.5590851 22.1637935 12.3074739 22.1637935 12.0558627 22.1637935 11.8048207 22.5476706 11.8059593 22.9315478 11.8048207 23.3165606 11.807667M36.4075658 11.9334726C36.6301691 12.0911566 36.6068866 12.458896 36.3933691 12.6131644 36.1503227 12.7947571 35.8311822 12.7776795 35.5438422 12.7958957 35.5427065 12.4623116 35.5415708 12.1287275 35.5415708 11.7951434 35.8311822 11.8088055 36.1503227 11.7683883 36.4075658 11.9334726zM35.540435 12.9689495C35.6000609 12.9689495 35.7187448 12.9689495 35.7778028 12.9683803 36.0997826 13.341243 36.4047264 13.734599 36.7556674 14.0824145 36.8391436 14.0875378 37.0089354 14.0955074 37.0929795 14.0994922 36.7925786 13.7152443 36.4882027 13.3349812 36.1724694 12.9621184 36.3121644 12.9137317 36.4677595 12.8938077 36.5960971 12.8129733 36.968617 12.5647777 36.9708884 11.8936247 36.5552108 11.6858462 36.1452119 11.4740829 35.6659333 11.5344241 35.2207267 11.525316 35.2207267 12.3814772 35.2207267 13.2364999 35.2207267 14.0920919 35.3013636 14.0915226 35.4620696 14.0903841 35.5427065 14.0892456 35.5438422 13.7163828 35.5438422 13.3423815 35.540435 12.9689495L35.540435 12.9689495zM39.638153 11.5236082C39.503001 11.5241775 39.367849 11.525316 39.2338327 11.527593 38.873806 11.8873629 38.5177543 12.2522561 38.1577275 12.6125952 38.1577275 12.2494098 38.1599989 11.8873629 38.1588632 11.5241775 38.0873121 11.5241775 37.9436422 11.5241775 37.8720911 11.5241775 37.8720911 12.3803387 37.8720911 13.2364999 37.8720911 14.0920919 37.9436422 14.0920919 38.0873121 14.0915226 38.1588632 14.0903841 38.1747634 13.6907663 38.1208162 13.2854559 38.1969102 12.8898229 38.5580727 13.2888715 38.9112851 13.6941818 39.2752869 14.0932304 39.3757991 14.0920919 39.5773914 14.0915226 39.6784715 14.0903841 39.2571152 13.6383947 38.8499556 13.1738817 38.4320066 12.7201846 38.8334875 12.3199975 39.232697 11.918672 39.638153 11.5236082"/>
  </g>
</svg>
