<?xml version="1.0" encoding="utf-8"?>
<!-- Generator: Adobe Illustrator 15.0.0, SVG Export Plug-In . SVG Version: 6.00 Build 0)  -->
<!DOCTYPE svg PUBLIC "-//W3C//DTD SVG 1.1//EN" "http://www.w3.org/Graphics/SVG/1.1/DTD/svg11.dtd">
<svg version="1.1" id="Layer_1" xmlns="http://www.w3.org/2000/svg" xmlns:xlink="http://www.w3.org/1999/xlink" x="0px" y="0px"
	 width="97px" height="16px" viewBox="0 0 97 16" enable-background="new 0 0 97 16" xml:space="preserve">
<g transform="translate(-.018 -.524)">
	<path fill="#221F20" d="M0.454,1.015v15c-0.64,0.144-0.415-0.771-0.415-1.657c0-4.303-0.066-9.479,0.083-13.343h0.166H0.454z"/>
	<path fill="#221F20" d="M4.44,1.015h0.332c3.388,4.756,6.915,9.366,10.381,14.041V1.015h0.415v15h-0.249
		C11.843,11.322,8.391,6.604,4.855,1.974C4.8,6.626,4.966,11.508,4.772,16.014H4.44V1.015z"/>
	<path fill="#221F20" d="M17.976,1.015h10.879c0.099,0.706-1.567,0.436-2.408,0.436h-2.741c-0.193,4.68-0.027,9.739-0.083,14.563
		h-0.415V1.451c-1.399-0.341-3.797,0.459-4.982,0C18.045,1.38,17.913,1.36,17.976,1.015"/>
	<path fill="#221F20" d="M31.347,1.015h8.803c0.173,0.712-1.289,0.436-1.91,0.436h-6.478v6.715c2.144,0.317,5.169-0.199,7.308,0.262
		c-0.181,0.473-1.098,0.261-1.661,0.261h-5.647v6.89c2.793,0.114,6.077-0.229,8.72,0.174v0.262H31.43
		C31.236,11.188,31.402,5.986,31.347,1.015"/>
	<path fill="#221F20" d="M42.807,1.015h4.817c1.705,0.383,3.139,0.979,3.653,2.442c0.922,2.614-1.173,4.706-3.487,4.971
		c2.549,0.342,3.91,1.674,4.069,4.36c0.03,0.516-0.144,1.128,0,1.745c0.21,0.897,1.257,1.117,2.075,1.22
		c-1.484,0.463-2.974-0.041-3.653-0.785c-0.987-1.08-0.595-2.455-0.83-4.185c-0.28-2.045-1.951-2.12-4.069-2.355
		c1.169-0.265,2.363-0.189,3.072-0.785c1.275-1.072,1.355-3.961,0.249-5.232c-1.226-1.409-3.257-0.833-5.48-0.96v14.563h-0.416
		V1.015z"/>
	<path fill="#221F20" d="M63.402,16.014h-0.083c-1.869-4.752-3.785-9.454-5.73-14.127v13.779c0.537,0.106,1.482-0.218,1.744,0.175
		c-1.082,0.09-2.959,0.258-3.903-0.088c0.417-0.201,1.19-0.029,1.743-0.087V1.364c-0.562-0.107-1.537,0.22-1.826-0.175
		c1.273-0.203,2.908-0.029,4.318-0.087c1.586,3.918,3.149,7.856,4.817,11.686c1.586-3.945,3.213-7.846,4.899-11.686
		c1.22,0.114,2.875-0.229,3.82,0.175c-0.445,0.202-1.244,0.03-1.826,0.087v14.302c0.562,0.106,1.537-0.219,1.826,0.175
		c-1.744,0.09-4.287,0.256-5.813-0.088c0.499-0.201,1.356-0.029,1.993-0.087c-0.055-4.535,0.111-9.302-0.084-13.692
		C67.356,6.679,65.393,11.362,63.402,16.014 M74.945,1.102h5.813c-0.195,0.551-1.316,0.129-1.91,0.261v14.216
		c0.445,0.26,1.466-0.086,1.91,0.174c-1.526,0.344-4.069,0.178-5.813,0.088c0.315-0.396,1.319-0.067,1.91-0.174V1.451
		C76.428,1.113,75.109,1.714,74.945,1.102 M96.039,1.102v0.261h-1.827c-1.433,2.072-2.814,4.197-4.236,6.28
		c1.31,2.725,2.734,5.327,4.07,8.023h1.993v0.262c-1.994-0.116-4.428,0.23-6.146-0.176c0.416-0.26,1.41,0.086,1.828-0.174
		c-0.986-1.988-2.011-3.936-2.908-6.018c-1.53,1.88-2.822,4.012-4.151,6.105c0.499,0.057,1.218-0.115,1.578,0.086
		c-0.429,0.31-1.332,0.176-2.076,0.176c-0.767,0-1.671,0.203-1.993-0.262h1.993c1.526-2.088,2.881-4.358,4.401-6.455
		c-1.432-2.624-2.713-5.407-4.318-7.849c-0.619-0.135-1.773,0.294-1.992-0.261c2.049,0.112,4.497-0.228,6.227,0.174
		c-0.416,0.202-1.188,0.03-1.743,0.087c0.948,2.027,2.04,3.905,2.989,5.931c1.052-1.352,2.211-3.042,3.156-4.448
		c0.327-0.488,0.795-1.15,0.748-1.483c-0.455-0.103-1.312,0.215-1.496-0.174C93.27,0.986,94.766,1.16,96.039,1.102"/>
</g>
</svg>
