<svg xmlns="http://www.w3.org/2000/svg" width="71" height="21" viewBox="0 0 71 21">
  <g fill-rule="evenodd" transform="translate(.575 .74)">
    <path d="M19.0618641.0000234175235L20.3732454.0000234175235C21.4745247.144650043 22.5538852.451794281 23.3706884.843054263 23.6770365.989788465 23.9853984 1.27566959 24.2137193 1.31140473 24.5163205 1.35875497 24.5998742 1.07315485 24.7757398 1.21773464 24.8316609 1.69198632 24.8555468 2.1731696 24.916245 2.66962109 24.9738053 3.14021965 25.1525278 3.66645823 24.96308 4.0746725 23.8617071 2.23049569 22.6975283.428470427 19.95173.42153884 16.1785581.411984491 14.4942293 3.13445894 14.6125347 6.55692999 14.7256413 9.82821752 16.653044 12.7178931 19.7643898 12.9264964 21.4857183 13.0418979 23.0020966 12.4290145 23.979544 11.4277749 24.2869693 11.1128092 24.5831073 10.6377145 24.8225749 10.3037338 24.8921718 10.2066447 24.9243006 9.95855945 25.1035852 10.0227235 25.070988 10.739487 24.825947 11.2438536 24.7289048 11.8961253 23.5917499 12.8963346 21.8474254 13.3793913 20.0454001 13.4416819 16.0719147 13.5790959 13.4411433 11.2127552 13.2074832 7.72780617 12.9164503 3.38699351 15.2758126.455494249 19.0618641.0000234175235M52.0337138.0000234175235L52.267889.0000234175235C53.2200455.132800776 54.4511047.124370467 55.4058371.0000234175235L55.5463423.0000234175235C55.5806255.0437673514 55.6314884.0709785137 55.6868474.0936935115 55.6407617.381963226 55.0876867.407675666 54.9843217.655714075 54.8539798.968619024 55.1299319 1.66739792 55.265332 2.06076548 56.0272446 4.27479866 56.9580911 6.33376099 57.8412596 8.38349683 58.0224644 8.80398188 58.1790808 9.25106924 58.3564451 9.64804309 58.535917 10.04956 58.6737526 10.5175826 59.0589708 10.7252492 59.3715479 10.515756 59.4262513 10.0949431 59.5741563 9.74171319 59.8544172 9.07229986 60.1446072 8.46644169 60.4640222 7.68097112 60.6082742 7.32628931 60.8296634 6.8969056 60.8387026 6.60376504 60.8511607 6.20477728 60.4334858 5.32530876 60.276682 4.91770335 60.0546839 4.34022722 59.8301099 3.89309303 59.6209914 3.3721468 59.2666374 2.48930616 58.8850723.883660249 58.0285998.515208934 57.6558396.354845733 57.1644463.533942953 56.9982287.140528558 57.0480612.0499027425 57.2139041.075240503 57.279239.0000234175235L57.5134143.0000234175235C58.1917731.0889631717 59.0550367.175701679 59.8551666.140528558 60.2548101.122965416 60.6737964-.00836005588 60.9792077.140528558 60.7828284.541764406 60.3138222.443738653 60.229847.88988931 60.1291516 1.42549491 60.5584417 2.23761462 60.7918676 2.85696128 60.9109691 3.17291051 61.0555957 3.47035989 61.1665479 3.74682718 61.2972645 4.07242442 61.3192302 4.46560464 61.5880633 4.58985802 61.8957696 4.54269513 61.9744525 4.11139118 62.1032489 3.79366222 62.2246453 3.49424577 62.3538164 3.17759401 62.4779292 2.85696128 62.8208555 1.97107637 63.396786.854294674 62.4779292.42153884 62.3259027.349928053 62.066296.419665438 61.9627437.187363605 62.1414663-.126431209 62.5368477.114956623 62.8526096.140528558 63.5032889.193171151 64.3066973-.00625247877 64.9133517.140528558 64.839727.461816981 64.3380768.447719632 64.1171559.655714075 63.8829807.876260311 63.7107213 1.42104558 63.5083003 1.8734253 63.1063619 2.77167466 62.8069454 3.4505955 62.4310942 4.40251783 62.2567273 4.84421916 62.0013358 5.41345232 62.0095788 5.76073419 62.01918 6.1616422 62.340281 6.7193071 62.5247643 7.1657856 62.7331334 7.66987121 62.9142445 8.137847 63.0867849 8.52400197 63.4902688 9.42693484 63.8246242 10.3426068 64.3981662 11.0062595 64.9251541 10.3945937 65.1664483 9.5307213 65.5222073 8.66450711 66.3199486 6.72183619 67.2828304 4.6384728 68.0512998 2.52911595 68.2180794 2.07144387 68.4786696 1.37233713 68.3323101.983559404 68.1603318.526777191 67.3685385.581667866 67.1145989.234198652 67.2392738.0405357332 67.6333439.174343462 67.8639596.187363605 68.6136014.229702488 69.4901193.148537351 70.252547.234198652L70.252547.468373887C69.6115158.603727173 69.3253536 1.16785531 69.0816709 1.68608511 67.5159752 5.01549493 66.1687651 8.54788784 64.7260115 11.8961253 64.4846237 12.4565067 64.2678242 13.0438182 63.9298157 13.535352 63.6018767 13.1125252 63.4427312 12.5771069 63.22729 12.0834655 62.5673842 10.5713492 61.9622754 8.9995182 61.260218 7.54046598 60.8154724 7.85856962 60.7108898 8.46077465 60.5108573 8.94551739 59.9841503 10.2218661 59.4352904 11.57198 58.9653007 12.7859912 58.864137 13.047284 58.8307436 13.3633269 58.5906203 13.535352 58.0880803 12.5118189 57.6979912 11.3962549 57.232404 10.2568987 56.3228674 8.03125044 55.4115042 5.95875277 54.5159713 3.65315708 54.1565591 2.72783706 53.653738 1.06711313 52.8767446.608879028 52.5468854.414326243 52.0780666.45085758 51.7995385.234198652 51.7276467.00611197363 51.9712358.0936466764 52.0337138.0000234175235M30.7706259 1.03039445C30.4803422 1.54810906 30.6769558 2.99259558 30.6769558 3.69999213 30.6769558 4.51435992 30.5217913 6.0087726 30.8174609 6.32275476 30.9768406 6.49201662 31.3851953 6.48161924 31.7073268 6.51009495 33.6014298 6.67753024 35.0080267 6.00282455 35.2199553 4.49618793 35.5650359 2.04324918 33.9213131.472448536 31.4263165.655714075 31.3873498.658617848 31.3872561.70086306 31.3794815.702549122 31.1689579.748868984 30.8695883.853873159 30.7706259 1.03039445M34.3300894 6.65060009C34.8398889 7.75595403 35.6369746 8.79859585 36.3908315 9.92905338 36.7075301 10.4039139 37.1039888 10.9506194 37.5148726 11.4746099 37.8886163 11.9512502 38.3462884 12.5443224 38.8262539 12.7859912 39.0864695 12.9170357 39.4025124 12.87465 39.6224497 13.0670015 39.3258434 13.4829904 38.6694502 13.3826697 38.3110684 13.3480118 37.0298957 13.2240394 36.5643553 12.5590754 35.922481 11.6151151 35.2209389 10.583339 34.6453361 9.695487 33.9554091 8.52400197 33.6534167 8.01125187 33.1888598 7.33209686 32.7845329 7.1657856 32.4925632 7.04570054 31.3446362 6.91133079 31.0048011 7.07211551 30.5113002 7.30558822 30.6769558 8.81086663 30.6769558 9.64804309 30.6769558 10.6360284 30.6542408 11.6152556 30.957966 12.2239707 31.3124605 12.9344583 32.0632732 12.9801693 32.925038 13.2075067 32.869117 13.4467401 32.5288604 13.3496042 32.3630175 13.3480118 31.7691491 13.3422511 31.0877928 13.2075067 30.4427805 13.2075067 30.021593 13.2075067 29.5826549 13.2711087 29.1782343 13.3011768 28.779668 13.3307765 28.3303326 13.4485198 28.0541931 13.2543417 28.1578859 13.0308917 28.4816098 13.0162323 28.7098838 12.8796613 28.9021885 12.7645876 29.1279334 12.5950448 29.2250693 12.4113109 29.504815 11.8823558 29.4592445 10.5946731 29.4592445 9.64804309 29.4592445 7.64982581 29.4693609 5.83997909 29.4124095 3.79366222 29.3877743 2.90754313 29.4205588 1.63747033 29.1313992 1.12406454 28.8665939.653840673 28.0183643.631500356 27.6795128.374703793 27.9131728.0321522597 28.4536493.172516896 28.8503889.187363605 31.3473526.280893194 34.4372949-.334894003 35.7819759 1.12406454 37.1562567 2.61515194 36.532648 4.90576041 35.1731203 6.04174448 34.8918758 6.27676274 34.5429547 6.36898095 34.3300894 6.65060009M49.9261367.140528558C49.9332556.502891317 49.8123275.936818027 49.7856315 1.35823978 49.7594507 1.77202742 49.8958812 2.2553651 49.5982913 2.48228091 49.4024272 2.35104911 49.5311299 2.08385516 49.5046212 1.92026034 49.3257114.81528108 48.3373982.710370575 46.8818586.702549122 46.0161596.697865617 44.8820489.619323244 44.4932712.843054263 43.986797 1.13460243 44.1185908 2.68868296 44.1185908 3.32531175 44.1185908 4.38139523 44.0229068 5.35331612 44.305931 5.99490943 44.8586314 6.24168329 45.754539 6.12693743 46.5540133 6.08857952 47.8440846 6.02671043 48.7465492 5.90962281 48.8957656 4.73036316 49.1769632 4.78530067 48.9912623 5.09656639 48.9894357 5.29238373 48.9834877 5.9475592 48.9611473 6.78628122 48.9894357 7.49363093 49.002128 7.81173457 49.1305965 8.13419387 48.9894357 8.33666178 48.5864201 7.92933737 48.7835957 7.36164977 48.28691 7.02528046 48.06346 6.87395643 47.6144992 6.81714551 47.256539 6.79110523 46.3265354 6.72342859 44.9675697 6.74768914 44.259096 6.97844542 44.0940961 7.71136707 44.1654259 8.68848665 44.1654259 9.64804309 44.1654259 10.0746167 44.1771346 10.5565493 44.2122609 11.0062595 44.2421885 11.3885739 44.232119 11.9297529 44.3996011 12.1771356 44.820133 12.7981215 46.6891324 12.4258297 47.4438792 12.3176408 49.0326176 12.0900224 49.8660473 11.8971557 50.5818273 11.0062595 50.6947934 10.8657075 50.8052305 10.611159 51.0501778 10.6315791 51.0583271 11.1676999 50.7296387 11.6612008 50.4413222 12.0834655 50.0724025 12.6238483 49.6686376 13.135568 48.8020955 13.2075067 47.7434361 13.2953692 46.3695769 13.0870938 45.0552918 13.0670015 44.404472 13.0570725 43.7823152 13.1080759 43.1818899 13.1606716 42.5869443 13.2127522 41.9651622 13.3900228 41.4958282 13.1138366 41.5463164 12.8652361 42.0476856 12.9955312 42.292024 12.8796613 43.2342046 12.4329955 42.9477147 9.2236239 42.9477147 7.49363093 42.9477147 6.40733885 42.9897725 5.47386953 42.9477147 4.58985802 42.9010669 3.60936631 42.9501969 2.67570965 42.8540446 1.7797552 42.7757364 1.04964366 42.3451818.620915635 41.5894983.468373887 41.4733942.444909529 41.2541594.46654732 41.2148179.327868746 41.2944843.00971827225 41.7254136.143479166 41.9173436.140528558 44.5131293.100859274 47.4140452.136266569 49.9261367.140528558M.983535986 19.7175548L.327845329 19.7175548C.200547671 19.6262733.0503008404 19.5580346 0 19.3897094L0 18.8276889C.107252258 18.5914997.0981194234 18.2388787.374680376 18.1719982.766689719 18.3055718.973887967 18.9047794 1.5923916 18.8745239 2.63704732 18.8235674 3.06769558 16.9586895 3.13794815 15.6897407 3.25349021 13.6038014 3.13794815 11.2358683 3.13794815 8.75815378L3.13794815 3.55946357C3.13794815 2.96226989 3.24374852 2.36919769 3.18478319 1.87340188 3.09584344 1.12558668 2.74195782.847011824 2.15441216.655690658 1.85775897.559069956 1.40092992.585344417 1.35821636.281010282 1.60414719.0208415959 2.00243243.158302459 2.34175235.187340188 3.09373586.251738377 3.76975293.234175235 4.54299956.234175235 4.93425954.234175235 5.46106015.124300215 5.62020564.374680376 5.53445067.615974538 5.22435582.55799275 5.05818507.655690658 4.41069055 1.03650642 4.4905443 2.00032486 4.49616451 3.04427805 4.50740492 5.13499455 4.54299956 7.43895102 4.54299956 9.41384444 4.54299956 14.2113456 4.75806609 18.8544785.983535986 19.7175548M9.69485472 12.504981C9.37745361 12.9681796 9.01804146 13.3893203 8.5708136 13.7226922 8.29584503 13.2794921 7.85273866 13.0044767 7.54044256 12.5986511 7.78089369 12.0740985 8.24015816 11.768453 8.5708136 11.3341048 9.03162362 11.6382984 9.36836761 12.0665112 9.69485472 12.504981"/>
  </g>
</svg>
