<svg xmlns="http://www.w3.org/2000/svg" width="78" height="24" viewBox="0 0 78 24">
  <g fill="#231F20" transform="translate(.472 .36)">
    <path d="M2.5611817 7.42931019L3.61747927 6.30801925C3.8687303 6.04009247 4.81287777 5.04754556 4.81287777 4.7013285 4.81287777 4.32205553 4.23126206 4.30987704 3.97827227 4.30987704L3.97827227 4.00106534C4.43556653 4.01762808 4.9059015 4.05764312 5.36667329 4.0715266 5.80397179 4.05760833 6.25952729 4.01759329 6.69943393 4.00106534L6.69943393 4.30987704C5.85178773 4.33771359 5.69269106 4.60738015 5.14150368 5.20760571L3.69572354 6.82908463 6.71508279 9.7919372C7.12456111 10.1712102 7.23584184 10.406081 7.80180869 10.4974197L7.80180869 10.8088411C7.48535411 10.793183 7.15846695 10.7523329 6.84288175 10.73664 6.5116477 10.7522981 6.1960625 10.7931482 5.86743658 10.8088411L2.87850566 7.61807678 2.5611817 7.93210784 2.5611817 8.9081268C2.5611817 9.95025756 2.42034202 10.4217391 3.66268707 10.4974197L3.66268707 10.8088411C3.08194075 10.793183 2.48380681 10.7523329 1.89958297 10.73664 1.31535912 10.7522981.7346128 10.7931482.11996063 10.8088411L.11996063 10.4974197C1.29710213 10.4217391 1.21972724 10.043336 1.21972724 9.00555472L1.21972724 2.77016798C1.21972724 2.4039434 1.21972724 1.56623729 1.04672048 1.26873418.84241601.905119274.402509364.905119274.0251981308.856405315L.0251981308.55107318 2.5611817.0526249938 2.5611817 7.42931019M13.5162551 9.46224808C13.0789566 9.88675544 12.4077947 10.3591138 11.7966201 10.3591138 11.1550171 10.3591138 10.7950865 9.81108178 10.7950865 9.22477449 10.7950865 7.96430081 12.5790627 7.35015697 13.5162551 6.8934636L13.5162551 9.46224808zM11.826179 7.25794144C10.8281299 7.71289502 9.33366448 8.28267436 9.33366448 9.60230071 9.33366448 10.486981 10.1378416 10.9958679 10.9672309 10.9958679 11.9400679 10.9958679 12.8433545 10.4713299 13.5788505 9.87284412 13.7353391 10.5009062 14.2891346 10.9958679 14.9359538 10.9958679 15.5201777 10.9958679 16.1000546 10.4565417 16.3547762 9.93720918L16.0531011 9.77714903C15.8835719 9.99462206 15.7244752 10.2808166 15.4097594 10.2808166 14.7959766 10.2808166 14.8603177 9.11516808 14.8603177 8.72283978L14.8603177 6.12012255C14.8603177 4.30987704 14.0535324 3.85753314 12.3139016 3.85753314 11.5149407 3.85753314 9.42842697 4.07587606 9.42842697 5.23718204 9.42842697 5.58339911 9.67880862 5.80261192 10.0248222 5.80261192 10.4203904 5.80261192 10.6229561 5.45900453 10.6577313 5.11191758 10.7021045 4.27682114 11.3428033 4.2150588 12.1261154 4.2150588 13.4058438 4.2150588 13.4997369 4.96838538 13.4997369 6.0374828 13.4997369 6.213201 13.5302 6.41675576 13.3736767 6.49591594L11.826179 7.25794144 11.826179 7.25794144zM17.6284259 4.54387802L17.6284259 4.26029319C18.4152155 3.8062095 19.2037438 3.17466782 19.5332391 2.27693915L19.7714425 2.27693915 19.7714425 4.12024056 21.5623737 4.12024056 21.5623737 4.54387802 19.7714425 4.54387802 19.7714425 9.04730954C19.7714425 9.7588813 19.9122821 10.4974197 20.747757 10.4974197 21.2954669 10.4974197 21.578885 10.1851284 21.8770826 9.79019741L22.1622395 9.99375217C21.8770826 10.7479486 21.0920318 10.9967378 20.3374093 10.9967378 19.2037369 10.9967378 18.4291186 10.5609218 18.4291186 9.38047822L18.4291186 4.54387802 17.628419 4.54387802M25.3024426 6.15056877C25.4910982 5.11974661 25.9614332 4.2150588 27.1385747 4.2150588 28.1261912 4.2150588 28.6591216 4.85008005 28.6591216 5.83392804 28.6591216 6.22798917 28.1418401 6.15056877 27.890589 6.15056877L25.3024426 6.15056877 25.3024426 6.15056877zM29.5493744 9.33611372C29.0772937 9.96417584 28.3704872 10.4974197 27.5697875 10.4974197 25.8918828 10.4974197 25.106832 8.8307064 25.106832 7.33275217L25.1685928 6.57594602 29.6780706 6.57594602C29.8310816 6.57594602 30.0675531 6.64031804 30.0675531 6.4350235 30.0675531 4.72221287 28.6052548 3.85753314 27.069059 3.85753314 25.0277531 3.85753314 23.5289407 5.64342166 23.5289407 7.61807678 23.5289407 9.63535661 25.1372951 10.9967378 27.0847079 10.9967378 28.26098 10.9967378 29.1390545 10.5765799 29.8806363 9.66580284L29.5494022 9.33611372 29.5493744 9.33611372zM36.7495786 10.8897411L36.5913583 10.8897411 36.5322404 8.63759035 36.8487019 8.63759035C37.1008154 9.648405 37.6363608 10.6435616 38.7969841 10.6435616 39.4846573 10.6435616 40.1106114 10.2956047 40.1106114 9.53619587 40.1106114 8.63759731 39.2021086 8.27397544 38.5292148 7.9251487 37.620712 7.45193435 36.6417893 6.92912222 36.6417893 5.74606893 36.6417893 4.65783389 37.5076925 3.85753314 38.5926727 3.85753314 39.0803953 3.85753314 39.6724435 3.99932555 40.1106114 4.24463513L40.4244579 3.87580087 40.6122441 3.87580087 40.5826851 5.84175707 40.2679693 5.84175707C39.98629 5.04842241 39.6428846 4.21506576 38.6552681 4.21506576 38.1388559 4.21506576 37.6546109 4.51430169 37.6546109 5.08408103 37.6546109 5.90351941 38.513559 6.18797413 39.1090848 6.51853314 40.1888557 7.08744259 41.1756028 7.49977145 41.1756028 8.92030529 41.1756028 10.2181843 40.0819219 10.9967378 38.874352 10.9967378 38.2788262 10.9967378 37.620705 10.8131905 37.1477619 10.4373972L36.7495855 10.8897411M45.1564902 7.02568025C45.1564902 6.37761062 45.1564902 5.82435923 45.4851161 5.25892935 45.8172195 4.68828011 46.4153535 4.35598132 47.0786909 4.35598132 48.7931097 4.35598132 49.2460571 5.98354948 49.2460571 7.41974138 49.2460571 8.84027521 48.7426856 10.4974197 47.0473932 10.4974197 46.4779489 10.4974197 45.864173 10.2956047 45.5033731 9.86761781 45.1564902 9.45876851 45.1564902 8.68282474 45.1564902 8.14697119L45.1564902 7.02568025zM44.9669652 3.85753314C44.2392935 4.02977178 43.4690222 4.23245664 42.6822326 4.33771359L42.6822326 4.66305324C43.1847347 4.66305324 43.6089925 4.60299589 43.7367915 5.16672078 43.8159051 5.5294658 43.8159051 6.63074922 43.8159051 7.0709216L43.8159051 13.2419294C43.8159051 14.2831902 43.9080664 14.6772514 42.7300486 14.7555416L42.7300486 15.0643534C43.3577484 15.0460508 43.9880494 15.0078452 44.6209516 14.9921523 45.2043061 15.0078104 45.7867912 15.0460856 46.3666681 15.0643534L46.3666681 14.7555416C45.0469482 14.6937445 45.1564902 14.2831902 45.1564902 13.1497208L45.1564902 10.0937898C45.8346071 10.7079336 46.4944741 10.9958679 47.4186258 10.9958679 49.4060231 10.9958679 50.8205125 9.38569758 50.8205125 7.46584566 50.8205125 5.4181196 49.4060231 3.86710195 47.3282102 3.86710195 46.3066878 3.85756793 45.5798855 4.32205553 44.9695803 5.15715197L44.9667983 3.85753314 44.9669652 3.85753314zM56.9470315 9.46224808C56.509733 9.88675544 55.8377017 10.3591138 55.2300046 10.3591138 54.5875322 10.3591138 54.2267392 9.81108178 54.2267392 9.22477449 54.2267392 7.96430081 56.0115779 7.35015697 56.9470315 6.8934636L56.9470315 9.46224808zM55.2595635 7.25794144C54.2597757 7.71289502 52.7627021 8.28267436 52.7627021 9.60230071 52.7627021 10.486981 53.5651405 10.9958679 54.4006154 10.9958679 55.3673668 10.9958679 56.276739 10.4713299 57.0139808 9.87284412 57.1661224 10.5009062 57.719911 10.9958679 58.3719465 10.9958679 58.9492223 10.9958679 59.5334392 10.4565417 59.7864359 9.93720918L59.4864996 9.77714903C59.311754 9.99462206 59.151788 10.2808166 58.8379415 10.2808166 58.229375 10.2808166 58.2858848 9.11516808 58.2858848 8.72283978L58.2858848 6.12012255C58.2858848 4.30987704 57.482577 3.85753314 55.7420698 3.85753314 54.9448477 3.85753314 52.858334 4.07587606 52.858334 5.23718204 52.858334 5.58339911 53.1113238 5.80261192 53.4555985 5.80261192 53.8511668 5.80261192 54.0546088 5.45900453 54.082422 5.11191758 54.1337503 4.27682114 54.7735797 4.2150588 55.5594999 4.2150588 56.8400977 4.2150588 56.9313827 4.96838538 56.9313827 6.0374828 56.9313827 6.213201 56.9644191 6.41675576 56.8070612 6.49591594L55.2595635 7.25794144 55.2595635 7.25794144zM66.623239 8.20612386C66.623239 9.45267927 66.1685598 10.5713605 64.7558161 10.5713605 63.058778 10.5713605 62.6023531 8.93161389 62.6023531 7.51021016 62.6023531 6.13839028 63.058778 4.35598132 64.7558161 4.35598132 65.6634426 4.35598132 66.623239 4.96925527 66.623239 5.96615164L66.623239 8.20612386zM69.2548614 10.4756724L69.2548614 10.1607715C68.7523593 10.1607715 68.3307097 10.1946625 68.123797 9.64058293 67.9655697 9.23085678 67.9655697 8.44187158 67.9655697 7.99996638L67.9655697.052631953 65.445235.551080139 65.445235.856412274C66.5771687.888563487 66.6232459 1.39400561 66.6232459 2.3439278L66.6232459 4.8283397C66.0598872 4.16983137 65.2435387 3.8575401 64.3793743 3.8575401 62.3841455 3.8575401 61.0209565 5.58775553 61.0209565 7.51021712 61.0209565 9.46747439 62.3945781 10.9967447 64.3793743 10.9967447 65.4504513 10.9967447 66.1572578 10.6183417 66.8345054 9.80064308 66.8831907 10.2242805 66.9770839 10.6357395 67.1492143 10.9967447L69.2548614 10.4756794 69.2548614 10.4756724zM72.3376854 6.15056877C72.5254716 5.11974661 72.9984147 4.2150588 74.1755562 4.2150588 75.1623034 4.2150588 75.6978419 4.85008005 75.6978419 5.83392804 75.6978419 6.22798917 75.1770828 6.15056877 74.9275706 6.15056877L72.3376854 6.15056877 72.3376854 6.15056877zM76.575047 9.33611372C76.1029663 9.96417584 75.3970292 10.4974197 74.5919827 10.4974197 72.9149472 10.4974197 72.1290271 8.8307064 72.1290271 7.33275217L72.1925266 6.57594602 76.7011281 6.57594602C76.8550154 6.57594602 77.0923494 6.64031804 77.0923494 6.4350235 77.0923494 4.72221287 75.6283123 3.85753314 74.0921166 3.85753314 72.0508106 3.85753314 70.5502595 5.64342166 70.5502595 7.61807678 70.5502595 9.63535661 72.1594832 10.9967378 74.1060267 10.9967378 75.2796906 10.9967378 76.1629814 10.5765799 76.9019551 9.66580284L76.5750679 9.33611372 76.575047 9.33611372zM18.9742203 19.9261804C18.7829635 19.6521714 18.6342994 19.5617026 18.3013266 19.5538736L18.3013266 19.4120742C18.4969373 19.419938 18.6881941 19.4303767 18.8855505 19.4355961 19.0463859 19.4300288 19.2167845 19.419938 19.3767436 19.4120742L21.9840164 22.5958863 21.9840164 20.8761026C21.9840164 20.6090527 21.9840164 20.1775862 21.9318536 19.9261804 21.8562174 19.5808332 21.6919045 19.6025806 21.3841437 19.5538736L21.3841437 19.4120742C21.6093133 19.419938 21.8310054 19.4303767 22.0605219 19.4355961 22.2769977 19.4300288 22.4856491 19.419938 22.7142962 19.4120742L22.7142962 19.5538736C22.4856491 19.580875 22.3282912 19.5617374 22.2465694 19.8261498 22.1857127 20.0236153 22.172672 20.6577667 22.172672 20.9082886L22.172672 23.5640693 21.9840164 23.5640693C21.8510012 23.3953102 21.7153778 23.2239415 21.578885 23.0456136L19.1602678 20.1279954 19.1602678 22.1965989C19.1602678 22.4236407 19.1602678 22.8855534 19.2506834 23.0951974 19.3576172 23.3370274 19.5610523 23.3231092 19.7870913 23.3509457L19.7870913 23.4909983C19.5532279 23.485431 19.315887 23.4726958 19.0811542 23.4683811 18.8507683 23.4725566 18.6221212 23.485779 18.393474 23.4909983L18.393474 23.3509457C18.6342994 23.3231092 18.8620702 23.3117658 18.9246656 23.0456136 18.9741856 22.824661 18.9741856 22.437559 18.9741856 22.1965989L18.9741856 19.9261804M24.8321077 20.607306C24.8321077 20.4124501 24.8321077 19.9557568 24.7686081 19.7869977 24.6886251 19.5773537 24.4365046 19.5773537 24.2391552 19.5773537L24.2391552 19.4120742 27.2976366 19.4120742 27.2976366 20.3411259 27.1567969 20.3411259C27.0394305 19.6217182 26.7229829 19.5773606 26.070071 19.5773606L25.6284256 19.5773606C25.4354231 19.5773606 25.464982 19.5590581 25.464982 19.832239L25.464982 21.2927879C26.3117589 21.3284187 26.4334791 20.977887 26.4717249 20.534242L26.613434 20.534242C26.6071744 20.8126075 26.6030014 21.0927127 26.5890913 21.3719481 26.6030014 21.6250867 26.6073831 21.8825748 26.613434 22.1374532L26.4717249 22.1374532C26.3847868 21.4885136 26.0587691 21.4589373 25.464982 21.4589373L25.464982 22.4688821C25.464982 22.6532992 25.464982 22.9429733 25.5788779 23.0925947 25.7397133 23.3065882 26.1196327 23.3170269 26.3665368 23.3135473 27.0037929 23.2987243 27.421965 23.2222086 27.5002093 22.4871498L27.6453958 22.4871498 27.5897555 23.4788199 24.2391622 23.4788199 24.2391622 23.3370274C24.4365116 23.3370274 24.688632 23.3370274 24.768615 23.1273834 24.8321146 22.9621109 24.8321146 22.5054175 24.8321146 22.3088219L24.8321146 20.607306M31.8384538 20.4568146L31.3446386 22.1330967C31.1785869 22.6271955 31.0064495 23.1160748 30.8377897 23.6084338L30.6291453 23.6084338 29.5502438 20.2898023C29.5007239 20.1436535 29.4146204 19.8191907 29.3215967 19.7165364 29.2181403 19.5721413 29.0573049 19.566052 28.8790819 19.5538736L28.8790819 19.4120742C29.1755407 19.419938 29.4719926 19.4303767 29.7641114 19.4355961 30.0675253 19.4300288 30.3744167 19.419938 30.6769612 19.4120742L30.6769612 19.5538736C30.4830893 19.5721761 30.1266432 19.5721761 30.1266432 19.8557261 30.1266432 19.9966486 30.2648747 20.4568216 30.3083438 20.6090527L30.9612487 22.7263701 31.9358245 19.4120742 32.1314351 19.4120742 33.1486106 22.6785261 33.5737378 21.3301933C33.6563289 21.0605197 33.9006249 20.2062926 33.9006249 19.9688121 33.9006249 19.5843198 33.6798022 19.5843198 33.3703027 19.5538736L33.3703027 19.4120742C33.5928641 19.419938 33.8145562 19.4303767 34.0353789 19.4355961 34.2518547 19.4300288 34.4613755 19.419938 34.67959 19.4120742L34.67959 19.5538736C34.2214194 19.5434348 34.1353577 20.0236083 34.0353789 20.3672227L33.0208116 23.6084407 32.8043358 23.6084407 31.8384538 20.4568216M40.347083 22.6846083C40.347083 23.2674361 40.3679481 23.2987591 40.9573882 23.3509457L40.9573882 23.4909983C40.6478887 23.485431 40.3409973 23.4726958 40.0332365 23.4683811 39.7185207 23.4725566 39.4046743 23.485779 39.0890891 23.4909983L39.0890891 23.3509457C39.6880924 23.2987522 39.7106963 23.2630866 39.7106963 22.6846083L39.7106963 21.9191033 39.1447294 20.9413445C39.0803953 20.816087 38.6074452 19.8792062 38.3918457 19.6660896 38.2883894 19.5486472 38.1831944 19.5808402 38.036269 19.5538736L38.036269 19.4120742C38.3135945 19.419938 38.5970126 19.4303767 38.874352 19.4355961 39.1612477 19.4300288 39.4533596 19.419938 39.7428634 19.4120742L39.7428634 19.5538736C39.607233 19.5538736 39.2794834 19.5434348 39.2794834 19.752202 39.2794834 19.9113923 39.3681603 20.0488352 39.4420576 20.1836685L40.2427573 21.6694442 40.6383255 21.0396423C40.7687326 20.824779 41.2477614 20.0375266 41.2477614 19.8139643 41.2477614 19.5808332 40.9695596 19.5721413 40.8043772 19.5538736L40.8043772 19.4120742C41.0269387 19.419938 41.2416688 19.4303767 41.4642372 19.4355961 41.669411 19.4300288 41.8667605 19.419938 42.0693262 19.4120742L42.0693262 19.5538736C41.7111413 19.5843546 41.5816036 19.8252729 41.4155449 20.1036384L40.347083 21.86517 40.347083 22.6846083M45.233872 19.5060225C46.3223367 19.5060225 46.7039879 20.5229264 46.7039879 21.4502314 46.7039879 22.3679676 46.3727538 23.3953102 45.2738635 23.3953102 44.1462698 23.3953102 43.7646186 22.4349493 43.7646186 21.4650196 43.7646186 20.5568522 44.1671419 19.5060225 45.233872 19.5060225zM45.2512596 23.5640693C46.5005597 23.5640693 47.4881762 22.6863481 47.4881762 21.4232648 47.4881762 20.2045459 46.4527438 19.3416129 45.2738635 19.3416129 44.0802038 19.3416129 43.0126043 20.2402115 43.0126043 21.4650196 43.0126043 22.7054858 44.0445592 23.5640693 45.2512596 23.5640693L45.2512596 23.5640693zM50.0910951 19.8191837C50.0910951 19.7495923 50.0746117 19.6330268 50.1589068 19.599101 50.2137126 19.5720995 50.4884021 19.5904021 50.5605607 19.5904021 51.1169644 19.5904021 51.4282027 19.9731546 51.4282027 20.5133576 51.4282027 21.4041271 50.8674521 21.421525 50.0910951 21.421525L50.0910951 19.8191837 50.0910951 19.8191837zM51.0152538 21.4824174C51.6290366 21.4284841 52.136748 21.0900961 52.136748 20.4289781 52.136748 19.5721343 51.4282097 19.4120742 50.7205268 19.4120742 50.460582 19.419938 50.1954208 19.4303767 49.9372148 19.4355961 49.5877237 19.4300288 49.2278001 19.419938 48.8774397 19.4120742L48.8774397 19.5538736C49.0730503 19.5538736 49.3312634 19.5490022 49.4016762 19.7626407 49.4547432 19.9287901 49.4547432 20.3820039 49.4547432 20.582949L49.4547432 22.3166509C49.4547432 22.5123767 49.4547432 22.9708098 49.4016762 23.138699 49.3312564 23.3509457 49.0730503 23.3509457 48.8774397 23.3509457L48.8774397 23.4909983C49.1834686 23.485431 49.4929612 23.4726958 49.7998526 23.4683811 50.0945727 23.4725566 50.3884303 23.485779 50.6727109 23.4909983L50.6727109 23.3509457C50.4771002 23.3509457 50.2206329 23.3558171 50.1476049 23.138699 50.0911299 22.9708029 50.0911299 22.5123767 50.0911299 22.3166509L50.0911299 21.5885512C50.4171477 21.5885512 50.392812 21.6250867 50.600587 21.8590877L51.6195012 23.1334727 51.9107507 23.4909983C52.0672393 23.485431 52.2176352 23.4726958 52.3715225 23.4683811 52.55757 23.4725566 52.7410093 23.485779 52.9261874 23.4909983L52.9261874 23.3509457C52.6114716 23.2987522 52.521056 23.2135028 52.3228372 22.9829883L51.0152886 21.4824244 51.0152538 21.4824174zM55.2091395 21.9582484L55.2091395 22.6846083C55.2091395 23.2674361 55.22917 23.2987591 55.8168366 23.3509457L55.8168366 23.4909983C55.5160309 23.485431 55.2187026 23.4726958 54.9178969 23.4683811 54.6031811 23.4725566 54.2910734 23.485779 53.9798351 23.4909983L53.9798351 23.3509457C54.1763152 23.3509457 54.4284356 23.3509457 54.5110267 23.138699 54.5684059 22.9716797 54.5684059 22.5193358 54.5684059 22.3192606L54.5684059 20.582949C54.5684059 20.3846205 54.5684059 19.9305299 54.5110267 19.7643874 54.4284356 19.5538736 54.1763152 19.5538736 53.9798351 19.5538736L53.9798351 19.4120742C54.2736858 19.419938 54.5631896 19.4303767 54.8631259 19.4355961 55.1856662 19.4300288 55.4951657 19.419938 55.8168366 19.4120742L55.8168366 19.5538736C55.2291352 19.6025875 55.2091395 19.6399859 55.2091395 20.2210808L55.2091395 21.7233845C55.500389 21.4154427 56.6940417 20.1601884 56.6940417 19.8009229 56.6940417 19.5434348 56.4149705 19.5721413 56.2297924 19.5538736L56.2297924 19.4120742C56.4758272 19.419938 56.7166456 19.4303767 56.9661579 19.4355961 57.1817643 19.4300288 57.3895463 19.419938 57.6086372 19.4120742L57.6086372 19.5538736C57.26784 19.5617374 57.1852488 19.6399859 56.9835525 19.9000837L55.9976747 21.1161928 56.852276 22.1052602C56.9287815 22.1965989 57.5756007 23.0456136 57.8668433 23.2578673 57.9902953 23.3509457 58.0798416 23.3370274 58.229375 23.3509457L58.229375 23.4909983C57.9033573 23.485431 57.5756007 23.4726958 57.249583 23.4683811 56.9313896 23.4725566 56.6236288 23.485779 56.3123905 23.4909983L56.3123905 23.3509457C56.4210631 23.3509457 56.8287957 23.3674389 56.8287957 23.1647888 56.8287957 23.0360448 56.4393201 22.5784815 56.3410801 22.4610461L55.5890658 21.5554884 55.2091464 21.9582484"/>
  </g>
</svg>
