<svg xmlns="http://www.w3.org/2000/svg" xmlns:xlink="http://www.w3.org/1999/xlink" width="62" height="37" viewBox="0 0 62 37">
  <defs>
    <polygon id="michael-kors-logo-a" points="0 36.395 61.07 36.395 61.07 0 0 0"/>
  </defs>
  <g fill="none" fill-rule="evenodd" transform="translate(.665 .359)">
    <mask id="michael-kors-logo-b" fill="#fff">
      <use xlink:href="#michael-kors-logo-a"/>
    </mask>
    <path fill="#231F1F" d="M7.03029976 36.247703L7.83423521 36.247703 7.83423521 30.87769 7.03029976 30.87769 7.03029976 36.247703zM23.2870249 31.678128L24.1730336 34.0482534 22.3391751 34.0482534 23.2692106 31.678128 23.2870249 31.678128zM22.8804764 30.87769L20.6306532 36.2478181 21.4619464 36.2478181 22.0759047 34.6949337 24.461753 34.6949337 25.0582787 36.2478181 25.9171841 36.2478181 23.7840449 30.87769 22.8804764 30.87769zM15.9946 30.87769L15.9946 33.1006176 19.0939124 33.1006176 19.0939124 30.87769 19.8799063 30.87769 19.8799063 36.2478181 19.0939124 36.2478181 19.0939124 33.7380908 15.9946 33.7380908 15.9946 36.2478181 15.1815029 36.2478181 15.1815029 30.87769 15.9946 30.87769zM10.328751 31.9154398C9.95872181 32.2914328 9.77752458 32.8226797 9.77752458 33.5091805 9.77752458 35.0046359 10.4192224 35.756852 11.7295939 35.756852 12.6508494 35.756852 13.2203992 35.2668067 13.4373523 34.2699131L14.2145663 34.2699131C14.0698884 35.1276651 13.6451438 35.7409699 12.9491123 36.0918736 12.5605053 36.2966154 12.1087847 36.3945555 11.6121465 36.3945555 10.8705612 36.3945555 10.2563484 36.1735862 9.77752458 35.7409699 9.21726377 35.2337764 8.94635865 34.4979028 8.94635865 33.5335792 8.94635865 32.7002259 9.18990604 32.0213209 9.68718046 31.5151632 10.1844549 30.9832258 10.862163 30.730262 11.7026179 30.730262 12.4248619 30.730262 13.0126077 30.9183161 13.4643283 31.2859076 13.8525535 31.5963004 14.0786683 31.9976127 14.159978 32.4873128L13.3742387 32.4873128C13.2116192 31.7354419 12.6508494 31.3677353 11.7026179 31.3677353 11.1422298 31.3677353 10.6897457 31.547503 10.328751 31.9154398L10.328751 31.9154398zM4.90632214 31.7354419L3.23457411 36.2478181 2.43941858 36.2478181.785993875 31.7354419.749983471 31.7354419.785993875 36.2478181 0 36.2478181 0 30.87769 1.14737037 30.87769 2.82777107 35.4138893 2.86416321 35.4138893 4.54494564 30.87769 5.69269775 30.87769 5.69269775 36.2478181 4.90632214 36.2478181 4.92489994 31.7354419 4.90632214 31.7354419zM58.6935232 31.3677353C57.7721404 31.3677353 57.3201653 31.678128 57.3201653 32.3075451 57.3201653 32.6593696 57.5637127 32.8803388 58.0340111 32.9779336L59.7333713 33.3290675C60.6186165 33.5335792 61.0702099 34.0080876 61.0702099 34.759268 61.0702099 35.3478287 60.8176281 35.7650233 60.2933776 36.0510173 59.8864474 36.2876386 59.3713586 36.3945555 58.7566368 36.3945555 57.988839 36.3945555 57.3827699 36.2147878 56.9587888 35.8794209 56.551604 35.5528007 56.3622631 35.1024608 56.3622631 34.5149358L57.1122465 34.5149358C57.1122465 34.9640098 57.2931893 35.2912054 57.6362425 35.5114841 57.9253436 35.6838861 58.2869746 35.7650233 58.7383135 35.7650233 59.7781617 35.7650233 60.2933776 35.4709731 60.2933776 34.8578985 60.2933776 34.5798455 60.2025245 34.3757942 60.0311252 34.2528801 59.8682513 34.130081 59.5338508 34.0080876 59.0369581 33.9180887L57.8170579 33.6562631C56.9767303 33.4766105 56.551604 33.059416 56.551604 32.3892577 56.551604 31.9401838 56.7232578 31.5556742 57.039844 31.2611637 57.4101277 30.9017434 57.9253436 30.730262 58.6035608 30.730262 60.0673901 30.730262 60.8351879 31.3028256 60.9259138 32.4466867L60.1665141 32.4466867C60.1573525 32.0789801 59.976537 31.7925257 59.6603326 31.5963004 59.3983346 31.4497932 59.0733502 31.3677353 58.6935232 31.3677353L58.6935232 31.3677353zM51.5092567 31.4907645L53.4974636 31.4907645C54.2199621 31.4907645 54.5819748 31.7925257 54.5819748 32.3892577 54.5819748 33.0182144 54.1751718 33.3290675 53.380398 33.3290675L51.5092567 33.3290675 51.5092567 31.4907645zM50.7141012 30.87769L50.7141012 36.2478181 51.5092567 36.2478181 51.5092567 33.9430628 53.4529278 33.9430628C54.1572302 33.9430628 54.518225 34.2528801 54.518225 34.8987548 54.518225 35.5528007 54.5635243 36.0018747 54.6450885 36.2478181L55.6393828 36.2478181 55.6393828 36.1247888C55.4406258 36.0266187 55.3493909 35.846851 55.3493909 35.5938872L55.2867863 34.6208169C55.2769884 34.2857953 55.1963149 34.0238547 55.051637 33.8768871 54.9703273 33.7786018 54.8080896 33.6806618 54.5819748 33.5988342 55.1237851 33.3133005 55.395072 32.8803388 55.395072 32.3237726 55.395072 31.3512777 54.7445943 30.87769 53.4529278 30.87769L50.7141012 30.87769zM46.765554 31.3677353C47.3980901 31.3677353 47.8944738 31.5887045 48.2746826 32.0050935 48.6447117 32.4054851 48.8255272 32.9208499 48.8255272 33.5577477 48.8255272 34.2043129 48.6447117 34.7355598 48.2746826 35.1276651 47.8944738 35.5528007 47.3980901 35.756852 46.765554 35.756852 46.1144401 35.756852 45.6175474 35.5528007 45.2557891 35.1276651 44.88576 34.7355598 44.7049445 34.2043129 44.7049445 33.5577477 44.7049445 32.9208499 44.88576 32.4054851 45.2557891 32.0050935 45.6357434 31.5887045 46.1326361 31.3677353 46.765554 31.3677353L46.765554 31.3677353zM44.4879913 31.710698C44.0811883 32.2257174 43.8728878 32.8385618 43.8728878 33.5577477 43.8728878 34.2857953 44.0811883 34.8987548 44.4879913 35.4138893 45.0024439 36.0674749 45.7526818 36.3945555 46.765554 36.3945555 47.7774082 36.3945555 48.5268826 36.0674749 49.0245388 35.4138893 49.4492834 34.8987548 49.6564387 34.2857953 49.6564387 33.5577477 49.6564387 32.8385618 49.4492834 32.2257174 49.0245388 31.710698 48.5268826 31.0574577 47.7774082 30.730262 46.765554 30.730262 45.7526818 30.730262 45.0024439 31.0574577 44.4879913 31.710698L44.4879913 31.710698zM39.8791686 30.87769L39.8791686 33.4766105 42.743459 30.87769 43.8550735 30.87769 41.3882972 33.059416 43.9188234 36.2478181 42.8965351 36.2478181 40.8011876 33.5496915 39.8791686 34.3679683 39.8791686 36.2478181 39.065817 36.2478181 39.065817 30.87769 39.8791686 30.87769zM32.9658072 30.87769L32.9658072 35.601483 35.9843189 35.601483 35.9843189 36.2478181 32.188975 36.2478181 32.188975 30.87769 32.9658072 30.87769zM31.0684534 31.5151632L27.5436329 31.5151632 27.5436329 33.1658725 30.7885138 33.1658725 30.7885138 33.8032307 27.5436329 33.8032307 27.5436329 35.601483 31.1133709 35.601483 31.1133709 36.2478181 26.7488591 36.2478181 26.7488591 30.87769 31.0684534 30.87769 31.0684534 31.5151632zM30.5351304 24.4755089C26.1170482 24.4755089 22.2465024 22.3208286 20.1355038 19.1137822L22.5345856 19.1137822 22.585611 13.5509965 25.2511444 19.1137822 27.8645072 19.1137822 30.5347486 13.5509965 30.5347486 19.1137822 33.3994208 19.1137822 33.5021077 15.3125357 34.4245085 14.6172882 38.4737067 19.1137822 40.9339935 19.1137822C38.8229949 22.3208286 34.952958 24.4755089 30.5351304 24.4755089M19.8690523 8.38204251L19.8690523 18.689222C18.9579763 17.1518745 18.4394519 15.3979311 18.4394519 13.5354596 18.4394519 11.6732183 18.9579763 9.91835421 19.8690523 8.38204251M30.5351304 2.59598583C34.9670822 2.59598583 38.847426 4.76436164 40.9537165 7.98832595L38.0125699 7.98832595 33.5532603 11.743307 33.5532603 7.98832595 29.7610976 7.98832595 26.6348091 14.8953412 23.662233 7.98832595 20.1155263 7.98832595C22.2224531 4.76436164 26.1031785 2.59598583 30.5351304 2.59598583M42.6300454 13.5354596C42.6300454 15.2728303 42.177943 16.9159438 41.3780794 18.3767577L36.6795487 12.9020145 41.3317621 8.61348477C42.1600014 10.0944391 42.6300454 11.765519 42.6300454 13.5354596M30.5351304-.0000575440744C22.2695338-.0000575440744 15.5690537 6.06059946 15.5690537 13.5354596 15.5690537 21.0110103 22.2695338 27.0716673 30.5351304 27.0716673 38.7995818 27.0716673 45.5004436 21.0110103 45.5004436 13.5354596 45.5004436 6.06059946 38.7995818-.0000575440744 30.5351304-.0000575440744" mask="url(#michael-kors-logo-b)"/>
  </g>
</svg>
