<svg xmlns="http://www.w3.org/2000/svg" width="57" height="25" viewBox="0 0 57 25">
  <g transform="translate(-.042 -.106)">
    <path d="M50.2524619,24.1361722 C50.4211376,24.0345607 50.7588056,23.8645403 50.7588056,23.4746956 L50.7588056,15.5876392 L48.6024141,15.5876392 C47.9273946,15.5876392 47.5713716,16.0118315 47.4397222,16.2831771 L47.4397222,14.1633608 L56.3092828,14.1633608 L56.3092828,16.2831771 C56.1782663,16.0121177 55.8216104,15.5876392 55.1465909,15.5876392 L52.9901993,15.5876392 L52.9901993,23.4746956 C52.9901993,23.8642541 53.3275509,24.0342745 53.4965431,24.1361722 L50.2524619,24.1361722 Z M48.2270868,0.764953512 C48.3957626,0.866565018 48.7340635,1.03629917 48.7340635,1.4264301 L48.7340635,10.0762884 C48.7340635,10.4664193 48.396079,10.6361535 48.2270868,10.737765 L55.9156005,10.737765 L55.9156005,8.78739654 C55.6342632,9.14375238 55.2029216,9.3132003 54.8468987,9.3132003 L50.9651407,9.3132003 L50.9651407,6.25998923 L54.2282099,6.25998923 C54.5842328,6.25998923 55.0155744,6.34499942 55.2969117,6.70106904 L55.2969117,4.39434475 C55.0155744,4.75041436 54.5842328,4.83542455 54.2282099,4.83542455 L50.9651407,4.83542455 L50.9651407,2.1895182 L54.8468987,2.1895182 C55.2029216,2.1895182 55.6342632,2.35925234 55.9156005,2.71532196 L55.9156005,0.764953512 L48.2270868,0.764953512 L48.2270868,0.764953512 Z M56.1966213,12.5690619 L56.1966213,12.1282683 L0.878564336,12.1282683 L0.878564336,12.5690619 L56.1966213,12.5690619 Z M19.2366907,0.764953512 C19.4053664,0.866565018 19.7430344,1.03629917 19.7430344,1.4264301 L19.7430344,10.0762884 C19.7430344,10.4664193 19.4056829,10.6361535 19.2366907,10.737765 L22.4807719,10.737765 C22.3120961,10.6361535 21.9744281,10.4664193 21.9744281,10.0762884 L21.9744281,1.4264301 C21.9744281,1.03629917 22.3117797,0.866565018 22.4807719,0.764953512 L19.2366907,0.764953512 Z M8.84809882,0.764953512 C9.01677459,0.866565018 9.35444259,1.03629917 9.35444259,1.4264301 L9.35444259,7.76956411 L3.78529404,0.764953512 L0.747547885,0.764953512 C0.916223654,0.866565018 1.25389166,1.03629917 1.25389166,1.4264301 L1.25389166,10.0762884 C1.25389166,10.4664193 0.916223654,10.6361535 0.747547885,10.737765 L3.41028319,10.737765 C3.24160742,10.6361535 2.90393942,10.4664193 2.90393942,10.0762884 L2.90393942,3.24112572 L8.84809882,10.7374788 L11.0048068,10.7374788 L11.0048068,1.4264301 C11.0048068,1.03629917 11.3421584,0.866565018 11.5108341,0.764953512 L8.84809882,0.764953512 L8.84809882,0.764953512 Z M38.2138223,0.764953512 C38.382498,0.866565018 38.720166,1.03629917 38.720166,1.4264301 L38.720166,7.76956411 L33.1503846,0.764953512 L30.1129549,0.764953512 C30.2816306,0.866565018 30.6192986,1.03629917 30.6192986,1.4264301 L30.6192986,10.0762884 C30.6192986,10.4664193 30.2819471,10.6361535 30.1129549,10.737765 L32.7756902,10.737765 C32.6070144,10.6361535 32.2693464,10.4664193 32.2693464,10.0762884 L32.2693464,3.24112572 L38.2135058,10.7374788 L40.3698973,10.7374788 L40.3698973,1.4264301 C40.3698973,1.03629917 40.7072489,0.866565018 40.8762411,0.764953512 L38.2138223,0.764953512 L38.2138223,0.764953512 Z M20.9620571,14.163647 C21.1307328,14.2652585 21.4684008,14.4347064 21.4684008,14.8251236 L21.4684008,23.4752681 C21.4684008,23.8648266 21.1310493,24.0348469 20.9620571,24.1367447 L28.6502543,24.1367447 L28.6502543,22.1863762 C28.368917,22.5424459 27.9375754,22.7118938 27.5815525,22.7118938 L23.6997945,22.7118938 L23.6997945,19.6589689 L26.9628637,19.6589689 C27.3188866,19.6589689 27.7505447,19.7439791 28.0315655,20.1000487 L28.0315655,17.7933244 C27.7505447,18.1493941 27.3192031,18.2344042 26.9628637,18.2344042 L23.6997945,18.2344042 L23.6997945,15.5884979 L27.5815525,15.5884979 C27.9375754,15.5884979 28.368917,15.7585183 28.6502543,16.1145879 L28.6502543,14.1642194 L20.9620571,14.1642194 L20.9620571,14.163647 L20.9620571,14.163647 Z M8.32340009,17.5216926 L10.6111245,24.1361722 L13.0675248,24.1361722 L15.4489228,14.9773977 C15.523925,14.6044406 15.8239337,14.3328087 15.9552666,14.1633608 L13.59254,14.1633608 C13.7612157,14.4178189 13.8925486,14.7570009 13.8365344,15.0958968 L12.0364823,21.9313457 L9.3174162,14.1633608 L8.0423793,14.1633608 L5.17330891,21.9313457 L3.52294468,15.0958968 C3.46661393,14.7570009 3.59794685,14.4178189 3.76662262,14.1633608 L0.691217141,14.1633608 C0.822550056,14.3328087 1.12255874,14.6044406 1.19756091,14.9773977 L3.42895462,24.1361722 L5.88535483,24.1361722 L8.32340009,17.5216926 L8.32340009,17.5216926 Z M41.6455672,17.3181833 C40.9705476,16.4360237 39.8065899,15.3932893 38.157808,15.4525388 C36.7324503,15.5034877 36.5099755,16.403966 36.4697844,16.7411445 C36.4134537,17.2162856 36.600168,17.7418031 37.8951422,18.1319341 C39.4701877,18.6070752 41.0825762,19.0140937 41.8145594,19.980691 C42.5136303,20.9049264 42.5642646,24.4072316 38.1764794,24.4072316 C37.6517807,24.4072316 36.3197801,24.3562828 34.8387246,23.7291537 C34.6137181,23.7460413 34.3133929,23.8817141 34.2200358,24.1361722 L34.2200358,21.1507976 C34.6137181,21.6934889 35.5884298,22.982667 37.9138136,22.982667 C39.2265098,22.982667 39.86387,22.3890268 39.86387,21.7275502 C39.86387,21.0660736 39.5641778,20.7268915 38.8698539,20.4724334 C38.1764794,20.2179753 35.8017271,19.6684145 34.8947388,18.7931244 C32.925378,16.8934186 35.0070839,13.925504 38.3448387,13.9764528 C39.3201834,13.9764528 40.2202095,14.1971358 40.7262368,14.451594 C40.8578861,14.570093 41.4012563,14.7567147 41.6452507,14.1630745 L41.6452507,17.3181833 L41.6455672,17.3181833 L41.6455672,17.3181833 Z M55.1348817,22.7061692 C55.5459695,22.7061692 55.8697131,22.9995545 55.8697131,23.3882543 C55.8697131,23.7835374 55.5459695,24.0746329 55.1348817,24.0746329 C54.7196798,24.0746329 54.3956198,23.7832511 54.3956198,23.3882543 C54.3956198,22.9998407 54.7196798,22.7061692 55.1348817,22.7061692 L55.1348817,22.5690652 C54.6355001,22.5690652 54.213336,22.9168342 54.213336,23.3879681 C54.213336,23.8636817 54.6355001,24.2108781 55.1348817,24.2108781 C55.6298327,24.2108781 56.0519968,23.8636817 56.0519968,23.3879681 C56.0519968,22.9168342 55.6298327,22.5690652 55.1348817,22.5690652 L55.1348817,22.7061692 Z"/>
    <path d="M54.9434204,23.038768 L55.1592495,23.038768 C55.2700122,23.038768 55.3874206,23.059949 55.3874206,23.1773031 C55.3874206,23.3227077 55.2674805,23.3315808 55.1326664,23.3315808 L54.9434204,23.3315808 L54.9434204,23.4529422 L55.1257042,23.4529422 L55.4013451,23.8639679 L55.5791983,23.8639679 L55.2814049,23.4469314 C55.4352068,23.4294714 55.5526153,23.3559104 55.5526153,23.1864624 C55.5526153,22.9998407 55.4301434,22.9171204 55.1829843,22.9171204 L54.7842386,22.9171204 L54.7842386,23.8642541 L54.943104,23.8642541 L54.943104,23.038768 L54.9434204,23.038768 L54.9434204,23.038768 Z"/>
  </g>
</svg>
