<?xml version="1.0" encoding="utf-8"?>
<!-- Generator: Adobe Illustrator 15.0.0, SVG Export Plug-In . SVG Version: 6.00 Build 0)  -->
<!DOCTYPE svg PUBLIC "-//W3C//DTD SVG 1.1//EN" "http://www.w3.org/Graphics/SVG/1.1/DTD/svg11.dtd">
<svg version="1.1" id="Layer_1" xmlns="http://www.w3.org/2000/svg" xmlns:xlink="http://www.w3.org/1999/xlink" x="0px" y="0px"
	 width="144px" height="31px" viewBox="0 0 144 31" enable-background="new 0 0 144 31" xml:space="preserve">
<g transform="translate(.01 .894)">
	<path fill="#221F20" d="M63.422,4.486C68.136-0.021,57.381,1.346,63.422,4.486 M62.808,0h0.919v0.28
		c4.159,0.534,1.362,4.048,0,5.608c0.701,1.134,1.394,2.276,2.758,2.804c-0.297-2.777,5.269-5.403,4.596-1.402
		c-0.902,0.684-1.16-1.015-2.452-0.841c-1.91,1.684-1.997,5.449,0.613,6.448c1.748,0.198,0.944-1.94,2.758-1.682
		c-0.152,3.405-4.078,2.57-5.515,0.841c-2.018,3.152-9.344,1.537-7.354-2.243c-0.109,3.562,5.587,3.878,6.741,1.122
		c-0.555-1.253-1.651-4.448-3.677-4.486c-1.791-0.034-1.965,2.424-3.37,2.523c-0.006-2.155,2.229-2.259,3.064-3.645
		c-0.231-1.284-1.211-1.882-1.532-3.084C60.858,1.207,61.676,0.459,62.808,0"/>
	<path fill="#221F20" d="M90.689,10.654c3.543,4.864,11.08-0.71,6.434-5.047C93.053,3.733,90.215,6.633,90.689,10.654 M88.238,0.28
		c1.28-0.143,2.076,0.156,2.758,0.561c-0.272,1.625-0.221,3.031,0,4.206c2.16,0.168,2.787-1.219,4.289-1.122
		c4.787,0.308,5.773,8.91,0.307,9.813c-1.794,0.296-2.614-0.941-5.209-0.28c0.109-3.333-0.572-8.494-0.307-11.496
		C90.023,0.889,88.107,1.522,88.238,0.28"/>
	<path fill="#221F20" d="M0,4.206v-0.28c1.989-0.72,3.83-0.076,4.902,0.841C6.934,1.045,16.023,4.88,10.111,7.29
		c-0.862-1.33,0.995-2.276-0.613-3.084C7.605,3.932,5.48,5.467,4.29,6.729c0.01,2.484,0.151,3.165,0.306,5.328
		c0.611,0.655,3.021-0.335,3.064,0.84c-1.003,0.772-4.924,0.789-6.741,0.561c0.297-1.037,2.025-0.763,2.451-1.682V5.328
		C2.754,4.49,0.471,5.176,0,4.206 M39.83,14.58c0.687-3.186-4.478-3.145-6.74-2.523C25.003,14.275,38.835,19.192,39.83,14.58
		 M32.477,8.691c2.634,1.306,5.166-0.381,4.902-3.364C35.223,2.435,29.759,5.455,32.477,8.691 M41.055,5.046
		c-0.273,0.124-0.548,0.246-0.613,0.561c-1.338,0.383-0.652-1.086-1.838-0.841c0.617,2.811-2.275,6.693-5.821,4.766
		c-0.541,0.254-0.949,0.627-1.226,1.122c2.498,1.257,7.353-0.574,9.191,1.682c1.593,5.947-8.199,5.03-10.723,3.084
		c0.316-4.073,1.991-5.993,0.919-10.093c0.298-0.008,0.238-0.344,0.306-0.561c1.449-1.18,3.993-1.763,6.128-0.841
		C38.805,3.534,40.937,2.986,41.055,5.046 M16.545,11.495c1.538,2.154,6.816,1.026,7.046-1.402
		C22.83,8.341,16.864,9.349,16.545,11.495 M24.204,5.047c0.379,2.271,0.034,4.851,0.307,7.289c0.042,0.802,1.278,0.513,2.144,0.561
		c-0.448,1.685-2.552,0.415-3.37,0c-2.359,0.643-6.096,1.854-7.353,0c0.021,0.032-0.633-1.814-0.613-1.963
		c0.434-3.252,6.462-1.397,8.272-3.925c-0.477-2.449-3.574-2.99-5.821-1.682c0.267,1.115,0.267,1.408,0,2.523
		c-1.65,0.202-1.611-1.142-1.532-2.523C18.007,3.328,22.153,3.305,24.204,5.047 M108.153,12.897
		c8.931,0.671,4.191-12.653-2.758-6.729c-0.372,2.136-0.095,3.357,0,5.608C106.569,12.31,107.049,12.814,108.153,12.897
		 M105.395,12.897c-1.056-1.855-2.405-4.258-1.226-6.729c1.382-2.892,6.906-3.459,9.191-1.121
		C117.045,8.813,112.014,16.639,105.395,12.897 M128.374,11.776c0.2,1.032,1.822,0.763,2.759,1.121
		c-1.113,1.341-4.567,0.883-5.822,0.281c0.164-0.786,1.477-0.519,2.145-0.841c2.379-6.675-3.57-10.046-7.047-4.767
		c0.01,2.341,0.104,2.883,0.307,5.047c0.504,0.913,1.662-0.513,2.145,0.28c-0.152,1.835-3.635,0.717-5.208,0.561
		c0.151-0.982,1.577-0.8,1.838-1.682c-0.957-1.926,1.36-5.534-1.532-6.729c0.445-1.682,2.203-0.096,2.758,0.561
		C125.241,2.114,130.063,5.037,128.374,11.776 M135.421,7.29c1.925,0.424,3.304,0.296,6.435,0.281
		C143.351,4.67,134.767,3.055,135.421,7.29 M144,7.851v0.561c-3.127,0.932-7.236-0.616-9.498,0.841
		c0.133,2.726,2.555,3.919,4.902,3.644c2.123-0.248,2.511-2.441,4.289-2.523c-1.073,1.232-1.199,2.207-2.451,2.804
		c-8.348,3.983-11.436-11.16-0.305-9.252C142.105,5.099,143.42,6.139,144,7.851"/>
	<path fill="#221F20" d="M57.6,30.001h-0.307c-1.231-0.649-3.774-0.099-5.514-0.281c0.802-1.463-0.049-5.131,0.306-6.168
		c1.787,0.466,5.61-0.895,5.515,0.561c0.064,1.16-4.531-0.717-4.902,0.842c-0.939,2.83,3.938,0.164,3.37,1.963
		c-0.217,0.271-2.233-0.185-3.37,0v2.242c1.589-0.135,3.802,0.303,4.902-0.279V30.001z M72,23.833
		c-0.052-0.608,1.088-0.127,1.532-0.281c0.06,1.44,1.073,2.009,1.838,2.804c0.792-0.771,1.306-1.796,2.146-2.522
		c0.699,0.857-2.986,3.666-1.838,5.887c-1.81,0.217-0.114-1.146-0.614-2.242C74.321,26.006,73.195,24.888,72,23.833 M85.48,26.075
		c-0.359-1.724-2.099-2.139-3.982-1.683C73.479,26.333,86.947,33.102,85.48,26.075 M81.191,23.833
		c3.369-0.791,5.147,0.625,5.209,2.804c0.112,3.976-8.022,4.769-7.967,0C78.451,25.202,79.062,24.331,81.191,23.833 M101.414,23.551
		c-0.75,0.998-2.023,1.515-3.064,2.242c1.033,1.299,1.793,2.848,3.369,3.646c-2.774,1.119-2.883-4.805-5.515-2.243
		c-0.252,0.907,0.382,2.424,0,2.522c-1.489,0.071-0.209-5.102-0.612-5.888c1.242-0.108,0.338,1.747,0.612,2.524
		C97.931,26.53,98.842,23.539,101.414,23.551 M43.506,24.112c0.008-0.271,0.375-0.218,0.613-0.279
		c2.304,0.882,3.189,3.062,4.902,4.484c0.82-0.861-0.051-4.047,0.306-4.484c1.319,0.759,0.332,5.109,0.613,5.887
		c-2.205-0.579-3.338-3.613-5.515-5.046c-0.331,1.594,0.595,4.771-0.306,5.046C43.053,29.405,44.526,25.299,43.506,24.112
		 M58.213,24.112c0.008-0.271,0.375-0.218,0.613-0.279c1.175,0.979,1.324,2.9,1.838,4.484c1.845-0.646,0.912-3.838,2.757-4.484
		c1.307,0.953,1.296,3.111,2.145,4.484c1.147-1.101,0.999-3.385,2.145-4.484c0.503,0.882-0.978,4.676-2.145,5.887
		c-1.222-1.125-1.27-3.324-2.145-4.766c-0.998,1.18-1.565,3.805-1.838,4.766H60.97C59.829,28.946,59.628,25.504,58.213,24.112
		 M88.545,26.356c1.823-0.201,4.881,0.727,4.596-1.402c-0.239-0.062-0.356-0.235-0.307-0.561h-4.289V26.356z M87.626,24.112
		c1.327-0.553,4.455-0.346,5.821,0c-0.051,0.326,0.068,0.5,0.306,0.561c0.177,1.376-0.397,2.066-1.53,2.244
		c-0.033,1.253,1.91,2.163,1.53,2.803c-1.78,0.115-1.438-1.626-2.45-2.803h-2.758c-0.225,0.971,0.334,2.659,0,2.803
		C86.778,29.801,88.833,25.317,87.626,24.112L87.626,24.112z"/>
</g>
</svg>
