<svg xmlns="http://www.w3.org/2000/svg" xmlns:xlink="http://www.w3.org/1999/xlink" width="99" height="25" viewBox="0 0 99 25">
  <defs>
    <polygon id="sam-edelman-logo-a" points="7.06 0 0 0 0 25 7.06 25 14.12 25 14.12 0"/>
  </defs>
  <g fill="none" fill-rule="evenodd" transform="translate(.709)">
    <mask id="sam-edelman-logo-b" fill="#fff">
      <use xlink:href="#sam-edelman-logo-a"/>
    </mask>
    <path fill="#221F20" d="M5.0776,21.667 C9.4886,21.761 11.5326,16.796 9.6756,13.056 C8.3476,16.112 6.5756,18.765 5.0776,21.667 M9.3686,8.611 C11.5586,7.078 12.7526,4.641 13.0466,1.389 C10.0096,2.155 9.3356,5.063 9.3686,8.611 M12.1266,0 L13.3526,0 C15.6656,3.399 12.1256,7.692 10.9006,10.556 C14.7636,16.014 10.3486,25.637 3.8516,23.056 C2.9116,23.593 2.3136,24.439 1.3996,25 L0.4796,25 C-1.1104,23.56 1.7096,22.551 2.3186,21.389 C1.7086,20.681 1.2526,18.359 2.3186,17.777 C3.3806,18.02 2.6736,19.864 3.8516,20 C5.3836,16.573 7.3596,13.55 9.0616,10.278 C6.5686,6.649 9.5266,1.689 12.1266,0" mask="url(#sam-edelman-logo-b)"/>
    <path fill="#221F20" d="M52.8916,0 L53.5046,0 C52.2836,2.689 52.0186,6.246 50.7456,8.889 C49.5296,8.181 49.7576,5.82 50.1326,4.444 C46.0996,5.233 44.4566,8.189 43.0836,11.389 C43.5406,12.086 45.7346,11.208 45.5356,12.5 C45.4706,15.085 43.2956,15.426 41.2446,15.556 C40.2376,17.268 37.7726,19.032 38.7926,21.667 C39.1956,22.968 42.0156,22.079 43.0836,22.777 C42.8846,24.589 39.7356,24.732 37.8726,24.167 C35.3076,19.951 38.7216,15.29 41.2446,13.056 C42.4286,8.806 43.5066,4.732 47.3746,3.056 C48.3556,2.63 49.9006,2.91 50.7456,2.5 C51.8606,1.96 51.4376,0.149 52.8916,0"/>
    <path fill="#221F20" d="M46.1489 20.5557C48.1569 19.7837 49.0159 17.9687 49.2139 15.5557 49.1469 15.3387 48.9569 15.2327 48.6009 15.2777 47.1649 16.3287 45.2129 18.2667 46.1489 20.5557L46.1489 20.5557zM58.4089 16.6667C59.1439 15.9437 60.1099 15.4307 60.5549 14.4447 59.0989 14.3377 57.6469 15.6857 58.4089 16.6667L58.4089 16.6667zM64.2319 16.9447C65.0639 14.4547 67.3329 11.7937 66.9909 9.1667 66.1069 11.6087 63.8359 14.2677 64.2319 16.9447L64.2319 16.9447zM57.1829 1.9447C57.2609 7.3177 53.3469 12.8837 54.7309 19.4447 56.3589 17.7747 56.0679 13.7647 58.4089 12.4997 59.2929 12.0227 60.6309 11.5327 62.0869 12.4997 62.8029 16.5747 60.1539 17.6007 58.1029 19.1667 58.7209 20.3747 61.2669 19.5167 61.7799 18.8887 62.7739 13.4017 63.7869 7.9297 68.5239 5.8337 70.3219 11.5947 65.7709 16.2597 63.6189 20.2777 67.6849 19.7957 68.0789 15.9867 70.6689 14.1667 71.6799 14.1767 71.8409 14.9567 71.8949 15.8327 72.7909 15.6267 72.4879 14.3337 73.7339 14.4447 74.1759 15.0627 74.5039 15.7847 74.3469 16.9447 75.6979 15.7617 75.4879 13.1637 78.3309 13.3327 79.7069 15.8537 76.9089 19.3477 78.6379 22.4997 75.4409 21.7517 76.7989 17.6697 77.4119 15.2777 74.8939 16.6067 75.1989 20.4937 72.5079 21.6667 71.4099 21.8277 71.5759 20.8447 71.5889 19.9997 70.6919 20.2067 70.9949 21.4997 69.7489 21.3887 68.8369 19.8177 70.0579 18.0347 70.6689 16.9447 67.8749 17.1217 67.5539 21.8807 64.2319 22.4997 63.1619 22.4517 62.6899 21.8617 62.3939 21.1117 61.2349 22.4237 57.7489 23.2507 56.8759 21.1117 55.7419 21.1947 55.7739 22.3337 54.1179 21.9447 52.9569 20.5887 52.8149 18.3107 52.8919 15.8327 50.9489 18.5507 50.0979 23.6247 44.9229 22.4997 42.9869 19.3557 44.9129 14.4837 47.9879 13.3327 49.4119 13.0617 49.8379 13.6937 50.7459 13.8887 53.9249 11.2137 53.9719 5.7007 55.9569 1.9447L57.1829 1.9447zM15.4985 20.833C17.5775 20.302 18.0495 17.173 17.3375 15 16.9455 14.984 16.9135 14.644 16.4175 14.723 15.5635 15.99 13.2525 19.414 15.4985 20.833M16.7245 13.056C18.5785 13.121 18.0175 15.622 19.4835 15.277 19.2755 16.821 18.7925 19.378 19.4835 20.833 21.8905 19.403 22.4195 16.272 24.6935 14.723 25.6575 14.683 25.7465 15.435 25.9195 16.111 26.4845 16.041 26.9955 14.528 27.4525 15.277 28.4975 15.257 28.3595 16.307 28.3715 17.223 29.3825 16.563 29.5615 15.152 30.8235 14.723 34.7095 15.882 30.8895 19.925 31.1305 22.777 28.5235 22.136 30.6575 18.755 30.8235 17.223 29.1045 17.15 29.2385 21.153 27.4525 21.944 26.4415 21.935 26.2805 21.154 26.2265 20.277 25.6535 20.777 25.7975 21.927 24.3875 21.667 23.4495 20.238 24.7705 18.766 24.6935 17.223 22.4235 18.4 20.4765 25.906 17.6445 21.389 16.7545 21.601 16.8495 22.705 15.4985 22.5 11.4005 21.228 13.7685 13.837 16.7245 13.056"/>
    <path fill="#221F20" d="M82.0098,21.1113 C83.9438,20.1293 83.3338,16.1443 82.0098,15.0003 L81.0898,15.0003 C80.5228,16.7733 79.7188,20.4993 82.0098,21.1113 M84.1558,14.7223 C84.5998,17.0973 85.3018,19.2383 86.3008,21.1113 C88.1138,19.5133 86.5728,14.8773 88.4468,13.3333 C90.3208,14.0423 90.4998,16.2873 90.8988,18.3333 C92.1558,17.1583 91.3748,14.1353 93.0438,13.3333 C95.7778,15.9493 95.2168,21.5493 98.2538,23.8883 C94.7738,23.6173 94.4348,20.4993 93.6558,17.7773 C92.6628,18.8223 93.5098,21.5333 91.5108,21.6673 C89.8908,21.3763 89.9758,19.5393 89.3648,18.3333 C88.8338,19.7963 88.8108,21.7193 87.8328,22.7773 C86.2508,23.2273 84.8818,22.4753 84.4618,21.1113 C83.6538,21.3043 83.8138,22.3763 82.9288,22.5003 C77.6908,22.8223 78.6008,15.3563 80.7828,13.3333 C82.6258,13.1883 82.6728,15.3703 84.1558,14.7223"/>
  </g>
</svg>
