<svg xmlns="http://www.w3.org/2000/svg" xmlns:xlink="http://www.w3.org/1999/xlink" width="72" height="25" viewBox="0 0 72 25">
  <defs>
    <polygon id="soma-logo-a" points="25.655 .166 0 .166 0 10.307 0 20.447 25.655 20.447 25.655 .166"/>
    <polygon id="soma-logo-c" points="26.217 .255 26.217 11.694 .175 11.694 .175 .255 26.217 .255"/>
    <polygon id="soma-logo-e" points="0 23.865 70.803 23.865 70.803 .276 0 .276"/>
  </defs>
  <g fill="none" fill-rule="evenodd" transform="translate(.585 .471)">
    <g transform="translate(0 .11)">
      <mask id="soma-logo-b" fill="#fff">
        <use xlink:href="#soma-logo-a"/>
      </mask>
      <path fill="#221F20" d="M0,14.1471969 C0.239730041,13.5072147 0.414412312,12.8396114 0.730489499,12.2316697 C1.80118188,10.1725126 4.2036739,9.131195 6.61135751,9.68251327 C7.89154647,9.97584994 8.77014943,10.7191352 9.11951397,11.8911009 C9.31099262,12.533569 8.95918497,13.1765895 8.32641982,13.2506142 C7.93491165,13.2961891 7.39131996,13.1881904 7.12990733,12.9545154 C6.90025512,12.7487378 6.79397989,12.1918953 6.93995563,11.9297705 C7.28779323,11.3038751 6.94300952,10.99949 6.46874104,10.7183066 C5.67931155,10.2506804 4.81933729,10.2470897 3.95142292,10.5097669 C0.677046497,11.4997091 -0.504196557,15.4724599 1.7043737,17.997586 C2.66970702,19.1018798 3.94378821,19.642702 5.44446772,19.8752721 C8.83000559,20.4000741 11.7861671,19.039456 12.9555,16.1433778 C13.5458161,14.6811138 13.7672229,13.084611 14.0387133,11.5328545 C14.3883833,9.53225418 14.460455,7.48331685 14.9432743,5.51337603 C15.6255124,2.72916353 17.5235025,0.862249618 20.7309988,0.266185078 C20.8204777,0.249612384 20.9029326,0.199894304 20.9890522,0.165644071 L22.6906774,0.165644071 C23.3747478,0.433845493 24.1113451,0.628022217 24.7300624,0.987373453 C25.5521684,1.46521945 25.8401499,2.40654843 25.5387313,3.12166015 C25.1759297,3.98233537 24.204794,4.56072237 23.2080056,4.48559282 C23.4086459,4.05194068 23.6862442,3.64176652 23.7845793,3.19955181 C23.9678124,2.37312683 23.8926869,1.55139745 23.0678323,0.991240415 C22.1458641,0.364792603 21.1054052,0.367002296 20.1144193,0.794577786 C18.292471,1.58039967 17.2614791,3.02526232 16.9035637,4.72313476 C16.4497562,6.87399416 16.2778224,9.07484784 16.0106074,11.2566429 C15.7516379,13.371871 15.3494411,15.4404194 13.9871027,17.2507099 C11.4093176,20.6771143 5.4933299,21.5225979 2.15054643,18.9367053 C1.1103929,18.1323772 0.431208684,17.1338724 0.160634397,15.913846 C0.124293155,15.7495001 0.0543591684,15.5909547 0,15.4299233 L0,14.1471969 Z" mask="url(#soma-logo-b)"/>
    </g>
    <path fill="#221F20" d="M27.5400038,12.1381997 C27.5400038,12.0741187 27.539393,12.0103138 27.5400038,11.9462327 C27.5528301,10.9662341 27.4129622,9.99535048 26.2863837,9.57164195 C25.1992003,9.16312506 24.2641005,9.69400367 23.5809462,10.3922665 C22.7765526,11.2145483 22.0414823,12.1183125 21.440783,13.0715186 C20.4510186,14.6431623 19.8008463,16.3297101 19.9862171,18.1924809 C20.1608994,19.946148 21.7141058,20.7231311 23.3198389,19.8428449 C23.6588203,19.6569545 23.9846699,19.4282514 24.2552442,19.1675077 C26.3034854,17.1917664 27.320124,14.8160708 27.5400038,12.1381997 M30.6497758,20.2375512 C31.8933181,17.7259595 33.1038785,15.2809348 34.3938399,12.6759836 C32.6509872,13.612617 31.0263199,14.6119504 29.4031796,12.6240559 C29.2804134,14.0142286 28.9661685,15.2480657 28.2143018,16.3523595 C26.9359452,18.2300456 25.2340146,19.658888 22.8617561,20.323453 C20.2219771,21.0631476 18.2534423,19.8199194 18.0210416,17.3179951 C17.8659042,15.6469151 18.4864538,14.2017763 19.578218,12.9082776 C21.0535502,11.1601346 22.7826604,9.72272967 25.267302,9.2238916 C26.9249512,8.89133288 28.124823,9.35260619 28.9038693,10.7355975 C29.1927669,11.2479699 29.4166167,11.789897 29.6743647,12.3166324 C30.1889444,13.3687222 31.057775,13.7725435 32.2530659,13.3916478 C33.5466919,12.9792639 34.6457855,12.3373483 35.2003711,11.088872 C35.8795553,9.5608697 35.9174235,9.57468028 37.8600003,9.68240278 C37.2281513,10.9764539 36.6088233,12.2437126 35.9898006,13.510695 C36.0282796,13.5308584 36.0664532,13.5507456 36.1049321,13.5709091 C36.5089612,13.0717948 36.8928347,12.5583175 37.3216003,12.077157 C38.200814,11.0910817 39.1295007,10.1143977 40.4603841,9.64345695 C41.1997299,9.38188461 42.0673389,9.20925239 42.8442475,9.28244845 C44.3843221,9.42773573 45.1334403,10.6107498 44.5400703,11.9059058 C43.5249586,14.1202939 42.4130388,16.298222 41.3411248,18.4910656 C41.2745501,18.6277903 41.2024784,18.7623053 41.1362091,18.8993062 C40.422516,20.3662658 40.4228214,20.3662658 38.4854362,20.2458376 C38.9334412,19.3326822 39.3622068,18.44991 39.7995232,17.5701762 C40.7859284,15.5844913 41.7802736,13.6018448 42.7627087,11.6142264 C42.8964689,11.3432629 43.0048819,11.0568315 43.0818398,10.7684666 C43.3072166,9.92298305 42.6274216,9.33161411 41.6907948,9.55451683 C40.4310668,9.85365395 39.4785598,10.5919674 38.5926276,11.398229 C36.382225,13.410154 34.7664139,15.7781156 33.5610452,18.3852765 C33.4700394,18.5822154 33.3710935,18.7763921 33.272453,18.9702926 C32.5511251,20.39002 32.5508198,20.39002 30.6497758,20.2375512"/>
    <g transform="translate(44.587 8.95)">
      <mask id="soma-logo-d" fill="#fff">
        <use xlink:href="#soma-logo-c"/>
      </mask>
      <path fill="#221F20" d="M19.7257512,3.2537169 C19.6915477,2.21516145 19.580997,1.30946375 18.5881787,0.850676353 C17.6204023,0.403489843 16.7998232,0.912823954 16.0644474,1.42381533 C14.1392778,2.76233654 12.9714718,4.5610262 12.3594731,6.65968161 C12.0525576,7.71260007 11.8174084,8.78761545 12.2672458,9.86539294 C12.6743287,10.8404197 13.4561235,11.1470146 14.5152111,10.7465078 C15.809448,10.2570609 16.6889671,9.34197204 17.4713727,8.33987651 C18.698424,6.76878517 19.6451286,5.09466693 19.7257512,3.2537169 M0.175079277,3.80061578 C1.48000471,2.1303645 2.85730723,0.535242755 5.32087696,0.276708738 C7.33552547,0.0656831083 8.64869639,1.45364618 7.94141642,3.16560541 C7.45859707,4.33425651 6.65939514,5.39325162 6.0449533,6.5207472 C5.49342151,7.53361498 4.94616517,8.55449289 4.51342954,9.6110021 C4.36562146,9.97173439 4.40104654,10.6398901 4.65818373,10.8304761 C4.99991356,11.0832097 5.6971157,11.1682829 6.14267765,11.0415018 C7.73466835,10.5876862 8.81666011,9.48228751 9.86231063,8.37136463 C9.98324451,8.24292625 9.96980742,8.00925128 10.0137834,7.8233609 C10.8108476,4.46628564 12.7812147,1.95220804 16.4315245,0.738810673 C18.3970055,0.0852941288 19.63444,0.61589653 20.6086296,2.32896061 C20.6376415,2.38061217 20.6874199,2.42259632 20.7726233,2.52065143 C21.0117425,2.09141867 21.2719336,1.70997051 21.4414243,1.29813908 C21.6362622,0.824988679 21.9407346,0.626116358 22.5047873,0.694064401 C22.8736968,0.738810673 23.2545163,0.702626959 23.7434435,0.702626959 C23.2716181,1.66494802 22.8394932,2.55628272 22.3988175,3.44430287 C21.4127178,5.43026397 20.4205102,7.41346295 19.4374644,9.40052889 C19.3421831,9.59304835 19.2594228,9.80048322 19.2301055,10.0079181 C19.0804651,11.0710564 19.8805832,11.6952945 20.9066889,11.1782265 C21.9172197,10.669721 22.8281939,9.95985729 23.670761,9.23203984 C24.3814002,8.61802155 24.9301835,7.85098206 25.5534816,7.15382409 C25.7009843,6.98864957 25.8616187,6.83341868 26.0161453,6.67349219 C26.08272,6.72293406 26.1499055,6.77209971 26.2167856,6.82154158 C25.6399066,7.49936474 25.1338777,8.2415452 24.4693521,8.83926701 C23.4893601,9.72065808 22.4611168,10.5824381 21.3324006,11.2958926 C20.3420254,11.9215118 19.2105607,11.7624139 18.4400653,11.1459097 C17.7049949,10.5578553 17.5547437,9.72783959 17.9902279,8.67050175 C18.077569,8.45947612 18.158497,8.24624079 18.1212396,7.9738962 C17.9517489,8.18989364 17.7874498,8.40920561 17.6118514,8.62105988 C16.6028475,9.83666694 15.4365685,10.8782607 13.790524,11.3621834 C12.0464498,11.874832 10.632806,11.1925895 10.1124239,9.60105848 C10.0467653,9.40135753 10.0018732,9.19585613 9.9221668,8.90003355 C9.46805397,9.28645352 9.10372538,9.67839772 8.65449877,9.9601335 C7.867207,10.4539998 7.06739429,10.9583621 6.2000907,11.3141226 C5.26224235,11.6988853 4.29202281,11.607183 3.51419808,10.9025673 C2.71407999,10.1780644 2.51710435,9.25054601 2.90830713,8.35285845 C3.46777902,7.0681985 4.20254396,5.84513373 4.87714735,4.60245793 C5.32454162,3.77907128 5.85408543,2.98800138 6.23154573,2.14030811 C6.38454541,1.79614851 6.37477297,1.26830823 6.181462,0.953703264 C5.9298218,0.54491016 5.37584691,0.542976679 4.84477616,0.658709321 C3.06374992,1.04816762 1.87212365,2.17013896 0.696988371,3.32083631 C0.569335942,3.44568393 0.454509834,3.58130381 0.327468181,3.70698006 C0.287462277,3.74675453 0.226384559,3.7699563 0.175079277,3.80061578" mask="url(#soma-logo-d)"/>
    </g>
    <mask id="soma-logo-f" fill="#fff">
      <use xlink:href="#soma-logo-e"/>
    </mask>
    <polygon fill="#221F20" points="49.774 23.815 48.574 22.169 48.569 22.169 48.569 23.815 48.371 23.815 48.371 21.928 48.595 21.928 49.8 23.576 49.806 23.576 49.806 21.928 50.003 21.928 50.003 23.815" mask="url(#soma-logo-f)"/>
    <polygon fill="#221F20" points="51.843 22.08 51.843 23.815 51.646 23.815 51.646 22.08 50.985 22.08 50.985 21.928 52.504 21.928 52.504 22.08" mask="url(#soma-logo-f)"/>
    <polygon fill="#221F20" points="57.003 23.815 57.003 22.132 56.996 22.132 56.313 23.815 56.128 23.815 55.44 22.132 55.435 22.132 55.435 23.815 55.238 23.815 55.238 21.928 55.539 21.928 56.223 23.592 56.229 23.592 56.901 21.928 57.2 21.928 57.2 23.815" mask="url(#soma-logo-f)"/>
    <path fill="#221F20" d="M59.0320108,22.0795232 L58.6234009,23.0705703 L59.4406207,23.0705703 L59.0320108,22.0795232 Z M59.748147,23.8149604 L59.5075008,23.2224867 L58.5565208,23.2224867 L58.3103776,23.8149604 L58.1075996,23.8149604 L58.9275679,21.9276069 L59.1511124,21.9276069 L59.9509251,23.8149604 L59.748147,23.8149604 Z" mask="url(#soma-logo-f)"/>
    <polygon fill="#221F20" points="61.407 22.08 61.407 23.815 61.21 23.815 61.21 22.08 60.55 22.08 60.55 21.928 62.068 21.928 62.068 22.08" mask="url(#soma-logo-f)"/>
    <polygon fill="#221F20" points="62.964 23.815 62.964 21.928 64.353 21.928 64.353 22.08 63.162 22.08 63.162 22.761 64.237 22.761 64.237 22.913 63.162 22.913 63.162 23.663 64.382 23.663 64.382 23.815" mask="url(#soma-logo-f)"/>
    <path fill="#221F20" d="M66.166896,23.8646509 C65.6388791,23.8646509 65.4015922,23.594516 65.4015922,23.251185 L65.5927654,23.251185 C65.6248312,23.576286 65.8538727,23.7127346 66.192854,23.7127346 C66.5785598,23.7127346 66.723314,23.513586 66.723314,23.3326674 C66.723314,23.1677691 66.6332243,23.0838008 66.5031288,23.0233105 C66.3119556,22.9368563 65.9638126,22.9106162 65.737825,22.8084179 C65.5988732,22.7454417 65.4507597,22.6327474 65.4507597,22.3783565 C65.4507597,22.1189939 65.6972083,21.8778612 66.1583451,21.8778612 C66.6246735,21.8778612 66.8595173,22.1294899 66.8595173,22.441609 L66.6710925,22.441609 C66.6710925,22.1449578 66.4102907,22.0295013 66.1638421,22.0295013 C65.8538727,22.0295013 65.6449869,22.166226 65.6449869,22.3913385 C65.6449869,22.5305491 65.7204179,22.6117553 65.8538727,22.6722456 C66.0539022,22.7611857 66.395632,22.7769298 66.6362782,22.8843761 C66.8219545,22.9683444 66.920595,23.1017546 66.920595,23.3144375 C66.920595,23.7334504 66.5232845,23.8646509 66.166896,23.8646509" mask="url(#soma-logo-f)"/>
  </g>
</svg>
