<svg xmlns="http://www.w3.org/2000/svg" width="262" height="13" viewBox="0 0 262 13">
  <g transform="translate(.665 .92)">
    <polyline points="11.768 1.648 6.852 1.648 6.852 11.613 4.866 11.613 4.866 1.648 0 1.648 0 .161 11.768 .161 11.768 1.648"/>
    <path d="M26.7636743,-5.68434189e-14 C23.4368354,-5.68434189e-14 21.3513543,1.72790121 21.3513543,1.72790121 C19.2162189,3.45580241 19.2162189,5.86682735 19.2162189,5.86682735 C19.2162189,8.31803604 21.2520457,10.0057535 21.2520457,10.0057535 C23.3375268,11.7738385 26.7636743,11.7738385 26.7636743,11.7738385 C30.2394762,11.7738385 32.3746116,9.96556975 32.3746116,9.96556975 C34.4104384,8.31803604 34.4104384,5.86682735 34.4104384,5.86682735 C34.4104384,3.45580241 32.3746116,1.72790121 32.3746116,1.72790121 C30.2394762,-5.68434189e-14 26.7636743,-5.68434189e-14 26.7636743,-5.68434189e-14 Z M26.7636743,1.52698246 C29.1967356,1.52698246 30.7360193,2.77267868 30.7360193,2.77267868 C32.3249573,4.0183749 32.3249573,5.86682735 32.3249573,5.86682735 C32.3249573,7.71527981 30.7360193,9.00115977 30.7360193,9.00115977 C29.1967356,10.2066722 26.7636743,10.2066722 26.7636743,10.2066722 C24.3802673,10.2066722 22.890638,9.00115977 22.890638,9.00115977 C21.3513543,7.71527981 21.3513543,5.86682735 21.3513543,5.86682735 C21.3513543,4.0183749 22.890638,2.77267868 22.890638,2.77267868 C24.3802673,1.52698246 26.7636743,1.52698246 26.7636743,1.52698246 Z"/>
    <polyline points="57.053 11.613 55.017 11.613 55.017 2.692 50.647 7.113 50.3 7.113 45.98 2.692 45.93 2.692 45.93 11.613 43.894 11.613 43.894 .161 45.781 .161 50.498 4.862 55.216 .161 57.053 .161 57.053 11.613"/>
    <polyline points="81.731 11.613 79.695 11.613 79.695 2.692 79.646 2.692 75.326 7.113 74.978 7.113 70.608 2.692 70.608 11.613 68.573 11.613 68.573 .161 70.459 .161 75.127 4.862 79.794 .161 81.731 .161 81.731 11.613"/>
    <polyline points="100.55 .161 102.983 .161 97.72 5.545 97.72 11.613 95.734 11.613 95.734 5.545 90.47 .161 92.953 .161 96.776 4.139 100.55 .161"/>
    <polyline points="157.851 .161 157.851 11.613 155.865 11.613 155.865 6.63 147.92 6.63 147.92 11.613 145.884 11.613 145.884 .161 147.92 .161 147.92 5.144 155.865 5.144 155.865 .161 157.851 .161"/>
    <polyline points="168.328 11.613 166.292 11.613 166.292 .161 168.328 .161 168.328 11.613"/>
    <polyline points="178.656 10.126 185.012 10.126 185.012 11.613 176.67 11.613 176.67 .161 178.656 .161 178.656 10.126"/>
    <polyline points="198.419 1.648 192.857 1.648 192.857 4.822 198.419 4.822 198.419 6.309 192.857 6.309 192.857 11.613 190.822 11.613 190.822 .161 198.419 .161 198.419 1.648"/>
    <polyline points="207.505 11.613 205.519 11.613 205.519 .161 207.505 .161 207.505 11.613"/>
    <path d="M226.820899,10.8094285 C226.820899,10.8094285 224.288529,11.7738385 221.458233,11.7738385 C221.458233,11.7738385 218.181048,11.7738385 216.095567,10.1263047 C216.095567,10.1263047 213.960432,8.47877104 213.960432,5.94719485 C213.960432,5.94719485 213.960432,3.45580241 216.095567,1.68771746 C216.095567,1.68771746 218.330011,-5.68434189e-14 221.507887,-5.68434189e-14 C221.507887,-5.68434189e-14 223.742331,-5.68434189e-14 226.572627,1.00459372 L226.572627,2.65212743 C226.572627,2.65212743 224.139566,1.52698246 221.458233,1.52698246 C221.458233,1.52698246 219.174134,1.52698246 217.585196,2.81286243 C217.585196,2.81286243 216.045913,4.05855865 216.045913,5.86682735 C216.045913,5.86682735 216.045913,7.7956473 217.585196,9.00115977 C217.585196,9.00115977 219.223789,10.2066722 221.706504,10.2066722 L224.785072,9.80483475 L224.785072,7.39380981 L222.103739,7.39380981 L222.103739,5.9873786 L226.820899,5.9873786 L226.820899,10.8094285"/>
    <polyline points="242.611 1.648 236.553 1.648 236.553 5.063 242.412 5.063 242.412 6.55 236.553 6.55 236.553 10.126 242.81 10.126 242.81 11.613 234.567 11.613 234.567 .161 242.611 .161 242.611 1.648"/>
    <path d="M249.711536.160734996L249.711536 11.6131035 251.747363 11.6131035 251.747363 6.63031858 252.591487 6.63031858C253.43561 6.63031858 254.13077 7.03215607 254.13077 7.03215607 255.024548 7.63491231 256.31556 9.28244602 256.31556 9.28244602L258.15277 11.6131035 260.585831 11.6131035 258.698967 9.32262977C256.712795 6.79105358 255.570745 6.1481136 255.570745 6.1481136 257.904498 5.38462236 257.904498 3.37543492 257.904498 3.37543492 257.904498 1.8886362 256.66314 1.00459372 256.66314 1.00459372 255.421782.160734996 253.236993.160734996 253.236993.160734996L249.711536.160734996zM251.747363 1.60734996L253.038375 1.60734996C255.819017 1.60734996 255.819017 3.29506742 255.819017 3.29506742 255.819017 5.14351987 253.038375 5.14351987 253.038375 5.14351987L251.747363 5.14351987 251.747363 1.60734996zM112.814598.160734996L112.814598 11.6131035 134.314915 11.6131035 134.314915.160734996 112.814598.160734996zM114.254573 1.32606372L132.87494 1.32606372 132.87494 2.53157619 114.254573 2.53157619 114.254573 1.32606372zM114.254573 3.69690491L122.844769 3.69690491 122.844769 8.1171173 114.254573 8.1171173 114.254573 3.69690491zM124.284744 3.69690491L132.87494 3.69690491 132.87494 8.1171173 124.284744 8.1171173 124.284744 3.69690491zM114.254573 9.28244602L132.87494 9.28244602 132.87494 10.4477747 114.254573 10.4477747 114.254573 9.28244602z"/>
  </g>
</svg>
