<svg xmlns="http://www.w3.org/2000/svg" width="145" height="13" viewBox="0 0 145 13">
  <g fill="#333" transform="translate(.47 .92)">
    <path d="M14.9235686 5.56283752C14.9232564 4.61386357 14.9238808 3.96381986 14.9254418 3.61271419 14.9269873 3.26163196 14.9313425 3.00273208 14.9384999 2.83602234 14.9484514 2.61593359 14.9845268 2.45264699 15.0467417 2.34616252 15.108941 2.23969368 15.2271344 2.16954289 15.4013142 2.1356945 15.4747138 2.12142363 15.5369209 2.11273294 15.5879353 2.1096146 15.6389342 2.10651971 15.68621 2.10527707 15.7297628 2.10589448 15.753709 2.10434704 15.7767264 2.09255364 15.798815 2.07050647 15.8208879 2.04847493 15.8327049 2.02549773 15.834266 2.00158269 15.8348904 1.96465505 15.8187103 1.93796555 15.7857491 1.92149855 15.7527724 1.90505501 15.6992758 1.89698173 15.6252518 1.89727871 15.3978955 1.89852136 15.1360092 1.9034763 14.8396008 1.91215918 14.5431845 1.92085769 14.3671393 1.92582046 14.3114652 1.92705528 14.2504991 1.92582046 14.0738373 1.92085769 13.7814719 1.91215918 13.4890987 1.9034763 13.2228572 1.89850572 12.9827395 1.89725526 12.9087154 1.8969661 12.8552111 1.90504719 12.8222499 1.92149074 12.7892732 1.93796555 12.7731009 1.96465505 12.7737253 2.00158269 12.7743419 2.02549773 12.7843013 2.04847493 12.80358 2.07050647 12.8228665 2.09255364 12.8477494 2.10434704 12.8782285 2.10589448 12.9248799 2.1059023 12.9846049 2.10962242 13.0573801 2.11707047 13.1301632 2.12452634 13.2048117 2.13570232 13.2813256 2.15059061 13.4209753 2.17823358 13.5223721 2.24590691 13.5855158 2.35361839 13.6486516 2.46133769 13.6866003 2.62214682 13.6993539 2.83602234 13.7136529 3.00273208 13.7223635 3.26163196 13.7254777 3.61271419 13.7285842 3.96381986 13.729833 4.61386357 13.7292086 5.56283752L13.7292086 7.79792502C13.729833 8.41413598 13.7248533 8.95862526 13.7142774 9.43140849 13.7037092 9.90419171 13.6837982 10.2736088 13.6545601 10.5396441 13.6365224 10.7268301 13.6054189 10.8776981 13.5612573 10.9922481 13.517088 11.106798 13.433729 11.1794419 13.3111803 11.2101719 13.2495976 11.2256933 13.1824187 11.2393545 13.1096356 11.2511479 13.0368526 11.2629413 12.9696736 11.2691546 12.908091 11.269772 12.8710712 11.2713272 12.8443307 11.2831206 12.8278384 11.30516 12.8113539 11.3272072 12.8032678 11.3501765 12.80358 11.374076 12.8060698 11.4460946 12.8757386 11.4808652 13.0125942 11.4783799 13.238405 11.4765199 13.4959438 11.4690718 13.7852028 11.456028 14.0744617 11.4429919 14.2498825 11.4355439 14.3114652 11.433676 14.360302 11.4355439 14.5500296 11.4429919 14.8806559 11.456028 15.2112821 11.4690718 15.5689688 11.4765199 15.953716 11.4783799 16.0277323 11.4777625 16.0812288 11.4678214 16.1141977 11.4485799 16.1471589 11.4293385 16.163339 11.4045012 16.1627146 11.374076 16.1630268 11.3501765 16.1549406 11.3272072 16.1384561 11.30516 16.1219639 11.2831206 16.0952234 11.2713194 16.0582114 11.269772 15.9932023 11.2691546 15.9030059 11.2629413 15.7876146 11.2511479 15.6722154 11.2393545 15.5633569 11.2256933 15.4610314 11.2101719 15.274098 11.1794419 15.1515493 11.106798 15.0933931 10.9922481 15.0352291 10.8776981 14.9985293 10.7268301 14.9832858 10.5396441 14.9546721 10.2736088 14.937251 9.90419171 14.9310303 9.43140849 14.9248096 8.95862526 14.9223198 8.41413598 14.9235686 7.79792502L14.9235686 5.56283752zM32.8180741 2.47840646L34.460325 2.50820648C35.0721084 2.52622092 35.4870303 2.59823959 35.7050672 2.72427031 35.9230963 2.85030884 36.0356856 3.01173539 36.0428508 3.20853431L36.0577742 3.34264613C36.0649237 3.43019395 36.0767407 3.48979399 36.093233 3.52144625 36.1097097 3.55312196 36.1327271 3.56801806 36.1622852 3.56615019 36.1933809 3.56585321 36.2207458 3.5515667 36.2443954 3.52331413 36.2680216 3.49506936 36.2804708 3.45471859 36.2817197 3.40224617 36.2835773 3.30105271 36.291039 3.08995946 36.3041126 2.76896643 36.3171707 2.44799684 36.3246324 2.17729574 36.3265056 1.95688657 36.3277388 1.91809105 36.3252568 1.88394568 36.3190439 1.85444265 36.3128154 1.82496306 36.2953943 1.80943391 36.2667884 1.80787865 36.2372303 1.80850388 36.1918199 1.8147171 36.1305573 1.82650269 36.069279 1.83831172 35.9902753 1.85196517 35.8935538 1.86747869 35.7899717 1.88301565 35.6612023 1.89666911 35.5072534 1.9084547 35.3532812 1.92026373 35.1685332 1.92647695 34.952994 1.92708655L29.9964023 1.92708655C29.9114901 1.92740698 29.7677972 1.92305381 29.565316 1.91404269 29.3628347 1.90505501 29.1631477 1.88953368 28.9662705 1.86747869 28.7908419 1.84172703 28.6602149 1.81130178 28.5743739 1.77621075 28.488525 1.74114317 28.4250769 1.72190172 28.384014 1.71847077 28.3606922 1.72376178 28.336426 1.75417922 28.3112388 1.80973871 28.2860437 1.86532165 28.2655162 1.91436312 28.2496561 1.95688657 28.2313062 2.05126502 28.1821572 2.27601954 28.1022246 2.63114231 28.0222842 2.9862729 27.9768817 3.21848329 27.9659935 3.32774221 27.9678589 3.3646933 27.9790515 3.39139062 27.9995868 3.40782635 28.0201144 3.42429334 28.0387765 3.43236662 28.0555732 3.43204619 28.0854279 3.43360927 28.1115518 3.42677863 28.1339525 3.4115621 28.1563455 3.39635338 28.1750076 3.36345065 28.1899311 3.31284611 28.2089054 3.27094007 28.2306818 3.22064814 28.2552524 3.16197032 28.279823 3.10330812 28.3277232 3.01949605 28.3989453 2.91051848 28.4879006 2.76431628 28.6309768 2.66188018 28.828174 2.60319454 29.0253634 2.54453234 29.3251983 2.51287226 29.7276709 2.50820648L31.6237219 2.47840646 31.6237219 7.79792502C31.6249629 8.41413598 31.6224731 8.95862526 31.6162524 9.43140849 31.6100317 9.90419171 31.5926106 10.2736088 31.5640047 10.5396441 31.5450226 10.7274554 31.5083227 10.8808086 31.4538974 10.9996961 31.3994565 11.1185914 31.3067703 11.1937206 31.1758311 11.2250759 31.114865 11.2405894 31.0501759 11.2542506 30.9817482 11.266044 30.9133204 11.2778453 30.8486235 11.2840507 30.7876652 11.2846759 30.7506532 11.2856059 30.723905 11.294914 30.7074205 11.312608 30.690936 11.330302 30.6828499 11.350794 30.6831621 11.374076 30.6825376 11.4110192 30.6987099 11.4377165 30.7316789 11.4541679 30.7646479 11.4706193 30.8181444 11.4786926 30.8921684 11.4783799 31.1148728 11.4765199 31.3823632 11.4690718 31.6946395 11.456028 32.0069159 11.4429919 32.1922882 11.4355439 32.2507722 11.433676 32.3064386 11.4355439 32.497415 11.4429919 32.823686 11.456028 33.149957 11.4690718 33.501423 11.4765199 33.8780918 11.4783799 33.9521003 11.4777625 34.005589 11.4678214 34.0385658 11.4485799 34.0715269 11.4293385 34.0876992 11.4045012 34.0870826 11.374076 34.0883236 11.3501765 34.0821029 11.3272072 34.0684205 11.30516 34.0547302 11.2831206 34.0261165 11.2713194 33.9825794 11.269772 33.9166337 11.2691546 33.8245719 11.2629413 33.7063785 11.2511479 33.5881851 11.2393545 33.481192 11.2256933 33.3853994 11.2101719 33.1906843 11.1794419 33.0612983 11.106798 32.9972336 10.9922481 32.9331533 10.8776981 32.8933392 10.7268301 32.8777991 10.5396441 32.8491776 10.2736088 32.8317565 9.90419171 32.8255436 9.43140849 32.8193151 8.95862526 32.8168253 8.41413598 32.8180741 7.79792502L32.8180741 2.47840646zM37.3102124 6.66547735C37.3069888 7.44463886 37.4842985 8.21248371 37.8421491 8.96900408 38.1999919 9.72554008 38.7577325 10.3554123 39.5153552 10.8586286 40.2729779 11.3618449 41.2498473 11.623066 42.4459556 11.6422918 44.05025 11.6037932 45.3242304 11.0959268 46.2679123 10.1187003 47.211563 9.14146593 47.6942883 7.92583143 47.7160724 6.47177331 47.6843289 4.98296023 47.187929 3.82195519 46.2268494 2.98875037 45.2657542 2.155569 44.0303391 1.73214768 42.5206041 1.71847077 41.3141696 1.74175277 40.3264276 2.01806531 39.5573781 2.54739277 38.7883209 3.07673585 38.220816 3.71948782 37.8548637 4.47564087 37.4889035 5.23180955 37.3073557 5.96175765 37.3102124 6.66547735L37.3102124 6.66547735zM38.6688006 6.3227654C38.6890159 4.94477432 39.0442128 3.91228528 39.7343912 3.22529829 40.4245617 2.53832693 41.3284218 2.19498975 42.4459556 2.19529455 43.5174547 2.19841288 44.4312663 2.59079154 45.1873827 3.37244615 45.9434912 4.15411639 46.3385021 5.30642292 46.3724155 6.82938919 46.3503815 8.03634081 46.1306743 8.95024718 45.7133094 9.57110048 45.2959133 10.1919694 44.8130163 10.6091775 44.2645951 10.822756 43.7161583 11.0363346 43.2343619 11.135668 42.819198 11.1207641 41.6077213 11.1052427 40.6192691 10.6743734 39.8538256 9.82814031 39.0883743 8.98190726 38.6933712 7.81345417 38.6688006 6.3227654L38.6688006 6.3227654zM50.3827495 7.79792502C50.3843027 8.41413598 50.3811885 8.95862526 50.3734223 9.43140849 50.3656406 9.90419171 50.3438642 10.2736088 50.308101 10.5396441 50.2835304 10.7268301 50.2505614 10.8776981 50.2091941 10.9922481 50.1678268 11.106798 50.0863332 11.1794419 49.9647212 11.2101719 49.9031385 11.2256933 49.8359518 11.2393545 49.7631765 11.2511479 49.6903935 11.2629413 49.6232067 11.2691546 49.5616241 11.269772 49.524612 11.2713272 49.4978638 11.2831206 49.4813793 11.30516 49.4648948 11.3272072 49.4568087 11.3501765 49.4571209 11.374076 49.4596107 11.4460946 49.5292795 11.4808652 49.6661351 11.4783799 49.8956768 11.4765199 50.1606773 11.4690718 50.4611366 11.456028 50.7615882 11.4429919 50.9295472 11.4355439 50.965006 11.433676 51.0135229 11.4355439 51.2001441 11.4429919 51.5248618 11.456028 51.8495795 11.4690718 52.2004211 11.4765199 52.5773944 11.4783799 52.6514106 11.4777625 52.7049071 11.4678214 52.7378761 11.4485799 52.7708373 11.4293385 52.7870095 11.4045012 52.7864007 11.374076 52.787634 11.3501765 52.7814132 11.3272072 52.7677386 11.30516 52.7540406 11.2831206 52.7254269 11.2713194 52.6818898 11.269772 52.6165684 11.2691546 52.5269965 11.2629413 52.4131584 11.2511479 52.2993202 11.2393545 52.1948092 11.2256933 52.099641 11.2101719 51.9043093 11.1794419 51.7724334 11.106798 51.7040057 10.9922481 51.6355779 10.8776981 51.593274 10.7268301 51.5771095 10.5396441 51.548488 10.2742262 51.5310747 9.90730223 51.524854 9.43885654 51.5186333 8.97042648 51.5161434 8.42841467 51.5173923 7.81282894L51.5173923 7.51482092C51.5173845 7.44280225 51.547247 7.40803165 51.6069642 7.41050912L52.7428402 7.44030915C52.7857529 7.43969955 52.8193463 7.44466231 52.8436125 7.45521306 52.8678709 7.46577163 52.8939948 7.48563831 52.9219918 7.51482092 53.0706566 7.69890423 53.27345 7.96400953 53.5303722 8.31013681 53.7872788 8.6562719 54.0572512 9.00705713 54.3402973 9.36249252 54.7060545 9.83869106 55.0270414 10.2310697 55.3032423 10.5396441 55.5794276 10.8482107 55.8556285 11.0766854 56.1318294 11.2250759 56.2873393 11.3138585 56.4689808 11.3784213 56.676754 11.4187799 56.8845193 11.4591385 57.170664 11.4789974 57.5352036 11.4783799L58.3563212 11.4783799C58.4738824 11.4786926 58.5559926 11.4706193 58.6026596 11.4541679 58.649311 11.4377165 58.6716962 11.4110192 58.6698464 11.374076 58.6695264 11.3501765 58.6589504 11.3272072 58.6381184 11.30516 58.6172709 11.2831206 58.5880328 11.2713194 58.5504119 11.269772 58.5143209 11.270702 58.4595756 11.2688419 58.3861837 11.264184 58.3127685 11.259526 58.213245 11.24649 58.0875976 11.2250759 57.9267803 11.2135873 57.7295909 11.1508767 57.4960139 11.036952 57.2624213 10.9230273 56.9719214 10.6926848 56.6245063 10.3459323 56.2441066 9.947653 55.8254616 9.47021182 55.3685636 8.91360871 54.91165 8.35701342 54.4146257 7.7417403 53.8774752 7.06779717 54.4802514 6.54969259 55.4382402 6.05487001 55.6789901 5.58332162 55.9197166 5.11178885 56.0354202 4.64303836 56.0260931 4.17707796 56.008672 3.73534522 55.8979403 3.36717077 55.6939136 3.07257026 55.4898713 2.77797756 55.2970294 2.56999483 55.1153957 2.44860644 54.7651707 2.21703692 54.3757561 2.06554371 53.9471674 1.99413464 53.5185552 1.92274901 53.0918242 1.8904637 52.6669585 1.89727871 52.4305795 1.89852136 52.1232828 1.9034763 51.7450764 1.91215918 51.3668543 1.92085769 51.1267444 1.92582046 51.0247233 1.92705528 50.9646938 1.92582046 50.7712353 1.92085769 50.44434 1.91215918 50.1174446 1.9034763 49.7933434 1.89850572 49.4720522 1.89725526 49.3980203 1.8969661 49.3445238 1.90504719 49.3115548 1.92149074 49.2785858 1.93796555 49.2624136 1.96465505 49.263038 2.00158269 49.2645912 2.02549773 49.2764082 2.04847493 49.2984968 2.07050647 49.3205776 2.09255364 49.343595 2.10434704 49.3675412 2.10589448 49.4319259 2.10621491 49.5084398 2.1093098 49.5970829 2.11520259 49.685726 2.12111102 49.758509 2.12794165 49.8154242 2.1356945 50.0253672 2.16394708 50.165337 2.23410569 50.235318 2.34616252 50.305299 2.45823498 50.3444886 2.6215294 50.352887 2.83602234 50.3671938 3.00273208 50.3759044 3.26163196 50.3790186 3.61271419 50.3821251 3.96381986 50.3833661 4.61386357 50.3827495 5.56283752L50.3827495 7.79792502zM51.5173923 2.56781434C51.5180089 2.53087888 51.5279604 2.50045363 51.547247 2.4765464 51.5665257 2.45264699 51.5914085 2.43340554 51.6218955 2.41880642 51.6956073 2.40267549 51.820638 2.38652893 51.9969955 2.37037455 52.1733529 2.35424362 52.3618317 2.34555292 52.5624553 2.34429465 53.2709758 2.34928086 53.8246109 2.56657951 54.2233605 2.99619842 54.6220945 3.42584078 54.8248879 4.0380112 54.8317331 4.83270186 54.8267534 5.31852894 54.7508639 5.7251941 54.6040646 6.05268952 54.4572497 6.38020058 53.7331501 6.61922597 53.5042406 6.76978133 53.3456087 6.87036519 53.1813883 6.93369317 53.0115716 6.95977307 52.7281821 7.02768867 52.4588263 6.98289095 52.1854821 6.93555323 51.9086646 6.89861777 51.7158227 6.85329642 51.6069642 6.79958917 51.5771017 6.77786243 51.5547087 6.75426782 51.5397853 6.72880533 51.524854 6.70335847 51.5173845 6.67231581 51.5173923 6.63567733L51.5173923 2.56781434zM61.8761092 5.56283752C61.8757892 4.61386357 61.8764136 3.96381986 61.8779747 3.61271419 61.8795201 3.26163196 61.8838754 3.00273208 61.8910327 2.83602234 61.9009842 2.61593359 61.9370675 2.45264699 61.9992745 2.34616252 62.0614738 2.23969368 62.1796672 2.16954289 62.353847 2.1356945 62.4272466 2.12142363 62.4894537 2.11273294 62.5404682 2.1096146 62.5914748 2.10651971 62.6387506 2.10527707 62.6822956 2.10589448 62.7062418 2.10434704 62.7292592 2.09255364 62.7513478 2.07050647 62.7734285 2.04847493 62.7852455 2.02549773 62.7868066 2.00158269 62.7874232 1.96465505 62.7712509 1.93796555 62.7382819 1.92149855 62.705313 1.90505501 62.6518165 1.89698173 62.5777924 1.89727871 62.3504283 1.89852136 62.0885421 1.9034763 61.7921336 1.91215918 61.4957173 1.92085769 61.3196721 1.92582046 61.2640058 1.92705528 61.2030397 1.92582046 61.0263779 1.92085769 60.7340047 1.91215918 60.4416315 1.9034763 60.17539 1.89850572 59.9352801 1.89725526 59.8612482 1.8969661 59.8077439 1.90504719 59.7747828 1.92149074 59.741806 1.93796555 59.7256337 1.96465505 59.7262581 2.00158269 59.7268825 2.02549773 59.7368341 2.04847493 59.7561206 2.07050647 59.7753994 2.09255364 59.8002822 2.10434704 59.8307613 2.10589448 59.8774205 2.1059023 59.9371377 2.10962242 60.0099208 2.11707047 60.0827038 2.12452634 60.1573445 2.13570232 60.2338584 2.15059061 60.373516 2.17823358 60.4749049 2.24590691 60.5380486 2.35361839 60.6011845 2.46133769 60.6391331 2.62214682 60.6518867 2.83602234 60.6661936 3.00273208 60.6748963 3.26163196 60.6780184 3.61271419 60.681117 3.96381986 60.6823658 4.61386357 60.6817492 5.56283752L60.6817492 7.79792502C60.6823658 8.41413598 60.677394 8.95862526 60.666818 9.43140849 60.656242 9.90419171 60.6363311 10.2736088 60.6071008 10.5396441 60.5890552 10.7268301 60.5579517 10.8776981 60.5137902 10.9922481 60.4696208 11.106798 60.3862696 11.1794419 60.2637209 11.2101719 60.2021304 11.2256933 60.1349515 11.2393545 60.0621763 11.2511479 59.9893854 11.2629413 59.9222065 11.2691546 59.8606238 11.269772 59.8236118 11.2713272 59.7968635 11.2831206 59.780379 11.30516 59.7638946 11.3272072 59.7558006 11.3501765 59.7561206 11.374076 59.7586027 11.4460946 59.8282793 11.4808652 59.9651348 11.4783799 60.1909379 11.4765199 60.4484767 11.4690718 60.7377356 11.456028 61.0269945 11.4429919 61.2024153 11.4355439 61.2640058 11.433676 61.3128348 11.4355439 61.5025625 11.4429919 61.8331965 11.456028 62.1638149 11.4690718 62.5215017 11.4765199 62.9062566 11.4783799 62.9802651 11.4777625 63.0337616 11.4678214 63.0667306 11.4485799 63.0996995 11.4293385 63.1158718 11.4045012 63.1152552 11.374076 63.1155596 11.3501765 63.1074734 11.3272072 63.0909968 11.30516 63.0745045 11.2831206 63.0477562 11.2713194 63.010752 11.269772 62.9457351 11.2691546 62.8555387 11.2629413 62.7401474 11.2511479 62.6247482 11.2393545 62.5158897 11.2256933 62.4135642 11.2101719 62.2266308 11.1794419 62.1040821 11.106798 62.0459259 10.9922481 61.9877619 10.8776981 61.9510621 10.7268301 61.9358264 10.5396441 61.907205 10.2736088 61.8897839 9.90419171 61.883571 9.43140849 61.8773424 8.95862526 61.8748604 8.41413598 61.8761092 7.79792502L61.8761092 5.56283752zM66.1325475 10.0777243C66.0128008 10.4018122 65.8715978 10.6662923 65.7089307 10.8711801 65.5462557 11.0760679 65.3192038 11.198996 65.0277672 11.239972 64.9714765 11.2477326 64.9049141 11.2545633 64.828088 11.2604639 64.7512619 11.2663567 64.6884304 11.2694594 64.6396014 11.269772 64.6084979 11.2703894 64.581133 11.2803305 64.5574912 11.299572 64.5338572 11.3188134 64.5214158 11.3436507 64.520167 11.374076 64.5226568 11.4460946 64.6072569 11.4808652 64.7739671 11.4783799 65.0560765 11.4765199 65.3279144 11.4690718 65.5894962 11.456028 65.8510703 11.4429919 66.0221358 11.4355439 66.1026928 11.433676 66.1975644 11.4355439 66.3736018 11.4429919 66.6308284 11.456028 66.8880472 11.4690718 67.1051475 11.4765199 67.2821293 11.4783799 67.3424632 11.4786926 67.389739 11.4706193 67.4239567 11.4541679 67.4581667 11.4377165 67.47558 11.4110192 67.4762044 11.374076 67.4771332 11.3436507 67.4678061 11.3188134 67.4482152 11.299572 67.4286164 11.2803305 67.3931576 11.2703894 67.3418387 11.269772L67.2224043 11.269772C67.1057641 11.2713194 67.0031264 11.2458726 66.9144832 11.193408 66.8258401 11.1409434 66.7791809 11.0521607 66.7745213 10.92706 66.7751379 10.8134401 66.792559 10.6830562 66.8267689 10.5359162 66.8609867 10.3887761 66.9082625 10.2360403 66.9686042 10.0777243L67.7150811 8.05124473C67.7449358 7.97922606 67.7897218 7.94445546 67.849439 7.94693294L70.8801328 7.94693294C70.915896 7.94631552 70.9413954 7.9512861 70.9566467 7.96183686 70.9718745 7.97238761 70.9861892 7.99226211 70.9995672 8.0214369L72.1789959 10.92706C72.2178656 11.0307388 72.21849 11.1102133 72.1808614 11.165468 72.1432171 11.2207227 72.1027864 11.2554933 72.0595615 11.269772 72.0296912 11.282808 72.0072982 11.293984 71.9923747 11.3032999 71.9774357 11.312608 71.969974 11.3312399 71.9699818 11.359172 71.9734004 11.3945679 72.018803 11.416912 72.1062129 11.4262279 72.1936072 11.4355439 72.3024656 11.4429919 72.4327961 11.4485799 72.9055541 11.4628586 73.3410036 11.4715493 73.7391288 11.474652 74.1372384 11.4777625 74.3935283 11.4789974 74.5079987 11.4783799 74.5857458 11.4786926 74.6541736 11.4706193 74.7132742 11.4541679 74.7723592 11.4377165 74.8034627 11.4110192 74.8065848 11.374076 74.8043994 11.3371405 74.7863538 11.3104432 74.7524639 11.293984 74.7185505 11.2775326 74.6818507 11.2694594 74.6423644 11.269772 74.573921 11.2703894 74.4943007 11.2654266 74.4034877 11.2548759 74.3126592 11.2443173 74.2181075 11.2244506 74.1198329 11.195268 73.9789265 11.1691959 73.8165637 11.0686121 73.6327524 10.8935321 73.4489254 10.7184521 73.2380458 10.3571083 73.0001214 9.80951627 72.7903189 9.30812878 72.5240773 8.66251638 72.2013889 7.87266344 71.8786849 7.08281832 71.5489953 6.273763 71.2123122 5.44548969 70.8756136 4.617232 70.5813828 3.89478666 70.3296042 3.27815366 70.0778178 2.66152849 69.9179526 2.275746 69.8499932 2.12079059 69.7865451 1.97769109 69.7342896 1.86532165 69.6932345 1.78366662 69.6521716 1.70202723 69.5999239 1.66043381 69.5364758 1.65887073 69.4944841 1.65329837 69.4515558 1.68309839 69.4077064 1.74827079 69.3638493 1.81347446 69.3022666 1.94757846 69.2229585 2.15059061L66.1325475 10.0777243zM68.0285985 7.42541304C67.9838047 7.42541304 67.9688734 7.39561302 67.9838125 7.33601298L69.2080272 3.86416602C69.2826679 3.67046198 69.3573164 3.67046198 69.4319648 3.86416602L70.7308358 7.33601298C70.7392263 7.365813 70.7410918 7.38816497 70.7364321 7.40306107 70.7317646 7.41796499 70.7149679 7.42541304 70.6860498 7.42541304L68.0285985 7.42541304zM79.9178277 11.6422918C80.2839128 11.6460197 80.6527921 11.6162119 81.0244734 11.5528839 81.3961548 11.4895559 81.7239789 11.370348 82.0079538 11.195268 82.4704559 10.8845288 82.7920594 10.5411994 82.9727799 10.1652643 83.153477 9.78933698 83.2399424 9.41247184 83.2321763 9.03467667 83.2424323 8.49950331 83.0838082 7.99039423 82.7562962 7.50736505 82.4287764 7.02433587 81.8707861 6.51523461 81.082333 5.98005344L80.7090906 5.72674154C80.0699189 5.30300761 79.6239013 4.93608362 79.3710378 4.62596177 79.1181665 4.31584774 78.9968666 3.96754779 79.0071304 3.58105411 79.0201884 3.13279553 79.1918783 2.79256886 79.5222002 2.56035847 79.8525064 2.32817153 80.2630652 2.21144892 80.7538844 2.21019846 81.3351887 2.22696244 81.7550825 2.3126502 82.0135579 2.46723048 82.2720177 2.6218342 82.4194492 2.74476222 82.4558446 2.83602234 82.4956509 2.91146414 82.535465 3.01390806 82.5752791 3.14334628 82.6150854 3.27280795 82.6399682 3.37897199 82.6499276 3.46185403 82.6558283 3.51431863 82.6664042 3.55466941 82.6816555 3.58291417 82.6968834 3.61117456 82.7261215 3.62545325 82.769362 3.62575805 82.8128991 3.62607066 82.8415128 3.60310128 82.8552031 3.55683426 82.8688855 3.5105907 82.8751062 3.43918944 82.8738652 3.34264613 82.8763472 2.91239417 82.8863066 2.58830625 82.9037277 2.37037455 82.921141 2.1524663 82.9310926 2.02953828 82.9335824 2.00158269 82.9345112 1.96527246 82.9251841 1.94106043 82.9055931 1.92894661 82.8859944 1.91684841 82.8505356 1.91126041 82.7992167 1.91218263 82.7500677 1.91343309 82.6915993 1.9109478 82.6237959 1.90473458 82.5559848 1.89853699 82.4601921 1.88114778 82.3364024 1.85258259 82.1752885 1.81378707 81.9749848 1.77963389 81.7354915 1.75013867 81.4959983 1.72065908 81.2434391 1.70513775 80.977822 1.70357467 80.0988448 1.70979571 79.3971616 1.92088896 78.8727647 2.33685441 78.3483677 2.7528355 78.0796363 3.33644072 78.0665705 4.08767008 78.0563067 4.5191725 78.1925379 4.94881486 78.4752639 5.37657372 78.7579899 5.80435602 79.2488013 6.2786945 79.9476902 6.79958917L80.5448702 7.24660511C81.1233803 7.65978829 81.5451395 8.02174951 81.81014 8.33248877 82.0751327 8.64323585 82.2057676 9.01636524 82.2020367 9.4519004 82.2011001 9.93926711 82.0350143 10.3391016 81.7037714 10.6513962 81.3725208 10.9636829 80.8817094 11.1251094 80.2313451 11.135668 79.7725738 11.141256 79.3427285 11.048128 78.9418169 10.856284 78.5408896 10.6644322 78.2790033 10.3403443 78.1561502 9.88401242 78.1346861 9.79305709 78.1216202 9.70675974 78.1169606 9.62511253 78.1122931 9.54347313 78.1104277 9.47579981 78.1113565 9.42209256 78.1088666 9.32027387 78.0690603 9.27060717 77.991922 9.27309246 77.9197634 9.27556993 77.884929 9.34511113 77.8874188 9.48170042 77.8777717 9.58972451 77.8634648 9.7610844 77.8444983 9.99576445 77.825524 10.2304523 77.814948 10.5061162 77.8127704 10.822756 77.8096561 10.9869649 77.8196155 11.0981073 77.8426329 11.1561521 77.8656425 11.2142047 77.9203878 11.2620113 78.0068533 11.299572 78.2833586 11.4246805 78.5925207 11.5134553 78.9343473 11.5659199 79.2761662 11.6183845 79.6039903 11.6438392 79.9178277 11.6422918L79.9178277 11.6422918zM93.2326992 11.6869879C93.639215 11.6888558 94.0354669 11.6404239 94.4214629 11.5417079 94.8074433 11.4429919 95.1626402 11.282808 95.4870535 11.061164 95.9906107 10.6768508 96.3308763 10.2497016 96.5078581 9.77971625 96.6848244 9.30972312 96.767559 8.91237388 96.756062 8.58766073 96.7753407 8.00685341 96.6322645 7.44746021 96.3268411 6.90948114 96.021402 6.37150988 95.4379045 5.76369263 94.5763562 5.08601375L94.1583356 4.75820571C93.4553958 4.21806178 92.9726784 3.76731791 92.7101677 3.40596629 92.447657 3.04463811 92.3232429 2.66095015 92.3369331 2.25489459 92.3490623 1.7069978 92.5263486 1.28295125 92.8687918.982754928 93.211235.68258205 93.6460601.53047143 94.1732591.526423066 94.8463286.549095466 95.3178456.660230081 95.5878258.859826913 95.8577982 1.05943938 96.0083362 1.21155 96.0394475 1.31615878 96.0857867 1.40774714 96.1274584 1.53005774 96.1644783 1.68309058 96.2014903 1.83613904 96.2245077 1.96216976 96.2335305 2.06119055 96.2394312 2.12142363 96.2500071 2.16861286 96.2652506 2.20275041 96.2804863 2.2369036 96.3097244 2.25428499 96.3529649 2.25489459 96.3899691 2.25552763 96.4167174 2.2282129 96.4332097 2.17295039 96.4496863 2.1176957 96.4577725 2.03077311 96.4574681 1.91218263 96.4599501 1.40774714 96.4699095 1.02715407 96.4873306.770419037 96.5047439.513707453 96.5146955.367810054 96.5171931.332719026 96.5184263.295791385 96.5084747.269086252 96.4873306.252627075 96.4661708.236183529 96.4263645.228118063 96.3678962.228415047 96.3115898.229048092 96.2450274.224077515 96.1682091.213511129 96.091383.20296819 95.9837656.18310151 95.8453646.153911088 95.6606011.108597551 95.4553256.0725921239 95.2295225.0458791762 95.0037039.0191974899 94.7461729.0055362165 94.4569217.00490317122 93.4986286.017024816 92.7465553.264740905 92.200702.748074883 91.6548409 1.23142449 91.3767823 1.87773246 91.3665186 2.68701442 91.348473 3.18401749 91.4741282 3.68753858 91.743484 4.19756206 92.0128398 4.70760117 92.5341225 5.28189828 93.3073477 5.9204534L93.9791762 6.47177331C94.6124316 6.98212504 95.0590736 7.43286891 95.3191022 7.82400492 95.5791153 8.21514875 95.7047704 8.65844457 95.6960677 9.15388456 95.6966843 9.65368553 95.5200147 10.1031789 95.1660666 10.5023882 94.8121108 10.9016053 94.2771378 11.1126908 93.5611478 11.135668 93.0454536 11.141256 92.5801573 11.025776 92.1652432 10.7892281 91.7503213 10.5526802 91.4791079 10.1615363 91.3515873 9.61580442 91.3301231 9.50994518 91.3170573 9.40875172 91.3123976 9.31220059 91.3077302 9.21566509 91.3058647 9.13309567 91.3068013 9.0644845 91.3080424 9.00549406 91.3018217 8.96328323 91.2881392 8.93782074 91.274449 8.91237388 91.2458353 8.89995525 91.2022904 8.90057267 91.1655905 8.90026787 91.1382179 8.91950932 91.1201802 8.95831265 91.1021346 8.99712379 91.0896932 9.05734125 91.0828559 9.13898846 91.0732166 9.26253389 91.0589019 9.46245115 91.0399276 9.73873243 91.0209611 10.0150215 91.0103851 10.3415947 91.0082074 10.7184521 91.0044766 10.9115387 91.0156692 11.0431574 91.0418008 11.113316 91.0679247 11.1834746 91.1313727 11.2405894 91.2321529 11.2846759 91.5394495 11.4318159 91.8616774 11.5361199 92.1988366 11.5975878 92.5359879 11.6590557 92.8806088 11.6888558 93.2326992 11.6869879L93.2326992 11.6869879zM100.552316 7.79792502C100.553869 8.41413598 100.550763 8.95862526 100.542989 9.43140849 100.535207 9.90419171 100.513439 10.2736088 100.477676 10.5396441 100.453097 10.7277602 100.420128 10.880496 100.378761 10.997836 100.337394 11.1151761 100.2559 11.1859521 100.134296 11.2101719 100.072705 11.2191752 100.005526 11.2309686 99.9327433 11.2455599 99.8599603 11.2601513 99.7927813 11.2682245 99.7311987 11.269772 99.6941788 11.2713272 99.6674306 11.2831206 99.6509539 11.30516 99.6344616 11.3272072 99.6263755 11.3501765 99.6266877 11.374076 99.6291775 11.4460946 99.6988463 11.4808652 99.8357018 11.4783799 99.9430071 11.4780751 100.064307 11.4749646 100.199609 11.4690718 100.334904 11.4631712 100.467404 11.4563406 100.597102 11.4485799 100.742981 11.4414445 100.86926 11.4370913 100.975941 11.4355439 101.082622 11.4339886 101.145453 11.4333634 101.164428 11.433676 101.26022 11.4330586 101.397076 11.4343012 101.574986 11.4374039 101.752897 11.4405144 101.979324 11.4491973 102.254284 11.4634838 102.523008 11.4718619 102.847718 11.4811778 103.22843 11.491416 103.609126 11.5016619 104.366132 11.5072499 104.858809 11.50818 105.105764 11.5150184 105.279936 11.5013493 105.38134 11.467204 105.482729 11.4330586 105.552398 11.3374453 105.590355 11.1803641 105.630473 11.0177027 105.669663 10.7917134 105.707924 10.5023882 105.746177 10.2130709 105.766704 10.0317777 105.769506 9.95852419 105.770443 9.91133496 105.764854 9.86786585 105.752733 9.82813249 105.740596 9.78839913 105.716338 9.76728981 105.67995 9.76480452 105.643555 9.76356969 105.615558 9.77722315 105.595974 9.80578052 105.576368 9.83434571 105.559571 9.88525506 105.545584 9.95851637 105.509485 10.2074829 105.443548 10.3987095 105.347755 10.5321883 105.251947 10.6656748 105.11883 10.7674935 104.948389 10.83766 104.764874 10.901918 104.225585 10.9410261 103.971176 10.955 103.716744 10.9689661 103.497778 10.974554 103.314271 10.971764 102.682561 10.9826273 102.262675 10.9199168 102.054597 10.7836401 101.846512 10.6473634 101.743874 10.3723248 101.746676 9.95852419 101.740143 9.78467901 101.738278 9.44692982 101.74108 8.9452766 101.743874 8.44362339 101.74574 8.06117026 101.746676 7.79792502L101.746676 6.73998131C101.74574 6.71670713 101.751336 6.69621522 101.763473 6.67852121 101.775602 6.66082721 101.799861 6.6515191 101.836256 6.65058125 101.99456 6.65027645 102.308702 6.6546218 102.778673 6.6636173 103.248645 6.67262842 103.596372 6.68814194 103.821879 6.71018129 104.069138 6.74123177 104.238963 6.79089847 104.331345 6.85918921 104.423719 6.92748776 104.477832 7.00695448 104.4937 7.09759719 104.522313 7.1792444 104.539727 7.25436577 104.545955 7.32296912 104.552168 7.39158029 104.554658 7.45552568 104.553425 7.51482092 104.553417 7.59180235 104.583271 7.63154353 104.642997 7.634021 104.687158 7.6306135 104.718262 7.60390837 104.736307 7.55392905 104.754337 7.50395755 104.763048 7.45118033 104.762439 7.39561302 104.763048 7.33818566 104.769268 7.22208828 104.781101 7.04730526 104.79291 6.87254568 104.806593 6.71546449 104.822148 6.57607729 104.839561 6.36902459 104.860713 6.20946592 104.885604 6.09739346 104.910479 5.98533663 104.924162 5.91145009 104.926659 5.87574946 104.924162 5.80373079 104.899279 5.76896801 104.852011 5.77144548 104.829922 5.77268813 104.803174 5.78883469 104.771766 5.81987735 104.740342 5.85092002 104.702402 5.88941073 104.657928 5.9353495 104.591982 5.99961532 104.507382 6.04245138 104.404128 6.06386551 104.300858 6.08528745 104.171472 6.10205142 104.015962 6.11415744 103.897901 6.12391103 103.676172 6.13090578 103.350768 6.13512609 103.025355 6.13936983 102.707412 6.14194109 102.396939 6.14285549 102.086458 6.14377771 101.894584 6.14414503 101.821325 6.14395746 101.785554 6.14396527 101.763777 6.13278929 101.756011 6.11042951 101.748229 6.08808535 101.745115 6.0545574 101.746676 6.00985346L101.746676 2.56781434C101.746052 2.52311822 101.751024 2.48959026 101.761608 2.46723048 101.772176 2.44488632 101.792087 2.43371815 101.821325 2.43370252 101.887583 2.43371815 102.05697 2.43537501 102.329479 2.4386731 102.601988 2.44198682 102.878642 2.4469574 103.159448 2.4535692 103.440246 2.46020446 103.626219 2.46848094 103.717368 2.47840646 104.064471 2.52063293 104.619932 2.57029963 104.743105 2.62741438 104.866271 2.68453695 104.94465 2.76401148 104.978243 2.86582236 105.007474 2.94405425 105.027385 3.02601407 105.037961 3.1116862 105.048529 3.19737396 105.053508 3.26442205 105.052892 3.31284611 105.050394 3.41963538 105.085236 3.47427266 105.157403 3.47675013 105.187562 3.47489007 105.213069 3.45999397 105.233917 3.43204619 105.254749 3.40411404 105.269048 3.37431402 105.276837 3.34264613 105.292065 3.25014336 105.30638 3.10734867 105.319758 2.91424641 105.333128 2.7211676 105.343704 2.58582877 105.351486 2.50820648 105.368891 2.33251688 105.390043 2.19964771 105.414934 2.1096146 105.439809 2.01960494 105.453491 1.95379168 105.455989 1.91218263 105.456293 1.88114778 105.451938 1.85383305 105.442923 1.83023062 105.4339 1.80665164 105.418345 1.79423301 105.396272 1.79297473 105.366409 1.79453781 105.336547 1.80261109 105.306692 1.81719458 105.27683 1.83179369 105.246967 1.84358709 105.21712 1.85258259 105.162367 1.8612811 105.081498 1.87369973 104.974513 1.88983066 104.867512 1.90598504 104.749318 1.91840367 104.61994 1.92708655 104.488884 1.93178359 103.860023 1.93398752 103.373996 1.93370617 102.887953 1.93344045 102.413525 1.93233848 101.950711 1.93039245 101.487896 1.92846987 101.225799 1.92737572 101.164428 1.92708655 101.105639 1.92585172 100.917153 1.92088896 100.598975 1.91218263 100.280783 1.90349975 99.9616692 1.89853699 99.6416189 1.89727871 99.5675949 1.89698173 99.5140984 1.90505501 99.4811294 1.92149855 99.4481604 1.93796555 99.4319803 1.96465505 99.4326048 2.00158269 99.434158 2.02549773 99.445975 2.04847493 99.4680636 2.07050647 99.4901443 2.09255364 99.5131617 2.10434704 99.5371157 2.10589448 99.6014926 2.10621491 99.6780065 2.1093098 99.7666575 2.11520259 99.8552928 2.12111102 99.9280758 2.12794165 99.9849988 2.1356945 100.194942 2.16394708 100.334904 2.23410569 100.404885 2.34616252 100.474866 2.45823498 100.514055 2.6215294 100.522462 2.83602234 100.536768 3.00273208 100.545471 3.26163196 100.548585 3.61271419 100.551692 3.96381986 100.552933 4.61386357 100.552316 5.56283752L100.552316 7.79792502zM128.791895 7.79792502C128.793449 8.41413598 128.790334 8.95862526 128.782568 9.43140849 128.774786 9.90419171 128.75301 10.2736088 128.717247 10.5396441 128.692676 10.7277602 128.659707 10.880496 128.61834 10.997836 128.576973 11.1151761 128.495479 11.1859521 128.373867 11.2101719 128.312284 11.2191752 128.245098 11.2309686 128.172322 11.2455599 128.099539 11.2601513 128.032353 11.2682245 127.97077 11.269772 127.933758 11.2713272 127.90701 11.2831206 127.890525 11.30516 127.874041 11.3272072 127.865955 11.3501765 127.866267 11.374076 127.868757 11.4460946 127.938425 11.4808652 128.075281 11.4783799 128.182586 11.4780751 128.303886 11.4749646 128.439188 11.4690718 128.574483 11.4631712 128.706983 11.4563406 128.836681 11.4485799 128.982552 11.4414445 129.108831 11.4370913 129.21552 11.4355439 129.322201 11.4339886 129.385024 11.4333634 129.404007 11.433676 129.499799 11.4330586 129.636655 11.4343012 129.814565 11.4374039 129.992468 11.4405144 130.218903 11.4491973 130.493856 11.4634838 130.762587 11.4718619 131.087297 11.4811778 131.468009 11.491416 131.848705 11.5016619 132.641303 11.5072499 133.13398 11.50818 133.380935 11.5150184 133.555114 11.5013493 133.656511 11.467204 133.7579 11.4330586 133.827577 11.3374453 133.865525 11.1803641 133.905636 11.0177027 133.944833 10.7917134 133.983094 10.5023882 134.021347 10.2130709 134.041875 10.0317777 134.044677 9.95852419 134.045613 9.91133496 134.040017 9.86786585 134.027904 9.82813249 134.015767 9.78839913 133.991508 9.76728981 133.955121 9.76480452 133.918725 9.76356969 133.890728 9.77722315 133.871145 9.80578052 133.851538 9.83434571 133.834742 9.88525506 133.820755 9.95851637 133.784656 10.2074829 133.718718 10.3987095 133.622918 10.5321883 133.527117 10.6656748 133.393993 10.7674935 133.223559 10.83766 133.040045 10.901918 132.465164 10.9410261 132.210747 10.955 131.956315 10.9689661 131.737357 10.974554 131.55385 10.971764 130.92214 10.9826273 130.502254 10.9199168 130.294176 10.7836401 130.086091 10.6473634 129.983453 10.3723248 129.986255 9.95852419 129.979722 9.78467901 129.977849 9.44692982 129.980659 8.9452766 129.983453 8.44362339 129.985319 8.06117026 129.986255 7.79792502L129.986255 6.73998131C129.985319 6.71670713 129.990915 6.69621522 130.003052 6.67852121 130.015181 6.66082721 130.03944 6.6515191 130.075835 6.65058125 130.234139 6.65027645 130.548281 6.6546218 131.018253 6.6636173 131.488216 6.67262842 131.835952 6.68814194 132.06145 6.71018129 132.308717 6.74123177 132.478542 6.79089847 132.570924 6.85918921 132.66329 6.92748776 132.717411 7.00695448 132.733279 7.09759719 132.761885 7.1792444 132.779306 7.25436577 132.785534 7.32296912 132.791747 7.39158029 132.794237 7.45552568 132.792996 7.51482092 132.792988 7.59180235 132.822851 7.63154353 132.882576 7.634021 132.926737 7.6306135 132.957841 7.60390837 132.975886 7.55392905 132.993916 7.50395755 133.002627 7.45118033 133.00201 7.39561302 133.002627 7.33818566 133.008847 7.22208828 133.020672 7.04730526 133.032489 6.87254568 133.046172 6.71546449 133.061727 6.57607729 133.079141 6.36902459 133.100292 6.20946592 133.125175 6.09739346 133.15005 5.98533663 133.163741 5.91145009 133.166238 5.87574946 133.163741 5.80373079 133.138858 5.76896801 133.09159 5.77144548 133.069501 5.77268813 133.042753 5.78883469 133.011337 5.81987735 132.979921 5.85092002 132.941973 5.88941073 132.897507 5.9353495 132.831561 5.99961532 132.746961 6.04245138 132.643707 6.06386551 132.540437 6.08528745 132.411043 6.10205142 132.255533 6.11415744 132.13748 6.12391103 131.915751 6.13090578 131.590347 6.13512609 131.264934 6.13936983 130.946992 6.14194109 130.636518 6.14285549 130.326037 6.14377771 130.134163 6.14414503 130.060904 6.14395746 130.025125 6.14396527 130.003356 6.13278929 129.995582 6.11042951 129.987809 6.08808535 129.984694 6.0545574 129.986255 6.00985346L129.986255 2.56781434C129.985631 2.52311822 129.990603 2.48959026 130.001179 2.46723048 130.011755 2.44488632 130.031658 2.43371815 130.060904 2.43370252 130.127162 2.43371815 130.296541 2.43537501 130.569058 2.4386731 130.84156 2.44198682 131.118221 2.4469574 131.399027 2.4535692 131.679825 2.46020446 131.865798 2.46848094 131.956947 2.47840646 132.30405 2.52063293 132.788328 2.57029963 132.911501 2.62741438 133.034667 2.68453695 133.113046 2.76401148 133.146647 2.86582236 133.175878 2.94405425 133.195781 3.02601407 133.206365 3.1116862 133.216925 3.19737396 133.221905 3.26442205 133.221288 3.31284611 133.218798 3.41963538 133.253633 3.47427266 133.325799 3.47675013 133.355958 3.47489007 133.381465 3.45999397 133.402313 3.43204619 133.423145 3.40411404 133.437452 3.37431402 133.445233 3.34264613 133.460469 3.25014336 133.474776 3.10734867 133.488154 2.91424641 133.501524 2.7211676 133.5121 2.58582877 133.519882 2.50820648 133.537287 2.33251688 133.558439 2.19964771 133.58333 2.1096146 133.608205 2.01960494 133.621887 1.95379168 133.624385 1.91218263 133.624689 1.88114778 133.620334 1.85383305 133.611327 1.83023062 133.602296 1.80665164 133.586741 1.79423301 133.564668 1.79297473 133.534805 1.79453781 133.504943 1.80261109 133.475096 1.81719458 133.445226 1.83179369 133.415363 1.84358709 133.385516 1.85258259 133.330763 1.8612811 133.249902 1.87369973 133.142909 1.88983066 133.035908 1.90598504 132.917722 1.91840367 132.788336 1.92708655 132.65728 1.93178359 132.099602 1.93398752 131.613567 1.93370617 131.127525 1.93344045 130.653104 1.93233848 130.19029 1.93039245 129.727476 1.92846987 129.465378 1.92737572 129.404007 1.92708655 129.345218 1.92585172 129.156732 1.92088896 128.838547 1.91218263 128.520362 1.90349975 128.201248 1.89853699 127.881198 1.89727871 127.807166 1.89698173 127.75367 1.90505501 127.720701 1.92149855 127.687732 1.93796555 127.671559 1.96465505 127.672184 2.00158269 127.673737 2.02549773 127.685554 2.04847493 127.707643 2.07050647 127.729723 2.09255364 127.752741 2.10434704 127.776687 2.10589448 127.841072 2.10621491 127.917586 2.1093098 128.006229 2.11520259 128.094872 2.12111102 128.167655 2.12794165 128.22457 2.1356945 128.434513 2.16394708 128.574483 2.23410569 128.644464 2.34616252 128.714445 2.45823498 128.753634 2.6215294 128.762033 2.83602234 128.77634 3.00273208 128.78505 3.26163196 128.788164 3.61271419 128.791271 3.96381986 128.79252 4.61386357 128.791895 5.56283752L128.791895 7.79792502zM140.334545 2.47840646L141.976788 2.50820648C142.588579 2.52622092 143.003493 2.59823959 143.221538 2.72427031 143.439567 2.85030884 143.552156 3.01173539 143.559321 3.20853431L143.574245 3.34264613C143.581394 3.43019395 143.593211 3.48979399 143.609704 3.52144625 143.62618 3.55312196 143.649198 3.56801806 143.678756 3.56615019 143.709844 3.56585321 143.737216 3.5515667 143.760866 3.52331413 143.784492 3.49506936 143.796941 3.45471859 143.79819 3.40224617 143.800048 3.30105271 143.807509 3.08995946 143.820583 2.76896643 143.833641 2.44799684 143.841103 2.17729574 143.842976 1.95688657 143.844209 1.91809105 143.841727 1.88394568 143.835514 1.85444265 143.829286 1.82496306 143.811865 1.80943391 143.783259 1.80787865 143.753701 1.80850388 143.70829 1.8147171 143.647028 1.82650269 143.58575 1.83831172 143.506746 1.85196517 143.410024 1.86747869 143.306442 1.88301565 143.177673 1.89666911 143.023724 1.9084547 142.869752 1.92026373 142.685004 1.92647695 142.469464 1.92708655L137.512873 1.92708655C137.427961 1.92740698 137.284268 1.92305381 137.081786 1.91404269 136.879305 1.90505501 136.679618 1.88953368 136.482741 1.86747869 136.307312 1.84172703 136.176685 1.81130178 136.090837 1.77621075 136.004995 1.74114317 135.941547 1.72190172 135.900484 1.71847077 135.877163 1.72376178 135.852896 1.75417922 135.827709 1.80973871 135.802514 1.86532165 135.781987 1.91436312 135.766119 1.95688657 135.747769 2.05126502 135.698628 2.27601954 135.618695 2.63114231 135.538755 2.9862729 135.493352 3.21848329 135.482464 3.32774221 135.484329 3.3646933 135.495522 3.39139062 135.516057 3.40782635 135.536585 3.42429334 135.555247 3.43236662 135.572036 3.43204619 135.601898 3.43360927 135.628022 3.42677863 135.650423 3.4115621 135.672816 3.39635338 135.691478 3.36345065 135.706402 3.31284611 135.725376 3.27094007 135.747152 3.22064814 135.771723 3.16197032 135.796294 3.10330812 135.844194 3.01949605 135.915416 2.91051848 136.004371 2.76431628 136.147447 2.66188018 136.344644 2.60319454 136.541834 2.54453234 136.841669 2.51287226 137.244141 2.50820648L139.140192 2.47840646 139.140192 7.79792502C139.141433 8.41413598 139.138936 8.95862526 139.132723 9.43140849 139.126502 9.90419171 139.109081 10.2736088 139.080467 10.5396441 139.061493 10.7274554 139.024793 10.8808086 138.97036 10.9996961 138.915927 11.1185914 138.823241 11.1937206 138.692302 11.2250759 138.631336 11.2405894 138.566646 11.2542506 138.498219 11.266044 138.429791 11.2778453 138.365094 11.2840507 138.304136 11.2846759 138.267124 11.2856059 138.240375 11.294914 138.223891 11.312608 138.207399 11.330302 138.199313 11.350794 138.199633 11.374076 138.199008 11.4110192 138.21518 11.4377165 138.248149 11.4541679 138.281118 11.4706193 138.334615 11.4786926 138.408639 11.4783799 138.631343 11.4765199 138.898834 11.4690718 139.21111 11.456028 139.523386 11.4429919 139.708759 11.4355439 139.767243 11.433676 139.822909 11.4355439 140.013886 11.4429919 140.340157 11.456028 140.666427 11.4690718 141.017893 11.4765199 141.394562 11.4783799 141.468571 11.4777625 141.522059 11.4678214 141.555036 11.4485799 141.587997 11.4293385 141.60417 11.4045012 141.603553 11.374076 141.604786 11.3501765 141.598566 11.3272072 141.584891 11.30516 141.571201 11.2831206 141.542587 11.2713194 141.49905 11.269772 141.433104 11.2691546 141.341035 11.2629413 141.222849 11.2511479 141.104656 11.2393545 140.997663 11.2256933 140.90187 11.2101719 140.707155 11.1794419 140.577769 11.106798 140.513704 10.9922481 140.449624 10.8776981 140.40981 10.7268301 140.394262 10.5396441 140.365648 10.2736088 140.348227 9.90419171 140.342014 9.43140849 140.335786 8.95862526 140.333296 8.41413598 140.334545 7.79792502L140.334545 2.47840646zM23.3362192 11.7311057C23.7294193 11.7323483 24.1201062 11.7111687 24.5082876 11.6675667 24.8964535 11.6239647 25.2167145 11.5504689 25.4690785 11.4470715 25.5652067 11.4072053 25.6311603 11.3636034 25.6669391 11.3162656 25.7027023 11.2689279 25.7351171 11.1879528 25.7641913 11.0733404 25.8287399 10.8213884 25.8907752 10.506843 25.9503051 10.1296887 26.0098272 9.75253438 26.0416878 9.52394251 26.045887 9.44389745 26.0447709 9.39718496 26.0336017 9.35606828 26.0123717 9.32056304 25.9911261 9.2850578 25.966532 9.26637905 25.9385974 9.26450336 25.9000243 9.26357333 25.873198 9.27664845 25.8581107 9.30374436 25.8430077 9.33084026 25.8295984 9.37756056 25.8178673 9.44389745 25.797168 9.57501598 25.74798 9.74630553 25.6702953 9.95777391 25.592595 10.1692423 25.4897465 10.3517469 25.3617654 10.5052799 25.1306393 10.7590998 24.8584424 10.9241683 24.5451748 11.0004698 24.2318916 11.0767713 23.8557379 11.1110261 23.4167059 11.103242 22.1362082 11.0636884 21.1122581 10.6008932 20.3448634 9.71484865 19.577453 8.8288119 19.1839719 7.7568396 19.1644122 6.49893955 19.1540703 5.854265 19.221702 5.25256718 19.3673071 4.69383829 19.5128966 4.13512503 19.7985105 3.63059576 20.2241333 3.18025048 20.4219861 2.9538391 20.7271597 2.75265574 21.1396542 2.57668479 21.5521331 2.40072946 22.1322979 2.3079219 22.8801407 2.29825428 23.4085963 2.3032483 23.8741815 2.37176569 24.2768961 2.50380643 24.6795873 2.6358628 24.9875552 2.80154872 25.200792 3.0008642 25.3564423 3.14070469 25.4777344 3.32445194 25.5646525 3.55210596 25.6515551 3.77977562 25.6957167 4.01958255 25.6971138 4.27152675 25.6960055 4.3612238 25.7015939 4.42849072 25.7139027 4.47332752 25.7261958 4.51817995 25.751906 4.54060226 25.791041 4.54059444 25.8251261 4.54153229 25.8541925 4.52097786 25.8782323 4.47893114 25.9022566 4.43689225 25.9179059 4.36774964 25.9251803 4.27151112 25.9313074 4.16501102 25.9357719 3.97816107 25.938574 3.71093781 25.9413604 3.44373799 25.9458328 3.19707698 25.9519832 2.97096258 25.9659544 2.74487163 25.9782476 2.58042835 25.9888782 2.47764837 25.9994854 2.3748762 26.0050739 2.30013778 26.0056436 2.25340966 26.007033 2.21510652 25.9975341 2.18334484 25.9771392 2.158109 25.9567288 2.13288879 25.9170474 2.11981366 25.8580872 2.118868 25.6652532 2.10984125 25.470741 2.08680153 25.2745741 2.04972539 25.078376 2.01268052 24.8704623 1.97093861 24.6508097 1.92453092 24.3562511 1.87252742 24.0566737 1.83453689 23.7520621 1.81054369 23.4474426 1.78657394 23.1746837 1.77474146 22.9337933 1.77503845 22.0361618 1.78408084 21.2995037 1.91550416 20.7238113 2.16931624 20.1481189 2.42315177 19.6864442 2.74517643 19.3387949 3.13539805 18.8256998 3.72371594 18.473586 4.33724623 18.28243 4.97600455 18.0912818 5.61477068 18.0007342 6.1572983 18.0107951 6.60357959 17.998502 7.22116606 18.0935141 7.86210487 18.295847 8.52640383 18.49818 9.19070279 18.8815925 9.80548354 19.4461157 10.3707383 19.9024752 10.8198331 20.445183 11.1586764 21.0742549 11.3872761 21.7033189 11.615868 22.4573122 11.7304804 23.3362192 11.7311057L23.3362192 11.7311057zM112.905999 11.7311057C113.299191 11.7323483 113.689878 11.7111687 114.07806 11.6675667 114.466225 11.6239647 114.786486 11.5504689 115.03885 11.4470715 115.134979 11.4072053 115.200924 11.3636034 115.236703 11.3162656 115.272466 11.2689279 115.304889 11.1879528 115.333963 11.0733404 115.398504 10.8213884 115.460547 10.506843 115.520085 10.1296887 115.579599 9.75253438 115.611452 9.52394251 115.615659 9.44389745 115.614543 9.39718496 115.603374 9.35606828 115.582144 9.32056304 115.560898 9.2850578 115.536304 9.26637905 115.508369 9.26450336 115.469788 9.26357333 115.442962 9.27664845 115.427883 9.30374436 115.412787 9.33084026 115.39937 9.37756056 115.387639 9.44389745 115.36694 9.57501598 115.317744 9.74630553 115.240059 9.95777391 115.162359 10.1692423 115.059518 10.3517469 114.931537 10.5052799 114.700411 10.7590998 114.428214 10.9241683 114.114947 11.0004698 113.801664 11.0767713 113.42551 11.1110261 112.986478 11.103242 111.70598 11.0636884 110.68203 10.6008932 109.914635 9.71484865 109.147225 8.8288119 108.753744 7.7568396 108.734184 6.49893955 108.723842 5.854265 108.791474 5.25256718 108.937071 4.69383829 109.082676 4.13512503 109.368282 3.63059576 109.793905 3.18025048 109.991766 2.9538391 110.296932 2.75265574 110.709426 2.57668479 111.121905 2.40072946 111.70207 2.3079219 112.449913 2.29825428 112.978368 2.3032483 113.443953 2.37176569 113.84666 2.50380643 114.249359 2.6358628 114.557327 2.80154872 114.770564 3.0008642 114.926214 3.14070469 115.047506 3.32445194 115.134424 3.55210596 115.221327 3.77977562 115.265481 4.01958255 115.266894 4.27152675 115.265777 4.3612238 115.271374 4.42849072 115.283675 4.47332752 115.295968 4.51817995 115.321678 4.54060226 115.360813 4.54059444 115.394898 4.54153229 115.423964 4.52097786 115.448004 4.47893114 115.472029 4.43689225 115.487678 4.36774964 115.494952 4.27151112 115.501079 4.16501102 115.505544 3.97816107 115.508346 3.71093781 115.511132 3.44373799 115.515605 3.19707698 115.521755 2.97096258 115.535719 2.74487163 115.548019 2.58042835 115.55865 2.47764837 115.569257 2.3748762 115.574846 2.30013778 115.575416 2.25340966 115.576805 2.21510652 115.567298 2.18334484 115.546911 2.158109 115.526501 2.13288879 115.486819 2.11981366 115.427859 2.118868 115.235025 2.10984125 115.040521 2.08680153 114.844338 2.04972539 114.648156 2.01268052 114.440234 1.97093861 114.220582 1.92453092 113.926023 1.87252742 113.626438 1.83453689 113.321834 1.81054369 113.017215 1.78657394 112.744463 1.77474146 112.503573 1.77503845 111.605934 1.78408084 110.869268 1.91550416 110.293583 2.16931624 109.717891 2.42315177 109.256216 2.74517643 108.908567 3.13539805 108.39548 3.72371594 108.043358 4.33724623 107.852202 4.97600455 107.661054 5.61477068 107.570506 6.1572983 107.580567 6.60357959 107.568266 7.22116606 107.663286 7.86210487 107.865619 8.52640383 108.067944 9.19070279 108.451372 9.80548354 109.01588 10.3707383 109.472239 10.8198331 110.014955 11.1586764 110.644027 11.3872761 111.273091 11.615868 112.027084 11.7304804 112.905999 11.7311057L112.905999 11.7311057zM74.1746094 3.85541281L74.1387213 3.80976321C74.5774099 3.50163428 74.8625633 3.19254406 74.994166 2.88250037 75.1257765 2.57246449 75.1915817 2.30902386 75.1915817 2.09218632 75.1915817 1.94382708 75.1457187 1.86964355 75.0539925 1.86964355 75.0380388 1.86964355 75.0021429 1.87725572 74.9463126 1.89246444 74.8904746 1.90768879 74.8406309 1.91529315 74.7967581 1.91529315 74.1757256 1.9301658 74.072198 1.15921044 74.3331399.89958372 74.4547754.774053186 74.6192846.711280103 74.8266675.711272288 75.0739269.711280103 75.2882954.81209061 75.4697495 1.01370381 75.6512115 1.21533264 75.7419386 1.4968424 75.7419386 1.85822529 75.7419386 2.26147513 75.6262819 2.62192017 75.3949762 2.93956041 75.1636627 3.25721628 74.7568738 3.56250041 74.1746094 3.85541281L74.1746094 3.85541281zM118.776176 7.92987979C118.777737 8.54609076 118.774623 9.09058003 118.766849 9.56336326 118.759075 10.0361465 118.737298 10.4055558 118.701535 10.6715911 118.676957 10.8587849 118.643988 11.0096529 118.60262 11.124195 118.561253 11.2387449 118.47976 11.3113888 118.358155 11.3421189 118.296565 11.3576402 118.229386 11.3713015 118.156611 11.3831027 118.08382 11.3948961 118.016641 11.4011093 117.955058 11.4017267 117.918046 11.4032742 117.89129 11.4150754 117.874813 11.4371148 117.858329 11.4591541 117.850235 11.4821313 117.850555 11.5060307 117.853037 11.5780494 117.922714 11.6128122 118.059569 11.6103347 118.289103 11.6084746 118.554104 11.6010188 118.854563 11.5879827 119.155022 11.5749467 119.322974 11.5674986 119.35844 11.5656308 119.406957 11.5674986 119.593578 11.5749467 119.918296 11.5879827 120.243006 11.6010188 120.593855 11.6084746 120.970828 11.6103347 121.044845 11.6097173 121.098333 11.5997761 121.13131 11.5805347 121.164271 11.5612854 121.180444 11.5364482 121.179827 11.5060307 121.181068 11.4821313 121.174847 11.4591541 121.161165 11.4371148 121.147475 11.4150754 121.118861 11.4032742 121.075324 11.4017267 121.009995 11.4011093 120.920423 11.3948961 120.806592 11.3831027 120.692747 11.3713015 120.588243 11.3576402 120.493067 11.3421189 120.297743 11.3113888 120.16586 11.2387449 120.09744 11.124195 120.029004 11.0096529 119.986708 10.8587849 119.970536 10.6715911 119.941922 10.4061732 119.924501 10.039257 119.918288 9.57081131 119.91206 9.10237343 119.909578 8.56036944 119.910819 7.94478371L119.910819 7.64676788C119.910819 7.57474921 119.940673 7.53998642 120.000398 7.5424639L121.136266 7.57226392C121.179187 7.5716465 121.21278 7.57661708 121.237039 7.58716783 121.261297 7.5977264 121.287421 7.61759308 121.315426 7.64676788 121.464091 7.83085901 121.666884 8.0959643 121.923799 8.44209158 122.180705 8.78821885 122.450678 9.13901191 122.733724 9.49444729 123.099489 9.97064583 123.420475 10.3630245 123.696676 10.6715911 123.972862 10.9801577 124.249055 11.2086323 124.525264 11.3570228 124.680766 11.4458055 124.862407 11.5103761 125.070188 11.5507347 125.277946 11.5910854 125.564098 11.6109521 125.928638 11.6103347L126.749755 11.6103347C126.867317 11.6106473 126.949427 11.602574 126.996094 11.5861227 127.042737 11.5696635 127.06513 11.542974 127.063273 11.5060307 127.062953 11.4821313 127.052377 11.4591541 127.031553 11.4371148 127.010697 11.4150754 126.981459 11.4032742 126.943838 11.4017267 126.907747 11.4026568 126.85301 11.4007967 126.779618 11.3961388 126.706203 11.3914808 126.606671 11.3784369 126.481024 11.3570228 126.320214 11.3455342 126.123017 11.2828315 125.889448 11.1688989 125.655855 11.0549742 125.365348 10.8246395 125.01794 10.477887 124.637533 10.0796078 124.218888 9.60216659 123.76199 9.04556348 123.305076 8.48896819 122.808052 7.87369507 122.270909 7.19975194 122.873678 6.68164736 123.831674 6.18682478 124.072416 5.71526857 124.313143 5.24374363 124.428846 4.77499314 124.419527 4.30903273 124.402098 3.86729999 124.291374 3.49912554 124.087348 3.20452503 123.883298 2.90993233 123.690463 2.70194178 123.50883 2.58056121 123.158597 2.34898387 122.76919 2.19749848 122.340594 2.12608941 121.911989 2.05470379 121.485258 2.02241066 121.060393 2.02923348 120.824006 2.03046831 120.516709 2.03543107 120.138503 2.04411395 119.760288 2.05281247 119.520171 2.05777523 119.418157 2.05901006 119.35812 2.05777523 119.164662 2.05281247 118.837766 2.04411395 118.510871 2.03542326 118.186778 2.0304605 117.865486 2.02921004 117.791454 2.02892087 117.737958 2.03700196 117.704989 2.05344551 117.67202 2.0699125 117.65584 2.096602 117.656464 2.13353746 117.658025 2.15745251 117.669842 2.18042189 117.691923 2.20245343 117.714004 2.22450841 117.737021 2.23630181 117.760975 2.23784144 117.825352 2.23816969 117.901866 2.24126457 117.990517 2.24714955 118.079152 2.25306579 118.151935 2.25989643 118.208858 2.26764928 118.418801 2.29590185 118.558763 2.36606046 118.628752 2.47811729 118.698733 2.59018975 118.737923 2.75347636 118.746321 2.96796929 118.760628 3.13468685 118.769331 3.39357892 118.772445 3.74466896 118.775551 4.09577463 118.7768 4.74581053 118.776176 5.6947923L118.776176 7.92987979zM119.910819 2.69976129C119.911443 2.66282584 119.921395 2.6324084 119.940681 2.60849336 119.95996 2.58460176 119.984843 2.5653525 120.01533 2.55075338 120.089034 2.53462245 120.214072 2.5184837 120.39043 2.50232932 120.566779 2.48619057 120.755266 2.47750769 120.955882 2.47624942 121.66441 2.48122781 122.218045 2.69852647 122.616795 3.12815319 123.015529 3.55779556 123.218314 4.16996597 123.225167 4.96465663 123.220187 5.45048371 123.14429 5.85714106 122.997491 6.1846443 122.850676 6.51215535 122.126584 6.75118074 121.897675 6.9017361 121.739043 7.00231997 121.574815 7.06564794 121.404998 7.09172003 121.121616 7.15964344 120.85226 7.11484572 120.578916 7.067508 120.302091 7.03057254 120.109257 6.98524337 120.000398 6.93154394 119.970536 6.90980939 119.948143 6.88622259 119.933219 6.8607601 119.91828 6.83530543 119.910819 6.80427058 119.910819 6.76763211L119.910819 2.69976129zM3.33743683 2.32391215C3.22643196 2.03858848 3.13437799 1.79127098 3.06128275 1.58193619 2.98817969 1.37263267 2.95027787 1.21941226 2.94756948 1.12227498 2.94546209 1.07041216 2.95689664 1.01853371 2.98186532.966647443 3.006834.914776807 3.05797336.870135391 3.13528339.832731012 3.20507706.804392467 3.29291625.785080678 3.39880874.774819092 3.50469344.764573137 3.59975239.759751051 3.68398559.76034502 3.78265052.762767786 3.83078489.728981925 3.8283809.658995252 3.8283809.589032026 3.69842512.55525398 3.43851355.557661115 3.15153372.559458651 2.87718262.566695687 2.61546806.579348778 2.3537457.592025314 2.18047132.59926235 2.09564493.601059886 1.99275741.59926235 1.77616444.592025314 1.44585821.579340962 1.11555197.566687872.769003218.559443021.406211941.557629854.289493696.556449732.198040728.562491016.131860843.57574589.0656809575.589032026.0319861157.616784418.0307841222.658995252.0301831255.688568627.0386048847.712694686.0560572049.73138906.07350172.750099065.103582776.759751051.146300374.76034502.19352935.759149268.268739796.761556403.371916102.767582056.475100214.77362334.582795703.790512363.695002571.818249124.939577014.877380243 1.13631368.979925763 1.28522037 1.12590131 1.43412706 1.2718925 1.58393916 1.54092893 1.73464884 1.93301842L5.27233405 10.8077114C5.40318743 11.1491417 5.50246116 11.3856114 5.57014744 11.5171129 5.63783372 11.6486144 5.71183437 11.7113484 5.79215719 11.7053228 5.85533209 11.7137634 5.92391596 11.6389624 5.99792441 11.4809199 6.07191726 11.3228696 6.20548682 11.0309107 6.39861751 10.6050354 6.56647511 10.2440042 6.80833336 9.68842487 7.12420787 8.93830529 7.44006677 8.18820134 7.81910057 7.28154764 8.26132488 6.218352 8.64095187 5.30114755 8.98268484 4.47533607 9.28652381 3.74089413 9.59034716 3.00646782 9.78769263 2.52449372 9.8785446 2.29495619 10.0704577 1.81570184 10.2280905 1.48211042 10.3514432 1.29420539 10.4747724 1.10630817 10.5818591.986256215 10.6727188.934072964 10.8153034.850839233 10.9524789.800172165 11.0842455.782056128 11.2159964.763971353 11.3098534.756734317 11.3658163.76034502 11.4813248.762767786 11.5390829.728981925 11.5390985.658995252 11.5366789.589032026 11.4548497.55525398 11.2936265.557661115 11.0689084.559458651 10.8396866.566695687 10.6059614.579348778 10.3722127.592025314 10.2260144.59926235 10.1673664.601059886 10.0686859.59926235 9.88337599.592025314 9.61143668.579340962 9.33948957.566687872 9.05310293.559443021 8.75228456.557629854 8.63795469.557051516 8.55612547.565499935 8.50679691.582990742 8.45745274.600497179 8.43338165.630656707 8.43459925.67347714 8.43578564.708779183 8.45143497.732303459 8.48152383.744057781 8.51159708.755827734 8.5488979.761259419 8.5934341.76034502 8.6749433.759149268 8.76458548.761556403 8.86236842.767582056 8.96012795.77362334 9.05338391.790512363 9.14212849.818249124 9.21311635.856567902 9.26245272.906633187 9.29013759.968452794 9.31779905 1.03029585 9.33103659 1.0912245 9.3298424 1.15123876 9.328937 1.2175991 9.31630046 1.29842569 9.29194058 1.39373418 9.26756509 1.48905047 9.23688304 1.59159599 9.19988662 1.70137855 9.07722865 2.09281936 8.82516907 2.79792239 8.44368445 3.81670326 8.06219203 4.83549194 7.65182054 5.90414271 7.21258561 7.02266338 6.77332725 8.14118405 6.40574361 9.04575887 6.10982688 9.73638L3.33743683 2.32391215z"/>
  </g>
</svg>
