<svg xmlns="http://www.w3.org/2000/svg" width="110" height="29" viewBox="0 0 110 29">
  <g fill="none" fill-rule="evenodd" transform="translate(.586 .835)">
    <path fill="#F9A1B6" d="M63.4886156,1.06396266 C63.4775,1.11643403 63.4685458,1.1634084 63.4620618,1.19963864 C63.4006175,1.54420064 63.3817828,1.91025091 63.4339641,2.25606223 C63.5769224,3.20479458 64.1796318,3.66504346 65.406973,3.5615999 C65.7756385,3.53061681 66.7781987,3.61357155 67.1403802,3.69402765 C67.3012468,3.73000802 67.4151811,3.83070307 67.4451313,3.96338068 C67.5247927,4.31418928 67.5124421,5.09401379 67.3812169,5.4295807 C67.0881989,6.17817225 66.7127405,6.58120235 66.0047422,7.09042451 C63.6028586,8.81848164 60.8338534,8.29001998 58.8475676,6.39855201 C57.3827861,5.00356314 56.1072775,2.96617478 54.0295973,2.13562794 C53.8248861,2.05367266 53.6106031,1.98895797 53.3907624,1.93873537 C52.3851145,1.70986025 51.2371259,1.78531908 50.2061593,1.84728527 C49.4333203,1.89375991 48.6512184,1.94373264 47.8765268,1.90200541 C45.9837968,1.79981117 43.9039553,1.18089886 42.0331476,1.50147395 C38.9217219,2.03518275 37.85957,3.39594029 38.5342217,5.85085084 C38.821682,6.89752975 39.1289033,8.06264404 38.498405,9.06909491 C38.44715,9.15055046 38.2794905,9.41465636 38.2850483,9.51085387 C38.3233352,9.53009338 38.4097894,9.54658438 38.443136,9.55158165 C38.5728174,9.57182061 38.6740923,9.63228762 38.7367716,9.72623636 C38.7994509,9.82043496 38.8056262,9.92212947 38.7549888,10.0208256 C38.5623194,10.3961209 38.9695805,11.0230288 39.3342321,11.2571511 C40.291095,11.8710661 41.6048905,12.0869483 42.793636,12.169903 C44.3133778,12.2760951 45.8970339,12.1936401 47.4180106,12.114933 C48.6045948,12.0529668 49.795193,11.9825053 50.9845561,11.9727606 C54.9355141,11.9400285 58.881223,12.1741507 62.8250794,11.8820601 C65.4665647,11.6864168 67.2919838,10.806397 68.1182392,8.73577677 C68.6721637,7.34778409 68.6144247,5.77239365 68.9475822,4.34092469 C68.9722834,4.23398304 69.0488571,4.15052857 69.1680405,4.09980625 C69.286915,4.04958365 69.4153613,4.04633542 69.5382498,4.09081115 C69.9115468,4.22573754 70.3178816,4.30669337 70.7285392,4.30044677 C72.5221555,4.27371136 73.5318174,2.69982011 74.0523953,1.39378271 C73.6868174,1.49297858 73.3095065,1.56993659 72.9525741,1.58892623 C72.4239682,1.61691096 71.9089481,1.49472763 71.4078224,1.37404348 C71.0447146,1.28634133 70.6284993,1.17939968 70.2474832,1.17815036 C69.6311881,1.17590159 69.0889966,1.42601512 68.6888371,1.7948139 C68.6005302,1.87626945 68.482582,1.91674737 68.3485779,1.91150023 C68.2148827,1.90600323 68.1024922,1.8560305 68.0243746,1.76807848 C67.5917947,1.27809583 67.0261371,0.816097903 66.2224216,0.84658127 C65.8966744,0.85882459 65.5666046,0.987754244 65.2615447,1.07445694 C64.9901402,1.15166481 64.7233671,1.20463591 64.4337455,1.20463591 C64.0956477,1.20463591 63.7674304,1.17115418 63.4886156,1.06396266"/>
    <path fill="#002B5E" d="M45.5767827 7.26248063C45.9309363 7.26248063 46.1572611 7.50434866 46.1572611 7.73647201 46.1572611 7.96884522 45.8701095 8.15724243 45.515956 8.15724243 45.1618024 8.15724243 44.8304975 7.98683541 44.9191131 7.78594502 45.0074199 7.58505463 45.2226292 7.26248063 45.5767827 7.26248063M44.2660132 6.36589482C45.3398981 5.13506639 46.5409943 6.2092303 47.2174986 7.03852782 47.2638134 7.09549674 47.2388034 7.16995611 47.1619209 7.20393757 47.0847296 7.23841876 46.984381 7.21992885 46.9377574 7.16295993 46.651841 6.81190147 45.9768805 6.04082219 45.3306352 6.05356524 44.9820394 6.06056142 44.7134138 6.29818177 44.5401966 6.49657352 44.4914117 6.55229312 44.3901368 6.56853426 44.3147981 6.53255389 44.2391506 6.49657352 44.2172283 6.42161442 44.2660132 6.36589482"/>
    <path fill="#002B5E" d="M11.716338,9.31833392 C12.2094358,9.61367277 12.4172347,9.96648027 12.2239478,10.4629594 C12.197394,10.5306724 12.1078521,10.568152 12.0241768,10.5469136 C11.9405015,10.5256752 11.8938779,10.4532147 11.920123,10.3855016 C11.9794059,10.2335845 11.9908302,10.104405 11.9602624,9.9897176 C8.65554976,10.5121825 4.6496316,10.9481946 1.42334527,9.8755299 C1.4177875,9.90251517 1.40821578,9.92975031 1.39432135,9.95673559 C1.20165194,10.331781 1.60891308,10.9589388 1.97356464,11.1928112 C2.93042763,11.8067262 4.24422305,12.0226084 5.43296861,12.105813 C6.9530191,12.2120051 8.53636644,12.1295501 10.0573432,12.0505931 C11.2442362,11.9888768 12.4348343,11.9184153 13.6241974,11.9084207 C17.5748466,11.8759384 21.5205556,12.1098108 25.464412,11.8177202 C28.106206,11.6220769 29.9316252,10.742307 30.7575718,8.67168674 C31.3114963,7.28344419 31.2537573,5.70830362 31.5869148,4.27658479 C31.611616,4.16989301 31.6881897,4.08618868 31.8073731,4.03571622 C31.9265564,3.98524375 32.0550026,3.98224539 32.1775824,4.02647126 C32.5508794,4.16164751 32.9572142,4.24260333 33.3681805,4.23635674 C35.1614881,4.20937147 36.1714587,2.63573008 36.6917279,1.32969268 C36.3264588,1.42863869 35.9488391,1.5055967 35.5922154,1.52458634 C35.0636096,1.55257107 34.5482807,1.43038773 34.0474637,1.30995345 C33.6840472,1.2222513 33.2678319,1.11505978 32.8868158,1.11381046 C32.2705207,1.11156169 31.7283292,1.36167523 31.3281696,1.73072386 C31.2398628,1.81217942 31.1219146,1.85265734 30.9882193,1.84716033 C30.8542152,1.84166333 30.7421335,1.79194046 30.664016,1.70373859 C30.2311273,1.2140058 29.6654697,0.752007872 28.8620629,0.782241376 C28.536007,0.794734559 28.2062459,0.923664212 27.9008772,1.01036691 C27.6297815,1.08757478 27.3626997,1.14054588 27.0730781,1.14054588 C26.7349803,1.14054588 26.4070718,1.10681428 26.1279482,0.999872632 C26.1168326,1.05209414 26.1078784,1.09931837 26.1013944,1.13529874 C26.0399501,1.47986074 26.0214242,1.84591102 26.0736055,2.1919722 C26.216255,3.14045469 26.8192732,3.60070357 28.0463056,3.49750987 C28.4152799,3.46652678 29.4178401,3.54948151 29.7797128,3.62993762 C29.9405794,3.66566812 30.0545137,3.76636318 30.0847727,3.89929065 C30.1644341,4.24984938 30.1520835,5.02992376 30.0208583,5.36549066 C29.7275315,6.11408222 29.3523819,6.51686245 28.6443836,7.02633448 C26.2421912,8.75414175 23.4734948,8.22568009 21.4869002,6.33421211 C20.0221187,4.93947311 18.7466101,2.90208475 16.6692387,2.07153791 C16.4642187,1.98933276 16.2502445,1.92461807 16.0304037,1.87439547 C15.0244471,1.64577022 13.8764585,1.72122905 12.8458007,1.78319524 C12.0726529,1.82966988 11.290551,1.87964261 10.5158594,1.83766552 C8.62312943,1.73572114 6.54359661,1.11655897 4.67248022,1.43738392 C1.5610545,1.97084285 0.498902618,3.33185026 1.17355432,5.78676081 C1.46132337,6.83318986 1.76823587,7.99855401 1.13773757,9.00500487 C1.0923491,9.07721547 0.954639877,9.29459687 0.92870361,9.40903443 L0.930864966,9.41003388 C4.15313735,10.7350609 8.38970302,10.2883047 11.8194655,9.74934875 C11.7456707,9.67089155 11.6471746,9.5976815 11.527065,9.52572076 C11.4563578,9.4834938 11.4412283,9.40228811 11.4934096,9.34531919 C11.5455909,9.28835028 11.6456308,9.27610696 11.716338,9.31833392 M31.0518249,0.989628221 C31.5662275,0.637570311 32.1988872,0.424186737 32.8908297,0.426685374 C33.3694156,0.42843442 33.8347246,0.541622662 34.2898443,0.651062949 C34.6739481,0.74376237 35.1324642,0.860448704 35.5366377,0.838960429 C36.0572156,0.811475425 36.6892577,0.608586125 37.1681524,0.444925422 C37.3200648,0.392703915 37.4843278,0.413442599 37.6096865,0.500145293 C37.7347363,0.58709785 37.785065,0.715277912 37.7452343,0.844707293 C37.2144671,2.56002138 35.9636598,4.8845031 33.3839276,4.92323197 C33.0291565,4.92872897 32.6765468,4.88600228 32.3378315,4.80529632 C32.0837178,6.16280563 32.0929808,7.56129259 31.5659188,8.88282154 C30.6334482,11.218797 28.5270528,12.2812173 25.541912,12.5020968 C21.5690317,12.7961863 17.6106634,12.5628137 13.6328429,12.5957957 C12.458918,12.6052905 11.2831406,12.6755022 10.1116859,12.7362191 C7.49829824,12.8721449 3.62175265,13.1272557 1.44619389,11.7315172 C0.886094029,11.3719634 0.437767132,10.6603517 0.506004215,10.0436881 C0.335874655,9.96523096 0.197547899,9.8500438 0.12529687,9.68588337 C-0.0235278992,9.34781783 0.193842718,8.99201196 0.380336827,8.69417447 C0.894739451,7.87312245 0.579799069,6.79146263 0.344520077,5.93567956 C-0.433876692,3.10347486 0.917279302,1.37891582 4.49648412,0.765250646 C6.56212251,0.410943963 8.53327879,1.04209959 10.5720546,1.15203961 C12.7102528,1.26747662 15.021977,0.646315539 17.0453145,1.4553741 C19.3459232,2.37537213 20.5383739,4.36978394 22.1337631,5.88920492 C23.8081961,7.48358499 26.0393326,7.98056383 28.0802698,6.51261477 C28.6730987,6.08609749 28.9654992,5.78626108 29.2112763,5.15785396 C29.2782783,4.98619761 29.2961866,4.54993565 29.277352,4.24984938 C28.9025112,4.20437419 28.3312958,4.16439601 28.1339949,4.18088701 C27.2277694,4.25734529 26.3459363,4.09693281 25.7765735,3.48126873 C25.4542227,3.13295878 25.2949,2.70269354 25.2306768,2.2751768 C25.1655274,1.84291265 25.1911549,1.38516241 25.2763741,0.955396898 C25.3177486,0.747510325 25.418406,0.300254357 25.5947109,0.139592018 C25.6910456,0.0513901423 25.8241233,0.0114119552 25.9689341,0.0271533664 C26.1128187,0.0426449139 26.2282968,0.109858241 26.2928287,0.215550573 C26.4333168,0.445924876 26.7961158,0.453420787 27.0730781,0.453420787 C27.2623511,0.453420787 27.4426699,0.412443145 27.6195923,0.361970683 C28.0321024,0.244784623 28.371744,0.113106469 28.8222322,0.0958658755 C29.7661271,0.0601353708 30.4833884,0.45092215 31.0518249,0.989628221" transform="translate(37.36 .064)"/>
    <path fill="#002B5E" d="M73.0075651,4.03197508 C73.0075651,3.97625548 73.0233121,3.93477811 72.881589,3.93477811 C72.4252342,3.93477811 72.4437601,3.95376775 71.9870965,3.96276284 C71.0277634,3.98125275 70.0523745,3.94727129 69.0918064,3.93477811 C68.9806509,3.93327893 68.9346449,3.96176338 68.9346449,4.04571758 L68.9346449,4.34980166 C68.9346449,4.4052714 68.9269258,4.44724849 69.0288183,4.47448363 C69.2909598,4.54494519 69.4570755,4.72259826 69.6580815,4.86127259 C69.9761096,5.08040303 70.2407212,5.48518218 70.2722153,5.55489414 C70.3981914,5.76053194 70.5081118,5.96841851 70.6183409,6.20403995 C70.8542374,6.66154033 71.1407714,7.18500472 71.4050744,7.68298301 C71.8018375,8.43057511 72.3112999,9.18141544 72.697565,9.91076749 C72.7361606,9.98347782 72.7590092,10.0077146 72.8550352,10.0077146 L73.6707925,10.0077146 C73.7359419,10.0077146 73.8054141,9.990474 73.8597567,9.88303262 L75.165833,7.29719351 C75.3702355,6.8811705 75.574638,6.46739626 75.8111521,6.05137325 C76.1257837,5.51316691 76.2585527,5.24331414 76.5188416,5.0139393 C76.8093896,4.7580789 76.9897084,4.55394028 77.3370691,4.47448363 C77.4145691,4.45699318 77.4315512,4.44674877 77.4315512,4.3915289 L77.4315512,4.07345244 C77.4315512,3.93477811 77.3843101,3.94752115 77.2901368,3.94852061 C76.3616802,3.96126366 75.4335324,3.9465217 74.5050758,3.93477811 C74.3466793,3.93302906 74.3003645,3.94802088 74.3003645,4.07345244 L74.3003645,4.36379403 C74.3003645,4.43400572 74.3161115,4.43300626 74.3636614,4.460991 C74.6467989,4.51621087 75.0299764,4.67462443 75.1973271,4.88925733 C75.2661817,4.97770906 75.2760622,5.0834014 75.2760622,5.1108864 C75.2760622,5.3467577 75.0870979,5.72105348 75.0870979,5.74653957 L73.731928,8.13623571 C73.5003542,7.68323288 71.977216,5.46044567 71.977216,5.0834014 C71.977216,4.46049127 73.0075651,4.62390211 73.0075651,4.37778639 L73.0075651,4.03197508 Z M82.1562745,9.54196871 C82.1562745,9.44502161 82.1389836,9.43027965 82.0201091,9.41728674 C81.7656866,9.38880228 81.1984852,9.31934018 80.9662938,9.14818357 C80.8418615,9.05598388 80.7835049,8.94004713 80.7625089,8.69068319 C80.7495408,8.53776663 80.743983,8.37160729 80.7458356,8.21919045 C80.7606563,6.74949234 80.7662141,5.46044567 80.8304372,3.7683689 C80.8471105,3.32785925 79.6524984,3.63294279 79.3245899,3.72064494 C78.7323785,3.87880865 78.3803863,3.90779283 77.7798382,3.95101925 C77.7044995,3.95626638 77.6779457,3.97925384 77.6779457,4.07570122 L77.6779457,4.33730848 C77.6779457,4.42101281 77.6779457,4.46199045 77.8477665,4.46199045 C79.028793,4.46199045 79.0485539,5.59562192 79.0485539,6.2779996 L79.0485539,8.42707702 C79.0485539,8.67694069 79.0108846,9.05973183 78.6236932,9.21764567 C78.4334939,9.29485355 77.5587624,9.38255569 77.5087425,9.38930201 C77.3543599,9.41029056 77.3559038,9.44502161 77.3559038,9.51423385 L77.3559038,9.91076749 C77.3898679,10.0077146 77.4241408,10.0092138 77.4917604,10.0077146 C78.0185136,9.99547127 78.6977968,9.98522686 79.2242413,9.97997973 C80.0733452,9.97148436 81.1197501,9.99547127 81.9861449,10.0077146 C82.1050195,10.0092138 82.1223103,9.99397209 82.1562745,9.91076749 L82.1562745,9.54196871 Z M78.9614822,2.18598229 C79.2683947,2.44758955 79.6589825,2.48182087 79.7982355,2.48182087 C80.4537438,2.48182087 80.9838935,2.04905699 80.9838935,1.51434874 C80.9838935,0.99063449 80.4676382,0.547126477 79.81213,0.547126477 C79.1708249,0.547126477 78.6267808,0.967896896 78.6267808,1.50310488 C78.6267808,1.62828657 78.6548785,1.93536902 78.9614822,2.18598229 L78.9614822,2.18598229 Z M91.8301932,5.97241633 C91.8301932,4.6054122 90.5302922,3.67117194 89.0605704,3.56348069 C87.5695439,3.45404041 86.3811071,4.53445091 85.8855391,4.82554209 C85.8324315,4.53445091 85.7416546,3.96376229 85.6666247,3.68741307 C85.6360569,3.57572401 85.5446625,3.55598478 85.2772719,3.60420847 C83.6917632,3.89130183 83.6377293,3.87206233 82.4993125,3.98699961 C82.3328881,4.00424021 82.3399897,4.04171976 82.3399897,4.12592381 L82.3399897,4.62515143 C83.5015639,4.73958899 84.0891439,4.86302164 84.0764845,6.08385553 L84.0764845,8.60772845 C84.0764845,8.99301823 83.2375698,9.42153443 82.7290337,9.42153443 C82.6055277,9.42153443 82.5697109,9.42153443 82.5342029,9.51873139 L82.5342029,9.88303262 C82.5342029,10.0082143 82.5873105,10.0077146 82.6759261,10.0077146 C83.2422013,10.0077146 84.0928491,9.99921923 84.6415246,9.99397209 C85.4909373,9.98572659 86.3224417,9.99397209 87.1718544,10.0077146 C87.2956692,10.0077146 87.3135776,10.0077146 87.3666852,9.92450999 L87.3666852,9.56045863 C87.3311772,9.47725402 87.3151214,9.44127366 87.1366552,9.42153443 C87.0665655,9.41378865 85.9423519,9.29960095 85.7969235,8.91256213 C85.7654295,8.82860794 85.7617243,8.66269846 85.7617243,8.66269846 L85.7617243,6.66628774 C85.7617243,5.9032041 85.929075,5.57138514 86.4582983,5.23781714 C86.8309778,5.00369489 87.7192949,4.60091465 88.4603311,4.60091465 C89.2010586,4.60091465 89.6793357,5.0689093 89.8858995,5.32127161 C90.1214873,5.60936442 90.1335291,5.93118883 90.1335291,6.2085375 L90.1335291,8.48279662 C90.1335291,9.13419121 88.9055704,9.36756387 88.3044048,9.42753115 C88.2154804,9.43627638 88.1629904,9.44152352 88.1629904,9.56595563 L88.1629904,9.88303262 C88.1629904,10.0222067 88.1808987,10.0077146 88.4282196,10.0077146 C89.0655107,10.0077146 89.6138775,9.99971896 90.1801526,9.99397209 C90.9233502,9.98597645 92.5023748,9.99522141 93.2807716,10.0077146 C93.3508612,10.0089639 93.4404031,10.0252051 93.4404031,9.91076749 L93.4404031,9.52447826 C93.4404031,9.46900852 93.4215684,9.4210347 93.2807716,9.41353879 C92.66108,9.38005706 92.030273,9.1177002 91.9185,8.89807004 C91.8187689,8.70192706 91.8301932,8.53751676 91.8301932,8.48229689 L91.8301932,5.97241633 Z M96.2680737,5.62635515 C96.3526754,5.41846858 96.3949762,5.36274898 96.4795778,5.25205937 C96.8399067,4.73908926 97.5383333,4.42026322 98.1737718,4.42026322 C98.5124871,4.42026322 98.7456047,4.50346782 98.8725072,4.55843783 C99.507637,4.822044 99.5715513,5.30752911 99.5715513,5.41846858 C99.5925473,5.48768081 99.5925473,5.55714291 99.6135434,5.62635515 L96.2680737,5.62635515 Z M101.442668,8.64845623 C101.400984,8.61197614 101.357449,8.606729 101.340466,8.606729 C101.327498,8.606729 99.6956749,9.30634727 99.2572285,9.38655351 C98.4291205,9.5379709 97.323124,9.23813449 96.750056,8.72216601 C96.0071672,8.05428043 96.0040796,7.32667742 96.0210617,6.52261613 L100.998664,6.52261613 C101.238883,6.52261613 101.378445,6.09409994 101.348494,5.83424172 C101.348494,4.8915061 100.434858,4.12042681 99.5168999,3.81734218 C98.9234534,3.62144907 98.4124472,3.62294825 98.1916802,3.62294825 C97.1215004,3.62294825 96.232257,4.04996526 95.7613902,4.34630357 C95.4168084,4.56293537 95.1352146,4.84703036 95.0478341,4.94247829 C94.6770073,5.34625798 94.0986903,6.01689207 94.0986903,7.18150663 C94.0986903,8.45731053 94.8594874,9.08047052 95.4217486,9.46700961 C96.3712013,10.1199034 97.5590205,10.34603 98.0175367,10.34603 C99.4109935,10.34603 100.290048,9.95699227 100.755665,9.64541227 C101.139152,9.38880228 101.460576,9.12769475 101.620825,8.96878146 C101.698634,8.89157358 101.685048,8.86034062 101.58717,8.77438752 L101.442668,8.64845623 Z M4.07298193,4.03197508 C4.07298193,3.97625548 4.08872895,3.93477811 3.94700578,3.93477811 C3.49095976,3.93477811 3.50948566,3.95376775 3.05282211,3.96276284 C2.093489,3.98125275 1.11779135,3.94727129 0.157531944,3.93477811 C0.0460677501,3.93327893 6.17530162e-05,3.96176338 6.17530162e-05,4.04571758 L6.17530162e-05,4.34980166 C6.17530162e-05,4.4052714 -0.00734860892,4.44724849 0.0945438678,4.47448363 C0.356685421,4.54494519 0.52249227,4.72259826 0.723807103,4.86127259 C1.04152637,5.08040303 1.30644681,5.48518218 1.33763208,5.55489414 C1.46360824,5.76053194 1.57352861,5.96841851 1.68375774,6.20403995 C1.91996303,6.66154033 2.20649702,7.18500472 2.47049116,7.68298301 C2.86694553,8.43057511 3.37671668,9.18141544 3.76329056,9.91076749 C3.80157743,9.98347782 3.82473481,10.0077146 3.92045198,10.0077146 L4.73651809,10.0077146 C4.80166753,10.0077146 4.8708309,9.990474 4.92517356,9.88303262 L6.23124985,7.29719351 C6.4359611,6.8811705 6.64036358,6.46739626 6.87687763,6.05137325 C7.19120049,5.51316691 7.32427824,5.24331414 7.5845672,5.0139393 C7.87511514,4.7580789 8.05512518,4.55394028 8.40279466,4.47448363 C8.4802947,4.45699318 8.49727678,4.44674877 8.49727678,4.3915289 L8.49727678,4.07345244 C8.49727678,3.93477811 8.45003572,3.94752115 8.35586237,3.94852061 C7.42740577,3.96126366 6.49925794,3.9465217 5.57049258,3.93477811 C5.41240486,3.93302906 5.36578133,3.94802088 5.36578133,4.07345244 L5.36578133,4.36379403 C5.36578133,4.43400572 5.38183711,4.43300626 5.42907817,4.460991 C5.71221575,4.51621087 6.09570198,4.67462443 6.26274389,4.88925733 C6.33190727,4.97770906 6.34147898,5.0834014 6.34147898,5.1108864 C6.34147898,5.3467577 6.15282352,5.72105348 6.15282352,5.74653957 L4.79734481,8.13623571 C4.565771,7.68323288 3.04294162,5.46044567 3.04294162,5.0834014 C3.04294162,4.46049127 4.07298193,4.62390211 4.07298193,4.37778639 L4.07298193,4.03197508 Z M13.2216913,9.54196871 C13.2216913,9.44502161 13.2047092,9.43027965 13.0858346,9.41728674 C12.8314122,9.38880228 12.2642108,9.31934018 12.0320194,9.14818357 C11.9075871,9.05598388 11.8489217,8.94004713 11.8279257,8.69068319 C11.8152663,8.53776663 11.8097086,8.37160729 11.8109436,8.21919045 C11.8263819,6.74949234 11.8319397,5.46044567 11.8961628,3.7683689 C11.9128361,3.32785925 10.7179152,3.63294279 10.3900067,3.72064494 C9.79810406,3.87880865 9.44611187,3.90779283 8.84525502,3.95101925 C8.77022511,3.95626638 8.74367131,3.97925384 8.74367131,4.07570122 L8.74367131,4.33730848 C8.74367131,4.42101281 8.74367131,4.46199045 8.91318334,4.46199045 C10.0945185,4.46199045 10.1139707,5.59562192 10.1139707,6.2779996 L10.1139707,8.42707702 C10.1139707,8.67694069 10.0766102,9.05973183 9.68941876,9.21764567 C9.49921947,9.29485355 8.62448799,9.38255569 8.57446805,9.38930201 C8.42008551,9.41029056 8.42132057,9.44502161 8.42132057,9.51423385 L8.42132057,9.91076749 C8.45559349,10.0077146 8.48955765,10.0092138 8.55748597,10.0077146 C9.08393043,9.99547127 9.76290484,9.98522686 10.2896581,9.97997973 C11.138762,9.97148436 12.1854757,9.99547127 13.0518705,10.0077146 C13.170745,10.0092138 13.1877271,9.99397209 13.2216913,9.91076749 L13.2216913,9.54196871 Z M10.0272078,2.18598229 C10.3341202,2.44758955 10.7247081,2.48182087 10.8639611,2.48182087 C11.5194694,2.48182087 12.0493103,2.04905699 12.0493103,1.51434874 C12.0493103,0.99063449 11.5333638,0.547126477 10.8778556,0.547126477 C10.2362417,0.547126477 9.69250641,0.967896896 9.69250641,1.50310488 C9.69250641,1.62828657 9.72060403,1.93536902 10.0272078,2.18598229 L10.0272078,2.18598229 Z M22.89561,5.97241633 C22.89561,4.6054122 21.595709,3.67117194 20.126296,3.56348069 C18.6352694,3.45404041 17.4465239,4.53445091 16.9509559,4.82554209 C16.8981571,4.53445091 16.8073802,3.96376229 16.7323502,3.68741307 C16.7017825,3.57572401 16.6100793,3.55598478 16.3426887,3.60420847 C14.7568713,3.89130183 14.7031461,3.87206233 13.5647293,3.98699961 C13.3986137,4.00424021 13.4054065,4.04171976 13.4054065,4.12592381 L13.4054065,4.62515143 C14.5672895,4.73958899 15.1545607,4.86302164 15.1419013,6.08385553 L15.1419013,8.60772845 C15.1419013,8.99301823 14.3029866,9.42153443 13.7947593,9.42153443 C13.6709445,9.42153443 13.6351277,9.42153443 13.5999285,9.51873139 L13.5999285,9.88303262 C13.5999285,10.0082143 13.6530361,10.0077146 13.7416517,10.0077146 C14.3079268,10.0077146 15.1585746,9.99921923 15.7069414,9.99397209 C16.5563542,9.98572659 17.3881673,9.99397209 18.23758,10.0077146 C18.3613948,10.0077146 18.3789944,10.0077146 18.432102,9.92450999 L18.432102,9.56045863 C18.396594,9.47725402 18.3805383,9.44127366 18.202072,9.42153443 C18.1322911,9.41378865 17.0077687,9.29960095 16.8626491,8.91256213 C16.8311551,8.82860794 16.8271411,8.66269846 16.8271411,8.66269846 L16.8271411,6.66628774 C16.8271411,5.9032041 16.9944918,5.57138514 17.5243327,5.23781714 C17.8963946,5.00369489 18.7850205,4.60091465 19.5260567,4.60091465 C20.2664754,4.60091465 20.7450612,5.0689093 20.9513163,5.32127161 C21.1865953,5.60936442 21.1992547,5.93118883 21.1992547,6.2085375 L21.1992547,8.48279662 C21.1992547,9.13419121 19.9709872,9.36756387 19.3701303,9.42753115 C19.2808972,9.43627638 19.2287159,9.44152352 19.2287159,9.56595563 L19.2287159,9.88303262 C19.2287159,10.0222067 19.2463155,10.0077146 19.4939451,10.0077146 C20.1309275,10.0077146 20.679603,9.99971896 21.2458782,9.99397209 C21.9890758,9.98597645 23.5677916,9.99522141 24.3464971,10.0077146 C24.4162781,10.0089639 24.5058199,10.0252051 24.5058199,9.91076749 L24.5058199,9.52447826 C24.5058199,9.46900852 24.487294,9.4210347 24.3464971,9.41353879 C23.7268056,9.38005706 23.0959986,9.1177002 22.9842256,8.89807004 C22.8844945,8.70192706 22.89561,8.53751676 22.89561,8.48229689 L22.89561,5.97241633 Z M27.3334905,5.62635515 C27.4184009,5.41846858 27.4607017,5.36274898 27.5449946,5.25205937 C27.9053235,4.73908926 28.6037501,4.42026322 29.2391886,4.42026322 C29.5779039,4.42026322 29.8110215,4.50346782 29.937924,4.55843783 C30.5733625,4.822044 30.6369681,5.30752911 30.6369681,5.41846858 C30.6579642,5.48768081 30.6579642,5.55714291 30.679269,5.62635515 L27.3334905,5.62635515 Z M32.5077758,8.64845623 C32.46671,8.61197614 32.4231741,8.606729 32.4058833,8.606729 C32.3929152,8.606729 30.7610917,9.30634727 30.3226453,9.38655351 C29.4945373,9.5379709 28.3885408,9.23813449 27.8154728,8.72216601 C27.0728928,8.05428043 27.0694964,7.32667742 27.0864785,6.52261613 L32.0643891,6.52261613 C32.3039908,6.52261613 32.4438614,6.09409994 32.4139112,5.83424172 C32.4139112,4.8915061 31.5005841,4.12042681 30.5826255,3.81734218 C29.9888702,3.62144907 29.4781728,3.62294825 29.2574058,3.62294825 C28.1869172,3.62294825 27.2976738,4.04996526 26.8271158,4.34630357 C26.4822252,4.56293537 26.2009402,4.84703036 26.1135597,4.94247829 C25.7424241,5.34625798 25.1641071,6.01689207 25.1641071,7.18150663 C25.1641071,8.45731053 25.925213,9.08047052 26.4871654,9.46700961 C27.4369268,10.1199034 28.6244373,10.34603 29.0832622,10.34603 C30.4761015,10.34603 31.3557732,9.95699227 31.821391,9.64541227 C32.2048772,9.38880228 32.5259929,9.12769475 32.6865507,8.96878146 C32.7643595,8.89157358 32.7507739,8.86034062 32.6525866,8.77438752 L32.5077758,8.64845623 Z M37.0611344,3.98125275 C37.0611344,3.85582119 36.9962937,3.85532146 36.9153973,3.85632092 C36.1536738,3.86906396 35.6809545,3.89180156 35.0973885,3.89804815 C34.4005057,3.90554406 33.5087922,3.88405578 32.8279651,3.87056314 C32.7143396,3.89804815 32.6982838,3.91204051 32.6658635,3.99499525 L32.6658635,4.36154526 C32.682228,4.40302262 32.6831543,4.44225122 32.7631245,4.45849236 C33.152786,4.5386986 33.4140013,4.72784539 33.5736328,4.85477614 C33.8666509,5.08764908 36.4275485,9.20315358 36.8064032,9.77784002 C36.61219,10.1521358 36.3787636,11.011417 36.0375782,11.385213 C35.8600382,11.5796069 35.6809545,11.7457663 35.2431256,11.9676452 C34.7892409,12.217259 34.3677766,12.5083502 34.3677766,13.0215702 C34.3677766,13.326154 34.5786632,13.5760177 34.8704462,13.6869571 C35.0161833,13.7424269 35.1298088,13.7424269 35.2107053,13.7424269 C35.3728069,13.7424269 35.5349086,13.714692 35.697319,13.6452299 C36.0860543,13.4925632 36.345417,13.1877295 36.6211442,12.6055472 C36.7180964,12.3556835 36.831722,12.1200621 36.928983,11.8844406 C37.0910846,11.5238873 37.2368217,11.1633341 37.3989234,10.8030307 C37.6261745,10.3175455 37.8528081,9.84630266 38.0797504,9.36081755 C38.5015235,8.50128653 38.9390436,7.62776314 39.3929283,6.75423975 C39.8140839,5.92219373 40.1429187,5.25980515 40.4788551,4.96546574 C40.8073811,4.67787266 41.1766642,4.50196864 41.2890547,4.47248472 C41.387242,4.44674877 41.4190448,4.44574931 41.4190448,4.36154526 L41.4190448,3.99499525 C41.4190448,3.95351788 41.4190448,3.91204051 41.3054192,3.88405578 C40.333118,3.89804815 39.3441434,3.89430019 38.3715334,3.87056314 C38.2257963,3.86681519 38.2094317,3.9107912 38.2094317,3.98125275 L38.2094317,4.36154526 C38.2094317,4.47523322 38.2745812,4.46823704 38.3554776,4.47248472 C38.5342526,4.48197954 39.2048904,4.59116997 39.2144621,5.04867035 C39.2206374,5.33976152 39.1134959,5.77702294 38.7445216,6.32422438 L37.60981,8.00680633 C37.2886943,7.47934412 35.476552,4.91149519 36.2185145,4.55568933 C36.3639429,4.4857275 36.5424091,4.48197954 36.8666124,4.47248472 C37.0123495,4.46823704 37.0290228,4.44474986 37.0611344,4.37553762 L37.0611344,3.98125275 Z M46.2209593,8.601232 C46.132035,8.65920037 45.9986484,8.74615293 45.7315666,8.86183981 C45.1087875,9.1514318 44.6193948,9.16592389 44.4856995,9.16592389 C43.7965359,9.16592389 43.1289858,8.89082399 43.1289858,8.39884243 C43.1289858,7.79067425 44.2633887,7.31293492 44.4856995,7.24072432 C44.663857,7.16826385 44.8420144,7.11004562 45.0417855,7.0668192 C45.4200227,6.95088246 45.820491,6.8639299 46.2209593,6.77697735 L46.2209593,8.601232 Z M47.8496951,5.66133606 C47.84846,4.93648156 47.5048045,4.48472804 47.2127127,4.23411478 C46.4682801,3.59496352 44.234056,3.49576764 43.2673125,3.79610377 C42.4654496,4.04496799 41.2550905,4.86826878 41.8896027,5.61810965 C42.1492742,5.92444251 42.5719736,5.91070001 42.6365055,5.91070001 C42.750131,5.91070001 43.0307985,5.92744087 43.3188763,5.64584452 C43.5013565,5.46744186 43.4439262,5.41996776 43.5671234,5.07390658 C43.6227011,4.91824151 43.6813665,4.83678595 43.7298426,4.76732385 C43.8110478,4.68336966 43.9083088,4.6136577 43.9410379,4.5999152 C44.071028,4.51621087 44.2982791,4.40477167 44.6391558,4.40477167 C45.1591162,4.40477167 45.6812379,4.56793265 45.8331504,4.80230477 C46.00575,5.06940903 46.26079,5.47393831 46.2283697,6.04562639 C45.708718,6.17105795 44.7398132,6.26625601 44.2167652,6.4114268 C43.5868844,6.5868311 43.1126212,6.73225175 42.4957086,7.06656934 C42.3005691,7.1782584 42.1384674,7.26171287 41.976057,7.40113679 C41.3264152,7.90286304 41.2939949,8.44656639 41.2939949,8.62746768 C41.2939949,9.05948197 41.4560966,9.31034509 41.6348716,9.50548862 C41.797282,9.68663978 41.9356087,9.75984983 42.0245331,9.81207134 C42.5534477,10.1226519 43.0554997,10.2053568 43.2827508,10.2053568 C44.4356796,10.2053568 45.5225327,9.86354326 46.3021645,9.40354424 C46.3997343,9.5289758 46.5346646,9.67814441 46.6594057,9.77983893 C47.2201231,10.2368396 48.5734404,10.252581 49.1526837,9.81182148 C49.2860703,9.71037683 49.348132,9.41978538 49.1205722,9.42853061 C48.6046257,9.53672158 48.0831215,9.13319175 47.9685697,9.05523429 C47.7601532,8.91356159 47.8555616,8.53002085 47.8549441,8.15372617 L47.8496951,5.66133606 Z M54.7271285,9.43002979 C54.7104552,9.328835 54.6934731,9.31434291 54.5742898,9.29985082 C53.8100962,9.2566244 53.5380742,9.24213231 53.283343,8.99901496 C53.0455939,8.7676412 52.9946476,8.40908684 52.9946476,7.90336277 C52.9946476,6.79571712 52.9498767,5.98016211 53.1786716,5.53215655 C53.2212812,5.44820235 54.1268892,4.56743292 54.6703157,4.56743292 C55.0948677,4.56743292 55.055037,5.02943084 55.0578159,5.17635068 C55.0652263,5.62685488 55.6108142,5.74578998 55.7296887,5.74578998 C56.4089719,5.74578998 56.7483047,5.18159782 56.7149581,4.71984976 C56.645486,3.7518779 55.3140909,3.35609385 54.5421782,3.60620738 C53.9292795,3.80459914 53.1857732,4.42201226 52.9616098,4.74883394 C52.8763906,4.45999154 52.8056834,4.19388673 52.5694781,3.80984627 C52.4401056,3.5992112 52.3752649,3.47078127 52.0260516,3.59321447 C51.472127,3.78710868 49.7557019,3.81234491 49.4988094,4.0524639 L49.5787796,4.55968715 C49.6297258,4.63164788 49.6636899,4.63164788 49.714945,4.64638984 C50.0715686,4.66113179 50.8277343,4.81404836 50.9527842,4.92298892 C51.426121,5.33601357 51.2587704,7.5812885 51.2587704,8.09126025 C51.2587704,8.55125926 51.2161608,8.86283926 51.0376946,9.02774928 C50.8255729,9.22389226 50.1030627,9.22838981 49.8514191,9.27086663 C49.7612597,9.28610832 49.7325446,9.31434291 49.7152537,9.38655351 L49.7152537,9.87778549 C49.7325446,9.97898027 49.7492179,9.99297264 49.8684012,9.99297264 C50.7690689,9.97898027 51.6691191,9.96448818 52.552496,9.97898027 C53.2323968,9.97898027 53.8950066,9.99297264 54.5742898,10.0077146 C54.7104552,9.99297264 54.7104552,9.96448818 54.7271285,9.89227758 L54.7271285,9.43002979 Z M61.4196116,4.55394028 C62.4922615,4.72109908 63.1310965,5.43296067 63.2725109,5.61011401 C63.5173616,5.91769619 63.5241544,6.12558276 63.5241544,6.86043181 C63.5241544,7.06831839 63.5016146,7.26271232 63.5016146,7.45660653 C63.4614751,8.33737596 63.1039252,9.35632001 61.293018,9.35632001 C61.1336952,9.35632001 60.7465038,9.35632001 60.382161,9.23138817 C59.2440529,8.8708349 58.970487,7.81690994 58.9476384,7.70622033 C58.8794013,7.49833376 58.8568615,7.27620496 58.8568615,7.06831839 C58.8568615,6.52761341 59.0393416,5.84848395 59.2212043,5.55714291 C59.31229,5.43221108 59.4435151,5.26205392 59.6534754,5.08565017 C60.286135,4.55493974 60.9962947,4.48772641 61.4196116,4.55394028 L61.4196116,4.55394028 Z M63.5235369,4.35255016 C63.0820028,4.14466359 61.8435461,3.74063404 60.8752588,3.74063404 C60.0258461,3.74063404 59.3972004,3.94852061 59.0405767,4.10118731 C58.1229269,4.50346782 56.98451,5.39073371 56.98451,7.05457588 C56.98451,8.6954306 58.3930963,10.1598816 60.4405176,10.3700169 C61.4279483,10.4714616 62.2316638,10.1039121 62.6250305,9.89977349 C62.7920724,9.8130708 63.3240747,9.57869867 63.4769134,9.46800907 C63.5278596,9.6066834 63.5676903,9.73011606 63.61277,9.87003971 C63.6526007,9.99347236 63.7020031,10.1376437 63.7653,10.258078 C63.8042044,10.3325374 63.8319932,10.3380344 63.9184474,10.3137976 C64.3667743,10.1878663 66.8396739,9.84705225 66.8396739,9.77359234 L66.8396739,9.28835709 C66.8396739,9.16367512 66.755381,9.19465821 66.6698531,9.20540235 C66.534614,9.22214322 66.3981398,9.23288736 66.2789565,9.23288736 C65.8204403,9.23288736 65.2239062,8.71841806 65.1565954,8.56600122 C65.0710675,8.37185715 65.071685,8.17771308 65.071685,7.98331914 L65.071685,4.69736203 C65.087432,3.2793857 65.0074619,1.6342833 65.0951512,0.237045663 C65.0982388,0.182075656 65.0778603,0.154090925 65.0778603,0.140098559 C65.0269141,0.112363692 64.8401112,0.0986211903 64.789165,0.0986211903 C64.6363262,0.0986211903 64.4837963,0.141597741 64.3303401,0.181825792 C63.8789255,0.300011308 62.2684068,0.507897881 61.7222014,0.593351256 C61.6539643,0.60384553 61.5693627,0.60384553 61.5693627,0.718033227 L61.5693627,1.1617911 C61.5693627,1.2594878 61.5863448,1.28647307 61.7055281,1.28647307 C62.2517335,1.28647307 63.2014949,1.19327393 63.4386265,1.77370723 C63.4827799,1.8818982 63.5040847,2.02307117 63.5065548,2.35613944 L63.5235369,4.35255016 Z M108.126197,5.63510038 C108.230559,5.62035842 108.230559,5.60561647 108.213268,5.51741459 C108.161087,4.88650882 108.126197,4.26959542 108.091306,3.63868966 C108.091306,3.60945561 108.091306,3.55048778 108.004234,3.55048778 C107.864981,3.55048778 107.826695,3.68741307 107.631555,3.76986809 C107.547571,3.80509886 107.457103,3.84307814 107.283268,3.84307814 C106.551804,3.84307814 106.186843,3.41706058 105.09258,3.62294825 C103.98751,3.83108468 103.377081,4.4629899 103.377081,5.22607355 C103.377081,7.14727531 106.322391,7.44086512 107.12271,8.29364982 C107.284812,8.46605575 107.296854,8.63096578 107.296854,8.71941751 C107.296854,9.08646724 106.809314,9.61892672 106.095449,9.61892672 C105.155568,9.61892672 104.566753,9.0957122 104.436454,8.89382236 C104.236065,8.58224236 104.035986,7.99831096 104.001404,7.91010909 C103.983804,7.86638295 103.966822,7.8371489 103.862151,7.82240694 L103.427101,7.82240694 C103.32243,7.8371489 103.252957,7.82240694 103.235358,7.96907691 C103.252957,8.6734426 103.235358,9.36356605 103.218067,10.0536895 C103.252957,10.1413917 103.287848,10.1413917 103.32243,10.1413917 C103.427101,10.1413917 103.514173,10.0974157 103.531155,10.0974157 C103.600936,10.0681816 103.687699,10.0389476 103.775079,10.0094636 C103.983804,9.95074568 103.983804,9.95074568 104.088476,9.95074568 C104.331783,9.95074568 104.436454,10.0242056 104.888795,10.1413917 C105.376335,10.2590774 105.724313,10.2735695 105.915747,10.2735695 C107.186316,10.2735695 108.021525,9.73061578 108.439284,9.17267021 C108.769972,8.73266029 108.787263,8.23318281 108.787263,8.18945667 C108.787263,6.25925982 106.275459,6.46314858 105.189532,5.58437805 C104.949622,5.39073371 104.911335,5.18784441 104.911335,5.08515044 C104.911335,4.76207672 105.206823,4.45399481 105.763835,4.45399481 C106.007759,4.45399481 106.672222,4.3385578 107.134134,4.90125078 C107.299015,5.10214117 107.464822,5.44420453 107.482113,5.48818054 C107.533985,5.62035842 107.569184,5.62035842 107.656256,5.63510038 L108.126197,5.63510038 Z" transform="translate(0 14.145)"/>
  </g>
</svg>
