<svg xmlns="http://www.w3.org/2000/svg" xmlns:xlink="http://www.w3.org/1999/xlink" width="60" height="60" viewBox="0 0 60 60">
  <defs>
    <polygon id="work-icon-blk-a" points=".041 .259 28.482 .259 28.482 28.531 .041 28.531"/>
  </defs>
  <g fill="none" fill-rule="evenodd">
    <path fill="#000" d="M53.8051976,50.7581071 L51.7249581,52.8256071 L44.4796886,50.5898929 L51.5079521,43.6031071 L53.8051976,50.7581071 Z M54.7705868,53.7656071 L53.275976,53.3041786 L54.2970539,52.2895357 L54.7705868,53.7656071 Z M15.1360958,18.5698929 L44.0611257,47.18025 L41.9029222,49.3256071 L12.9746587,20.7181071 L15.1360958,18.5698929 Z M9.54388024,17.2681071 C7.63465868,14.97275 7.7582515,11.5573929 9.91897006,9.40989286 C12.0793293,7.26203571 15.5151377,7.13917857 17.8242395,9.03703571 L19.4966946,10.6995357 L11.2163353,18.9306071 L9.54388024,17.2681071 Z M18.121006,15.6023929 L47.0316647,44.1984643 L45.0628024,46.1556071 L16.1521437,17.5595357 L18.121006,15.6023929 Z M50.2231617,41.0548929 L48.0624431,43.20275 L19.1370539,14.5923929 L21.2948982,12.4473929 L50.2231617,41.0548929 Z M52.8908263,40.1709643 L23.6873533,11.2898929 L22.1841198,9.79596429 L20.5116647,8.13310714 L20.1304671,7.75453571 L20.1218443,7.75310714 C20.0866347,7.71632143 20.0539401,7.67810714 20.0176527,7.64203571 C16.7428024,4.38703571 11.415018,4.38703571 8.14052695,7.64203571 C4.86603593,10.8970357 4.86603593,16.1931071 8.14052695,19.4484643 C8.17681437,19.4845357 8.21561677,19.5170357 8.25262275,19.5520357 L8.2537006,19.5606071 L8.63453892,19.9395357 L10.3073533,21.6020357 L11.8105868,23.0963214 L41.0137006,51.9773929 C41.1728623,52.13525 41.3654371,52.2370357 41.5677126,52.29275 C41.6248383,52.3198929 41.6834012,52.3448929 41.7451976,52.3638214 L56.3291497,56.8641786 C56.775018,57.0013214 57.2611257,56.8820357 57.5913054,56.5541786 C57.5923832,56.5531071 57.5934611,56.5516786 57.5945389,56.5506071 C57.9247186,56.2198929 58.0422036,55.7341786 57.8999281,55.2898929 L53.2766946,40.8884643 C53.2576527,40.8295357 53.2339401,40.7741786 53.206994,40.7195357 C53.1509461,40.5191786 53.0492695,40.3288214 52.8908263,40.1709643 L52.8908263,40.1709643 Z"/>
    <path fill="#000" d="M11.4194731,26.2681429 L3.036,17.9342143 L5.3857006,15.5981429 L8.43420359,18.6285 C8.71516168,18.9077857 9.17001198,18.9077857 9.45061078,18.6285 C9.73120958,18.3499286 9.73120958,17.8974286 9.45061078,17.6185 L6.40210778,14.5881429 L8.30737725,12.6938571 L11.3558802,15.7245714 L14.0235449,18.376 C14.3041437,18.6552857 14.758994,18.6552857 15.0395928,18.376 C15.3201916,18.0970714 15.3201916,17.6449286 15.0395928,17.366 L12.3719281,14.7142143 L9.32378443,11.6838571 L11.2290539,9.78992857 L14.2775569,12.8206429 C14.5581557,13.0992143 15.013006,13.0992143 15.2936048,12.8206429 C15.5742036,12.5413571 15.5742036,12.0892143 15.2936048,11.8102857 L12.2451018,8.77957143 L14.1507305,6.88564286 L17.1988743,9.91635714 L19.8665389,12.5677857 C20.1471377,12.8467143 20.6023473,12.8467143 20.8829461,12.5677857 C21.1635449,12.2888571 21.1635449,11.8367143 20.8829461,11.5577857 L18.2152814,8.906 L15.1667784,5.87528571 L17.0720479,3.98171429 L20.1205509,7.01207143 C20.401509,7.29064286 20.8563593,7.291 21.1369581,7.01207143 C21.4175569,6.73314286 21.4175569,6.28064286 21.1369581,6.00171429 L18.0884551,2.97135714 L19.1774371,1.88885714 L17.398994,0.121 L0.368335329,17.0502857 C-0.122802395,17.5385 -0.122802395,18.3299286 0.368335329,18.8181429 L10.5302515,28.9195714 C11.0213892,29.4077857 11.8175569,29.4077857 12.3086946,28.9195714 L29.3393533,11.9899286 L27.5609102,10.2224286 L11.4194731,26.2681429 Z" transform="translate(0 30.455)"/>
    <g transform="translate(31.257 .098)">
      <mask id="work-icon-blk-b" fill="#fff">
        <use xlink:href="#work-icon-blk-a"/>
      </mask>
      <path fill="#000" d="M28.1139521,10.7263214 L17.9520359,0.624892857 C17.4608982,0.136678571 16.6647305,0.136678571 16.1735928,0.624892857 L0.0411377246,16.6613214 L1.81922156,18.4291786 L3.34401198,16.9134643 L6.39251497,19.9441786 C6.67311377,20.22275 7.12832335,20.22275 7.40892216,19.9441786 C7.68952096,19.6648929 7.68952096,19.21275 7.40892216,18.9338214 L4.36041916,15.9034643 L6.26568862,14.0091786 L9.31419162,17.0398929 L11.9818563,19.6916786 C12.2624551,19.97025 12.7173054,19.97025 12.9979042,19.6916786 C13.278503,19.4123929 13.278503,18.96025 12.9979042,18.6813214 L10.3302395,16.0295357 L7.28173653,12.9991786 L9.18736527,11.10525 L12.2358683,14.1356071 C12.5164671,14.4145357 12.9716766,14.4145357 13.2519162,14.1356071 C13.532515,13.8566786 13.532515,13.4045357 13.2519162,13.1256071 L10.2034132,10.0948929 L12.1086826,8.20096429 L17.8248503,13.8831071 C18.1054491,14.1620357 18.5606587,14.1620357 18.8408982,13.8831071 C19.1218563,13.6041786 19.1218563,13.1520357 18.8408982,12.87275 L13.1250898,7.19096429 L17.0628144,3.27667857 L25.4462874,11.61025 L10.2030539,26.76275 L11.981497,28.5306071 L28.1139521,12.4941786 C28.6050898,12.0059643 28.6050898,11.2145357 28.1139521,10.7263214" mask="url(#work-icon-blk-b)"/>
    </g>
  </g>
</svg>
